%TF.GenerationSoftware,KiCad,Pcbnew,7.0.8-7.0.8~ubuntu22.04.1*%
%TF.CreationDate,2023-10-09T16:02:50+01:00*%
%TF.ProjectId,motor_driver_v2,6d6f746f-725f-4647-9269-7665725f7632,rev?*%
%TF.SameCoordinates,Original*%
%TF.FileFunction,Legend,Top*%
%TF.FilePolarity,Positive*%
%FSLAX46Y46*%
G04 Gerber Fmt 4.6, Leading zero omitted, Abs format (unit mm)*
G04 Created by KiCad (PCBNEW 7.0.8-7.0.8~ubuntu22.04.1) date 2023-10-09 16:02:50*
%MOMM*%
%LPD*%
G01*
G04 APERTURE LIST*
%ADD10C,0.100000*%
%ADD11C,0.120000*%
%ADD12C,0.150000*%
G04 APERTURE END LIST*
D10*
X166028895Y-127690093D02*
X165228895Y-127690093D01*
X165228895Y-127690093D02*
X165800323Y-127423427D01*
X165800323Y-127423427D02*
X165228895Y-127156760D01*
X165228895Y-127156760D02*
X166028895Y-127156760D01*
X166028895Y-126432950D02*
X165609847Y-126432950D01*
X165609847Y-126432950D02*
X165533657Y-126471045D01*
X165533657Y-126471045D02*
X165495561Y-126547236D01*
X165495561Y-126547236D02*
X165495561Y-126699617D01*
X165495561Y-126699617D02*
X165533657Y-126775807D01*
X165990800Y-126432950D02*
X166028895Y-126509141D01*
X166028895Y-126509141D02*
X166028895Y-126699617D01*
X166028895Y-126699617D02*
X165990800Y-126775807D01*
X165990800Y-126775807D02*
X165914609Y-126813903D01*
X165914609Y-126813903D02*
X165838419Y-126813903D01*
X165838419Y-126813903D02*
X165762228Y-126775807D01*
X165762228Y-126775807D02*
X165724133Y-126699617D01*
X165724133Y-126699617D02*
X165724133Y-126509141D01*
X165724133Y-126509141D02*
X165686038Y-126432950D01*
X165495561Y-126051997D02*
X166028895Y-126051997D01*
X165571752Y-126051997D02*
X165533657Y-126013902D01*
X165533657Y-126013902D02*
X165495561Y-125937712D01*
X165495561Y-125937712D02*
X165495561Y-125823426D01*
X165495561Y-125823426D02*
X165533657Y-125747235D01*
X165533657Y-125747235D02*
X165609847Y-125709140D01*
X165609847Y-125709140D02*
X166028895Y-125709140D01*
X165990800Y-124985330D02*
X166028895Y-125061521D01*
X166028895Y-125061521D02*
X166028895Y-125213902D01*
X166028895Y-125213902D02*
X165990800Y-125290092D01*
X165990800Y-125290092D02*
X165952704Y-125328187D01*
X165952704Y-125328187D02*
X165876514Y-125366283D01*
X165876514Y-125366283D02*
X165647942Y-125366283D01*
X165647942Y-125366283D02*
X165571752Y-125328187D01*
X165571752Y-125328187D02*
X165533657Y-125290092D01*
X165533657Y-125290092D02*
X165495561Y-125213902D01*
X165495561Y-125213902D02*
X165495561Y-125061521D01*
X165495561Y-125061521D02*
X165533657Y-124985330D01*
X166028895Y-124642473D02*
X165228895Y-124642473D01*
X166028895Y-124299616D02*
X165609847Y-124299616D01*
X165609847Y-124299616D02*
X165533657Y-124337711D01*
X165533657Y-124337711D02*
X165495561Y-124413902D01*
X165495561Y-124413902D02*
X165495561Y-124528188D01*
X165495561Y-124528188D02*
X165533657Y-124604378D01*
X165533657Y-124604378D02*
X165571752Y-124642473D01*
X165990800Y-123613901D02*
X166028895Y-123690092D01*
X166028895Y-123690092D02*
X166028895Y-123842473D01*
X166028895Y-123842473D02*
X165990800Y-123918663D01*
X165990800Y-123918663D02*
X165914609Y-123956759D01*
X165914609Y-123956759D02*
X165609847Y-123956759D01*
X165609847Y-123956759D02*
X165533657Y-123918663D01*
X165533657Y-123918663D02*
X165495561Y-123842473D01*
X165495561Y-123842473D02*
X165495561Y-123690092D01*
X165495561Y-123690092D02*
X165533657Y-123613901D01*
X165533657Y-123613901D02*
X165609847Y-123575806D01*
X165609847Y-123575806D02*
X165686038Y-123575806D01*
X165686038Y-123575806D02*
X165762228Y-123956759D01*
X165990800Y-123271045D02*
X166028895Y-123194854D01*
X166028895Y-123194854D02*
X166028895Y-123042473D01*
X166028895Y-123042473D02*
X165990800Y-122966283D01*
X165990800Y-122966283D02*
X165914609Y-122928187D01*
X165914609Y-122928187D02*
X165876514Y-122928187D01*
X165876514Y-122928187D02*
X165800323Y-122966283D01*
X165800323Y-122966283D02*
X165762228Y-123042473D01*
X165762228Y-123042473D02*
X165762228Y-123156759D01*
X165762228Y-123156759D02*
X165724133Y-123232949D01*
X165724133Y-123232949D02*
X165647942Y-123271045D01*
X165647942Y-123271045D02*
X165609847Y-123271045D01*
X165609847Y-123271045D02*
X165533657Y-123232949D01*
X165533657Y-123232949D02*
X165495561Y-123156759D01*
X165495561Y-123156759D02*
X165495561Y-123042473D01*
X165495561Y-123042473D02*
X165533657Y-122966283D01*
X165495561Y-122699616D02*
X165495561Y-122394854D01*
X165228895Y-122585330D02*
X165914609Y-122585330D01*
X165914609Y-122585330D02*
X165990800Y-122547235D01*
X165990800Y-122547235D02*
X166028895Y-122471045D01*
X166028895Y-122471045D02*
X166028895Y-122394854D01*
X165990800Y-121823425D02*
X166028895Y-121899616D01*
X166028895Y-121899616D02*
X166028895Y-122051997D01*
X166028895Y-122051997D02*
X165990800Y-122128187D01*
X165990800Y-122128187D02*
X165914609Y-122166283D01*
X165914609Y-122166283D02*
X165609847Y-122166283D01*
X165609847Y-122166283D02*
X165533657Y-122128187D01*
X165533657Y-122128187D02*
X165495561Y-122051997D01*
X165495561Y-122051997D02*
X165495561Y-121899616D01*
X165495561Y-121899616D02*
X165533657Y-121823425D01*
X165533657Y-121823425D02*
X165609847Y-121785330D01*
X165609847Y-121785330D02*
X165686038Y-121785330D01*
X165686038Y-121785330D02*
X165762228Y-122166283D01*
X166028895Y-121442473D02*
X165495561Y-121442473D01*
X165647942Y-121442473D02*
X165571752Y-121404378D01*
X165571752Y-121404378D02*
X165533657Y-121366283D01*
X165533657Y-121366283D02*
X165495561Y-121290092D01*
X165495561Y-121290092D02*
X165495561Y-121213902D01*
X166593085Y-127728189D02*
X166554990Y-127690093D01*
X166554990Y-127690093D02*
X166516895Y-127613903D01*
X166516895Y-127613903D02*
X166516895Y-127423427D01*
X166516895Y-127423427D02*
X166554990Y-127347236D01*
X166554990Y-127347236D02*
X166593085Y-127309141D01*
X166593085Y-127309141D02*
X166669276Y-127271046D01*
X166669276Y-127271046D02*
X166745466Y-127271046D01*
X166745466Y-127271046D02*
X166859752Y-127309141D01*
X166859752Y-127309141D02*
X167316895Y-127766284D01*
X167316895Y-127766284D02*
X167316895Y-127271046D01*
X166516895Y-126775807D02*
X166516895Y-126699617D01*
X166516895Y-126699617D02*
X166554990Y-126623426D01*
X166554990Y-126623426D02*
X166593085Y-126585331D01*
X166593085Y-126585331D02*
X166669276Y-126547236D01*
X166669276Y-126547236D02*
X166821657Y-126509141D01*
X166821657Y-126509141D02*
X167012133Y-126509141D01*
X167012133Y-126509141D02*
X167164514Y-126547236D01*
X167164514Y-126547236D02*
X167240704Y-126585331D01*
X167240704Y-126585331D02*
X167278800Y-126623426D01*
X167278800Y-126623426D02*
X167316895Y-126699617D01*
X167316895Y-126699617D02*
X167316895Y-126775807D01*
X167316895Y-126775807D02*
X167278800Y-126851998D01*
X167278800Y-126851998D02*
X167240704Y-126890093D01*
X167240704Y-126890093D02*
X167164514Y-126928188D01*
X167164514Y-126928188D02*
X167012133Y-126966284D01*
X167012133Y-126966284D02*
X166821657Y-126966284D01*
X166821657Y-126966284D02*
X166669276Y-126928188D01*
X166669276Y-126928188D02*
X166593085Y-126890093D01*
X166593085Y-126890093D02*
X166554990Y-126851998D01*
X166554990Y-126851998D02*
X166516895Y-126775807D01*
X166593085Y-126204379D02*
X166554990Y-126166283D01*
X166554990Y-126166283D02*
X166516895Y-126090093D01*
X166516895Y-126090093D02*
X166516895Y-125899617D01*
X166516895Y-125899617D02*
X166554990Y-125823426D01*
X166554990Y-125823426D02*
X166593085Y-125785331D01*
X166593085Y-125785331D02*
X166669276Y-125747236D01*
X166669276Y-125747236D02*
X166745466Y-125747236D01*
X166745466Y-125747236D02*
X166859752Y-125785331D01*
X166859752Y-125785331D02*
X167316895Y-126242474D01*
X167316895Y-126242474D02*
X167316895Y-125747236D01*
X166516895Y-125480569D02*
X166516895Y-124985331D01*
X166516895Y-124985331D02*
X166821657Y-125251997D01*
X166821657Y-125251997D02*
X166821657Y-125137712D01*
X166821657Y-125137712D02*
X166859752Y-125061521D01*
X166859752Y-125061521D02*
X166897847Y-125023426D01*
X166897847Y-125023426D02*
X166974038Y-124985331D01*
X166974038Y-124985331D02*
X167164514Y-124985331D01*
X167164514Y-124985331D02*
X167240704Y-125023426D01*
X167240704Y-125023426D02*
X167278800Y-125061521D01*
X167278800Y-125061521D02*
X167316895Y-125137712D01*
X167316895Y-125137712D02*
X167316895Y-125366283D01*
X167316895Y-125366283D02*
X167278800Y-125442474D01*
X167278800Y-125442474D02*
X167240704Y-125480569D01*
X174696895Y-139243734D02*
X173896895Y-139243734D01*
X173896895Y-139243734D02*
X174468323Y-138977068D01*
X174468323Y-138977068D02*
X173896895Y-138710401D01*
X173896895Y-138710401D02*
X174696895Y-138710401D01*
X174696895Y-138329448D02*
X174163561Y-138329448D01*
X173896895Y-138329448D02*
X173934990Y-138367544D01*
X173934990Y-138367544D02*
X173973085Y-138329448D01*
X173973085Y-138329448D02*
X173934990Y-138291353D01*
X173934990Y-138291353D02*
X173896895Y-138329448D01*
X173896895Y-138329448D02*
X173973085Y-138329448D01*
X174163561Y-137948496D02*
X174696895Y-137948496D01*
X174239752Y-137948496D02*
X174201657Y-137910401D01*
X174201657Y-137910401D02*
X174163561Y-137834211D01*
X174163561Y-137834211D02*
X174163561Y-137719925D01*
X174163561Y-137719925D02*
X174201657Y-137643734D01*
X174201657Y-137643734D02*
X174277847Y-137605639D01*
X174277847Y-137605639D02*
X174696895Y-137605639D01*
X174696895Y-137224686D02*
X174163561Y-137224686D01*
X173896895Y-137224686D02*
X173934990Y-137262782D01*
X173934990Y-137262782D02*
X173973085Y-137224686D01*
X173973085Y-137224686D02*
X173934990Y-137186591D01*
X173934990Y-137186591D02*
X173896895Y-137224686D01*
X173896895Y-137224686D02*
X173973085Y-137224686D01*
X174696895Y-136234210D02*
X173896895Y-136234210D01*
X173896895Y-136234210D02*
X174468323Y-135967544D01*
X174468323Y-135967544D02*
X173896895Y-135700877D01*
X173896895Y-135700877D02*
X174696895Y-135700877D01*
X174696895Y-135205639D02*
X174658800Y-135281829D01*
X174658800Y-135281829D02*
X174620704Y-135319924D01*
X174620704Y-135319924D02*
X174544514Y-135358020D01*
X174544514Y-135358020D02*
X174315942Y-135358020D01*
X174315942Y-135358020D02*
X174239752Y-135319924D01*
X174239752Y-135319924D02*
X174201657Y-135281829D01*
X174201657Y-135281829D02*
X174163561Y-135205639D01*
X174163561Y-135205639D02*
X174163561Y-135091353D01*
X174163561Y-135091353D02*
X174201657Y-135015162D01*
X174201657Y-135015162D02*
X174239752Y-134977067D01*
X174239752Y-134977067D02*
X174315942Y-134938972D01*
X174315942Y-134938972D02*
X174544514Y-134938972D01*
X174544514Y-134938972D02*
X174620704Y-134977067D01*
X174620704Y-134977067D02*
X174658800Y-135015162D01*
X174658800Y-135015162D02*
X174696895Y-135091353D01*
X174696895Y-135091353D02*
X174696895Y-135205639D01*
X174163561Y-134710400D02*
X174163561Y-134405638D01*
X173896895Y-134596114D02*
X174582609Y-134596114D01*
X174582609Y-134596114D02*
X174658800Y-134558019D01*
X174658800Y-134558019D02*
X174696895Y-134481829D01*
X174696895Y-134481829D02*
X174696895Y-134405638D01*
X174696895Y-134024686D02*
X174658800Y-134100876D01*
X174658800Y-134100876D02*
X174620704Y-134138971D01*
X174620704Y-134138971D02*
X174544514Y-134177067D01*
X174544514Y-134177067D02*
X174315942Y-134177067D01*
X174315942Y-134177067D02*
X174239752Y-134138971D01*
X174239752Y-134138971D02*
X174201657Y-134100876D01*
X174201657Y-134100876D02*
X174163561Y-134024686D01*
X174163561Y-134024686D02*
X174163561Y-133910400D01*
X174163561Y-133910400D02*
X174201657Y-133834209D01*
X174201657Y-133834209D02*
X174239752Y-133796114D01*
X174239752Y-133796114D02*
X174315942Y-133758019D01*
X174315942Y-133758019D02*
X174544514Y-133758019D01*
X174544514Y-133758019D02*
X174620704Y-133796114D01*
X174620704Y-133796114D02*
X174658800Y-133834209D01*
X174658800Y-133834209D02*
X174696895Y-133910400D01*
X174696895Y-133910400D02*
X174696895Y-134024686D01*
X174696895Y-133415161D02*
X174163561Y-133415161D01*
X174315942Y-133415161D02*
X174239752Y-133377066D01*
X174239752Y-133377066D02*
X174201657Y-133338971D01*
X174201657Y-133338971D02*
X174163561Y-133262780D01*
X174163561Y-133262780D02*
X174163561Y-133186590D01*
X174696895Y-132310399D02*
X173896895Y-132310399D01*
X173896895Y-132310399D02*
X173896895Y-132119923D01*
X173896895Y-132119923D02*
X173934990Y-132005637D01*
X173934990Y-132005637D02*
X174011180Y-131929447D01*
X174011180Y-131929447D02*
X174087371Y-131891352D01*
X174087371Y-131891352D02*
X174239752Y-131853256D01*
X174239752Y-131853256D02*
X174354038Y-131853256D01*
X174354038Y-131853256D02*
X174506419Y-131891352D01*
X174506419Y-131891352D02*
X174582609Y-131929447D01*
X174582609Y-131929447D02*
X174658800Y-132005637D01*
X174658800Y-132005637D02*
X174696895Y-132119923D01*
X174696895Y-132119923D02*
X174696895Y-132310399D01*
X174696895Y-131510399D02*
X174163561Y-131510399D01*
X174315942Y-131510399D02*
X174239752Y-131472304D01*
X174239752Y-131472304D02*
X174201657Y-131434209D01*
X174201657Y-131434209D02*
X174163561Y-131358018D01*
X174163561Y-131358018D02*
X174163561Y-131281828D01*
X174696895Y-131015161D02*
X174163561Y-131015161D01*
X173896895Y-131015161D02*
X173934990Y-131053257D01*
X173934990Y-131053257D02*
X173973085Y-131015161D01*
X173973085Y-131015161D02*
X173934990Y-130977066D01*
X173934990Y-130977066D02*
X173896895Y-131015161D01*
X173896895Y-131015161D02*
X173973085Y-131015161D01*
X174163561Y-130710400D02*
X174696895Y-130519924D01*
X174696895Y-130519924D02*
X174163561Y-130329447D01*
X174658800Y-129719923D02*
X174696895Y-129796114D01*
X174696895Y-129796114D02*
X174696895Y-129948495D01*
X174696895Y-129948495D02*
X174658800Y-130024685D01*
X174658800Y-130024685D02*
X174582609Y-130062781D01*
X174582609Y-130062781D02*
X174277847Y-130062781D01*
X174277847Y-130062781D02*
X174201657Y-130024685D01*
X174201657Y-130024685D02*
X174163561Y-129948495D01*
X174163561Y-129948495D02*
X174163561Y-129796114D01*
X174163561Y-129796114D02*
X174201657Y-129719923D01*
X174201657Y-129719923D02*
X174277847Y-129681828D01*
X174277847Y-129681828D02*
X174354038Y-129681828D01*
X174354038Y-129681828D02*
X174430228Y-130062781D01*
X174163561Y-128805638D02*
X174696895Y-128615162D01*
X174696895Y-128615162D02*
X174163561Y-128424685D01*
X173973085Y-128158019D02*
X173934990Y-128119923D01*
X173934990Y-128119923D02*
X173896895Y-128043733D01*
X173896895Y-128043733D02*
X173896895Y-127853257D01*
X173896895Y-127853257D02*
X173934990Y-127777066D01*
X173934990Y-127777066D02*
X173973085Y-127738971D01*
X173973085Y-127738971D02*
X174049276Y-127700876D01*
X174049276Y-127700876D02*
X174125466Y-127700876D01*
X174125466Y-127700876D02*
X174239752Y-127738971D01*
X174239752Y-127738971D02*
X174696895Y-128196114D01*
X174696895Y-128196114D02*
X174696895Y-127700876D01*
X174620704Y-127358018D02*
X174658800Y-127319923D01*
X174658800Y-127319923D02*
X174696895Y-127358018D01*
X174696895Y-127358018D02*
X174658800Y-127396114D01*
X174658800Y-127396114D02*
X174620704Y-127358018D01*
X174620704Y-127358018D02*
X174696895Y-127358018D01*
X173896895Y-126824685D02*
X173896895Y-126748495D01*
X173896895Y-126748495D02*
X173934990Y-126672304D01*
X173934990Y-126672304D02*
X173973085Y-126634209D01*
X173973085Y-126634209D02*
X174049276Y-126596114D01*
X174049276Y-126596114D02*
X174201657Y-126558019D01*
X174201657Y-126558019D02*
X174392133Y-126558019D01*
X174392133Y-126558019D02*
X174544514Y-126596114D01*
X174544514Y-126596114D02*
X174620704Y-126634209D01*
X174620704Y-126634209D02*
X174658800Y-126672304D01*
X174658800Y-126672304D02*
X174696895Y-126748495D01*
X174696895Y-126748495D02*
X174696895Y-126824685D01*
X174696895Y-126824685D02*
X174658800Y-126900876D01*
X174658800Y-126900876D02*
X174620704Y-126938971D01*
X174620704Y-126938971D02*
X174544514Y-126977066D01*
X174544514Y-126977066D02*
X174392133Y-127015162D01*
X174392133Y-127015162D02*
X174201657Y-127015162D01*
X174201657Y-127015162D02*
X174049276Y-126977066D01*
X174049276Y-126977066D02*
X173973085Y-126938971D01*
X173973085Y-126938971D02*
X173934990Y-126900876D01*
X173934990Y-126900876D02*
X173896895Y-126824685D01*
D11*
%TO.C,R4*%
X166362742Y-131822500D02*
X166837258Y-131822500D01*
X166362742Y-130777500D02*
X166837258Y-130777500D01*
%TO.C,C8*%
X173340000Y-121887836D02*
X173340000Y-121672164D01*
X174060000Y-121887836D02*
X174060000Y-121672164D01*
%TO.C,U2*%
X172110000Y-121890000D02*
X172110000Y-122115000D01*
X171885000Y-126110000D02*
X172110000Y-126110000D01*
X171885000Y-121890000D02*
X172110000Y-121890000D01*
X168115000Y-126110000D02*
X167890000Y-126110000D01*
X168115000Y-121890000D02*
X167890000Y-121890000D01*
X167890000Y-126110000D02*
X167890000Y-125885000D01*
X167890000Y-121890000D02*
X167890000Y-122115000D01*
D12*
%TO.C,U1*%
X173675000Y-129750000D02*
X173625000Y-129750000D01*
X173675000Y-129750000D02*
X173675000Y-133900000D01*
X173625000Y-129750000D02*
X173625000Y-128350000D01*
X168525000Y-129750000D02*
X168670000Y-129750000D01*
X168525000Y-129750000D02*
X168525000Y-133900000D01*
X173675000Y-133900000D02*
X173530000Y-133900000D01*
X168525000Y-133900000D02*
X168670000Y-133900000D01*
D11*
%TO.C,R3*%
X167046359Y-129320000D02*
X167353641Y-129320000D01*
X167046359Y-130080000D02*
X167353641Y-130080000D01*
%TO.C,G\u002A\u002A\u002A*%
G36*
X170346137Y-120215108D02*
G01*
X170346473Y-120252206D01*
X170346781Y-120289116D01*
X170347042Y-120323620D01*
X170347242Y-120353502D01*
X170347363Y-120376547D01*
X170347387Y-120383750D01*
X170347500Y-120432500D01*
X170335184Y-120431121D01*
X170319163Y-120424808D01*
X170304908Y-120411242D01*
X170295243Y-120393113D01*
X170295211Y-120393015D01*
X170291070Y-120374692D01*
X170287793Y-120349154D01*
X170285550Y-120319166D01*
X170284508Y-120287489D01*
X170284835Y-120256886D01*
X170285842Y-120239125D01*
X170291211Y-120192221D01*
X170299059Y-120154699D01*
X170309356Y-120126649D01*
X170322070Y-120108163D01*
X170332099Y-120101093D01*
X170345000Y-120095215D01*
X170346137Y-120215108D01*
G37*
G36*
X170570245Y-120097958D02*
G01*
X170578552Y-120103862D01*
X170593107Y-120121180D01*
X170604513Y-120147929D01*
X170612774Y-120184124D01*
X170617894Y-120229782D01*
X170619876Y-120284919D01*
X170619901Y-120291063D01*
X170619637Y-120320262D01*
X170618552Y-120342002D01*
X170616362Y-120358807D01*
X170612786Y-120373203D01*
X170609719Y-120382105D01*
X170601888Y-120398375D01*
X170591666Y-120413541D01*
X170580840Y-120425569D01*
X170571200Y-120432426D01*
X170565275Y-120432670D01*
X170562376Y-120426703D01*
X170559389Y-120414246D01*
X170558118Y-120406387D01*
X170557406Y-120395733D01*
X170557006Y-120377522D01*
X170556885Y-120353210D01*
X170557016Y-120324255D01*
X170557367Y-120292113D01*
X170557908Y-120258242D01*
X170558609Y-120224099D01*
X170559441Y-120191140D01*
X170560372Y-120160824D01*
X170561374Y-120134607D01*
X170562416Y-120113946D01*
X170563467Y-120100299D01*
X170564498Y-120095122D01*
X170564548Y-120095112D01*
X170570245Y-120097958D01*
G37*
G36*
X170458561Y-120078191D02*
G01*
X170464804Y-120083746D01*
X170473148Y-120094630D01*
X170476061Y-120099104D01*
X170479471Y-120104944D01*
X170482147Y-120111045D01*
X170484197Y-120118672D01*
X170485729Y-120129087D01*
X170486851Y-120143557D01*
X170487671Y-120163345D01*
X170488296Y-120189715D01*
X170488835Y-120223932D01*
X170489219Y-120253358D01*
X170489612Y-120301741D01*
X170489359Y-120341207D01*
X170488331Y-120372823D01*
X170486399Y-120397658D01*
X170483434Y-120416782D01*
X170479308Y-120431262D01*
X170473892Y-120442168D01*
X170467056Y-120450567D01*
X170465245Y-120452279D01*
X170457101Y-120458228D01*
X170449923Y-120457431D01*
X170443385Y-120453540D01*
X170436473Y-120447834D01*
X170430881Y-120440018D01*
X170426474Y-120429073D01*
X170423122Y-120413978D01*
X170420690Y-120393716D01*
X170419045Y-120367266D01*
X170418056Y-120333610D01*
X170417588Y-120291729D01*
X170417500Y-120255000D01*
X170417536Y-120213313D01*
X170417694Y-120180404D01*
X170418053Y-120155052D01*
X170418692Y-120136036D01*
X170419688Y-120122135D01*
X170421121Y-120112127D01*
X170423069Y-120104791D01*
X170425610Y-120098905D01*
X170427771Y-120095017D01*
X170438457Y-120081087D01*
X170449423Y-120076304D01*
X170458561Y-120078191D01*
G37*
G36*
X170715316Y-118912931D02*
G01*
X170744087Y-118972935D01*
X170757651Y-119005302D01*
X170792307Y-119100805D01*
X170819412Y-119195921D01*
X170823162Y-119214051D01*
X170838793Y-119289626D01*
X170850275Y-119380896D01*
X170853412Y-119461667D01*
X170853685Y-119468709D01*
X170849599Y-119545000D01*
X170846098Y-119581532D01*
X170844009Y-119609108D01*
X170843302Y-119628669D01*
X170843946Y-119641154D01*
X170845913Y-119647505D01*
X170846328Y-119647994D01*
X170853959Y-119649253D01*
X170865588Y-119644474D01*
X170878707Y-119635214D01*
X170890810Y-119623031D01*
X170894564Y-119618041D01*
X170904649Y-119602968D01*
X170912961Y-119589247D01*
X170919820Y-119575593D01*
X170925550Y-119560721D01*
X170930471Y-119543346D01*
X170934907Y-119522184D01*
X170939178Y-119495950D01*
X170943607Y-119463358D01*
X170948515Y-119423125D01*
X170952955Y-119385000D01*
X170960886Y-119319010D01*
X170968551Y-119261887D01*
X170976252Y-119212515D01*
X170984289Y-119169778D01*
X170992965Y-119132559D01*
X171002579Y-119099742D01*
X171013434Y-119070210D01*
X171025831Y-119042848D01*
X171040069Y-119016538D01*
X171056452Y-118990164D01*
X171061542Y-118982500D01*
X171097706Y-118937043D01*
X171142527Y-118894780D01*
X171194992Y-118856348D01*
X171254092Y-118822379D01*
X171318816Y-118793508D01*
X171388154Y-118770369D01*
X171408091Y-118765046D01*
X171446592Y-118756242D01*
X171476736Y-118751635D01*
X171499308Y-118751365D01*
X171515091Y-118755576D01*
X171524871Y-118764408D01*
X171529432Y-118778004D01*
X171530000Y-118787056D01*
X171525256Y-118804596D01*
X171511719Y-118819378D01*
X171490436Y-118830436D01*
X171479333Y-118833765D01*
X171463892Y-118837595D01*
X171442828Y-118842842D01*
X171420217Y-118848491D01*
X171415948Y-118849559D01*
X171357430Y-118867786D01*
X171301042Y-118892229D01*
X171248477Y-118921865D01*
X171201425Y-118955670D01*
X171161578Y-118992619D01*
X171142313Y-119015245D01*
X171114965Y-119057772D01*
X171091296Y-119109398D01*
X171071369Y-119169899D01*
X171055246Y-119239048D01*
X171042992Y-119316622D01*
X171034997Y-119397814D01*
X171030398Y-119454141D01*
X171025354Y-119501732D01*
X171019574Y-119541849D01*
X171012767Y-119575753D01*
X171004645Y-119604708D01*
X170994917Y-119629975D01*
X170983293Y-119652817D01*
X170972388Y-119670260D01*
X170963564Y-119682653D01*
X170953988Y-119694340D01*
X170942532Y-119706333D01*
X170928066Y-119719647D01*
X170909459Y-119735293D01*
X170885582Y-119754285D01*
X170877600Y-119760441D01*
X170855305Y-119777635D01*
X170837500Y-119791195D01*
X170817230Y-119806857D01*
X170798989Y-119821436D01*
X170784774Y-119833303D01*
X170776584Y-119840831D01*
X170776580Y-119840836D01*
X170769303Y-119850960D01*
X170759435Y-119867907D01*
X170747897Y-119889727D01*
X170735605Y-119914473D01*
X170723479Y-119940196D01*
X170712437Y-119964945D01*
X170703398Y-119986773D01*
X170697280Y-120003731D01*
X170695001Y-120013869D01*
X170695000Y-120013936D01*
X170696332Y-120017530D01*
X170701019Y-120018099D01*
X170710100Y-120015215D01*
X170724611Y-120008453D01*
X170745592Y-119997388D01*
X170774080Y-119981594D01*
X170774687Y-119981252D01*
X170794934Y-119969889D01*
X170822032Y-119954699D01*
X170854100Y-119936735D01*
X170889260Y-119917048D01*
X170925634Y-119896692D01*
X170957500Y-119878866D01*
X170990574Y-119860260D01*
X171021528Y-119842640D01*
X171049068Y-119826760D01*
X171071900Y-119813371D01*
X171088726Y-119803229D01*
X171098254Y-119797085D01*
X171098845Y-119796653D01*
X171109012Y-119786442D01*
X171121366Y-119770357D01*
X171133607Y-119751464D01*
X171136345Y-119746722D01*
X171181612Y-119673505D01*
X171229776Y-119609794D01*
X171280957Y-119555489D01*
X171335273Y-119510490D01*
X171392844Y-119474698D01*
X171453791Y-119448010D01*
X171512418Y-119431526D01*
X171540328Y-119427636D01*
X171574992Y-119425888D01*
X171613423Y-119426171D01*
X171652631Y-119428373D01*
X171689629Y-119432382D01*
X171721428Y-119438085D01*
X171727500Y-119439575D01*
X171757578Y-119449911D01*
X171779073Y-119462781D01*
X171791629Y-119477785D01*
X171794893Y-119494525D01*
X171790039Y-119509929D01*
X171783035Y-119518610D01*
X171772213Y-119524087D01*
X171756290Y-119526478D01*
X171733981Y-119525899D01*
X171704001Y-119522468D01*
X171684566Y-119519534D01*
X171621022Y-119512272D01*
X171563557Y-119512108D01*
X171510874Y-119519388D01*
X171461679Y-119534456D01*
X171414674Y-119557659D01*
X171368563Y-119589341D01*
X171343115Y-119610504D01*
X171327893Y-119625311D01*
X171309592Y-119645224D01*
X171290122Y-119667926D01*
X171271398Y-119691101D01*
X171255330Y-119712432D01*
X171243833Y-119729604D01*
X171241694Y-119733348D01*
X171236181Y-119744837D01*
X171235812Y-119751097D01*
X171240012Y-119755113D01*
X171246980Y-119756456D01*
X171262528Y-119757660D01*
X171285236Y-119758671D01*
X171313684Y-119759437D01*
X171346452Y-119759904D01*
X171370000Y-119760022D01*
X171440333Y-119761012D01*
X171502304Y-119763955D01*
X171557411Y-119769128D01*
X171607152Y-119776809D01*
X171653025Y-119787277D01*
X171696528Y-119800810D01*
X171739157Y-119817684D01*
X171777350Y-119835626D01*
X171818563Y-119857920D01*
X171846061Y-119875549D01*
X171856549Y-119882273D01*
X171893487Y-119910331D01*
X171931561Y-119943737D01*
X171968864Y-119980000D01*
X172009818Y-120022550D01*
X172023545Y-120038078D01*
X172043096Y-120060193D01*
X172069126Y-120093880D01*
X172088338Y-120124564D01*
X172101161Y-120153196D01*
X172108022Y-120180727D01*
X172109350Y-120208109D01*
X172106939Y-120226107D01*
X172105574Y-120236293D01*
X172097415Y-120265375D01*
X172079778Y-120307047D01*
X172057751Y-120340218D01*
X172030694Y-120365656D01*
X171999162Y-120383615D01*
X171981661Y-120388756D01*
X171955443Y-120393096D01*
X171921759Y-120396597D01*
X171881864Y-120399221D01*
X171837011Y-120400929D01*
X171788452Y-120401683D01*
X171737441Y-120401446D01*
X171685231Y-120400179D01*
X171633075Y-120397844D01*
X171600000Y-120395750D01*
X171525835Y-120390329D01*
X171460723Y-120385259D01*
X171403728Y-120380448D01*
X171353915Y-120375803D01*
X171310347Y-120371232D01*
X171272087Y-120366644D01*
X171238199Y-120361945D01*
X171209232Y-120357301D01*
X171190365Y-120353788D01*
X171163399Y-120348397D01*
X171129986Y-120341486D01*
X171091772Y-120333414D01*
X171050407Y-120324542D01*
X171007539Y-120315227D01*
X170964819Y-120305829D01*
X170923893Y-120296708D01*
X170886412Y-120288222D01*
X170854024Y-120280731D01*
X170828378Y-120274593D01*
X170820548Y-120272640D01*
X170798574Y-120267456D01*
X170779834Y-120263747D01*
X170766655Y-120261935D01*
X170761798Y-120262078D01*
X170757005Y-120268846D01*
X170755017Y-120282953D01*
X170755000Y-120284589D01*
X170756099Y-120295827D01*
X170760318Y-120305443D01*
X170769045Y-120314834D01*
X170783666Y-120325394D01*
X170805566Y-120338519D01*
X170812500Y-120342454D01*
X170840083Y-120361498D01*
X170869623Y-120388749D01*
X170901406Y-120424528D01*
X170935716Y-120469156D01*
X170972836Y-120522955D01*
X170974451Y-120525405D01*
X170998022Y-120560667D01*
X171017531Y-120588280D01*
X171033978Y-120609221D01*
X171048360Y-120624468D01*
X171061677Y-120634996D01*
X171074926Y-120641782D01*
X171089106Y-120645805D01*
X171099132Y-120647379D01*
X171140981Y-120653950D01*
X171175245Y-120662873D01*
X171204240Y-120675113D01*
X171230283Y-120691633D01*
X171253966Y-120711759D01*
X171266534Y-120724788D01*
X171282422Y-120743009D01*
X171300449Y-120764872D01*
X171319432Y-120788826D01*
X171338190Y-120813320D01*
X171355541Y-120836803D01*
X171370301Y-120857726D01*
X171381291Y-120874536D01*
X171387326Y-120885685D01*
X171387956Y-120887535D01*
X171387364Y-120903395D01*
X171379100Y-120917600D01*
X171365481Y-120928124D01*
X171348829Y-120932938D01*
X171337127Y-120931960D01*
X171327751Y-120926172D01*
X171313390Y-120912538D01*
X171294518Y-120891589D01*
X171271611Y-120863858D01*
X171245143Y-120829876D01*
X171240582Y-120823858D01*
X171214628Y-120792436D01*
X171189651Y-120769158D01*
X171163530Y-120752660D01*
X171134145Y-120741575D01*
X171102516Y-120735003D01*
X171061036Y-120726615D01*
X171027508Y-120714967D01*
X171000230Y-120699399D01*
X170990431Y-120691709D01*
X170980631Y-120681516D01*
X170966819Y-120664694D01*
X170950368Y-120643038D01*
X170932653Y-120618345D01*
X170918753Y-120597999D01*
X170891731Y-120557790D01*
X170869273Y-120525072D01*
X170850615Y-120498879D01*
X170834992Y-120478240D01*
X170821638Y-120462189D01*
X170809787Y-120449755D01*
X170798675Y-120439971D01*
X170787537Y-120431868D01*
X170787429Y-120431796D01*
X170773305Y-120422821D01*
X170762894Y-120416964D01*
X170758478Y-120415493D01*
X170755853Y-120420776D01*
X170750438Y-120432446D01*
X170744803Y-120444871D01*
X170723083Y-120482058D01*
X170692681Y-120517255D01*
X170654901Y-120549008D01*
X170645677Y-120555421D01*
X170628429Y-120567329D01*
X170614824Y-120577346D01*
X170606680Y-120584101D01*
X170605170Y-120586024D01*
X170609447Y-120588999D01*
X170620273Y-120591981D01*
X170623750Y-120592611D01*
X170645947Y-120596454D01*
X170660870Y-120599846D01*
X170671159Y-120603671D01*
X170679450Y-120608814D01*
X170682998Y-120611655D01*
X170684787Y-120613088D01*
X170698419Y-120630369D01*
X170707470Y-120653568D01*
X170711393Y-120679453D01*
X170709642Y-120704791D01*
X170703401Y-120723259D01*
X170691708Y-120739952D01*
X170675246Y-120756320D01*
X170657185Y-120769673D01*
X170640693Y-120777318D01*
X170639386Y-120777636D01*
X170619559Y-120783417D01*
X170606810Y-120791129D01*
X170601117Y-120801720D01*
X170602459Y-120816142D01*
X170610812Y-120835344D01*
X170626155Y-120860277D01*
X170637096Y-120876115D01*
X170673475Y-120923728D01*
X170713265Y-120969187D01*
X170754257Y-121010140D01*
X170794240Y-121044236D01*
X170797437Y-121046679D01*
X170832712Y-121074573D01*
X170861487Y-121099847D01*
X170883194Y-121121925D01*
X170897263Y-121140234D01*
X170902978Y-121153285D01*
X170903257Y-121171728D01*
X170898102Y-121188425D01*
X170888792Y-121200150D01*
X170883237Y-121203060D01*
X170870304Y-121206130D01*
X170858514Y-121205862D01*
X170846139Y-121201449D01*
X170831451Y-121192082D01*
X170812724Y-121176953D01*
X170795990Y-121162236D01*
X170747218Y-121117526D01*
X170701065Y-121073181D01*
X170658690Y-121030396D01*
X170621254Y-120990364D01*
X170589918Y-120954278D01*
X170572830Y-120932794D01*
X170556664Y-120912055D01*
X170541979Y-120894266D01*
X170530094Y-120880949D01*
X170522330Y-120873628D01*
X170520805Y-120872756D01*
X170510386Y-120872247D01*
X170496379Y-120874623D01*
X170494919Y-120875024D01*
X170473231Y-120878805D01*
X170447659Y-120879795D01*
X170423425Y-120877959D01*
X170412069Y-120875594D01*
X170400139Y-120873454D01*
X170388984Y-120874907D01*
X170377471Y-120880835D01*
X170364465Y-120892124D01*
X170348834Y-120909656D01*
X170329443Y-120934316D01*
X170319107Y-120948084D01*
X170262375Y-121017421D01*
X170201110Y-121078684D01*
X170146418Y-121123961D01*
X170126505Y-121139924D01*
X170107442Y-121156624D01*
X170092148Y-121171447D01*
X170086824Y-121177340D01*
X170068264Y-121196259D01*
X170051409Y-121206067D01*
X170035210Y-121207266D01*
X170028422Y-121205351D01*
X170016266Y-121196954D01*
X170004800Y-121183202D01*
X169996895Y-121168086D01*
X169995019Y-121158924D01*
X169997809Y-121150086D01*
X170006549Y-121137804D01*
X170021746Y-121121552D01*
X170043908Y-121100805D01*
X170073543Y-121075039D01*
X170087365Y-121063408D01*
X170147285Y-121010934D01*
X170197955Y-120961310D01*
X170239631Y-120914280D01*
X170256209Y-120892965D01*
X170278271Y-120861844D01*
X170293327Y-120837376D01*
X170301547Y-120819248D01*
X170303097Y-120807147D01*
X170302782Y-120805888D01*
X170297453Y-120799307D01*
X170285776Y-120789571D01*
X170270049Y-120778552D01*
X170266286Y-120776148D01*
X170237359Y-120756974D01*
X170216466Y-120740289D01*
X170202457Y-120724624D01*
X170194182Y-120708513D01*
X170190493Y-120690486D01*
X170190000Y-120678718D01*
X170194262Y-120649699D01*
X170206705Y-120626177D01*
X170221715Y-120613141D01*
X170357358Y-120613141D01*
X170357544Y-120626384D01*
X170361947Y-120647725D01*
X170362549Y-120650197D01*
X170368600Y-120685585D01*
X170368501Y-120720178D01*
X170368463Y-120720639D01*
X170367338Y-120738121D01*
X170368427Y-120750401D01*
X170373231Y-120759210D01*
X170383250Y-120766275D01*
X170399984Y-120773325D01*
X170420461Y-120780545D01*
X170453421Y-120791916D01*
X170491437Y-120778051D01*
X170514116Y-120769315D01*
X170528604Y-120761929D01*
X170536276Y-120754329D01*
X170538506Y-120744952D01*
X170536668Y-120732232D01*
X170535598Y-120727804D01*
X170530793Y-120700352D01*
X170532007Y-120675972D01*
X170539596Y-120649940D01*
X170541933Y-120644065D01*
X170548592Y-120624134D01*
X170548940Y-120611655D01*
X170542879Y-120606247D01*
X170532518Y-120606947D01*
X170523502Y-120608266D01*
X170507100Y-120609918D01*
X170485912Y-120611660D01*
X170469432Y-120612816D01*
X170436618Y-120614136D01*
X170411307Y-120613172D01*
X170391246Y-120609835D01*
X170390638Y-120609681D01*
X170373051Y-120606022D01*
X170362242Y-120606765D01*
X170357358Y-120613141D01*
X170221715Y-120613141D01*
X170226816Y-120608711D01*
X170254082Y-120597856D01*
X170266604Y-120595528D01*
X170282594Y-120592906D01*
X170294255Y-120590156D01*
X170298209Y-120588459D01*
X170298500Y-120582372D01*
X170289778Y-120573508D01*
X170271875Y-120561734D01*
X170249126Y-120549241D01*
X170220289Y-120532227D01*
X170198904Y-120514132D01*
X170182547Y-120492299D01*
X170168794Y-120464068D01*
X170166676Y-120458785D01*
X170159220Y-120441288D01*
X170152157Y-120427251D01*
X170146945Y-120419552D01*
X170146710Y-120419345D01*
X170137021Y-120417562D01*
X170123029Y-120424385D01*
X170105002Y-120439527D01*
X170083208Y-120462700D01*
X170057914Y-120493614D01*
X170029386Y-120531982D01*
X169997893Y-120577515D01*
X169992288Y-120585911D01*
X169966657Y-120623761D01*
X169944780Y-120653947D01*
X169925427Y-120677477D01*
X169907370Y-120695356D01*
X169889380Y-120708592D01*
X169870228Y-120718191D01*
X169848685Y-120725160D01*
X169823521Y-120730505D01*
X169813753Y-120732159D01*
X169786714Y-120737147D01*
X169763878Y-120743195D01*
X169743837Y-120751313D01*
X169725180Y-120762509D01*
X169706498Y-120777793D01*
X169686383Y-120798173D01*
X169663423Y-120824657D01*
X169636211Y-120858256D01*
X169634407Y-120860527D01*
X169616132Y-120883015D01*
X169599351Y-120902680D01*
X169585275Y-120918178D01*
X169575114Y-120928166D01*
X169570612Y-120931289D01*
X169552478Y-120931761D01*
X169535442Y-120925109D01*
X169522198Y-120913184D01*
X169515438Y-120897840D01*
X169515074Y-120893076D01*
X169518193Y-120884651D01*
X169526768Y-120870075D01*
X169539722Y-120850774D01*
X169555980Y-120828169D01*
X169574466Y-120803684D01*
X169594104Y-120778743D01*
X169613820Y-120754768D01*
X169632536Y-120733183D01*
X169649179Y-120715412D01*
X169649856Y-120714730D01*
X169678127Y-120689157D01*
X169705477Y-120671184D01*
X169735059Y-120659277D01*
X169770028Y-120651906D01*
X169782500Y-120650297D01*
X169815136Y-120644723D01*
X169840026Y-120635986D01*
X169859137Y-120623293D01*
X169865664Y-120616866D01*
X169872496Y-120608235D01*
X169883655Y-120592784D01*
X169898044Y-120572095D01*
X169914564Y-120547746D01*
X169932116Y-120521320D01*
X169932982Y-120520000D01*
X169973236Y-120462292D01*
X170011791Y-120414408D01*
X170048672Y-120376324D01*
X170083901Y-120348013D01*
X170103756Y-120335971D01*
X170124128Y-120324047D01*
X170136679Y-120313233D01*
X170143078Y-120301481D01*
X170144991Y-120286744D01*
X170145000Y-120285329D01*
X170144560Y-120276555D01*
X170141596Y-120271996D01*
X170133642Y-120270270D01*
X170118233Y-120270001D01*
X170117594Y-120270000D01*
X170102952Y-120271173D01*
X170081139Y-120274398D01*
X170054668Y-120279238D01*
X170026054Y-120285256D01*
X170013844Y-120288066D01*
X169955871Y-120301775D01*
X169906337Y-120313427D01*
X169863950Y-120323264D01*
X169827417Y-120331531D01*
X169795446Y-120338471D01*
X169766745Y-120344328D01*
X169740020Y-120349346D01*
X169713980Y-120353767D01*
X169687332Y-120357836D01*
X169658783Y-120361796D01*
X169627041Y-120365890D01*
X169590814Y-120370363D01*
X169552500Y-120375011D01*
X169482533Y-120383105D01*
X169419668Y-120389489D01*
X169361191Y-120394338D01*
X169304384Y-120397828D01*
X169246530Y-120400135D01*
X169184913Y-120401433D01*
X169137500Y-120401839D01*
X169087282Y-120401904D01*
X169045793Y-120401530D01*
X169011768Y-120400590D01*
X168983940Y-120398959D01*
X168961045Y-120396509D01*
X168941815Y-120393114D01*
X168924986Y-120388648D01*
X168909291Y-120382985D01*
X168897500Y-120377874D01*
X168878074Y-120366466D01*
X168857940Y-120350616D01*
X168840132Y-120333057D01*
X168827678Y-120316521D01*
X168826040Y-120313460D01*
X168812066Y-120284235D01*
X168802159Y-120261880D01*
X168795662Y-120244452D01*
X168791916Y-120230009D01*
X168790264Y-120216610D01*
X168790120Y-120211417D01*
X168880000Y-120211417D01*
X168884687Y-120242683D01*
X168898055Y-120270248D01*
X168919069Y-120292774D01*
X168946695Y-120308919D01*
X168958554Y-120313057D01*
X168967238Y-120315316D01*
X168976839Y-120317088D01*
X168988496Y-120318404D01*
X169003348Y-120319292D01*
X169022533Y-120319783D01*
X169047190Y-120319905D01*
X169078457Y-120319689D01*
X169117475Y-120319163D01*
X169163987Y-120318383D01*
X169211072Y-120317516D01*
X169249266Y-120316704D01*
X169279678Y-120315871D01*
X169303417Y-120314942D01*
X169321591Y-120313844D01*
X169335309Y-120312500D01*
X169345679Y-120310838D01*
X169353810Y-120308781D01*
X169360811Y-120306255D01*
X169363987Y-120304902D01*
X169375702Y-120298436D01*
X169435000Y-120298436D01*
X169435794Y-120301316D01*
X169438820Y-120303269D01*
X169445047Y-120304217D01*
X169455444Y-120304080D01*
X169470980Y-120302782D01*
X169492624Y-120300242D01*
X169521344Y-120296382D01*
X169558109Y-120291125D01*
X169598566Y-120285178D01*
X169672411Y-120273900D01*
X169739532Y-120262936D01*
X169799536Y-120252371D01*
X169852033Y-120242289D01*
X169896631Y-120232776D01*
X169932938Y-120223916D01*
X169960563Y-120215794D01*
X169979115Y-120208494D01*
X169988201Y-120202101D01*
X169988922Y-120200736D01*
X169988010Y-120199335D01*
X170230616Y-120199335D01*
X170230655Y-120200736D01*
X170231505Y-120231568D01*
X170232015Y-120241633D01*
X170234758Y-120291065D01*
X170237234Y-120331471D01*
X170239540Y-120363818D01*
X170241770Y-120389074D01*
X170244020Y-120408206D01*
X170246384Y-120422182D01*
X170248958Y-120431969D01*
X170251267Y-120437500D01*
X170269388Y-120461883D01*
X170295804Y-120482830D01*
X170329236Y-120499802D01*
X170368407Y-120512258D01*
X170412039Y-120519657D01*
X170450000Y-120521573D01*
X170500130Y-120518406D01*
X170546430Y-120509319D01*
X170587473Y-120494778D01*
X170621831Y-120475247D01*
X170640370Y-120459631D01*
X170646595Y-120453177D01*
X170651584Y-120446839D01*
X170655543Y-120439414D01*
X170658681Y-120429699D01*
X170661207Y-120416489D01*
X170663328Y-120398582D01*
X170665253Y-120374774D01*
X170667189Y-120343862D01*
X170669346Y-120304641D01*
X170670304Y-120286595D01*
X170672132Y-120250465D01*
X170673270Y-120222670D01*
X170673684Y-120201565D01*
X170673654Y-120200157D01*
X170910000Y-120200157D01*
X170911693Y-120201565D01*
X170914716Y-120204079D01*
X170928052Y-120209510D01*
X170948793Y-120216149D01*
X170975724Y-120223700D01*
X171007631Y-120231863D01*
X171043298Y-120240341D01*
X171081510Y-120248834D01*
X171121052Y-120257046D01*
X171160709Y-120264677D01*
X171199266Y-120271429D01*
X171202500Y-120271961D01*
X171235159Y-120277091D01*
X171270191Y-120282235D01*
X171306195Y-120287224D01*
X171341769Y-120291890D01*
X171375512Y-120296063D01*
X171406022Y-120299574D01*
X171431897Y-120302254D01*
X171451735Y-120303933D01*
X171464135Y-120304443D01*
X171467711Y-120303956D01*
X171468543Y-120296589D01*
X171460329Y-120285363D01*
X171443198Y-120270404D01*
X171417278Y-120251837D01*
X171410273Y-120247192D01*
X171390325Y-120235471D01*
X171467210Y-120235471D01*
X171468465Y-120242019D01*
X171475557Y-120252945D01*
X171486664Y-120266203D01*
X171499960Y-120279744D01*
X171513623Y-120291520D01*
X171520975Y-120296589D01*
X171522689Y-120297771D01*
X171536936Y-120303741D01*
X171558074Y-120308713D01*
X171586598Y-120312724D01*
X171623003Y-120315816D01*
X171667782Y-120318027D01*
X171721430Y-120319398D01*
X171784441Y-120319967D01*
X171800360Y-120319988D01*
X171844087Y-120319835D01*
X171879135Y-120319211D01*
X171906821Y-120317883D01*
X171928464Y-120315617D01*
X171945381Y-120312180D01*
X171958891Y-120307339D01*
X171970310Y-120300860D01*
X171980957Y-120292511D01*
X171987063Y-120286941D01*
X171999770Y-120272880D01*
X172010077Y-120257915D01*
X172012914Y-120252282D01*
X172019216Y-120226107D01*
X172018902Y-120196440D01*
X172012165Y-120167114D01*
X172008133Y-120157225D01*
X172000647Y-120144459D01*
X171989080Y-120128446D01*
X171975071Y-120111053D01*
X171960262Y-120094147D01*
X171946293Y-120079595D01*
X171934804Y-120069264D01*
X171927435Y-120065021D01*
X171927108Y-120065000D01*
X171920977Y-120068053D01*
X171909740Y-120076084D01*
X171895747Y-120087405D01*
X171894702Y-120088298D01*
X171867804Y-120110076D01*
X171841253Y-120128597D01*
X171813603Y-120144432D01*
X171783410Y-120158153D01*
X171749228Y-120170330D01*
X171709615Y-120181535D01*
X171663124Y-120192341D01*
X171608311Y-120203318D01*
X171600000Y-120204881D01*
X171560011Y-120212416D01*
X171528811Y-120218470D01*
X171505337Y-120223288D01*
X171488528Y-120227115D01*
X171477323Y-120230194D01*
X171470660Y-120232771D01*
X171467478Y-120235089D01*
X171467210Y-120235471D01*
X171390325Y-120235471D01*
X171339688Y-120205717D01*
X171267985Y-120172881D01*
X171202277Y-120151129D01*
X171320976Y-120151129D01*
X171323045Y-120156722D01*
X171331876Y-120163872D01*
X171348487Y-120173297D01*
X171362381Y-120180228D01*
X171382887Y-120189929D01*
X171397766Y-120195886D01*
X171410324Y-120198843D01*
X171423871Y-120199548D01*
X171441714Y-120198744D01*
X171443942Y-120198605D01*
X171463760Y-120196708D01*
X171490104Y-120193285D01*
X171519699Y-120188801D01*
X171549273Y-120183724D01*
X171552500Y-120183127D01*
X171603642Y-120173514D01*
X171646123Y-120165273D01*
X171681138Y-120158080D01*
X171709882Y-120151612D01*
X171733549Y-120145543D01*
X171753333Y-120139550D01*
X171770430Y-120133308D01*
X171786033Y-120126494D01*
X171801338Y-120118784D01*
X171812900Y-120112462D01*
X171830272Y-120101614D01*
X171848936Y-120088135D01*
X171867058Y-120073594D01*
X171882799Y-120059561D01*
X171894323Y-120047603D01*
X171899792Y-120039290D01*
X171900000Y-120038078D01*
X171896159Y-120030319D01*
X171885626Y-120018103D01*
X171869892Y-120002727D01*
X171850445Y-119985486D01*
X171828774Y-119967677D01*
X171806368Y-119950595D01*
X171784716Y-119935537D01*
X171775468Y-119929677D01*
X171755828Y-119918709D01*
X171732745Y-119907381D01*
X171708430Y-119896598D01*
X171685100Y-119887269D01*
X171664966Y-119880302D01*
X171650243Y-119876604D01*
X171645263Y-119876291D01*
X171637884Y-119879131D01*
X171629032Y-119887083D01*
X171617580Y-119901376D01*
X171602894Y-119922500D01*
X171577833Y-119956400D01*
X171548132Y-119990914D01*
X171516219Y-120023527D01*
X171484520Y-120051726D01*
X171461341Y-120069150D01*
X171441432Y-120081655D01*
X171417080Y-120095559D01*
X171392979Y-120108204D01*
X171388841Y-120110232D01*
X171363199Y-120122665D01*
X171345175Y-120131603D01*
X171333376Y-120137887D01*
X171326409Y-120142356D01*
X171322879Y-120145851D01*
X171321393Y-120149210D01*
X171320976Y-120151129D01*
X171202277Y-120151129D01*
X171196242Y-120149131D01*
X171147226Y-120138265D01*
X171122383Y-120134509D01*
X171102680Y-120133490D01*
X171083604Y-120135343D01*
X171060639Y-120140206D01*
X171057500Y-120140976D01*
X171038106Y-120146454D01*
X171015316Y-120153952D01*
X170990963Y-120162731D01*
X170966885Y-120172057D01*
X170944914Y-120181192D01*
X170926887Y-120189401D01*
X170914639Y-120195948D01*
X170910003Y-120200095D01*
X170910000Y-120200157D01*
X170673654Y-120200157D01*
X170673341Y-120185505D01*
X170672208Y-120172847D01*
X170670251Y-120161946D01*
X170667562Y-120151595D01*
X170654774Y-120117287D01*
X170736502Y-120117287D01*
X170737425Y-120124231D01*
X170744746Y-120139303D01*
X170758107Y-120155557D01*
X170774526Y-120169855D01*
X170788590Y-120178097D01*
X170802182Y-120182696D01*
X170816534Y-120184524D01*
X170833223Y-120183306D01*
X170853826Y-120178769D01*
X170879923Y-120170639D01*
X170913090Y-120158644D01*
X170923355Y-120154748D01*
X170950194Y-120144309D01*
X170974183Y-120134642D01*
X170993570Y-120126479D01*
X171006602Y-120120553D01*
X171011059Y-120118087D01*
X171016404Y-120111776D01*
X171025728Y-120098411D01*
X171026724Y-120096881D01*
X171075955Y-120096881D01*
X171075959Y-120097172D01*
X171082354Y-120099097D01*
X171096535Y-120102097D01*
X171116392Y-120105818D01*
X171139813Y-120109905D01*
X171164688Y-120114003D01*
X171188906Y-120117757D01*
X171210356Y-120120811D01*
X171226927Y-120122811D01*
X171230241Y-120123120D01*
X171257604Y-120124180D01*
X171280643Y-120121816D01*
X171297741Y-120117682D01*
X171353413Y-120097184D01*
X171408445Y-120068705D01*
X171459887Y-120033994D01*
X171504382Y-119995207D01*
X171522536Y-119975754D01*
X171540762Y-119954038D01*
X171557803Y-119931813D01*
X171572404Y-119910835D01*
X171583311Y-119892856D01*
X171589268Y-119879631D01*
X171590000Y-119875549D01*
X171587245Y-119866213D01*
X171578283Y-119858833D01*
X171562070Y-119852981D01*
X171537563Y-119848223D01*
X171517500Y-119845605D01*
X171494797Y-119842937D01*
X171474658Y-119840457D01*
X171459939Y-119838521D01*
X171455000Y-119837787D01*
X171442618Y-119836955D01*
X171421911Y-119836970D01*
X171394512Y-119837764D01*
X171362055Y-119839267D01*
X171326173Y-119841413D01*
X171288498Y-119844131D01*
X171272500Y-119845431D01*
X171238193Y-119848836D01*
X171212434Y-119852797D01*
X171193775Y-119857781D01*
X171180766Y-119864254D01*
X171171956Y-119872685D01*
X171167969Y-119879094D01*
X171163215Y-119889090D01*
X171155853Y-119905526D01*
X171155787Y-119905673D01*
X171146335Y-119927301D01*
X171135510Y-119952432D01*
X171123963Y-119979524D01*
X171112345Y-120007034D01*
X171101306Y-120033420D01*
X171091496Y-120057140D01*
X171083568Y-120076652D01*
X171078170Y-120090413D01*
X171075955Y-120096881D01*
X171026724Y-120096881D01*
X171037987Y-120079582D01*
X171052134Y-120056881D01*
X171062516Y-120039684D01*
X171081717Y-120005934D01*
X171097903Y-119974439D01*
X171110578Y-119946403D01*
X171119242Y-119923030D01*
X171123398Y-119905526D01*
X171122548Y-119895096D01*
X171122379Y-119894804D01*
X171117359Y-119891492D01*
X171108114Y-119892242D01*
X171093689Y-119897416D01*
X171073126Y-119907376D01*
X171045471Y-119922486D01*
X171037500Y-119927017D01*
X171010970Y-119942246D01*
X170979766Y-119960249D01*
X170947841Y-119978741D01*
X170920000Y-119994940D01*
X170893897Y-120010134D01*
X170867354Y-120025515D01*
X170843261Y-120039412D01*
X170824508Y-120050155D01*
X170822500Y-120051297D01*
X170801078Y-120064123D01*
X170778803Y-120078497D01*
X170760829Y-120091069D01*
X170746469Y-120102323D01*
X170738886Y-120110318D01*
X170736502Y-120117287D01*
X170654774Y-120117287D01*
X170654159Y-120115638D01*
X170636365Y-120084212D01*
X170615396Y-120059019D01*
X170592462Y-120041765D01*
X170587707Y-120039399D01*
X170580153Y-120036432D01*
X170571308Y-120034169D01*
X170559772Y-120032516D01*
X170544146Y-120031379D01*
X170523028Y-120030664D01*
X170495019Y-120030276D01*
X170458719Y-120030122D01*
X170449497Y-120030110D01*
X170405801Y-120030335D01*
X170369796Y-120031080D01*
X170342092Y-120032321D01*
X170323296Y-120034032D01*
X170315211Y-120035676D01*
X170305513Y-120040918D01*
X170295093Y-120050824D01*
X170282569Y-120066910D01*
X170270330Y-120084905D01*
X170254368Y-120110278D01*
X170249075Y-120120344D01*
X170243055Y-120131792D01*
X170235751Y-120152062D01*
X170231818Y-120173705D01*
X170230616Y-120199335D01*
X169988010Y-120199335D01*
X169985660Y-120195724D01*
X169974589Y-120188556D01*
X169957479Y-120179956D01*
X169936099Y-120170642D01*
X169912218Y-120161337D01*
X169887606Y-120152760D01*
X169864032Y-120145632D01*
X169843265Y-120140675D01*
X169840000Y-120140075D01*
X169805972Y-120136130D01*
X169772506Y-120136817D01*
X169745000Y-120140301D01*
X169718006Y-120146052D01*
X169706207Y-120149342D01*
X169685402Y-120155143D01*
X169650537Y-120166464D01*
X169616757Y-120178905D01*
X169587407Y-120191356D01*
X169579143Y-120195338D01*
X169550670Y-120210521D01*
X169522549Y-120227124D01*
X169516213Y-120231214D01*
X169496149Y-120244167D01*
X169472842Y-120260670D01*
X169453997Y-120275652D01*
X169440985Y-120288134D01*
X169435177Y-120297135D01*
X169435000Y-120298436D01*
X169375702Y-120298436D01*
X169378552Y-120296863D01*
X169394103Y-120285677D01*
X169409297Y-120272734D01*
X169422793Y-120259425D01*
X169433251Y-120247142D01*
X169439328Y-120237275D01*
X169439683Y-120231214D01*
X169436250Y-120229975D01*
X169428960Y-120229082D01*
X169413706Y-120226662D01*
X169392351Y-120223051D01*
X169366758Y-120218583D01*
X169338789Y-120213593D01*
X169310305Y-120208416D01*
X169283170Y-120203388D01*
X169259245Y-120198842D01*
X169240393Y-120195115D01*
X169229554Y-120192796D01*
X169166522Y-120175171D01*
X169110261Y-120152740D01*
X169058241Y-120124365D01*
X169022112Y-120099707D01*
X169004490Y-120087158D01*
X168989336Y-120077251D01*
X168978753Y-120071313D01*
X168975471Y-120070208D01*
X168968786Y-120073548D01*
X168957813Y-120082530D01*
X168944841Y-120095264D01*
X168943915Y-120096250D01*
X168916036Y-120128567D01*
X168896468Y-120157207D01*
X168884669Y-120183149D01*
X168880098Y-120207367D01*
X168880000Y-120211417D01*
X168790120Y-120211417D01*
X168790000Y-120207083D01*
X168790582Y-120192484D01*
X168792957Y-120179624D01*
X168798074Y-120165700D01*
X168806880Y-120147910D01*
X168815113Y-120132798D01*
X168857910Y-120065663D01*
X168879703Y-120038950D01*
X169005000Y-120038950D01*
X169009328Y-120047971D01*
X169021315Y-120060076D01*
X169039464Y-120074324D01*
X169062281Y-120089773D01*
X169088269Y-120105481D01*
X169115934Y-120120508D01*
X169143780Y-120133911D01*
X169170311Y-120144750D01*
X169176562Y-120146948D01*
X169229552Y-120162777D01*
X169287157Y-120175783D01*
X169351021Y-120186276D01*
X169422791Y-120194567D01*
X169435857Y-120195776D01*
X169504214Y-120201896D01*
X169536926Y-120185292D01*
X169556368Y-120174500D01*
X169571928Y-120164110D01*
X169582060Y-120155323D01*
X169585219Y-120149342D01*
X169584553Y-120148255D01*
X169579593Y-120145450D01*
X169567461Y-120138957D01*
X169549868Y-120129684D01*
X169528526Y-120118537D01*
X169523701Y-120116029D01*
X169461782Y-120080337D01*
X169408417Y-120041723D01*
X169362323Y-119999064D01*
X169322216Y-119951238D01*
X169302063Y-119922042D01*
X169290055Y-119904149D01*
X169279414Y-119889590D01*
X169272208Y-119881033D01*
X169316181Y-119881033D01*
X169322367Y-119897914D01*
X169334606Y-119918181D01*
X169375476Y-119970561D01*
X169423957Y-120017535D01*
X169478659Y-120058048D01*
X169538193Y-120091049D01*
X169590882Y-120112183D01*
X169614810Y-120119253D01*
X169636817Y-120123294D01*
X169659699Y-120124415D01*
X169686248Y-120122727D01*
X169719260Y-120118341D01*
X169724782Y-120117482D01*
X169749888Y-120113621D01*
X169775319Y-120109865D01*
X169796740Y-120106852D01*
X169802500Y-120106088D01*
X169817935Y-120103712D01*
X169827148Y-120100348D01*
X169830326Y-120094434D01*
X169827652Y-120084407D01*
X169819314Y-120068703D01*
X169808987Y-120051492D01*
X169781014Y-120000201D01*
X169761191Y-119951279D01*
X169752916Y-119922500D01*
X169745833Y-119897433D01*
X169780000Y-119897433D01*
X169781893Y-119906486D01*
X169787018Y-119922546D01*
X169794545Y-119943485D01*
X169803643Y-119967173D01*
X169813484Y-119991478D01*
X169823236Y-120014273D01*
X169832071Y-120033426D01*
X169836088Y-120041355D01*
X169854254Y-120069523D01*
X169875564Y-120094434D01*
X169877393Y-120096572D01*
X169902827Y-120119746D01*
X169927881Y-120136292D01*
X169928800Y-120136758D01*
X169943518Y-120143359D01*
X169964586Y-120151824D01*
X169988844Y-120160919D01*
X170006692Y-120167225D01*
X170031964Y-120175580D01*
X170050502Y-120180737D01*
X170064869Y-120183187D01*
X170077626Y-120183420D01*
X170086692Y-120182563D01*
X170116525Y-120177136D01*
X170137881Y-120168919D01*
X170152114Y-120156951D01*
X170160579Y-120140268D01*
X170163378Y-120128062D01*
X170164090Y-120120344D01*
X170162887Y-120113346D01*
X170158819Y-120106268D01*
X170150940Y-120098313D01*
X170138301Y-120088682D01*
X170119954Y-120076577D01*
X170094951Y-120061198D01*
X170062344Y-120041747D01*
X170057500Y-120038880D01*
X170026720Y-120020657D01*
X169994612Y-120001630D01*
X169963794Y-119983351D01*
X169936883Y-119967373D01*
X169920000Y-119957335D01*
X169880817Y-119934255D01*
X169849292Y-119916304D01*
X169824696Y-119903169D01*
X169806296Y-119894537D01*
X169793361Y-119890095D01*
X169785162Y-119889531D01*
X169780966Y-119892532D01*
X169780000Y-119897433D01*
X169745833Y-119897433D01*
X169745559Y-119896462D01*
X169737687Y-119878440D01*
X169728104Y-119866476D01*
X169715615Y-119858609D01*
X169713362Y-119857639D01*
X169701032Y-119854232D01*
X169680604Y-119850480D01*
X169653962Y-119846638D01*
X169622990Y-119842959D01*
X169589573Y-119839699D01*
X169567500Y-119837930D01*
X169546080Y-119837130D01*
X169518008Y-119837158D01*
X169486061Y-119837901D01*
X169453013Y-119839247D01*
X169421639Y-119841081D01*
X169394712Y-119843292D01*
X169375008Y-119845766D01*
X169375000Y-119845767D01*
X169346668Y-119851704D01*
X169327785Y-119858907D01*
X169317804Y-119868357D01*
X169316181Y-119881033D01*
X169272208Y-119881033D01*
X169271649Y-119880369D01*
X169269055Y-119878254D01*
X169255448Y-119876786D01*
X169234828Y-119881116D01*
X169206865Y-119891339D01*
X169177500Y-119904529D01*
X169150770Y-119918520D01*
X169122836Y-119935310D01*
X169095049Y-119953848D01*
X169068757Y-119973083D01*
X169045308Y-119991965D01*
X169026052Y-120009441D01*
X169012337Y-120024461D01*
X169005512Y-120035974D01*
X169005000Y-120038950D01*
X168879703Y-120038950D01*
X168908951Y-120003098D01*
X168967198Y-119945950D01*
X169031614Y-119895067D01*
X169101162Y-119851295D01*
X169174805Y-119815480D01*
X169228094Y-119795644D01*
X169255982Y-119787054D01*
X169282777Y-119780053D01*
X169310054Y-119774444D01*
X169339387Y-119770032D01*
X169372351Y-119766620D01*
X169410520Y-119764012D01*
X169455468Y-119762013D01*
X169508770Y-119760425D01*
X169511339Y-119760362D01*
X169558369Y-119759016D01*
X169596985Y-119757507D01*
X169626831Y-119755856D01*
X169647549Y-119754086D01*
X169658784Y-119752218D01*
X169660644Y-119751357D01*
X169662100Y-119743206D01*
X169657267Y-119729452D01*
X169647085Y-119711400D01*
X169632497Y-119690352D01*
X169614448Y-119667611D01*
X169593879Y-119644480D01*
X169571732Y-119622263D01*
X169558673Y-119610427D01*
X169508011Y-119571300D01*
X169456839Y-119541905D01*
X169404246Y-119522004D01*
X169349318Y-119511357D01*
X169291144Y-119509727D01*
X169228812Y-119516876D01*
X169212500Y-119520000D01*
X169183830Y-119525587D01*
X169162930Y-119528680D01*
X169147886Y-119529272D01*
X169136784Y-119527355D01*
X169127707Y-119522922D01*
X169123175Y-119519638D01*
X169112136Y-119505690D01*
X169109542Y-119489541D01*
X169114787Y-119473241D01*
X169127266Y-119458843D01*
X169143950Y-119449295D01*
X169175092Y-119439864D01*
X169213156Y-119432634D01*
X169255267Y-119427806D01*
X169298548Y-119425581D01*
X169340124Y-119426159D01*
X169377119Y-119429743D01*
X169390123Y-119432090D01*
X169434010Y-119444244D01*
X169480693Y-119462177D01*
X169526224Y-119484287D01*
X169544934Y-119494960D01*
X169594818Y-119528993D01*
X169639844Y-119568569D01*
X169681172Y-119614928D01*
X169719968Y-119669310D01*
X169741528Y-119704604D01*
X169766867Y-119744345D01*
X169792640Y-119776085D01*
X169820719Y-119801721D01*
X169852975Y-119823150D01*
X169864949Y-119829670D01*
X169885154Y-119840460D01*
X169910658Y-119854487D01*
X169938147Y-119869908D01*
X169963500Y-119884416D01*
X170015145Y-119914303D01*
X170058817Y-119939517D01*
X170095175Y-119960430D01*
X170124879Y-119977413D01*
X170148589Y-119990841D01*
X170166964Y-120001083D01*
X170180665Y-120008513D01*
X170190352Y-120013504D01*
X170196685Y-120016426D01*
X170199244Y-120017371D01*
X170207578Y-120018960D01*
X170208834Y-120014552D01*
X170207422Y-120009244D01*
X170199784Y-119987453D01*
X170188820Y-119960374D01*
X170176061Y-119931457D01*
X170163038Y-119904156D01*
X170151282Y-119881922D01*
X170149838Y-119879432D01*
X170137494Y-119859822D01*
X170124485Y-119842516D01*
X170109234Y-119825939D01*
X170090164Y-119808518D01*
X170065698Y-119788679D01*
X170037500Y-119767258D01*
X170028456Y-119760262D01*
X170192191Y-119760262D01*
X170193063Y-119766956D01*
X170197798Y-119778037D01*
X170206610Y-119795163D01*
X170218337Y-119816380D01*
X170231816Y-119839731D01*
X170245888Y-119863260D01*
X170259391Y-119885011D01*
X170271162Y-119903029D01*
X170280040Y-119915358D01*
X170283462Y-119919181D01*
X170288410Y-119923481D01*
X170293182Y-119926525D01*
X170299263Y-119928321D01*
X170308136Y-119928874D01*
X170321284Y-119928194D01*
X170340190Y-119926287D01*
X170366338Y-119923160D01*
X170393871Y-119919736D01*
X170421399Y-119916851D01*
X170445499Y-119915839D01*
X170470449Y-119916704D01*
X170500529Y-119919450D01*
X170503871Y-119919816D01*
X170538223Y-119923607D01*
X170564057Y-119926332D01*
X170582801Y-119927981D01*
X170595880Y-119928543D01*
X170604723Y-119928009D01*
X170610755Y-119926368D01*
X170615403Y-119923610D01*
X170620094Y-119919724D01*
X170620973Y-119918972D01*
X170628282Y-119910420D01*
X170638701Y-119895217D01*
X170651175Y-119875243D01*
X170664646Y-119852379D01*
X170678059Y-119828507D01*
X170690357Y-119805508D01*
X170700484Y-119785263D01*
X170707384Y-119769652D01*
X170709999Y-119760557D01*
X170710000Y-119760441D01*
X170709143Y-119754713D01*
X170705716Y-119750134D01*
X170698434Y-119746324D01*
X170686015Y-119742906D01*
X170667175Y-119739501D01*
X170640630Y-119735732D01*
X170615000Y-119732452D01*
X170584607Y-119728608D01*
X170553458Y-119724592D01*
X170524955Y-119720847D01*
X170502496Y-119717816D01*
X170500000Y-119717470D01*
X170479707Y-119714913D01*
X170462704Y-119713262D01*
X170451810Y-119712772D01*
X170450000Y-119712915D01*
X170440828Y-119714261D01*
X170425992Y-119716142D01*
X170417500Y-119717143D01*
X170378765Y-119721770D01*
X170340519Y-119726683D01*
X170304108Y-119731677D01*
X170270878Y-119736547D01*
X170242173Y-119741088D01*
X170219339Y-119745097D01*
X170203720Y-119748368D01*
X170196664Y-119750697D01*
X170196619Y-119750732D01*
X170192191Y-119760262D01*
X170028456Y-119760262D01*
X170002630Y-119740283D01*
X169973582Y-119715127D01*
X169949692Y-119690441D01*
X169930294Y-119664876D01*
X169914725Y-119637083D01*
X169902320Y-119605713D01*
X169892414Y-119569417D01*
X169884341Y-119526845D01*
X169877439Y-119476650D01*
X169872558Y-119432500D01*
X169867295Y-119382354D01*
X169862618Y-119340127D01*
X169858276Y-119303775D01*
X169854020Y-119271251D01*
X169849600Y-119240510D01*
X169847224Y-119225000D01*
X169833242Y-119159357D01*
X169812633Y-119100757D01*
X169784889Y-119048334D01*
X169749501Y-119001220D01*
X169705961Y-118958549D01*
X169677708Y-118936183D01*
X169648230Y-118916171D01*
X169616972Y-118898640D01*
X169582129Y-118882814D01*
X169541901Y-118867921D01*
X169494483Y-118853186D01*
X169465819Y-118845175D01*
X169433548Y-118836015D01*
X169409880Y-118828232D01*
X169393603Y-118821302D01*
X169383501Y-118814699D01*
X169378361Y-118807900D01*
X169378106Y-118807276D01*
X169375308Y-118787089D01*
X169382183Y-118767961D01*
X169386511Y-118762176D01*
X169393771Y-118755383D01*
X169402625Y-118750966D01*
X169414153Y-118749072D01*
X169429434Y-118749850D01*
X169449547Y-118753447D01*
X169475570Y-118760011D01*
X169508584Y-118769691D01*
X169549667Y-118782634D01*
X169560000Y-118785969D01*
X169631124Y-118813261D01*
X169695250Y-118846736D01*
X169751950Y-118886106D01*
X169800793Y-118931087D01*
X169830192Y-118965907D01*
X169860902Y-119012125D01*
X169887100Y-119063878D01*
X169909000Y-119121876D01*
X169926812Y-119186828D01*
X169940748Y-119259444D01*
X169951021Y-119340432D01*
X169954714Y-119382500D01*
X169958912Y-119432426D01*
X169963271Y-119473633D01*
X169968012Y-119507401D01*
X169973352Y-119535012D01*
X169979509Y-119557746D01*
X169986701Y-119576884D01*
X169988541Y-119580945D01*
X170002894Y-119607191D01*
X170018577Y-119628319D01*
X170034319Y-119642949D01*
X170048849Y-119649704D01*
X170052144Y-119650000D01*
X170065606Y-119650000D01*
X170062370Y-119613750D01*
X170059961Y-119589941D01*
X170056987Y-119564872D01*
X170054605Y-119547500D01*
X170050467Y-119502553D01*
X170050439Y-119497363D01*
X170125074Y-119497363D01*
X170125598Y-119528851D01*
X170127381Y-119551728D01*
X170130871Y-119567350D01*
X170136520Y-119577073D01*
X170144776Y-119582254D01*
X170153816Y-119584064D01*
X170164317Y-119583801D01*
X170182483Y-119582032D01*
X170206137Y-119579020D01*
X170233102Y-119575028D01*
X170246202Y-119572904D01*
X170307728Y-119563239D01*
X170361937Y-119556242D01*
X170411151Y-119551914D01*
X170457691Y-119550257D01*
X170503878Y-119551274D01*
X170552035Y-119554965D01*
X170604481Y-119561333D01*
X170663540Y-119570380D01*
X170680714Y-119573247D01*
X170707921Y-119577601D01*
X170731985Y-119580983D01*
X170751035Y-119583167D01*
X170763204Y-119583927D01*
X170766382Y-119583622D01*
X170769592Y-119580315D01*
X170772122Y-119572265D01*
X170774178Y-119558108D01*
X170775969Y-119536482D01*
X170777449Y-119510991D01*
X170778551Y-119484842D01*
X170779059Y-119461667D01*
X170778961Y-119443603D01*
X170778244Y-119432791D01*
X170777935Y-119431369D01*
X170774821Y-119425202D01*
X170768869Y-119419941D01*
X170758693Y-119415065D01*
X170742908Y-119410052D01*
X170720129Y-119404382D01*
X170688971Y-119397533D01*
X170686769Y-119397065D01*
X170662122Y-119392137D01*
X170639383Y-119388384D01*
X170616237Y-119385582D01*
X170590369Y-119383508D01*
X170559462Y-119381937D01*
X170521202Y-119380646D01*
X170515000Y-119380472D01*
X170466436Y-119379285D01*
X170426126Y-119378694D01*
X170392340Y-119378739D01*
X170363346Y-119379457D01*
X170337415Y-119380888D01*
X170312817Y-119383069D01*
X170292500Y-119385436D01*
X170259601Y-119390206D01*
X170224227Y-119396315D01*
X170190352Y-119403021D01*
X170161950Y-119409582D01*
X170158934Y-119410368D01*
X170145895Y-119414856D01*
X170136652Y-119421370D01*
X170130577Y-119431524D01*
X170127042Y-119446932D01*
X170125419Y-119469206D01*
X170125074Y-119497363D01*
X170050439Y-119497363D01*
X170050184Y-119450283D01*
X170053524Y-119392494D01*
X170060255Y-119330990D01*
X170070145Y-119267575D01*
X170080787Y-119214835D01*
X170182902Y-119214835D01*
X170187841Y-119220357D01*
X170199112Y-119222421D01*
X170217763Y-119221199D01*
X170244842Y-119216868D01*
X170247500Y-119216374D01*
X170272838Y-119212911D01*
X170306308Y-119210252D01*
X170346073Y-119208394D01*
X170390298Y-119207334D01*
X170437148Y-119207068D01*
X170484786Y-119207593D01*
X170531376Y-119208904D01*
X170575084Y-119210998D01*
X170614072Y-119213872D01*
X170643847Y-119217154D01*
X170674253Y-119221019D01*
X170696033Y-119223148D01*
X170710399Y-119223605D01*
X170718563Y-119222451D01*
X170720908Y-119221093D01*
X170721718Y-119214051D01*
X170718891Y-119200022D01*
X170713199Y-119180994D01*
X170705411Y-119158957D01*
X170696297Y-119135899D01*
X170686627Y-119113809D01*
X170677172Y-119094677D01*
X170668702Y-119080492D01*
X170664413Y-119075182D01*
X170658284Y-119069456D01*
X170651851Y-119065012D01*
X170643569Y-119061470D01*
X170631891Y-119058453D01*
X170615269Y-119055581D01*
X170592156Y-119052476D01*
X170561006Y-119048758D01*
X170552500Y-119047771D01*
X170518913Y-119043904D01*
X170493675Y-119041080D01*
X170475205Y-119039170D01*
X170461922Y-119038050D01*
X170452244Y-119037593D01*
X170444589Y-119037671D01*
X170437375Y-119038159D01*
X170435000Y-119038372D01*
X170423901Y-119039425D01*
X170405105Y-119041242D01*
X170380865Y-119043604D01*
X170353437Y-119046291D01*
X170340853Y-119047528D01*
X170309178Y-119050784D01*
X170285811Y-119053669D01*
X170269092Y-119056606D01*
X170257360Y-119060017D01*
X170248956Y-119064325D01*
X170242220Y-119069951D01*
X170238892Y-119073463D01*
X170233935Y-119081512D01*
X170226469Y-119096667D01*
X170217450Y-119116654D01*
X170207835Y-119139199D01*
X170198581Y-119162030D01*
X170190645Y-119182871D01*
X170184984Y-119199450D01*
X170183246Y-119205680D01*
X170182902Y-119214835D01*
X170080787Y-119214835D01*
X170082963Y-119204054D01*
X170098477Y-119142231D01*
X170112676Y-119095201D01*
X170131902Y-119042420D01*
X170155492Y-118987078D01*
X170181894Y-118932418D01*
X170196732Y-118905204D01*
X170325000Y-118905204D01*
X170326420Y-118907797D01*
X170331355Y-118909945D01*
X170340823Y-118911742D01*
X170355839Y-118913284D01*
X170377420Y-118914664D01*
X170406581Y-118915976D01*
X170444339Y-118917316D01*
X170461140Y-118917851D01*
X170500985Y-118919037D01*
X170531666Y-118919582D01*
X170554013Y-118919148D01*
X170568857Y-118917395D01*
X170577029Y-118913985D01*
X170579361Y-118908580D01*
X170576682Y-118900841D01*
X170569824Y-118890428D01*
X170560034Y-118877544D01*
X170533565Y-118846638D01*
X170507747Y-118823069D01*
X170483433Y-118807480D01*
X170461478Y-118800510D01*
X170456997Y-118800196D01*
X170445059Y-118801680D01*
X170430396Y-118805547D01*
X170429497Y-118805851D01*
X170399046Y-118820819D01*
X170370752Y-118844323D01*
X170349328Y-118869355D01*
X170337985Y-118884770D01*
X170329464Y-118897172D01*
X170325223Y-118904410D01*
X170325000Y-118905204D01*
X170196732Y-118905204D01*
X170209557Y-118881682D01*
X170232486Y-118844692D01*
X170266636Y-118798931D01*
X170302868Y-118760765D01*
X170340533Y-118730524D01*
X170378981Y-118708542D01*
X170417565Y-118695149D01*
X170455634Y-118690679D01*
X170492540Y-118695461D01*
X170511667Y-118701970D01*
X170538805Y-118714686D01*
X170562623Y-118729191D01*
X170586074Y-118747560D01*
X170612112Y-118771867D01*
X170614298Y-118774034D01*
X170651324Y-118814938D01*
X170684696Y-118860752D01*
X170712763Y-118908580D01*
X170715316Y-118912931D01*
G37*
%TO.C,U3*%
X170700000Y-118410000D02*
X174700000Y-118410000D01*
X172700000Y-114190000D02*
X174700000Y-114190000D01*
%TO.C,J1*%
X166065000Y-113930000D02*
X166065000Y-112800000D01*
X166825000Y-113930000D02*
X166065000Y-113930000D01*
X167585000Y-113930000D02*
X173870000Y-113930000D01*
X167585000Y-113930000D02*
X167585000Y-113363471D01*
X173870000Y-113930000D02*
X173870000Y-113107530D01*
X173870000Y-112492470D02*
X173870000Y-111837530D01*
X167585000Y-112236529D02*
X167585000Y-112093471D01*
X166130000Y-112040000D02*
X166130000Y-111837530D01*
X166261529Y-112040000D02*
X166130000Y-112040000D01*
X167531529Y-112040000D02*
X167388471Y-112040000D01*
X166130000Y-111222470D02*
X166130000Y-110400000D01*
X173870000Y-111222470D02*
X173870000Y-110400000D01*
X166130000Y-110400000D02*
X173870000Y-110400000D01*
%TO.C,R2*%
X167420000Y-128253641D02*
X167420000Y-127946359D01*
X168180000Y-128253641D02*
X168180000Y-127946359D01*
%TO.C,C2*%
X169090000Y-116640580D02*
X169090000Y-116359420D01*
X170110000Y-116640580D02*
X170110000Y-116359420D01*
%TO.C,C3*%
X173540580Y-119810000D02*
X173259420Y-119810000D01*
X173540580Y-118790000D02*
X173259420Y-118790000D01*
%TO.C,C6*%
X166540000Y-123307836D02*
X166540000Y-123092164D01*
X167260000Y-123307836D02*
X167260000Y-123092164D01*
%TO.C,C5*%
X173492164Y-123140000D02*
X173707836Y-123140000D01*
X173492164Y-123860000D02*
X173707836Y-123860000D01*
%TO.C,R1*%
X173753641Y-125880000D02*
X173446359Y-125880000D01*
X173753641Y-125120000D02*
X173446359Y-125120000D01*
%TO.C,J2*%
X166690000Y-139810000D02*
X166690000Y-138700000D01*
X167450000Y-139810000D02*
X166690000Y-139810000D01*
X168210000Y-139810000D02*
X173225000Y-139810000D01*
X168210000Y-139810000D02*
X168210000Y-139263471D01*
X173225000Y-139810000D02*
X173225000Y-139007530D01*
X173225000Y-138392470D02*
X173225000Y-137590000D01*
X168210000Y-138136529D02*
X168210000Y-137590000D01*
X168210000Y-137590000D02*
X173225000Y-137590000D01*
%TO.C,C1*%
X173492164Y-124140000D02*
X173707836Y-124140000D01*
X173492164Y-124860000D02*
X173707836Y-124860000D01*
%TO.C,C4*%
X165190000Y-137160000D02*
X168210000Y-137160000D01*
X168210000Y-137160000D02*
X168210000Y-132950000D01*
X165190000Y-132950000D02*
X165190000Y-137160000D01*
%TO.C,C7*%
X165590000Y-119960000D02*
X168610000Y-119960000D01*
X168610000Y-119960000D02*
X168610000Y-115750000D01*
X165590000Y-115750000D02*
X165590000Y-119960000D01*
%TD*%
M02*
