%TF.GenerationSoftware,KiCad,Pcbnew,7.0.8-7.0.8~ubuntu22.04.1*%
%TF.CreationDate,2023-10-09T16:02:49+01:00*%
%TF.ProjectId,motor_driver_v2,6d6f746f-725f-4647-9269-7665725f7632,rev?*%
%TF.SameCoordinates,Original*%
%TF.FileFunction,Copper,L1,Top*%
%TF.FilePolarity,Positive*%
%FSLAX46Y46*%
G04 Gerber Fmt 4.6, Leading zero omitted, Abs format (unit mm)*
G04 Created by KiCad (PCBNEW 7.0.8-7.0.8~ubuntu22.04.1) date 2023-10-09 16:02:49*
%MOMM*%
%LPD*%
G01*
G04 APERTURE LIST*
G04 Aperture macros list*
%AMRoundRect*
0 Rectangle with rounded corners*
0 $1 Rounding radius*
0 $2 $3 $4 $5 $6 $7 $8 $9 X,Y pos of 4 corners*
0 Add a 4 corners polygon primitive as box body*
4,1,4,$2,$3,$4,$5,$6,$7,$8,$9,$2,$3,0*
0 Add four circle primitives for the rounded corners*
1,1,$1+$1,$2,$3*
1,1,$1+$1,$4,$5*
1,1,$1+$1,$6,$7*
1,1,$1+$1,$8,$9*
0 Add four rect primitives between the rounded corners*
20,1,$1+$1,$2,$3,$4,$5,0*
20,1,$1+$1,$4,$5,$6,$7,0*
20,1,$1+$1,$6,$7,$8,$9,0*
20,1,$1+$1,$8,$9,$2,$3,0*%
%AMFreePoly0*
4,1,14,0.230680,0.111820,0.364320,-0.021821,0.377500,-0.053642,0.377500,-0.080000,0.364320,-0.111820,0.332500,-0.125000,-0.332500,-0.125000,-0.364320,-0.111820,-0.377500,-0.080000,-0.377500,0.080000,-0.364320,0.111820,-0.332500,0.125000,0.198860,0.125000,0.230680,0.111820,0.230680,0.111820,$1*%
%AMFreePoly1*
4,1,14,0.364320,0.111820,0.377500,0.080000,0.377501,0.053640,0.364318,0.021819,0.230680,-0.111820,0.198860,-0.125000,-0.332500,-0.125000,-0.364320,-0.111820,-0.377500,-0.080000,-0.377500,0.080000,-0.364320,0.111820,-0.332500,0.125000,0.332500,0.125000,0.364320,0.111820,0.364320,0.111820,$1*%
%AMFreePoly2*
4,1,15,0.053642,0.377500,0.080000,0.377500,0.111820,0.364320,0.125000,0.332500,0.125000,-0.332500,0.111820,-0.364320,0.080000,-0.377500,-0.080000,-0.377500,-0.111820,-0.364320,-0.125000,-0.332500,-0.125000,0.198860,-0.111820,0.230680,0.021820,0.364320,0.053640,0.377501,0.053642,0.377500,0.053642,0.377500,$1*%
%AMFreePoly3*
4,1,14,-0.021820,0.364320,0.111820,0.230679,0.125001,0.198860,0.125000,-0.332500,0.111820,-0.364320,0.080000,-0.377500,-0.080000,-0.377500,-0.111820,-0.364320,-0.125000,-0.332500,-0.125000,0.332500,-0.111820,0.364320,-0.080000,0.377500,-0.053640,0.377500,-0.021820,0.364320,-0.021820,0.364320,$1*%
%AMFreePoly4*
4,1,14,0.364320,0.111820,0.377500,0.080000,0.377500,-0.080000,0.364320,-0.111820,0.332500,-0.125000,-0.198860,-0.125001,-0.230680,-0.111818,-0.364320,0.021820,-0.377500,0.053640,-0.377500,0.080000,-0.364320,0.111820,-0.332500,0.125000,0.332500,0.125000,0.364320,0.111820,0.364320,0.111820,$1*%
%AMFreePoly5*
4,1,15,-0.198858,0.125000,0.332500,0.125000,0.364320,0.111820,0.377500,0.080000,0.377500,-0.080000,0.364320,-0.111820,0.332500,-0.125000,-0.332500,-0.125000,-0.364320,-0.111820,-0.377500,-0.080000,-0.377500,-0.053640,-0.364320,-0.021820,-0.230680,0.111820,-0.198860,0.125001,-0.198858,0.125000,-0.198858,0.125000,$1*%
%AMFreePoly6*
4,1,14,0.111820,0.364320,0.125000,0.332500,0.125001,-0.198860,0.111818,-0.230680,-0.021820,-0.364320,-0.053640,-0.377500,-0.080000,-0.377500,-0.111820,-0.364320,-0.125000,-0.332500,-0.125000,0.332500,-0.111820,0.364320,-0.080000,0.377500,0.080000,0.377500,0.111820,0.364320,0.111820,0.364320,$1*%
%AMFreePoly7*
4,1,14,0.111820,0.364320,0.125000,0.332500,0.125000,-0.332500,0.111820,-0.364320,0.080000,-0.377500,0.053640,-0.377501,0.021819,-0.364318,-0.111820,-0.230680,-0.125000,-0.198860,-0.125000,0.332500,-0.111820,0.364320,-0.080000,0.377500,0.080000,0.377500,0.111820,0.364320,0.111820,0.364320,$1*%
G04 Aperture macros list end*
%TA.AperFunction,SMDPad,CuDef*%
%ADD10RoundRect,0.200000X-0.200000X-0.275000X0.200000X-0.275000X0.200000X0.275000X-0.200000X0.275000X0*%
%TD*%
%TA.AperFunction,SMDPad,CuDef*%
%ADD11RoundRect,0.140000X0.170000X-0.140000X0.170000X0.140000X-0.170000X0.140000X-0.170000X-0.140000X0*%
%TD*%
%TA.AperFunction,SMDPad,CuDef*%
%ADD12FreePoly0,180.000000*%
%TD*%
%TA.AperFunction,SMDPad,CuDef*%
%ADD13RoundRect,0.062500X0.375000X0.062500X-0.375000X0.062500X-0.375000X-0.062500X0.375000X-0.062500X0*%
%TD*%
%TA.AperFunction,SMDPad,CuDef*%
%ADD14FreePoly1,180.000000*%
%TD*%
%TA.AperFunction,SMDPad,CuDef*%
%ADD15FreePoly2,180.000000*%
%TD*%
%TA.AperFunction,SMDPad,CuDef*%
%ADD16RoundRect,0.062500X0.062500X0.375000X-0.062500X0.375000X-0.062500X-0.375000X0.062500X-0.375000X0*%
%TD*%
%TA.AperFunction,SMDPad,CuDef*%
%ADD17FreePoly3,180.000000*%
%TD*%
%TA.AperFunction,SMDPad,CuDef*%
%ADD18FreePoly4,180.000000*%
%TD*%
%TA.AperFunction,SMDPad,CuDef*%
%ADD19FreePoly5,180.000000*%
%TD*%
%TA.AperFunction,SMDPad,CuDef*%
%ADD20FreePoly6,180.000000*%
%TD*%
%TA.AperFunction,SMDPad,CuDef*%
%ADD21FreePoly7,180.000000*%
%TD*%
%TA.AperFunction,SMDPad,CuDef*%
%ADD22R,0.500000X2.200000*%
%TD*%
%TA.AperFunction,ComponentPad*%
%ADD23C,0.630000*%
%TD*%
%TA.AperFunction,SMDPad,CuDef*%
%ADD24R,4.900000X2.950000*%
%TD*%
%TA.AperFunction,SMDPad,CuDef*%
%ADD25RoundRect,0.135000X-0.135000X-0.185000X0.135000X-0.185000X0.135000X0.185000X-0.135000X0.185000X0*%
%TD*%
%TA.AperFunction,SMDPad,CuDef*%
%ADD26RoundRect,0.100000X-0.225000X-0.100000X0.225000X-0.100000X0.225000X0.100000X-0.225000X0.100000X0*%
%TD*%
%TA.AperFunction,SMDPad,CuDef*%
%ADD27R,2.200000X3.000000*%
%TD*%
%TA.AperFunction,ComponentPad*%
%ADD28R,1.000000X1.000000*%
%TD*%
%TA.AperFunction,ComponentPad*%
%ADD29O,1.000000X1.000000*%
%TD*%
%TA.AperFunction,SMDPad,CuDef*%
%ADD30RoundRect,0.135000X0.185000X-0.135000X0.185000X0.135000X-0.185000X0.135000X-0.185000X-0.135000X0*%
%TD*%
%TA.AperFunction,SMDPad,CuDef*%
%ADD31RoundRect,0.225000X0.250000X-0.225000X0.250000X0.225000X-0.250000X0.225000X-0.250000X-0.225000X0*%
%TD*%
%TA.AperFunction,SMDPad,CuDef*%
%ADD32RoundRect,0.225000X0.225000X0.250000X-0.225000X0.250000X-0.225000X-0.250000X0.225000X-0.250000X0*%
%TD*%
%TA.AperFunction,SMDPad,CuDef*%
%ADD33RoundRect,0.140000X-0.140000X-0.170000X0.140000X-0.170000X0.140000X0.170000X-0.140000X0.170000X0*%
%TD*%
%TA.AperFunction,SMDPad,CuDef*%
%ADD34RoundRect,0.135000X0.135000X0.185000X-0.135000X0.185000X-0.135000X-0.185000X0.135000X-0.185000X0*%
%TD*%
%TA.AperFunction,SMDPad,CuDef*%
%ADD35RoundRect,0.250000X0.925000X-0.412500X0.925000X0.412500X-0.925000X0.412500X-0.925000X-0.412500X0*%
%TD*%
%TA.AperFunction,ViaPad*%
%ADD36C,0.600000*%
%TD*%
%TA.AperFunction,ViaPad*%
%ADD37C,0.800000*%
%TD*%
%TA.AperFunction,Conductor*%
%ADD38C,0.200000*%
%TD*%
%TA.AperFunction,Conductor*%
%ADD39C,0.500000*%
%TD*%
%TA.AperFunction,Conductor*%
%ADD40C,0.300000*%
%TD*%
G04 APERTURE END LIST*
D10*
%TO.P,R4,1*%
%TO.N,GND*%
X165775000Y-131300000D03*
%TO.P,R4,2*%
%TO.N,Net-(R4-Pad2)*%
X167425000Y-131300000D03*
%TD*%
D11*
%TO.P,C8,1*%
%TO.N,/ADC_IN*%
X173700000Y-122260000D03*
%TO.P,C8,2*%
%TO.N,GND*%
X173700000Y-121300000D03*
%TD*%
D12*
%TO.P,U2,1,BOOT0*%
%TO.N,Net-(U2-BOOT0)*%
X171997500Y-125500000D03*
D13*
%TO.P,U2,2,PF0*%
%TO.N,unconnected-(U2-PF0-Pad2)*%
X171937500Y-125000000D03*
%TO.P,U2,3,PF1*%
%TO.N,unconnected-(U2-PF1-Pad3)*%
X171937500Y-124500000D03*
%TO.P,U2,4,NRST*%
%TO.N,/NRST*%
X171937500Y-124000000D03*
%TO.P,U2,5,VDDA*%
%TO.N,+3.3V*%
X171937500Y-123500000D03*
%TO.P,U2,6,PA0*%
%TO.N,/ADC_IN*%
X171937500Y-123000000D03*
D14*
%TO.P,U2,7,PA1*%
%TO.N,/TIM2_CH2*%
X171997500Y-122500000D03*
D15*
%TO.P,U2,8,PA2*%
%TO.N,unconnected-(U2-PA2-Pad8)*%
X171500000Y-122002500D03*
D16*
%TO.P,U2,9,PA3*%
%TO.N,unconnected-(U2-PA3-Pad9)*%
X171000000Y-122062500D03*
%TO.P,U2,10,PA4*%
%TO.N,/SPI1_NSS*%
X170500000Y-122062500D03*
%TO.P,U2,11,PA5*%
%TO.N,/SPI1_SCK*%
X170000000Y-122062500D03*
%TO.P,U2,12,PA6*%
%TO.N,unconnected-(U2-PA6-Pad12)*%
X169500000Y-122062500D03*
%TO.P,U2,13,PA7*%
%TO.N,/SPI1_MOSI*%
X169000000Y-122062500D03*
D17*
%TO.P,U2,14,PB0*%
%TO.N,unconnected-(U2-PB0-Pad14)*%
X168500000Y-122002500D03*
D18*
%TO.P,U2,15,PB1*%
%TO.N,unconnected-(U2-PB1-Pad15)*%
X168002500Y-122500000D03*
D13*
%TO.P,U2,16,VSS*%
%TO.N,GND*%
X168062500Y-123000000D03*
%TO.P,U2,17,VDD*%
%TO.N,+3.3V*%
X168062500Y-123500000D03*
%TO.P,U2,18,PA8*%
%TO.N,unconnected-(U2-PA8-Pad18)*%
X168062500Y-124000000D03*
%TO.P,U2,19,PA9*%
%TO.N,/UART_TX*%
X168062500Y-124500000D03*
%TO.P,U2,20,PA10*%
%TO.N,/UART_RX*%
X168062500Y-125000000D03*
D19*
%TO.P,U2,21,PA13*%
%TO.N,/SWDIO*%
X168002500Y-125500000D03*
D20*
%TO.P,U2,22,PA14*%
%TO.N,/SWCLK*%
X168500000Y-125997500D03*
D16*
%TO.P,U2,23,PA15*%
%TO.N,/TIM2_CH1*%
X169000000Y-125937500D03*
%TO.P,U2,24,PB3*%
%TO.N,unconnected-(U2-PB3-Pad24)*%
X169500000Y-125937500D03*
%TO.P,U2,25,PB4*%
%TO.N,unconnected-(U2-PB4-Pad25)*%
X170000000Y-125937500D03*
%TO.P,U2,26,PB5*%
%TO.N,unconnected-(U2-PB5-Pad26)*%
X170500000Y-125937500D03*
%TO.P,U2,27,PB6*%
%TO.N,unconnected-(U2-PB6-Pad27)*%
X171000000Y-125937500D03*
D21*
%TO.P,U2,28,PB7*%
%TO.N,unconnected-(U2-PB7-Pad28)*%
X171500000Y-125997500D03*
%TD*%
D22*
%TO.P,U1,1,GND*%
%TO.N,Net-(R4-Pad2)*%
X173005000Y-128950000D03*
%TO.P,U1,2,IN2*%
%TO.N,/TIM2_CH2*%
X171735000Y-128950000D03*
%TO.P,U1,3,IN1*%
%TO.N,/TIM2_CH1*%
X170465000Y-128950000D03*
%TO.P,U1,4,VREF*%
%TO.N,Net-(U1-VREF)*%
X169195000Y-128950000D03*
%TO.P,U1,5,VM*%
%TO.N,+12V*%
X169195000Y-134700000D03*
%TO.P,U1,6,OUT1*%
%TO.N,Net-(J2-Pin_1)*%
X170465000Y-134700000D03*
%TO.P,U1,7,ISEN*%
%TO.N,GND*%
X171735000Y-134700000D03*
%TO.P,U1,8,OUT2*%
%TO.N,Net-(J2-Pin_2)*%
X173005000Y-134700000D03*
D23*
%TO.P,U1,9,GND*%
%TO.N,GND*%
X172400000Y-131175000D03*
X171100000Y-131175000D03*
X169800000Y-131175000D03*
D24*
X171100000Y-131825000D03*
D23*
X172400000Y-132475000D03*
X171100000Y-132475000D03*
X169800000Y-132475000D03*
%TD*%
D25*
%TO.P,R3,1*%
%TO.N,GND*%
X166690000Y-129700000D03*
%TO.P,R3,2*%
%TO.N,Net-(U1-VREF)*%
X167710000Y-129700000D03*
%TD*%
D26*
%TO.P,U3,1,GND*%
%TO.N,GND*%
X171050000Y-115100000D03*
%TO.P,U3,2,VI*%
%TO.N,+12V*%
X171050000Y-115900000D03*
%TO.P,U3,3,VI*%
X171050000Y-116700000D03*
%TO.P,U3,4,VI*%
X171050000Y-117500000D03*
%TO.P,U3,5,VO*%
%TO.N,+3.3V*%
X174350000Y-117500000D03*
%TO.P,U3,6,VO*%
X174350000Y-116700000D03*
%TO.P,U3,7,VO*%
X174350000Y-115900000D03*
%TO.P,U3,8,NC*%
%TO.N,unconnected-(U3-NC-Pad8)*%
X174350000Y-115100000D03*
D27*
%TO.P,U3,9,VO*%
%TO.N,+3.3V*%
X172700000Y-116300000D03*
%TD*%
D28*
%TO.P,J1,1,Pin_1*%
%TO.N,+12V*%
X166825000Y-112800000D03*
D29*
%TO.P,J1,2,Pin_2*%
X166825000Y-111530000D03*
%TO.P,J1,3,Pin_3*%
%TO.N,GND*%
X168095000Y-112800000D03*
%TO.P,J1,4,Pin_4*%
X168095000Y-111530000D03*
%TO.P,J1,5,Pin_5*%
%TO.N,/SPI1_MOSI*%
X169365000Y-112800000D03*
%TO.P,J1,6,Pin_6*%
%TO.N,/UART_TX*%
X169365000Y-111530000D03*
%TO.P,J1,7,Pin_7*%
%TO.N,/SPI1_SCK*%
X170635000Y-112800000D03*
%TO.P,J1,8,Pin_8*%
%TO.N,/UART_RX*%
X170635000Y-111530000D03*
%TO.P,J1,9,Pin_9*%
%TO.N,/SPI1_NSS*%
X171905000Y-112800000D03*
%TO.P,J1,10,Pin_10*%
%TO.N,/SWDIO*%
X171905000Y-111530000D03*
%TO.P,J1,11,Pin_11*%
%TO.N,/NRST*%
X173175000Y-112800000D03*
%TO.P,J1,12,Pin_12*%
%TO.N,/SWCLK*%
X173175000Y-111530000D03*
%TD*%
D30*
%TO.P,R2,1*%
%TO.N,Net-(U1-VREF)*%
X167800000Y-128610000D03*
%TO.P,R2,2*%
%TO.N,+3.3V*%
X167800000Y-127590000D03*
%TD*%
D31*
%TO.P,C2,1*%
%TO.N,+12V*%
X169600000Y-117275000D03*
%TO.P,C2,2*%
%TO.N,GND*%
X169600000Y-115725000D03*
%TD*%
D32*
%TO.P,C3,1*%
%TO.N,+3.3V*%
X174175000Y-119300000D03*
%TO.P,C3,2*%
%TO.N,GND*%
X172625000Y-119300000D03*
%TD*%
D11*
%TO.P,C6,1*%
%TO.N,+3.3V*%
X166900000Y-123680000D03*
%TO.P,C6,2*%
%TO.N,GND*%
X166900000Y-122720000D03*
%TD*%
D33*
%TO.P,C5,1*%
%TO.N,+3.3V*%
X173120000Y-123500000D03*
%TO.P,C5,2*%
%TO.N,GND*%
X174080000Y-123500000D03*
%TD*%
D34*
%TO.P,R1,1*%
%TO.N,GND*%
X174110000Y-125500000D03*
%TO.P,R1,2*%
%TO.N,Net-(U2-BOOT0)*%
X173090000Y-125500000D03*
%TD*%
D28*
%TO.P,J2,1,Pin_1*%
%TO.N,Net-(J2-Pin_1)*%
X167450000Y-138700000D03*
D29*
%TO.P,J2,2,Pin_2*%
%TO.N,Net-(J2-Pin_2)*%
X168720000Y-138700000D03*
%TO.P,J2,3,Pin_3*%
%TO.N,GND*%
X169990000Y-138700000D03*
%TO.P,J2,4,Pin_4*%
%TO.N,+3.3V*%
X171260000Y-138700000D03*
%TO.P,J2,5,Pin_5*%
%TO.N,/ADC_IN*%
X172530000Y-138700000D03*
%TD*%
D33*
%TO.P,C1,1*%
%TO.N,/NRST*%
X173120000Y-124500000D03*
%TO.P,C1,2*%
%TO.N,GND*%
X174080000Y-124500000D03*
%TD*%
D35*
%TO.P,C4,1*%
%TO.N,+12V*%
X166700000Y-136237500D03*
%TO.P,C4,2*%
%TO.N,GND*%
X166700000Y-133162500D03*
%TD*%
%TO.P,C7,1*%
%TO.N,+12V*%
X167100000Y-119037500D03*
%TO.P,C7,2*%
%TO.N,GND*%
X167100000Y-115962500D03*
%TD*%
D36*
%TO.N,Net-(R4-Pad2)*%
X167700000Y-131300000D03*
X173005000Y-128950000D03*
%TO.N,/NRST*%
X171099500Y-121125502D03*
X171675500Y-119500500D03*
X170699500Y-124200000D03*
%TO.N,GND*%
X167000000Y-122000000D03*
X167250000Y-114600000D03*
X172600000Y-113700000D03*
X167750000Y-121600000D03*
X169100000Y-127350000D03*
X172500000Y-126400000D03*
X166950000Y-133500000D03*
X172300000Y-118400000D03*
X166950000Y-132900000D03*
X173529503Y-138700000D03*
X166000000Y-138700000D03*
X167000000Y-121250000D03*
X173100000Y-127150000D03*
X168250000Y-114950000D03*
X170800000Y-127100000D03*
D37*
%TO.N,+12V*%
X167100000Y-135300000D03*
X166500000Y-120100000D03*
X165500000Y-135200000D03*
X165700000Y-120100000D03*
X168100000Y-136300000D03*
X166300000Y-135200000D03*
D36*
%TO.N,+3.3V*%
X174095012Y-120200000D03*
X173120000Y-123500000D03*
X174080500Y-126350000D03*
%TO.N,/SPI1_MOSI*%
X169800388Y-118224500D03*
%TO.N,/UART_TX*%
X169100000Y-124400500D03*
X169300000Y-114500000D03*
%TO.N,/SPI1_SCK*%
X170599500Y-118249500D03*
%TO.N,/UART_RX*%
X171000000Y-125000500D03*
%TO.N,/SPI1_NSS*%
X171398963Y-118257260D03*
%TO.N,/SWDIO*%
X168396851Y-126874008D03*
%TO.N,/SWCLK*%
X167700000Y-126124500D03*
D37*
%TO.N,GND*%
X171700000Y-135600000D03*
X171700000Y-134800000D03*
X171700000Y-134000000D03*
D36*
%TO.N,/TIM2_CH2*%
X171800000Y-127700000D03*
X172500000Y-121800000D03*
%TD*%
D38*
%TO.N,/SPI1_MOSI*%
X169800388Y-118224500D02*
X169000000Y-119024888D01*
X169000000Y-119024888D02*
X169000000Y-122062500D01*
D39*
%TO.N,Net-(R4-Pad2)*%
X167425000Y-131300000D02*
X167700000Y-131300000D01*
%TO.N,Net-(U1-VREF)*%
X169195000Y-128950000D02*
X167940000Y-128950000D01*
X167940000Y-128950000D02*
X167800000Y-129090000D01*
X167800000Y-129090000D02*
X167800000Y-129490000D01*
D40*
%TO.N,+3.3V*%
X166900000Y-123680000D02*
X166650000Y-123930000D01*
X166650000Y-123930000D02*
X166650000Y-126950000D01*
X166650000Y-126950000D02*
X167290000Y-127590000D01*
X167290000Y-127590000D02*
X167800000Y-127590000D01*
D38*
%TO.N,/NRST*%
X171300000Y-120925002D02*
X171099500Y-121125502D01*
X171675500Y-119500500D02*
X171300000Y-119876000D01*
X171937500Y-124000000D02*
X172620000Y-124000000D01*
X170699500Y-124200000D02*
X170899500Y-124000000D01*
X172620000Y-124000000D02*
X173120000Y-124500000D01*
X170899500Y-124000000D02*
X171937500Y-124000000D01*
X171300000Y-119876000D02*
X171300000Y-120925002D01*
%TO.N,GND*%
X168062500Y-123000000D02*
X167180000Y-123000000D01*
X167180000Y-123000000D02*
X166900000Y-122720000D01*
D39*
%TO.N,+3.3V*%
X171989950Y-137900000D02*
X171986497Y-137900000D01*
D38*
X167080000Y-123500000D02*
X166900000Y-123680000D01*
D39*
X171260000Y-138626497D02*
X171260000Y-138700000D01*
X174080500Y-126350000D02*
X174080500Y-135809450D01*
X174095012Y-120200000D02*
X174095012Y-119379988D01*
X174080500Y-135809450D02*
X171989950Y-137900000D01*
D38*
X168062500Y-123500000D02*
X171937500Y-123500000D01*
D39*
X171986497Y-137900000D02*
X171260000Y-138626497D01*
X174095012Y-119379988D02*
X174175000Y-119300000D01*
D38*
X168062500Y-123500000D02*
X167080000Y-123500000D01*
X171937500Y-123500000D02*
X173120000Y-123500000D01*
%TO.N,/UART_TX*%
X169100000Y-124400500D02*
X169000500Y-124500000D01*
X174300000Y-113106371D02*
X174300000Y-111100000D01*
X169000500Y-124500000D02*
X168062500Y-124500000D01*
X173006371Y-114400000D02*
X174300000Y-113106371D01*
X173500000Y-110300000D02*
X170595000Y-110300000D01*
X170595000Y-110300000D02*
X169365000Y-111530000D01*
X174300000Y-111100000D02*
X173500000Y-110300000D01*
X169400000Y-114400000D02*
X173006371Y-114400000D01*
X169300000Y-114500000D02*
X169400000Y-114400000D01*
%TO.N,/SPI1_SCK*%
X169900000Y-119242283D02*
X169900000Y-121512348D01*
X170000000Y-121612348D02*
X170000000Y-122062500D01*
X170599500Y-118542783D02*
X169900000Y-119242283D01*
X169900000Y-121512348D02*
X170000000Y-121612348D01*
X170599500Y-118249500D02*
X170599500Y-118542783D01*
%TO.N,/UART_RX*%
X170999500Y-125000000D02*
X168062500Y-125000000D01*
X171000000Y-125000500D02*
X170999500Y-125000000D01*
%TO.N,/SPI1_NSS*%
X170300000Y-119407969D02*
X170300000Y-121346662D01*
X171398963Y-118309006D02*
X170300000Y-119407969D01*
X171398963Y-118257260D02*
X171398963Y-118309006D01*
X170500000Y-121546662D02*
X170500000Y-122062500D01*
X170300000Y-121346662D02*
X170500000Y-121546662D01*
%TO.N,/SWDIO*%
X168347351Y-126724500D02*
X167451471Y-126724500D01*
X167100000Y-125875971D02*
X167475971Y-125500000D01*
X167451471Y-126724500D02*
X167100000Y-126373029D01*
X168396851Y-126774000D02*
X168347351Y-126724500D01*
X168396851Y-126874008D02*
X168396851Y-126774000D01*
X167475971Y-125500000D02*
X168002500Y-125500000D01*
X167100000Y-126373029D02*
X167100000Y-125875971D01*
%TO.N,/SWCLK*%
X167827000Y-125997500D02*
X168500000Y-125997500D01*
X167700000Y-126124500D02*
X167827000Y-125997500D01*
D39*
%TO.N,Net-(J2-Pin_1)*%
X170465000Y-135550000D02*
X167450000Y-138565000D01*
X167450000Y-138565000D02*
X167450000Y-138700000D01*
X170465000Y-134700000D02*
X170465000Y-135550000D01*
%TO.N,Net-(J2-Pin_2)*%
X172300000Y-136600000D02*
X170746497Y-136600000D01*
X168720000Y-138626497D02*
X168720000Y-138700000D01*
X173005000Y-135895000D02*
X172300000Y-136600000D01*
X173005000Y-134700000D02*
X173005000Y-135895000D01*
X170746497Y-136600000D02*
X168720000Y-138626497D01*
D38*
%TO.N,/ADC_IN*%
X174680000Y-136550000D02*
X172530000Y-138700000D01*
X173600000Y-122890000D02*
X173700000Y-122790000D01*
X172687746Y-123000000D02*
X172797746Y-122890000D01*
X173700000Y-122790000D02*
X173700000Y-122260000D01*
X174680000Y-123080000D02*
X174680000Y-136550000D01*
X174490000Y-122890000D02*
X174680000Y-123080000D01*
X171937500Y-123000000D02*
X172687746Y-123000000D01*
X172797746Y-122890000D02*
X173600000Y-122890000D01*
X173600000Y-122890000D02*
X174490000Y-122890000D01*
%TO.N,Net-(U2-BOOT0)*%
X171997500Y-125500000D02*
X173090000Y-125500000D01*
%TO.N,/TIM2_CH2*%
X171800000Y-128885000D02*
X171735000Y-128950000D01*
X172500000Y-121800000D02*
X172500000Y-121997500D01*
X172500000Y-121997500D02*
X171997500Y-122500000D01*
X171800000Y-127700000D02*
X171800000Y-128885000D01*
%TO.N,/TIM2_CH1*%
X170465000Y-127852652D02*
X170465000Y-128950000D01*
X169000000Y-125937500D02*
X169000000Y-126387652D01*
X169000000Y-126387652D02*
X170465000Y-127852652D01*
%TD*%
%TA.AperFunction,Conductor*%
%TO.N,+12V*%
G36*
X169209562Y-133601902D02*
G01*
X169295492Y-133618994D01*
X169331177Y-133633775D01*
X169395761Y-133676929D01*
X169423070Y-133704238D01*
X169457821Y-133756246D01*
X169466223Y-133768821D01*
X169481005Y-133804507D01*
X169498098Y-133890436D01*
X169500000Y-133909751D01*
X169500000Y-135658400D01*
X169497900Y-135678684D01*
X169479059Y-135768690D01*
X169462789Y-135805850D01*
X169409434Y-135880740D01*
X169395954Y-135896042D01*
X168292986Y-136914165D01*
X168278345Y-136925346D01*
X168207769Y-136969502D01*
X168173604Y-136982861D01*
X168119871Y-136992992D01*
X168091794Y-136998286D01*
X168073453Y-137000000D01*
X165309752Y-137000000D01*
X165290438Y-136998098D01*
X165204508Y-136981005D01*
X165168821Y-136966223D01*
X165156246Y-136957821D01*
X165104238Y-136923070D01*
X165076929Y-136895761D01*
X165033775Y-136831177D01*
X165018994Y-136795490D01*
X165002402Y-136712074D01*
X165000500Y-136692761D01*
X165000500Y-134907237D01*
X165002402Y-134887923D01*
X165018994Y-134804508D01*
X165033774Y-134768824D01*
X165076931Y-134704235D01*
X165104235Y-134676931D01*
X165168824Y-134633774D01*
X165204507Y-134618994D01*
X165249341Y-134610076D01*
X165290439Y-134601902D01*
X165309752Y-134600000D01*
X167131181Y-134600000D01*
X167213432Y-134600000D01*
X168751805Y-133687868D01*
X168826403Y-133643637D01*
X168832300Y-133640654D01*
X168890663Y-133615882D01*
X168916132Y-133608899D01*
X168978961Y-133600443D01*
X168985571Y-133600000D01*
X169190248Y-133600000D01*
X169209562Y-133601902D01*
G37*
%TD.AperFunction*%
%TD*%
%TA.AperFunction,Conductor*%
%TO.N,+3.3V*%
G36*
X172604742Y-115626982D02*
G01*
X173690032Y-115699336D01*
X173690083Y-115699338D01*
X173700000Y-115700000D01*
X174390248Y-115700000D01*
X174409562Y-115701902D01*
X174495492Y-115718994D01*
X174531177Y-115733775D01*
X174595761Y-115776929D01*
X174623070Y-115804238D01*
X174657821Y-115856246D01*
X174666223Y-115868821D01*
X174681005Y-115904507D01*
X174698098Y-115990436D01*
X174700000Y-116009751D01*
X174700000Y-119490248D01*
X174698098Y-119509563D01*
X174681005Y-119595492D01*
X174666223Y-119631178D01*
X174623073Y-119695758D01*
X174595758Y-119723073D01*
X174531178Y-119766223D01*
X174495492Y-119781005D01*
X174430801Y-119793873D01*
X174409561Y-119798098D01*
X174390248Y-119800000D01*
X174009752Y-119800000D01*
X173990438Y-119798098D01*
X173904508Y-119781005D01*
X173868821Y-119766223D01*
X173856246Y-119757821D01*
X173804238Y-119723070D01*
X173776929Y-119695761D01*
X173733775Y-119631177D01*
X173718994Y-119595491D01*
X173701902Y-119509562D01*
X173700000Y-119490248D01*
X173700000Y-118790832D01*
X173700000Y-118700000D01*
X172900000Y-117500000D01*
X172612394Y-117458913D01*
X172564724Y-117452103D01*
X172466347Y-117438049D01*
X172449158Y-117434002D01*
X172373368Y-117408843D01*
X172342482Y-117392006D01*
X172287285Y-117347577D01*
X172264238Y-117321004D01*
X172228061Y-117260077D01*
X172215764Y-117227129D01*
X172201575Y-117148533D01*
X172200000Y-117130945D01*
X172200000Y-115930834D01*
X172202066Y-115910713D01*
X172220608Y-115821385D01*
X172236625Y-115784468D01*
X172272358Y-115733776D01*
X172283205Y-115718387D01*
X172312587Y-115690898D01*
X172381627Y-115648811D01*
X172419522Y-115635289D01*
X172488390Y-115625717D01*
X172509883Y-115622730D01*
X172530094Y-115622006D01*
X172604742Y-115626982D01*
G37*
%TD.AperFunction*%
%TD*%
%TA.AperFunction,Conductor*%
%TO.N,+12V*%
G36*
X171109562Y-115701902D02*
G01*
X171195492Y-115718994D01*
X171231177Y-115733775D01*
X171295761Y-115776929D01*
X171323070Y-115804238D01*
X171357821Y-115856246D01*
X171366223Y-115868821D01*
X171381005Y-115904507D01*
X171397598Y-115987922D01*
X171399500Y-116007237D01*
X171399500Y-117392761D01*
X171397598Y-117412076D01*
X171381005Y-117495492D01*
X171366223Y-117531178D01*
X171323073Y-117595758D01*
X171295758Y-117623073D01*
X171231178Y-117666223D01*
X171195492Y-117681005D01*
X171130801Y-117693873D01*
X171109561Y-117698098D01*
X171090248Y-117700000D01*
X169200000Y-117700000D01*
X169115644Y-117860275D01*
X168700159Y-118649695D01*
X168201580Y-119596997D01*
X168199983Y-119599991D01*
X168199982Y-119599993D01*
X168198354Y-119602963D01*
X167789995Y-120338005D01*
X167780161Y-120352513D01*
X167730046Y-120413934D01*
X167703545Y-120436672D01*
X167642920Y-120472344D01*
X167610174Y-120484467D01*
X167557533Y-120493898D01*
X167532140Y-120498448D01*
X167514682Y-120500000D01*
X165309752Y-120500000D01*
X165290438Y-120498098D01*
X165204508Y-120481005D01*
X165168821Y-120466223D01*
X165156246Y-120457821D01*
X165104238Y-120423070D01*
X165076929Y-120395761D01*
X165033775Y-120331177D01*
X165018994Y-120295490D01*
X165002402Y-120212074D01*
X165000500Y-120192761D01*
X165000500Y-118519172D01*
X165002565Y-118499055D01*
X165020600Y-118412153D01*
X165036611Y-118375242D01*
X165083172Y-118309171D01*
X165112546Y-118281679D01*
X165190424Y-118234182D01*
X165208670Y-118225474D01*
X169149082Y-116818184D01*
X169153114Y-116816937D01*
X169192532Y-116806567D01*
X169209238Y-116803673D01*
X169249849Y-116800181D01*
X169254087Y-116800000D01*
X169991388Y-116800000D01*
X170100000Y-116800000D01*
X170700000Y-116300000D01*
X170700000Y-116009751D01*
X170701902Y-115990437D01*
X170718994Y-115904508D01*
X170718995Y-115904507D01*
X170718994Y-115904506D01*
X170733774Y-115868824D01*
X170776931Y-115804235D01*
X170804235Y-115776931D01*
X170868824Y-115733774D01*
X170904507Y-115718994D01*
X170949341Y-115710076D01*
X170990439Y-115701902D01*
X171009752Y-115700000D01*
X171090248Y-115700000D01*
X171109562Y-115701902D01*
G37*
%TD.AperFunction*%
%TD*%
%TA.AperFunction,Conductor*%
%TO.N,GND*%
G36*
X174945445Y-136806268D02*
G01*
X174988710Y-136849533D01*
X174999500Y-136894478D01*
X174999500Y-139692761D01*
X174997598Y-139712076D01*
X174981005Y-139795492D01*
X174966223Y-139831178D01*
X174923073Y-139895758D01*
X174895758Y-139923073D01*
X174831178Y-139966223D01*
X174795492Y-139981005D01*
X174737485Y-139992543D01*
X174712074Y-139997598D01*
X174692762Y-139999500D01*
X165307238Y-139999500D01*
X165287925Y-139997598D01*
X165254409Y-139990931D01*
X165204507Y-139981005D01*
X165168821Y-139966223D01*
X165156246Y-139957821D01*
X165104238Y-139923070D01*
X165076929Y-139895761D01*
X165033775Y-139831177D01*
X165018994Y-139795490D01*
X165002402Y-139712074D01*
X165000500Y-139692761D01*
X165000500Y-137266317D01*
X165019407Y-137208126D01*
X165068907Y-137172162D01*
X165128237Y-137171581D01*
X165164416Y-137182556D01*
X165164423Y-137182557D01*
X165164425Y-137182558D01*
X165255295Y-137200634D01*
X165255293Y-137200634D01*
X165261949Y-137201620D01*
X165265277Y-137202114D01*
X165294632Y-137205005D01*
X165304708Y-137205500D01*
X165304715Y-137205500D01*
X167933388Y-137205500D01*
X167991579Y-137224407D01*
X168027543Y-137273907D01*
X168027543Y-137335093D01*
X168003392Y-137374504D01*
X167407393Y-137970504D01*
X167352876Y-137998281D01*
X167337389Y-137999500D01*
X166930252Y-137999500D01*
X166930251Y-137999500D01*
X166930241Y-137999501D01*
X166871772Y-138011132D01*
X166871766Y-138011134D01*
X166805451Y-138055445D01*
X166805445Y-138055451D01*
X166761134Y-138121766D01*
X166761132Y-138121772D01*
X166749501Y-138180241D01*
X166749500Y-138180253D01*
X166749500Y-139219746D01*
X166749501Y-139219758D01*
X166760255Y-139273817D01*
X166761133Y-139278231D01*
X166805448Y-139344552D01*
X166871769Y-139388867D01*
X166916231Y-139397711D01*
X166930241Y-139400498D01*
X166930246Y-139400498D01*
X166930252Y-139400500D01*
X166930253Y-139400500D01*
X167969747Y-139400500D01*
X167969748Y-139400500D01*
X168028231Y-139388867D01*
X168094552Y-139344552D01*
X168138867Y-139278231D01*
X168138867Y-139278230D01*
X168141816Y-139273817D01*
X168189866Y-139235938D01*
X168251004Y-139233536D01*
X168289780Y-139254716D01*
X168319148Y-139280734D01*
X168469775Y-139359790D01*
X168634944Y-139400500D01*
X168634947Y-139400500D01*
X168805053Y-139400500D01*
X168805056Y-139400500D01*
X168970225Y-139359790D01*
X169120852Y-139280734D01*
X169248183Y-139167929D01*
X169344818Y-139027930D01*
X169405140Y-138868872D01*
X169425645Y-138700000D01*
X169416075Y-138621186D01*
X169427830Y-138561142D01*
X169444345Y-138539254D01*
X170904104Y-137079496D01*
X170958621Y-137051719D01*
X170974108Y-137050500D01*
X171963340Y-137050500D01*
X172021531Y-137069407D01*
X172057495Y-137118907D01*
X172057495Y-137180093D01*
X172033343Y-137219504D01*
X171733832Y-137519013D01*
X171721343Y-137528238D01*
X171721927Y-137529029D01*
X171715959Y-137533433D01*
X171673897Y-137575495D01*
X171630302Y-137615945D01*
X171625676Y-137621746D01*
X171625333Y-137621472D01*
X171616792Y-137632599D01*
X171278891Y-137970503D01*
X171224374Y-137998281D01*
X171208887Y-137999500D01*
X171174941Y-137999500D01*
X171009776Y-138040209D01*
X170859146Y-138119267D01*
X170731818Y-138232069D01*
X170731817Y-138232071D01*
X170635182Y-138372070D01*
X170574860Y-138531128D01*
X170554355Y-138700000D01*
X170574860Y-138868872D01*
X170635182Y-139027930D01*
X170731817Y-139167929D01*
X170859148Y-139280734D01*
X171009775Y-139359790D01*
X171174944Y-139400500D01*
X171174947Y-139400500D01*
X171345053Y-139400500D01*
X171345056Y-139400500D01*
X171510225Y-139359790D01*
X171660852Y-139280734D01*
X171788183Y-139167929D01*
X171813525Y-139131214D01*
X171862141Y-139094065D01*
X171923308Y-139092587D01*
X171973663Y-139127344D01*
X171976475Y-139131215D01*
X172001813Y-139167924D01*
X172001816Y-139167927D01*
X172001817Y-139167929D01*
X172129148Y-139280734D01*
X172279775Y-139359790D01*
X172444944Y-139400500D01*
X172444947Y-139400500D01*
X172615053Y-139400500D01*
X172615056Y-139400500D01*
X172780225Y-139359790D01*
X172930852Y-139280734D01*
X173058183Y-139167929D01*
X173154818Y-139027930D01*
X173215140Y-138868872D01*
X173235645Y-138700000D01*
X173215140Y-138531128D01*
X173212733Y-138524783D01*
X173209777Y-138463671D01*
X173235294Y-138419675D01*
X174830496Y-136824474D01*
X174885013Y-136796697D01*
X174945445Y-136806268D01*
G37*
%TD.AperFunction*%
%TA.AperFunction,Conductor*%
G36*
X168671424Y-119423767D02*
G01*
X168698478Y-119478646D01*
X168699500Y-119492837D01*
X168699500Y-121320002D01*
X168680593Y-121378193D01*
X168631093Y-121414157D01*
X168589751Y-121416594D01*
X168589751Y-121416864D01*
X168585189Y-121416864D01*
X168581187Y-121417099D01*
X168580001Y-121416864D01*
X168570920Y-121418670D01*
X168551609Y-121420572D01*
X168448395Y-121420572D01*
X168429082Y-121418670D01*
X168420002Y-121416864D01*
X168341772Y-121432423D01*
X168341766Y-121432425D01*
X168307324Y-121446691D01*
X168241007Y-121491004D01*
X168241000Y-121491011D01*
X168196689Y-121557330D01*
X168186133Y-121582818D01*
X168182426Y-121591767D01*
X168182424Y-121591771D01*
X168166864Y-121669989D01*
X168166864Y-121669990D01*
X168168670Y-121679071D01*
X168170572Y-121698382D01*
X168170572Y-122071572D01*
X168151665Y-122129763D01*
X168102165Y-122165727D01*
X168071572Y-122170572D01*
X167698395Y-122170572D01*
X167679082Y-122168670D01*
X167670002Y-122166864D01*
X167591772Y-122182423D01*
X167591766Y-122182425D01*
X167557324Y-122196691D01*
X167491007Y-122241004D01*
X167491000Y-122241011D01*
X167446689Y-122307329D01*
X167446689Y-122307330D01*
X167436133Y-122332818D01*
X167432426Y-122341767D01*
X167432424Y-122341771D01*
X167416864Y-122419989D01*
X167416864Y-122419990D01*
X167418670Y-122429071D01*
X167420572Y-122448382D01*
X167420572Y-122551605D01*
X167418670Y-122570917D01*
X167416864Y-122579998D01*
X167428360Y-122637794D01*
X167432424Y-122658229D01*
X167432425Y-122658233D01*
X167446691Y-122692675D01*
X167491004Y-122758992D01*
X167491007Y-122758996D01*
X167491010Y-122758998D01*
X167491011Y-122758999D01*
X167557329Y-122803310D01*
X167557331Y-122803311D01*
X167582816Y-122813867D01*
X167586872Y-122815546D01*
X167591770Y-122817575D01*
X167669999Y-122833136D01*
X167679079Y-122831329D01*
X167698391Y-122829428D01*
X168306606Y-122829428D01*
X168325919Y-122831330D01*
X168327830Y-122831710D01*
X168334999Y-122833136D01*
X168413230Y-122817575D01*
X168420154Y-122814706D01*
X168422183Y-122813867D01*
X168447669Y-122803311D01*
X168447671Y-122803310D01*
X168447675Y-122803308D01*
X168513996Y-122758993D01*
X168558310Y-122692672D01*
X168572576Y-122658230D01*
X168572577Y-122658222D01*
X168573039Y-122656701D01*
X168573459Y-122656097D01*
X168574438Y-122653735D01*
X168574955Y-122653949D01*
X168608014Y-122606497D01*
X168665818Y-122586439D01*
X168724373Y-122604189D01*
X168740538Y-122620672D01*
X168740994Y-122620217D01*
X168747885Y-122627108D01*
X168747888Y-122627112D01*
X168834883Y-122685240D01*
X168911599Y-122700500D01*
X169088400Y-122700499D01*
X169165117Y-122685240D01*
X169194998Y-122665273D01*
X169253886Y-122648665D01*
X169305002Y-122665274D01*
X169334879Y-122685238D01*
X169334880Y-122685238D01*
X169334883Y-122685240D01*
X169411599Y-122700500D01*
X169588400Y-122700499D01*
X169665117Y-122685240D01*
X169694998Y-122665273D01*
X169753886Y-122648665D01*
X169805002Y-122665274D01*
X169834879Y-122685238D01*
X169834880Y-122685238D01*
X169834883Y-122685240D01*
X169911599Y-122700500D01*
X170088400Y-122700499D01*
X170165117Y-122685240D01*
X170194998Y-122665273D01*
X170253886Y-122648665D01*
X170305002Y-122665274D01*
X170334879Y-122685238D01*
X170334880Y-122685238D01*
X170334883Y-122685240D01*
X170411599Y-122700500D01*
X170588400Y-122700499D01*
X170665117Y-122685240D01*
X170694998Y-122665273D01*
X170753886Y-122648665D01*
X170805002Y-122665274D01*
X170834879Y-122685238D01*
X170834880Y-122685238D01*
X170834883Y-122685240D01*
X170911599Y-122700500D01*
X171088400Y-122700499D01*
X171165117Y-122685240D01*
X171165117Y-122685239D01*
X171165119Y-122685239D01*
X171175011Y-122678628D01*
X171202262Y-122660420D01*
X171261147Y-122643811D01*
X171318551Y-122664987D01*
X171352545Y-122715860D01*
X171350145Y-122776998D01*
X171339580Y-122797734D01*
X171314762Y-122834877D01*
X171314759Y-122834886D01*
X171299501Y-122911589D01*
X171299500Y-122911599D01*
X171299500Y-123088407D01*
X171299737Y-123090806D01*
X171299500Y-123091881D01*
X171299501Y-123093263D01*
X171299197Y-123093263D01*
X171286619Y-123150568D01*
X171240879Y-123191206D01*
X171201213Y-123199500D01*
X168583324Y-123199500D01*
X168545442Y-123191966D01*
X168540119Y-123189761D01*
X168540117Y-123189760D01*
X168540113Y-123189759D01*
X168463411Y-123174501D01*
X168463402Y-123174500D01*
X168463401Y-123174500D01*
X168463399Y-123174500D01*
X167661602Y-123174500D01*
X167661595Y-123174501D01*
X167584881Y-123189760D01*
X167579561Y-123191964D01*
X167541676Y-123199500D01*
X167145164Y-123199500D01*
X167131488Y-123197267D01*
X167131317Y-123198494D01*
X167122233Y-123197226D01*
X167081886Y-123199092D01*
X167074206Y-123199447D01*
X167071930Y-123199500D01*
X166690104Y-123199500D01*
X166690092Y-123199501D01*
X166640513Y-123206027D01*
X166640511Y-123206027D01*
X166531686Y-123256774D01*
X166446774Y-123341686D01*
X166396029Y-123450510D01*
X166396028Y-123450511D01*
X166396028Y-123450513D01*
X166389514Y-123499997D01*
X166389500Y-123500100D01*
X166389500Y-123659947D01*
X166371085Y-123717454D01*
X166370223Y-123718661D01*
X166368955Y-123720438D01*
X166337482Y-123760874D01*
X166333981Y-123767343D01*
X166330758Y-123773936D01*
X166316138Y-123823045D01*
X166299499Y-123871512D01*
X166298293Y-123878743D01*
X166297383Y-123886047D01*
X166299500Y-123937231D01*
X166299500Y-126903381D01*
X166297393Y-126923696D01*
X166294957Y-126935313D01*
X166299120Y-126968709D01*
X166299500Y-126974837D01*
X166299500Y-126979038D01*
X166303087Y-127000541D01*
X166309425Y-127051388D01*
X166311527Y-127058448D01*
X166313907Y-127065380D01*
X166338295Y-127110444D01*
X166360801Y-127156482D01*
X166365078Y-127162472D01*
X166369579Y-127168255D01*
X166407275Y-127202958D01*
X167009199Y-127804881D01*
X167022074Y-127820737D01*
X167028563Y-127830669D01*
X167055110Y-127851332D01*
X167059708Y-127855392D01*
X167062689Y-127858372D01*
X167062692Y-127858374D01*
X167062694Y-127858376D01*
X167080441Y-127871047D01*
X167120874Y-127902517D01*
X167120877Y-127902518D01*
X167127337Y-127906014D01*
X167133934Y-127909240D01*
X167183045Y-127923861D01*
X167231512Y-127940500D01*
X167231516Y-127940500D01*
X167238733Y-127941705D01*
X167246039Y-127942615D01*
X167246046Y-127942617D01*
X167297242Y-127940500D01*
X167315023Y-127940500D01*
X167373214Y-127959407D01*
X167385026Y-127969496D01*
X167419595Y-128004064D01*
X167419596Y-128004065D01*
X167432915Y-128010276D01*
X167477663Y-128052005D01*
X167489337Y-128112066D01*
X167463478Y-128167518D01*
X167432915Y-128189724D01*
X167419598Y-128195933D01*
X167335933Y-128279598D01*
X167285932Y-128386824D01*
X167285932Y-128386825D01*
X167279500Y-128435685D01*
X167279500Y-128784314D01*
X167285932Y-128833174D01*
X167285932Y-128833175D01*
X167339595Y-128948254D01*
X167337907Y-128949040D01*
X167352637Y-128997222D01*
X167352584Y-128999173D01*
X167352522Y-129000840D01*
X167350169Y-129014700D01*
X167350605Y-129014766D01*
X167349500Y-129022099D01*
X167349500Y-129081572D01*
X167347276Y-129141010D01*
X167348107Y-129148385D01*
X167347668Y-129148434D01*
X167349500Y-129162344D01*
X167349500Y-129225023D01*
X167330593Y-129283214D01*
X167320505Y-129295025D01*
X167295935Y-129319595D01*
X167295933Y-129319598D01*
X167245932Y-129426824D01*
X167245932Y-129426825D01*
X167239500Y-129475685D01*
X167239500Y-129924314D01*
X167245932Y-129973174D01*
X167245932Y-129973175D01*
X167295933Y-130080401D01*
X167295934Y-130080402D01*
X167295935Y-130080404D01*
X167379596Y-130164065D01*
X167379597Y-130164065D01*
X167379598Y-130164066D01*
X167486824Y-130214067D01*
X167486825Y-130214067D01*
X167486827Y-130214068D01*
X167535684Y-130220500D01*
X167535685Y-130220500D01*
X167884314Y-130220500D01*
X167884316Y-130220500D01*
X167933173Y-130214068D01*
X168040404Y-130164065D01*
X168124065Y-130080404D01*
X168174068Y-129973173D01*
X168180500Y-129924316D01*
X168180500Y-129762170D01*
X168197703Y-129706400D01*
X168210472Y-129687673D01*
X168250500Y-129557902D01*
X168250500Y-129499500D01*
X168269407Y-129441309D01*
X168318907Y-129405345D01*
X168349500Y-129400500D01*
X168645500Y-129400500D01*
X168703691Y-129419407D01*
X168739655Y-129468907D01*
X168744500Y-129499500D01*
X168744500Y-130069746D01*
X168744501Y-130069758D01*
X168756132Y-130128227D01*
X168756134Y-130128233D01*
X168785470Y-130172136D01*
X168800448Y-130194552D01*
X168866769Y-130238867D01*
X168911231Y-130247711D01*
X168925241Y-130250498D01*
X168925246Y-130250498D01*
X168925252Y-130250500D01*
X168925253Y-130250500D01*
X169464747Y-130250500D01*
X169464748Y-130250500D01*
X169523231Y-130238867D01*
X169589552Y-130194552D01*
X169633867Y-130128231D01*
X169645500Y-130069748D01*
X169645500Y-129011916D01*
X169647982Y-128989885D01*
X169649315Y-128984044D01*
X169648217Y-128969389D01*
X169645637Y-128934973D01*
X169645500Y-128931288D01*
X169645500Y-127830253D01*
X169645498Y-127830241D01*
X169635301Y-127778979D01*
X169633867Y-127771769D01*
X169589552Y-127705448D01*
X169581399Y-127700000D01*
X169523233Y-127661134D01*
X169523231Y-127661133D01*
X169523228Y-127661132D01*
X169523227Y-127661132D01*
X169464758Y-127649501D01*
X169464748Y-127649500D01*
X168925252Y-127649500D01*
X168925251Y-127649500D01*
X168925241Y-127649501D01*
X168866772Y-127661132D01*
X168866766Y-127661134D01*
X168800451Y-127705445D01*
X168800445Y-127705451D01*
X168756134Y-127771766D01*
X168756132Y-127771772D01*
X168744501Y-127830241D01*
X168744500Y-127830253D01*
X168744500Y-128400500D01*
X168725593Y-128458691D01*
X168676093Y-128494655D01*
X168645500Y-128499500D01*
X168415722Y-128499500D01*
X168357531Y-128480593D01*
X168321567Y-128431093D01*
X168317569Y-128413422D01*
X168315868Y-128400500D01*
X168314068Y-128386827D01*
X168264065Y-128279596D01*
X168180404Y-128195935D01*
X168167085Y-128189724D01*
X168122337Y-128147997D01*
X168110662Y-128087936D01*
X168136519Y-128032483D01*
X168167084Y-128010275D01*
X168180404Y-128004065D01*
X168264065Y-127920404D01*
X168314068Y-127813173D01*
X168320500Y-127764316D01*
X168320500Y-127473508D01*
X168339407Y-127415317D01*
X168388907Y-127379353D01*
X168419500Y-127374508D01*
X168468810Y-127374508D01*
X168468812Y-127374508D01*
X168606904Y-127333961D01*
X168727979Y-127256151D01*
X168822228Y-127147381D01*
X168882016Y-127016465D01*
X168894324Y-126930858D01*
X168921319Y-126875951D01*
X168975433Y-126847397D01*
X169035996Y-126856104D01*
X169062320Y-126874943D01*
X169985504Y-127798127D01*
X170013281Y-127852644D01*
X170014500Y-127868131D01*
X170014500Y-130069746D01*
X170014501Y-130069758D01*
X170026132Y-130128227D01*
X170026134Y-130128233D01*
X170055470Y-130172136D01*
X170070448Y-130194552D01*
X170136769Y-130238867D01*
X170181231Y-130247711D01*
X170195241Y-130250498D01*
X170195246Y-130250498D01*
X170195252Y-130250500D01*
X170195253Y-130250500D01*
X170734747Y-130250500D01*
X170734748Y-130250500D01*
X170793231Y-130238867D01*
X170859552Y-130194552D01*
X170903867Y-130128231D01*
X170915500Y-130069748D01*
X170915500Y-130069746D01*
X171284500Y-130069746D01*
X171284501Y-130069758D01*
X171296132Y-130128227D01*
X171296134Y-130128233D01*
X171325470Y-130172136D01*
X171340448Y-130194552D01*
X171406769Y-130238867D01*
X171451231Y-130247711D01*
X171465241Y-130250498D01*
X171465246Y-130250498D01*
X171465252Y-130250500D01*
X171465253Y-130250500D01*
X172004747Y-130250500D01*
X172004748Y-130250500D01*
X172063231Y-130238867D01*
X172129552Y-130194552D01*
X172173867Y-130128231D01*
X172185500Y-130069748D01*
X172185500Y-128056318D01*
X172204407Y-127998127D01*
X172209682Y-127991486D01*
X172212055Y-127988746D01*
X172225377Y-127973373D01*
X172285165Y-127842457D01*
X172296400Y-127764314D01*
X172305647Y-127700002D01*
X172305647Y-127699997D01*
X172285165Y-127557543D01*
X172225377Y-127426628D01*
X172225377Y-127426627D01*
X172131128Y-127317857D01*
X172131127Y-127317856D01*
X172131126Y-127317855D01*
X172010057Y-127240049D01*
X172010054Y-127240047D01*
X172010053Y-127240047D01*
X172010050Y-127240046D01*
X171871964Y-127199500D01*
X171871961Y-127199500D01*
X171728039Y-127199500D01*
X171728035Y-127199500D01*
X171589949Y-127240046D01*
X171589942Y-127240049D01*
X171468873Y-127317855D01*
X171374622Y-127426628D01*
X171314834Y-127557543D01*
X171294352Y-127699997D01*
X171298677Y-127730076D01*
X171297782Y-127763477D01*
X171284500Y-127830248D01*
X171284500Y-130069746D01*
X170915500Y-130069746D01*
X170915500Y-127830252D01*
X170903867Y-127771769D01*
X170859552Y-127705448D01*
X170851399Y-127700000D01*
X170793233Y-127661134D01*
X170793231Y-127661133D01*
X170793228Y-127661132D01*
X170793227Y-127661132D01*
X170734758Y-127649501D01*
X170734748Y-127649500D01*
X170734747Y-127649500D01*
X170727827Y-127649500D01*
X170669636Y-127630593D01*
X170657823Y-127620504D01*
X169769402Y-126732083D01*
X169741625Y-126677566D01*
X169751196Y-126617134D01*
X169794461Y-126573869D01*
X169854893Y-126564298D01*
X169858721Y-126564982D01*
X169909414Y-126575065D01*
X169911599Y-126575500D01*
X170088400Y-126575499D01*
X170165117Y-126560240D01*
X170194998Y-126540273D01*
X170253886Y-126523665D01*
X170305002Y-126540274D01*
X170334879Y-126560238D01*
X170334880Y-126560238D01*
X170334883Y-126560240D01*
X170411599Y-126575500D01*
X170588400Y-126575499D01*
X170665117Y-126560240D01*
X170694998Y-126540273D01*
X170753886Y-126523665D01*
X170805002Y-126540274D01*
X170834879Y-126560238D01*
X170834880Y-126560238D01*
X170834883Y-126560240D01*
X170911599Y-126575500D01*
X171088400Y-126575499D01*
X171165117Y-126560240D01*
X171186405Y-126546015D01*
X171245291Y-126529405D01*
X171296408Y-126546013D01*
X171307329Y-126553310D01*
X171307331Y-126553311D01*
X171332816Y-126563867D01*
X171336872Y-126565546D01*
X171341770Y-126567575D01*
X171419999Y-126583136D01*
X171429079Y-126581329D01*
X171448391Y-126579428D01*
X171551606Y-126579428D01*
X171570919Y-126581330D01*
X171572830Y-126581710D01*
X171579999Y-126583136D01*
X171658230Y-126567575D01*
X171665154Y-126564706D01*
X171667183Y-126563867D01*
X171692669Y-126553311D01*
X171692671Y-126553310D01*
X171692675Y-126553308D01*
X171758996Y-126508993D01*
X171803310Y-126442672D01*
X171817576Y-126408230D01*
X171833136Y-126330009D01*
X171831329Y-126320921D01*
X171829428Y-126301614D01*
X171829428Y-125928428D01*
X171848335Y-125870237D01*
X171897835Y-125834273D01*
X171928428Y-125829428D01*
X172301606Y-125829428D01*
X172320919Y-125831330D01*
X172322830Y-125831710D01*
X172329999Y-125833136D01*
X172408230Y-125817575D01*
X172417182Y-125813867D01*
X172420986Y-125812291D01*
X172431264Y-125808035D01*
X172469147Y-125800500D01*
X172575605Y-125800500D01*
X172633796Y-125819407D01*
X172665329Y-125857660D01*
X172675933Y-125880401D01*
X172675934Y-125880402D01*
X172675935Y-125880404D01*
X172759596Y-125964065D01*
X172759597Y-125964065D01*
X172759598Y-125964066D01*
X172866824Y-126014067D01*
X172866825Y-126014067D01*
X172866827Y-126014068D01*
X172915684Y-126020500D01*
X172915685Y-126020500D01*
X173264314Y-126020500D01*
X173264316Y-126020500D01*
X173313173Y-126014068D01*
X173420404Y-125964065D01*
X173504065Y-125880404D01*
X173554068Y-125773173D01*
X173560500Y-125724316D01*
X173560500Y-125275684D01*
X173554068Y-125226827D01*
X173548524Y-125214939D01*
X173504066Y-125119598D01*
X173504065Y-125119597D01*
X173504065Y-125119596D01*
X173468005Y-125083536D01*
X173440230Y-125029022D01*
X173449801Y-124968590D01*
X173468005Y-124943534D01*
X173543224Y-124868316D01*
X173593972Y-124759487D01*
X173600500Y-124709901D01*
X173600499Y-124290100D01*
X173593972Y-124240513D01*
X173593972Y-124240511D01*
X173543225Y-124131686D01*
X173543224Y-124131685D01*
X173543224Y-124131684D01*
X173481541Y-124070001D01*
X173453766Y-124015487D01*
X173463337Y-123955055D01*
X173481540Y-123929999D01*
X173543224Y-123868316D01*
X173593972Y-123759487D01*
X173600500Y-123709901D01*
X173600499Y-123672579D01*
X173604511Y-123644683D01*
X173605163Y-123642460D01*
X173605165Y-123642457D01*
X173625647Y-123500000D01*
X173618531Y-123450510D01*
X173605165Y-123357542D01*
X173604509Y-123355306D01*
X173600499Y-123327416D01*
X173600499Y-123289500D01*
X173619406Y-123231309D01*
X173668906Y-123195345D01*
X173699499Y-123190500D01*
X174280500Y-123190500D01*
X174338691Y-123209407D01*
X174374655Y-123258907D01*
X174379500Y-123289500D01*
X174379500Y-125783915D01*
X174360593Y-125842106D01*
X174311093Y-125878070D01*
X174252609Y-125878905D01*
X174152464Y-125849500D01*
X174152461Y-125849500D01*
X174008539Y-125849500D01*
X174008535Y-125849500D01*
X173870449Y-125890046D01*
X173870442Y-125890049D01*
X173749373Y-125967855D01*
X173655122Y-126076628D01*
X173595334Y-126207543D01*
X173574853Y-126349997D01*
X173574853Y-126350002D01*
X173595333Y-126492454D01*
X173608786Y-126521911D01*
X173621053Y-126548771D01*
X173630000Y-126589897D01*
X173630000Y-127723977D01*
X173611093Y-127782168D01*
X173561593Y-127818132D01*
X173500407Y-127818132D01*
X173450907Y-127782168D01*
X173448685Y-127778979D01*
X173399554Y-127705451D01*
X173399552Y-127705448D01*
X173391399Y-127700000D01*
X173333233Y-127661134D01*
X173333231Y-127661133D01*
X173333228Y-127661132D01*
X173333227Y-127661132D01*
X173274758Y-127649501D01*
X173274748Y-127649500D01*
X172735252Y-127649500D01*
X172735251Y-127649500D01*
X172735241Y-127649501D01*
X172676772Y-127661132D01*
X172676766Y-127661134D01*
X172610451Y-127705445D01*
X172610445Y-127705451D01*
X172566134Y-127771766D01*
X172566132Y-127771772D01*
X172554501Y-127830241D01*
X172554500Y-127830253D01*
X172554500Y-128710102D01*
X172545553Y-128751229D01*
X172519834Y-128807543D01*
X172499353Y-128949997D01*
X172499353Y-128950002D01*
X172519833Y-129092454D01*
X172533286Y-129121911D01*
X172545553Y-129148771D01*
X172554500Y-129189897D01*
X172554500Y-130069746D01*
X172554501Y-130069758D01*
X172566132Y-130128227D01*
X172566134Y-130128233D01*
X172595470Y-130172136D01*
X172610448Y-130194552D01*
X172676769Y-130238867D01*
X172721231Y-130247711D01*
X172735241Y-130250498D01*
X172735246Y-130250498D01*
X172735252Y-130250500D01*
X172735253Y-130250500D01*
X173274747Y-130250500D01*
X173274748Y-130250500D01*
X173333231Y-130238867D01*
X173399552Y-130194552D01*
X173443867Y-130128231D01*
X173443867Y-130128230D01*
X173448685Y-130121020D01*
X173496735Y-130083141D01*
X173557873Y-130080739D01*
X173608747Y-130114732D01*
X173629924Y-130172136D01*
X173630000Y-130176022D01*
X173630000Y-133473977D01*
X173611093Y-133532168D01*
X173561593Y-133568132D01*
X173500407Y-133568132D01*
X173450907Y-133532168D01*
X173448685Y-133528979D01*
X173399554Y-133455451D01*
X173399552Y-133455448D01*
X173395637Y-133452832D01*
X173333233Y-133411134D01*
X173333231Y-133411133D01*
X173333228Y-133411132D01*
X173333227Y-133411132D01*
X173274758Y-133399501D01*
X173274748Y-133399500D01*
X172735252Y-133399500D01*
X172735251Y-133399500D01*
X172735241Y-133399501D01*
X172676772Y-133411132D01*
X172676766Y-133411134D01*
X172610451Y-133455445D01*
X172610445Y-133455451D01*
X172566134Y-133521766D01*
X172566132Y-133521772D01*
X172554501Y-133580241D01*
X172554500Y-133580253D01*
X172554500Y-135667389D01*
X172535593Y-135725580D01*
X172525504Y-135737393D01*
X172142393Y-136120504D01*
X172087876Y-136148281D01*
X172072389Y-136149500D01*
X170879185Y-136149500D01*
X170820994Y-136130593D01*
X170785030Y-136081093D01*
X170785030Y-136019907D01*
X170820994Y-135970407D01*
X170824183Y-135968185D01*
X170859552Y-135944552D01*
X170903867Y-135878231D01*
X170915500Y-135819748D01*
X170915500Y-135558426D01*
X170917724Y-135498990D01*
X170917722Y-135498982D01*
X170916893Y-135491618D01*
X170917331Y-135491568D01*
X170915500Y-135477657D01*
X170915500Y-133580253D01*
X170915498Y-133580241D01*
X170905301Y-133528979D01*
X170903867Y-133521769D01*
X170859552Y-133455448D01*
X170855637Y-133452832D01*
X170793233Y-133411134D01*
X170793231Y-133411133D01*
X170793228Y-133411132D01*
X170793227Y-133411132D01*
X170734758Y-133399501D01*
X170734748Y-133399500D01*
X170195252Y-133399500D01*
X170195251Y-133399500D01*
X170195241Y-133399501D01*
X170136772Y-133411132D01*
X170136766Y-133411134D01*
X170070451Y-133455445D01*
X170070445Y-133455451D01*
X170026134Y-133521766D01*
X170026132Y-133521772D01*
X170014501Y-133580241D01*
X170014500Y-133580253D01*
X170014500Y-135322388D01*
X169995593Y-135380579D01*
X169985504Y-135392392D01*
X169874504Y-135503392D01*
X169819987Y-135531169D01*
X169759555Y-135521598D01*
X169716290Y-135478333D01*
X169705500Y-135433388D01*
X169705500Y-133904713D01*
X169705005Y-133894637D01*
X169705005Y-133894632D01*
X169702114Y-133865275D01*
X169700634Y-133855293D01*
X169682556Y-133764414D01*
X169670862Y-133725864D01*
X169656080Y-133690178D01*
X169656075Y-133690170D01*
X169655039Y-133687978D01*
X169655925Y-133687558D01*
X169645500Y-133645585D01*
X169645500Y-133580253D01*
X169645498Y-133580241D01*
X169635301Y-133528979D01*
X169633867Y-133521769D01*
X169589552Y-133455448D01*
X169585637Y-133452832D01*
X169523233Y-133411134D01*
X169523231Y-133411133D01*
X169523228Y-133411132D01*
X169523227Y-133411132D01*
X169464758Y-133399501D01*
X169464748Y-133399500D01*
X169464747Y-133399500D01*
X169252906Y-133399500D01*
X169238396Y-133398430D01*
X169234724Y-133397886D01*
X169230529Y-133397473D01*
X169205368Y-133394995D01*
X169195292Y-133394500D01*
X168982133Y-133394500D01*
X168975260Y-133394730D01*
X168961792Y-133395633D01*
X168954955Y-133396321D01*
X168934626Y-133399057D01*
X168928018Y-133399500D01*
X168925252Y-133399500D01*
X168925249Y-133399500D01*
X168925244Y-133399501D01*
X168914039Y-133401729D01*
X168910989Y-133402237D01*
X168889925Y-133405073D01*
X168881905Y-133406153D01*
X168881900Y-133406154D01*
X168881899Y-133406154D01*
X168868426Y-133408895D01*
X168868427Y-133408895D01*
X168829702Y-133419511D01*
X168829699Y-133419512D01*
X168829694Y-133419513D01*
X168829693Y-133419514D01*
X168816702Y-133424030D01*
X168748844Y-133452832D01*
X168742608Y-133455728D01*
X168730577Y-133461814D01*
X168724552Y-133465120D01*
X167354861Y-134277236D01*
X167180436Y-134380657D01*
X167129945Y-134394500D01*
X165304708Y-134394500D01*
X165294631Y-134394995D01*
X165265278Y-134397886D01*
X165255306Y-134399364D01*
X165255308Y-134399364D01*
X165164426Y-134417440D01*
X165164417Y-134417442D01*
X165128237Y-134428417D01*
X165067063Y-134427214D01*
X165018279Y-134390285D01*
X165000500Y-134333679D01*
X165000500Y-131606520D01*
X166824500Y-131606520D01*
X166824501Y-131606523D01*
X166839352Y-131700299D01*
X166839354Y-131700304D01*
X166896950Y-131813342D01*
X166986658Y-131903050D01*
X167099696Y-131960646D01*
X167193481Y-131975500D01*
X167656518Y-131975499D01*
X167656520Y-131975499D01*
X167656521Y-131975498D01*
X167703411Y-131968072D01*
X167750299Y-131960647D01*
X167750299Y-131960646D01*
X167750304Y-131960646D01*
X167863342Y-131903050D01*
X167953050Y-131813342D01*
X168002277Y-131716728D01*
X168027639Y-131688924D01*
X168025779Y-131686777D01*
X168031124Y-131682145D01*
X168031128Y-131682143D01*
X168125377Y-131573373D01*
X168185165Y-131442457D01*
X168205647Y-131300000D01*
X168185165Y-131157543D01*
X168125377Y-131026627D01*
X168031128Y-130917857D01*
X168031127Y-130917856D01*
X168031125Y-130917854D01*
X168025775Y-130913218D01*
X168027533Y-130911189D01*
X168002275Y-130883267D01*
X167953050Y-130786658D01*
X167863342Y-130696950D01*
X167750304Y-130639354D01*
X167750305Y-130639354D01*
X167656522Y-130624500D01*
X167193479Y-130624500D01*
X167193476Y-130624501D01*
X167099700Y-130639352D01*
X167099695Y-130639354D01*
X166986659Y-130696949D01*
X166896949Y-130786659D01*
X166839354Y-130899695D01*
X166824500Y-130993477D01*
X166824500Y-131606520D01*
X165000500Y-131606520D01*
X165000500Y-120766317D01*
X165019407Y-120708126D01*
X165068907Y-120672162D01*
X165128237Y-120671581D01*
X165164416Y-120682556D01*
X165164423Y-120682557D01*
X165164425Y-120682558D01*
X165255295Y-120700634D01*
X165255293Y-120700634D01*
X165261338Y-120701530D01*
X165265277Y-120702114D01*
X165294632Y-120705005D01*
X165304708Y-120705500D01*
X165695366Y-120705500D01*
X165698141Y-120705682D01*
X165700000Y-120705682D01*
X165701859Y-120705682D01*
X165704634Y-120705500D01*
X166495366Y-120705500D01*
X166498141Y-120705682D01*
X166500000Y-120705682D01*
X166501859Y-120705682D01*
X166504634Y-120705500D01*
X167519237Y-120705500D01*
X167519238Y-120705500D01*
X167528341Y-120705096D01*
X167529365Y-120705005D01*
X167554875Y-120702738D01*
X167560890Y-120701932D01*
X167563899Y-120701530D01*
X167646415Y-120686746D01*
X167646421Y-120686744D01*
X167646423Y-120686744D01*
X167681527Y-120677182D01*
X167681528Y-120677182D01*
X167702791Y-120669309D01*
X167714266Y-120665061D01*
X167747131Y-120649460D01*
X167747132Y-120649460D01*
X167807755Y-120613790D01*
X167807754Y-120613790D01*
X167837355Y-120592637D01*
X167837360Y-120592633D01*
X167863861Y-120569895D01*
X167889270Y-120543849D01*
X167942266Y-120478897D01*
X167947709Y-120471587D01*
X167962654Y-120449539D01*
X167967423Y-120441784D01*
X167985185Y-120409814D01*
X168101748Y-120200000D01*
X168323647Y-119800585D01*
X168343040Y-119778535D01*
X168341902Y-119777397D01*
X168347142Y-119772155D01*
X168347150Y-119772150D01*
X168427793Y-119662882D01*
X168472646Y-119534699D01*
X168472646Y-119534693D01*
X168473931Y-119528814D01*
X168475429Y-119529141D01*
X168483087Y-119503359D01*
X168512893Y-119446727D01*
X168556727Y-119404040D01*
X168617280Y-119395270D01*
X168671424Y-119423767D01*
G37*
%TD.AperFunction*%
%TA.AperFunction,Conductor*%
G36*
X172991895Y-118019407D02*
G01*
X173016076Y-118044584D01*
X173464495Y-118717213D01*
X173477873Y-118737279D01*
X173494500Y-118792194D01*
X173494500Y-119495292D01*
X173494995Y-119505368D01*
X173497886Y-119534723D01*
X173499366Y-119544704D01*
X173517442Y-119635581D01*
X173517443Y-119635585D01*
X173517445Y-119635591D01*
X173529130Y-119674113D01*
X173529133Y-119674120D01*
X173529136Y-119674130D01*
X173541824Y-119704762D01*
X173543916Y-119709814D01*
X173543925Y-119709833D01*
X173562904Y-119745341D01*
X173562912Y-119745354D01*
X173599509Y-119800124D01*
X173600706Y-119802167D01*
X173602779Y-119805019D01*
X173606062Y-119809931D01*
X173622039Y-119829398D01*
X173644340Y-119886374D01*
X173644512Y-119892204D01*
X173644512Y-119960102D01*
X173635565Y-120001229D01*
X173609846Y-120057543D01*
X173589365Y-120199997D01*
X173589365Y-120200002D01*
X173609846Y-120342456D01*
X173656836Y-120445347D01*
X173669635Y-120473373D01*
X173753268Y-120569891D01*
X173763885Y-120582144D01*
X173874572Y-120653278D01*
X173884959Y-120659953D01*
X173976202Y-120686744D01*
X174023047Y-120700499D01*
X174023048Y-120700499D01*
X174023051Y-120700500D01*
X174023053Y-120700500D01*
X174166971Y-120700500D01*
X174166973Y-120700500D01*
X174305065Y-120659953D01*
X174426140Y-120582143D01*
X174520389Y-120473373D01*
X174580177Y-120342457D01*
X174587004Y-120294971D01*
X174600659Y-120200002D01*
X174600659Y-120199997D01*
X174579170Y-120050534D01*
X174581432Y-120050208D01*
X174582878Y-119999625D01*
X174620242Y-119951173D01*
X174629444Y-119945590D01*
X174645346Y-119937091D01*
X174709926Y-119893941D01*
X174741068Y-119868383D01*
X174768383Y-119841068D01*
X174793941Y-119809926D01*
X174818183Y-119773643D01*
X174866232Y-119735763D01*
X174927370Y-119733359D01*
X174978245Y-119767350D01*
X174999424Y-119824753D01*
X174999500Y-119828643D01*
X174999500Y-122735521D01*
X174980593Y-122793712D01*
X174931093Y-122829676D01*
X174869907Y-122829676D01*
X174830496Y-122805525D01*
X174748565Y-122723594D01*
X174740479Y-122712344D01*
X174739487Y-122713094D01*
X174733958Y-122705772D01*
X174711436Y-122685240D01*
X174698423Y-122673377D01*
X174696775Y-122671804D01*
X174682797Y-122657826D01*
X174680273Y-122656097D01*
X174679859Y-122655813D01*
X174674496Y-122651564D01*
X174650933Y-122630084D01*
X174641762Y-122626531D01*
X174621586Y-122615895D01*
X174613484Y-122610345D01*
X174613479Y-122610343D01*
X174582457Y-122603046D01*
X174575902Y-122601016D01*
X174546177Y-122589501D01*
X174546174Y-122589500D01*
X174546173Y-122589500D01*
X174546172Y-122589500D01*
X174536348Y-122589500D01*
X174513683Y-122586870D01*
X174504119Y-122584621D01*
X174504118Y-122584621D01*
X174472547Y-122589025D01*
X174465701Y-122589500D01*
X174303693Y-122589500D01*
X174245502Y-122570593D01*
X174209538Y-122521093D01*
X174205540Y-122477579D01*
X174209383Y-122448382D01*
X174210500Y-122439901D01*
X174210499Y-122080100D01*
X174209376Y-122071572D01*
X174203972Y-122030513D01*
X174203972Y-122030511D01*
X174153225Y-121921686D01*
X174153224Y-121921685D01*
X174153224Y-121921684D01*
X174068316Y-121836776D01*
X174068314Y-121836775D01*
X174068313Y-121836774D01*
X173959489Y-121786029D01*
X173959488Y-121786028D01*
X173942958Y-121783852D01*
X173909901Y-121779500D01*
X173909899Y-121779500D01*
X173490103Y-121779500D01*
X173490092Y-121779501D01*
X173440513Y-121786027D01*
X173440511Y-121786027D01*
X173331686Y-121836774D01*
X173246774Y-121921686D01*
X173196029Y-122030510D01*
X173196028Y-122030511D01*
X173196028Y-122030513D01*
X173190386Y-122073373D01*
X173189500Y-122080100D01*
X173189500Y-122439895D01*
X173194461Y-122477582D01*
X173183308Y-122537742D01*
X173138924Y-122579858D01*
X173096307Y-122589500D01*
X172862910Y-122589500D01*
X172849234Y-122587267D01*
X172849063Y-122588494D01*
X172839979Y-122587226D01*
X172799632Y-122589092D01*
X172791952Y-122589447D01*
X172789676Y-122589500D01*
X172769899Y-122589500D01*
X172766404Y-122590153D01*
X172759591Y-122590943D01*
X172727755Y-122592414D01*
X172718751Y-122596389D01*
X172697053Y-122603117D01*
X172696707Y-122603182D01*
X172636025Y-122595344D01*
X172591541Y-122553335D01*
X172579428Y-122505884D01*
X172579428Y-122448393D01*
X172581330Y-122429080D01*
X172581332Y-122429071D01*
X172583136Y-122420001D01*
X172580076Y-122404619D01*
X172587265Y-122343860D01*
X172607166Y-122315303D01*
X172624893Y-122297576D01*
X172667004Y-122272592D01*
X172710053Y-122259953D01*
X172831128Y-122182143D01*
X172925377Y-122073373D01*
X172985165Y-121942457D01*
X172991992Y-121894971D01*
X173005647Y-121800002D01*
X173005647Y-121799997D01*
X172985165Y-121657543D01*
X172976153Y-121637809D01*
X172925377Y-121526627D01*
X172831128Y-121417857D01*
X172831127Y-121417856D01*
X172831126Y-121417855D01*
X172710057Y-121340049D01*
X172710054Y-121340047D01*
X172710053Y-121340047D01*
X172710050Y-121340046D01*
X172571964Y-121299500D01*
X172571961Y-121299500D01*
X172428039Y-121299500D01*
X172428035Y-121299500D01*
X172289949Y-121340046D01*
X172289942Y-121340049D01*
X172168873Y-121417855D01*
X172074621Y-121526628D01*
X172013883Y-121659624D01*
X171972510Y-121704702D01*
X171912544Y-121716852D01*
X171856888Y-121691433D01*
X171826802Y-121638156D01*
X171826779Y-121638043D01*
X171817575Y-121591770D01*
X171813867Y-121582818D01*
X171803311Y-121557330D01*
X171803310Y-121557328D01*
X171803308Y-121557325D01*
X171758993Y-121491004D01*
X171758992Y-121491003D01*
X171692676Y-121446692D01*
X171692672Y-121446690D01*
X171658231Y-121432424D01*
X171652925Y-121431368D01*
X171644653Y-121429723D01*
X171591270Y-121399828D01*
X171565653Y-121344263D01*
X171573915Y-121291497D01*
X171584665Y-121267959D01*
X171605147Y-121125502D01*
X171592445Y-121037159D01*
X171598124Y-120987306D01*
X171600500Y-120981175D01*
X171600500Y-120971350D01*
X171603130Y-120948681D01*
X171605379Y-120939121D01*
X171600975Y-120907548D01*
X171600500Y-120900701D01*
X171600500Y-120100000D01*
X171619407Y-120041809D01*
X171668907Y-120005845D01*
X171699500Y-120001000D01*
X171747459Y-120001000D01*
X171747461Y-120001000D01*
X171885553Y-119960453D01*
X172006628Y-119882643D01*
X172100877Y-119773873D01*
X172160665Y-119642957D01*
X172174791Y-119544706D01*
X172181147Y-119500502D01*
X172181147Y-119500497D01*
X172160665Y-119358043D01*
X172117323Y-119263139D01*
X172100877Y-119227127D01*
X172006628Y-119118357D01*
X172006627Y-119118356D01*
X172006626Y-119118355D01*
X171885557Y-119040549D01*
X171885554Y-119040547D01*
X171885553Y-119040547D01*
X171885550Y-119040546D01*
X171747464Y-119000000D01*
X171747461Y-119000000D01*
X171603539Y-119000000D01*
X171603535Y-119000000D01*
X171465449Y-119040546D01*
X171465442Y-119040549D01*
X171344373Y-119118355D01*
X171250122Y-119227128D01*
X171190334Y-119358043D01*
X171169853Y-119500497D01*
X171169853Y-119500503D01*
X171172941Y-119521982D01*
X171162507Y-119582271D01*
X171144953Y-119606074D01*
X171133590Y-119617437D01*
X171122361Y-119625550D01*
X171123090Y-119626515D01*
X171115771Y-119632041D01*
X171083372Y-119667580D01*
X171081796Y-119669231D01*
X171067830Y-119683198D01*
X171067817Y-119683213D01*
X171065813Y-119686138D01*
X171061561Y-119691504D01*
X171040084Y-119715065D01*
X171040083Y-119715067D01*
X171036529Y-119724240D01*
X171025896Y-119744412D01*
X171020346Y-119752515D01*
X171020342Y-119752524D01*
X171013045Y-119783545D01*
X171011016Y-119790098D01*
X170999500Y-119819824D01*
X170999500Y-119829651D01*
X170996870Y-119852318D01*
X170994621Y-119861879D01*
X170999025Y-119893452D01*
X170999500Y-119900298D01*
X170999500Y-120559123D01*
X170980593Y-120617314D01*
X170931093Y-120653278D01*
X170928393Y-120654112D01*
X170889449Y-120665547D01*
X170889447Y-120665548D01*
X170768372Y-120743358D01*
X170764330Y-120746861D01*
X170707971Y-120770678D01*
X170648376Y-120756819D01*
X170608308Y-120710578D01*
X170600500Y-120672041D01*
X170600500Y-119573448D01*
X170619407Y-119515257D01*
X170629496Y-119503444D01*
X171346184Y-118786756D01*
X171400701Y-118758979D01*
X171416188Y-118757760D01*
X171470922Y-118757760D01*
X171470924Y-118757760D01*
X171609016Y-118717213D01*
X171730091Y-118639403D01*
X171824340Y-118530633D01*
X171884128Y-118399717D01*
X171904610Y-118257260D01*
X171904610Y-118257257D01*
X171883954Y-118113589D01*
X171894387Y-118053300D01*
X171938265Y-118010657D01*
X171981946Y-118000500D01*
X172933704Y-118000500D01*
X172991895Y-118019407D01*
G37*
%TD.AperFunction*%
%TA.AperFunction,Conductor*%
G36*
X170288711Y-110019407D02*
G01*
X170324675Y-110068907D01*
X170324675Y-110130093D01*
X170300524Y-110169504D01*
X169642346Y-110827681D01*
X169587829Y-110855458D01*
X169548651Y-110853801D01*
X169450056Y-110829500D01*
X169279944Y-110829500D01*
X169279941Y-110829500D01*
X169114776Y-110870209D01*
X168964146Y-110949267D01*
X168836818Y-111062069D01*
X168836816Y-111062072D01*
X168781485Y-111142233D01*
X168740182Y-111202070D01*
X168679860Y-111361128D01*
X168659355Y-111530000D01*
X168679860Y-111698872D01*
X168740182Y-111857930D01*
X168836817Y-111997929D01*
X168836820Y-111997931D01*
X168836823Y-111997935D01*
X168941756Y-112090898D01*
X168972775Y-112143638D01*
X168966869Y-112204537D01*
X168941756Y-112239102D01*
X168836823Y-112332064D01*
X168836816Y-112332072D01*
X168749643Y-112458363D01*
X168740182Y-112472070D01*
X168679860Y-112631128D01*
X168659355Y-112800000D01*
X168679860Y-112968872D01*
X168740182Y-113127930D01*
X168836817Y-113267929D01*
X168964148Y-113380734D01*
X169114775Y-113459790D01*
X169279944Y-113500500D01*
X169279947Y-113500500D01*
X169450053Y-113500500D01*
X169450056Y-113500500D01*
X169615225Y-113459790D01*
X169765852Y-113380734D01*
X169893183Y-113267929D01*
X169918525Y-113231214D01*
X169967141Y-113194065D01*
X170028308Y-113192587D01*
X170078663Y-113227344D01*
X170081475Y-113231215D01*
X170106813Y-113267924D01*
X170106816Y-113267927D01*
X170106817Y-113267929D01*
X170234148Y-113380734D01*
X170384775Y-113459790D01*
X170549944Y-113500500D01*
X170549947Y-113500500D01*
X170720053Y-113500500D01*
X170720056Y-113500500D01*
X170885225Y-113459790D01*
X171035852Y-113380734D01*
X171163183Y-113267929D01*
X171188525Y-113231214D01*
X171237141Y-113194065D01*
X171298308Y-113192587D01*
X171348663Y-113227344D01*
X171351475Y-113231215D01*
X171376813Y-113267924D01*
X171376816Y-113267927D01*
X171376817Y-113267929D01*
X171504148Y-113380734D01*
X171654775Y-113459790D01*
X171819944Y-113500500D01*
X171819947Y-113500500D01*
X171990053Y-113500500D01*
X171990056Y-113500500D01*
X172155225Y-113459790D01*
X172305852Y-113380734D01*
X172433183Y-113267929D01*
X172458525Y-113231214D01*
X172507141Y-113194065D01*
X172568308Y-113192587D01*
X172618663Y-113227344D01*
X172621475Y-113231215D01*
X172646813Y-113267924D01*
X172646816Y-113267927D01*
X172646817Y-113267929D01*
X172774148Y-113380734D01*
X172924775Y-113459790D01*
X173089944Y-113500500D01*
X173089947Y-113500500D01*
X173241892Y-113500500D01*
X173300083Y-113519407D01*
X173336047Y-113568907D01*
X173336047Y-113630093D01*
X173311896Y-113669504D01*
X172910896Y-114070504D01*
X172856379Y-114098281D01*
X172840892Y-114099500D01*
X169631632Y-114099500D01*
X169578110Y-114083784D01*
X169510053Y-114040047D01*
X169510050Y-114040046D01*
X169371964Y-113999500D01*
X169371961Y-113999500D01*
X169228039Y-113999500D01*
X169228035Y-113999500D01*
X169089949Y-114040046D01*
X169089942Y-114040049D01*
X168968873Y-114117855D01*
X168874622Y-114226628D01*
X168814834Y-114357543D01*
X168794353Y-114499997D01*
X168794353Y-114500002D01*
X168814834Y-114642456D01*
X168868754Y-114760522D01*
X168874623Y-114773373D01*
X168924146Y-114830526D01*
X168968873Y-114882144D01*
X169089942Y-114959950D01*
X169089947Y-114959953D01*
X169196403Y-114991211D01*
X169228035Y-115000499D01*
X169228036Y-115000499D01*
X169228039Y-115000500D01*
X169228041Y-115000500D01*
X169371959Y-115000500D01*
X169371961Y-115000500D01*
X169510053Y-114959953D01*
X169631128Y-114882143D01*
X169725377Y-114773373D01*
X169732226Y-114758374D01*
X169773597Y-114713297D01*
X169822280Y-114700500D01*
X171300500Y-114700500D01*
X171358691Y-114719407D01*
X171394655Y-114768907D01*
X171399500Y-114799500D01*
X171399500Y-115400500D01*
X171380593Y-115458691D01*
X171331093Y-115494655D01*
X171300500Y-115499500D01*
X171152906Y-115499500D01*
X171138396Y-115498430D01*
X171134724Y-115497886D01*
X171130529Y-115497473D01*
X171105368Y-115494995D01*
X171095292Y-115494500D01*
X171004708Y-115494500D01*
X170994631Y-115494995D01*
X170965278Y-115497886D01*
X170962100Y-115498357D01*
X170961616Y-115498429D01*
X170947095Y-115499500D01*
X170780138Y-115499500D01*
X170780135Y-115499501D01*
X170755009Y-115502414D01*
X170652235Y-115547794D01*
X170572794Y-115627235D01*
X170527414Y-115730011D01*
X170524500Y-115755130D01*
X170524500Y-115826464D01*
X170520237Y-115855203D01*
X170517441Y-115864419D01*
X170506495Y-115919451D01*
X170499366Y-115955296D01*
X170497886Y-115965277D01*
X170494995Y-115994631D01*
X170494995Y-115994636D01*
X170494500Y-116004714D01*
X170494500Y-116157380D01*
X170475593Y-116215571D01*
X170458878Y-116233434D01*
X170053134Y-116571554D01*
X169996327Y-116594282D01*
X169989756Y-116594500D01*
X169249700Y-116594500D01*
X169236656Y-116595057D01*
X169187243Y-116599306D01*
X169178503Y-116600437D01*
X169153116Y-116604835D01*
X169144508Y-116606709D01*
X169096587Y-116619316D01*
X169084134Y-116623167D01*
X165219142Y-118003521D01*
X165134551Y-118033732D01*
X165135069Y-118033533D01*
X165073971Y-118036795D01*
X165022624Y-118003521D01*
X165000641Y-117946421D01*
X165000500Y-117941143D01*
X165000500Y-111530000D01*
X166119355Y-111530000D01*
X166139860Y-111698872D01*
X166200182Y-111857930D01*
X166277401Y-111969801D01*
X166294897Y-112028430D01*
X166274590Y-112086147D01*
X166250929Y-112108353D01*
X166180449Y-112155447D01*
X166180445Y-112155451D01*
X166136134Y-112221766D01*
X166136132Y-112221772D01*
X166124501Y-112280241D01*
X166124500Y-112280253D01*
X166124500Y-113319746D01*
X166124501Y-113319758D01*
X166136132Y-113378227D01*
X166136133Y-113378231D01*
X166180448Y-113444552D01*
X166246769Y-113488867D01*
X166291231Y-113497711D01*
X166305241Y-113500498D01*
X166305246Y-113500498D01*
X166305252Y-113500500D01*
X166305253Y-113500500D01*
X167344747Y-113500500D01*
X167344748Y-113500500D01*
X167403231Y-113488867D01*
X167469552Y-113444552D01*
X167513867Y-113378231D01*
X167525500Y-113319748D01*
X167525500Y-112280252D01*
X167513867Y-112221769D01*
X167469552Y-112155448D01*
X167469548Y-112155445D01*
X167399071Y-112108353D01*
X167361192Y-112060303D01*
X167358790Y-111999164D01*
X167372594Y-111969807D01*
X167449818Y-111857930D01*
X167510140Y-111698872D01*
X167530645Y-111530000D01*
X167510140Y-111361128D01*
X167449818Y-111202070D01*
X167353183Y-111062071D01*
X167316993Y-111030010D01*
X167225853Y-110949267D01*
X167225852Y-110949266D01*
X167075225Y-110870210D01*
X167075224Y-110870209D01*
X167075223Y-110870209D01*
X166910058Y-110829500D01*
X166910056Y-110829500D01*
X166739944Y-110829500D01*
X166739941Y-110829500D01*
X166574776Y-110870209D01*
X166424146Y-110949267D01*
X166296818Y-111062069D01*
X166296816Y-111062072D01*
X166241485Y-111142233D01*
X166200182Y-111202070D01*
X166139860Y-111361128D01*
X166119355Y-111530000D01*
X165000500Y-111530000D01*
X165000500Y-110307237D01*
X165002402Y-110287923D01*
X165018994Y-110204508D01*
X165018995Y-110204507D01*
X165018994Y-110204506D01*
X165033774Y-110168824D01*
X165076931Y-110104235D01*
X165104235Y-110076931D01*
X165168824Y-110033774D01*
X165204507Y-110018994D01*
X165255285Y-110008894D01*
X165287925Y-110002402D01*
X165307238Y-110000500D01*
X170230520Y-110000500D01*
X170288711Y-110019407D01*
G37*
%TD.AperFunction*%
%TD*%
M02*
