%TF.GenerationSoftware,KiCad,Pcbnew,7.0.8-7.0.8~ubuntu22.04.1*%
%TF.CreationDate,2023-10-09T16:02:49+01:00*%
%TF.ProjectId,motor_driver_v2,6d6f746f-725f-4647-9269-7665725f7632,rev?*%
%TF.SameCoordinates,Original*%
%TF.FileFunction,Copper,L2,Bot*%
%TF.FilePolarity,Positive*%
%FSLAX46Y46*%
G04 Gerber Fmt 4.6, Leading zero omitted, Abs format (unit mm)*
G04 Created by KiCad (PCBNEW 7.0.8-7.0.8~ubuntu22.04.1) date 2023-10-09 16:02:49*
%MOMM*%
%LPD*%
G01*
G04 APERTURE LIST*
%TA.AperFunction,ComponentPad*%
%ADD10C,0.630000*%
%TD*%
%TA.AperFunction,SMDPad,CuDef*%
%ADD11R,3.300000X2.600000*%
%TD*%
%TA.AperFunction,ComponentPad*%
%ADD12R,1.000000X1.000000*%
%TD*%
%TA.AperFunction,ComponentPad*%
%ADD13O,1.000000X1.000000*%
%TD*%
%TA.AperFunction,ViaPad*%
%ADD14C,0.600000*%
%TD*%
%TA.AperFunction,ViaPad*%
%ADD15C,0.800000*%
%TD*%
%TA.AperFunction,Conductor*%
%ADD16C,0.500000*%
%TD*%
%TA.AperFunction,Conductor*%
%ADD17C,0.200000*%
%TD*%
G04 APERTURE END LIST*
D10*
%TO.P,U1,9,GND*%
%TO.N,GND*%
X172400000Y-131175000D03*
X171100000Y-131175000D03*
X169800000Y-131175000D03*
D11*
X171100000Y-131825000D03*
D10*
X172400000Y-132475000D03*
X171100000Y-132475000D03*
X169800000Y-132475000D03*
%TD*%
D12*
%TO.P,J1,1,Pin_1*%
%TO.N,+12V*%
X166825000Y-112800000D03*
D13*
%TO.P,J1,2,Pin_2*%
X166825000Y-111530000D03*
%TO.P,J1,3,Pin_3*%
%TO.N,GND*%
X168095000Y-112800000D03*
%TO.P,J1,4,Pin_4*%
X168095000Y-111530000D03*
%TO.P,J1,5,Pin_5*%
%TO.N,/SPI1_MOSI*%
X169365000Y-112800000D03*
%TO.P,J1,6,Pin_6*%
%TO.N,/UART_TX*%
X169365000Y-111530000D03*
%TO.P,J1,7,Pin_7*%
%TO.N,/SPI1_SCK*%
X170635000Y-112800000D03*
%TO.P,J1,8,Pin_8*%
%TO.N,/UART_RX*%
X170635000Y-111530000D03*
%TO.P,J1,9,Pin_9*%
%TO.N,/SPI1_NSS*%
X171905000Y-112800000D03*
%TO.P,J1,10,Pin_10*%
%TO.N,/SWDIO*%
X171905000Y-111530000D03*
%TO.P,J1,11,Pin_11*%
%TO.N,/NRST*%
X173175000Y-112800000D03*
%TO.P,J1,12,Pin_12*%
%TO.N,/SWCLK*%
X173175000Y-111530000D03*
%TD*%
D12*
%TO.P,J2,1,Pin_1*%
%TO.N,Net-(J2-Pin_1)*%
X167450000Y-138700000D03*
D13*
%TO.P,J2,2,Pin_2*%
%TO.N,Net-(J2-Pin_2)*%
X168720000Y-138700000D03*
%TO.P,J2,3,Pin_3*%
%TO.N,GND*%
X169990000Y-138700000D03*
%TO.P,J2,4,Pin_4*%
%TO.N,+3.3V*%
X171260000Y-138700000D03*
%TO.P,J2,5,Pin_5*%
%TO.N,/ADC_IN*%
X172530000Y-138700000D03*
%TD*%
D14*
%TO.N,Net-(R4-Pad2)*%
X167700000Y-131300000D03*
X173005000Y-128950000D03*
%TO.N,/NRST*%
X171099500Y-121125502D03*
X171675500Y-119500500D03*
X170699500Y-124200000D03*
%TO.N,GND*%
X167000000Y-122000000D03*
X167250000Y-114600000D03*
X172600000Y-113700000D03*
X167750000Y-121600000D03*
X169100000Y-127350000D03*
X172500000Y-126400000D03*
X166950000Y-133500000D03*
X172300000Y-118400000D03*
X166950000Y-132900000D03*
X173529503Y-138700000D03*
X166000000Y-138700000D03*
X167000000Y-121250000D03*
X173100000Y-127150000D03*
X168250000Y-114950000D03*
X170800000Y-127100000D03*
D15*
%TO.N,+12V*%
X167100000Y-135300000D03*
X166500000Y-120100000D03*
X165500000Y-135200000D03*
X165700000Y-120100000D03*
X168100000Y-136300000D03*
X166300000Y-135200000D03*
D14*
%TO.N,+3.3V*%
X174095012Y-120200000D03*
X173120000Y-123500000D03*
X174080500Y-126350000D03*
%TO.N,/SPI1_MOSI*%
X169800388Y-118224500D03*
%TO.N,/UART_TX*%
X169100000Y-124400500D03*
X169300000Y-114500000D03*
%TO.N,/SPI1_SCK*%
X170599500Y-118249500D03*
%TO.N,/UART_RX*%
X171000000Y-125000500D03*
%TO.N,/SPI1_NSS*%
X171398963Y-118257260D03*
%TO.N,/SWDIO*%
X168396851Y-126874008D03*
%TO.N,/SWCLK*%
X167700000Y-126124500D03*
D15*
%TO.N,GND*%
X171700000Y-135600000D03*
X171700000Y-134800000D03*
X171700000Y-134000000D03*
D14*
%TO.N,/TIM2_CH2*%
X171800000Y-127700000D03*
X172500000Y-121800000D03*
%TD*%
D16*
%TO.N,Net-(R4-Pad2)*%
X167700000Y-131300000D02*
X170050000Y-128950000D01*
X170050000Y-128950000D02*
X173005000Y-128950000D01*
D17*
%TO.N,/NRST*%
X172153913Y-119500500D02*
X173600000Y-118054413D01*
X170800000Y-121425002D02*
X171099500Y-121125502D01*
X173600000Y-118054413D02*
X173600000Y-113225000D01*
X170699500Y-124200000D02*
X170800000Y-124099500D01*
X170800000Y-124099500D02*
X170800000Y-121425002D01*
X173600000Y-113225000D02*
X173175000Y-112800000D01*
X171675500Y-119500500D02*
X172153913Y-119500500D01*
%TO.N,+3.3V*%
X173120000Y-123500000D02*
X173980500Y-123500000D01*
D16*
X174080500Y-123600000D02*
X174080500Y-126350000D01*
X174080500Y-120214512D02*
X174080500Y-123600000D01*
D17*
X173980500Y-123500000D02*
X174080500Y-123600000D01*
D16*
X174095012Y-120200000D02*
X174080500Y-120214512D01*
D17*
%TO.N,/SPI1_MOSI*%
X169800388Y-118224500D02*
X170000000Y-118024888D01*
X170000000Y-113435000D02*
X169365000Y-112800000D01*
X170000000Y-118024888D02*
X170000000Y-113435000D01*
%TO.N,/UART_TX*%
X169300000Y-114500000D02*
X169100000Y-114700000D01*
X169100000Y-114700000D02*
X169100000Y-124400500D01*
%TO.N,/SPI1_SCK*%
X170800000Y-118049000D02*
X170800000Y-112965000D01*
X170800000Y-112965000D02*
X170635000Y-112800000D01*
X170599500Y-118249500D02*
X170800000Y-118049000D01*
%TO.N,/UART_RX*%
X171400000Y-124600500D02*
X171400000Y-121951471D01*
X174800000Y-110600000D02*
X174500000Y-110300000D01*
X171000000Y-125000500D02*
X171400000Y-124600500D01*
X171400000Y-121951471D02*
X174800000Y-118551471D01*
X171865000Y-110300000D02*
X170635000Y-111530000D01*
X174800000Y-118551471D02*
X174800000Y-110600000D01*
X174500000Y-110300000D02*
X171865000Y-110300000D01*
%TO.N,/SPI1_NSS*%
X171600000Y-118056223D02*
X171600000Y-113105000D01*
X171600000Y-113105000D02*
X171905000Y-112800000D01*
X171398963Y-118257260D02*
X171600000Y-118056223D01*
%TO.N,/SWDIO*%
X171905000Y-111195000D02*
X171905000Y-111530000D01*
X174400000Y-118385785D02*
X174400000Y-111400000D01*
X170499500Y-120900500D02*
X170499500Y-120876973D01*
X172400000Y-110700000D02*
X171905000Y-111195000D01*
X172285785Y-120500000D02*
X174400000Y-118385785D01*
X168396851Y-126874008D02*
X168546359Y-126724500D01*
X170100000Y-121300000D02*
X170499500Y-120900500D01*
X168546359Y-126724500D02*
X169575500Y-126724500D01*
X170499500Y-120876973D02*
X170876473Y-120500000D01*
X170100000Y-126200000D02*
X170100000Y-121300000D01*
X169575500Y-126724500D02*
X170100000Y-126200000D01*
X170876473Y-120500000D02*
X172285785Y-120500000D01*
X174400000Y-111400000D02*
X173700000Y-110700000D01*
X173700000Y-110700000D02*
X172400000Y-110700000D01*
%TO.N,/SWCLK*%
X167700000Y-126124500D02*
X169475500Y-126124500D01*
X174000000Y-118220099D02*
X174000000Y-112355000D01*
X169475500Y-126124500D02*
X169700000Y-125900000D01*
X169700000Y-121110788D02*
X170710788Y-120100000D01*
X170710788Y-120100000D02*
X172120099Y-120100000D01*
X172120099Y-120100000D02*
X174000000Y-118220099D01*
X174000000Y-112355000D02*
X173175000Y-111530000D01*
X169700000Y-125900000D02*
X169700000Y-121110788D01*
%TO.N,/TIM2_CH2*%
X171800000Y-122800000D02*
X171800000Y-127700000D01*
X172500000Y-122100000D02*
X171800000Y-122800000D01*
X172500000Y-121800000D02*
X172500000Y-122100000D01*
%TD*%
%TA.AperFunction,Conductor*%
%TO.N,GND*%
G36*
X171558711Y-110019407D02*
G01*
X171594675Y-110068907D01*
X171594675Y-110130093D01*
X171570524Y-110169504D01*
X170912346Y-110827681D01*
X170857829Y-110855458D01*
X170818651Y-110853801D01*
X170720056Y-110829500D01*
X170549944Y-110829500D01*
X170549941Y-110829500D01*
X170384776Y-110870209D01*
X170234146Y-110949267D01*
X170106818Y-111062069D01*
X170106816Y-111062072D01*
X170081475Y-111098785D01*
X170032858Y-111135934D01*
X169971690Y-111137412D01*
X169921336Y-111102654D01*
X169918525Y-111098785D01*
X169893183Y-111062071D01*
X169884797Y-111054642D01*
X169765853Y-110949267D01*
X169765852Y-110949266D01*
X169615225Y-110870210D01*
X169615224Y-110870209D01*
X169615223Y-110870209D01*
X169450058Y-110829500D01*
X169450056Y-110829500D01*
X169279944Y-110829500D01*
X169279941Y-110829500D01*
X169114776Y-110870209D01*
X168964146Y-110949267D01*
X168836818Y-111062069D01*
X168836816Y-111062072D01*
X168766182Y-111164403D01*
X168740182Y-111202070D01*
X168679860Y-111361128D01*
X168659355Y-111530000D01*
X168679860Y-111698872D01*
X168740182Y-111857930D01*
X168836817Y-111997929D01*
X168836820Y-111997931D01*
X168836823Y-111997935D01*
X168941756Y-112090898D01*
X168972775Y-112143638D01*
X168966869Y-112204537D01*
X168941756Y-112239102D01*
X168836823Y-112332064D01*
X168836816Y-112332072D01*
X168740182Y-112472070D01*
X168679860Y-112631128D01*
X168659355Y-112800000D01*
X168679860Y-112968872D01*
X168740182Y-113127930D01*
X168836817Y-113267929D01*
X168964148Y-113380734D01*
X169114775Y-113459790D01*
X169279944Y-113500500D01*
X169279947Y-113500500D01*
X169450053Y-113500500D01*
X169450056Y-113500500D01*
X169548651Y-113476198D01*
X169609674Y-113480629D01*
X169642344Y-113502316D01*
X169670502Y-113530473D01*
X169698281Y-113584989D01*
X169699500Y-113600478D01*
X169699500Y-113980492D01*
X169680593Y-114038683D01*
X169631093Y-114074647D01*
X169569907Y-114074647D01*
X169546977Y-114063776D01*
X169510057Y-114040049D01*
X169510054Y-114040047D01*
X169510053Y-114040047D01*
X169505408Y-114038683D01*
X169371964Y-113999500D01*
X169371961Y-113999500D01*
X169228039Y-113999500D01*
X169228035Y-113999500D01*
X169089949Y-114040046D01*
X169089942Y-114040049D01*
X168968873Y-114117855D01*
X168874622Y-114226628D01*
X168814834Y-114357543D01*
X168794353Y-114499997D01*
X168794353Y-114500003D01*
X168807136Y-114588917D01*
X168801462Y-114638759D01*
X168799500Y-114643824D01*
X168799500Y-114653651D01*
X168796870Y-114676318D01*
X168794621Y-114685879D01*
X168799025Y-114717452D01*
X168799500Y-114724298D01*
X168799500Y-123946605D01*
X168780593Y-124004796D01*
X168773258Y-124012789D01*
X168773509Y-124013006D01*
X168674622Y-124127128D01*
X168614834Y-124258043D01*
X168594353Y-124400497D01*
X168594353Y-124400502D01*
X168614834Y-124542956D01*
X168642160Y-124602790D01*
X168674623Y-124673873D01*
X168768872Y-124782643D01*
X168768873Y-124782644D01*
X168886197Y-124858043D01*
X168889947Y-124860453D01*
X168996403Y-124891711D01*
X169028035Y-124900999D01*
X169028036Y-124900999D01*
X169028039Y-124901000D01*
X169028041Y-124901000D01*
X169171959Y-124901000D01*
X169171961Y-124901000D01*
X169272610Y-124871447D01*
X169333769Y-124873194D01*
X169382222Y-124910557D01*
X169399500Y-124966437D01*
X169399500Y-125725000D01*
X169380593Y-125783191D01*
X169331093Y-125819155D01*
X169300500Y-125824000D01*
X168147083Y-125824000D01*
X168088892Y-125805093D01*
X168072264Y-125789831D01*
X168031128Y-125742357D01*
X167998182Y-125721184D01*
X167910057Y-125664549D01*
X167910054Y-125664547D01*
X167910053Y-125664547D01*
X167910050Y-125664546D01*
X167771964Y-125624000D01*
X167771961Y-125624000D01*
X167628039Y-125624000D01*
X167628035Y-125624000D01*
X167489949Y-125664546D01*
X167489942Y-125664549D01*
X167368873Y-125742355D01*
X167274622Y-125851128D01*
X167214834Y-125982043D01*
X167194353Y-126124497D01*
X167194353Y-126124502D01*
X167214834Y-126266956D01*
X167257752Y-126360932D01*
X167274623Y-126397873D01*
X167356067Y-126491865D01*
X167368873Y-126506644D01*
X167489942Y-126584450D01*
X167489947Y-126584453D01*
X167596403Y-126615711D01*
X167628035Y-126624999D01*
X167628036Y-126624999D01*
X167628039Y-126625000D01*
X167628041Y-126625000D01*
X167771959Y-126625000D01*
X167771961Y-126625000D01*
X167786029Y-126620869D01*
X167847190Y-126622615D01*
X167895644Y-126659976D01*
X167912883Y-126718683D01*
X167911915Y-126729946D01*
X167891204Y-126874003D01*
X167891204Y-126874010D01*
X167911685Y-127016464D01*
X167942014Y-127082874D01*
X167971474Y-127147381D01*
X168057018Y-127246105D01*
X168065724Y-127256152D01*
X168186793Y-127333958D01*
X168186798Y-127333961D01*
X168293254Y-127365219D01*
X168324886Y-127374507D01*
X168324887Y-127374507D01*
X168324890Y-127374508D01*
X168324892Y-127374508D01*
X168468810Y-127374508D01*
X168468812Y-127374508D01*
X168606904Y-127333961D01*
X168727979Y-127256151D01*
X168822228Y-127147381D01*
X168851688Y-127082872D01*
X168893060Y-127037796D01*
X168941741Y-127025000D01*
X169510336Y-127025000D01*
X169524011Y-127027232D01*
X169524183Y-127026006D01*
X169533264Y-127027272D01*
X169533265Y-127027273D01*
X169533265Y-127027272D01*
X169533266Y-127027273D01*
X169542007Y-127026868D01*
X169581293Y-127025052D01*
X169583570Y-127025000D01*
X169603341Y-127025000D01*
X169603344Y-127025000D01*
X169606837Y-127024346D01*
X169613641Y-127023556D01*
X169645492Y-127022085D01*
X169654476Y-127018117D01*
X169676277Y-127011365D01*
X169685933Y-127009561D01*
X169713043Y-126992774D01*
X169719089Y-126989588D01*
X169748265Y-126976706D01*
X169755209Y-126969760D01*
X169773101Y-126955589D01*
X169781452Y-126950419D01*
X169800665Y-126924974D01*
X169805162Y-126919808D01*
X170006287Y-126718683D01*
X170266405Y-126458564D01*
X170277664Y-126450493D01*
X170276905Y-126449487D01*
X170284221Y-126443961D01*
X170284228Y-126443958D01*
X170316632Y-126408411D01*
X170318186Y-126406783D01*
X170332174Y-126392797D01*
X170334181Y-126389865D01*
X170338440Y-126384490D01*
X170359916Y-126360933D01*
X170363465Y-126351770D01*
X170374106Y-126331582D01*
X170379656Y-126323481D01*
X170386955Y-126292443D01*
X170388977Y-126285914D01*
X170400500Y-126256173D01*
X170400500Y-126246348D01*
X170403129Y-126223683D01*
X170405379Y-126214119D01*
X170400975Y-126182546D01*
X170400500Y-126175699D01*
X170400500Y-125338353D01*
X170419407Y-125280162D01*
X170468907Y-125244198D01*
X170530093Y-125244198D01*
X170574320Y-125273522D01*
X170574621Y-125273870D01*
X170574623Y-125273873D01*
X170630495Y-125338353D01*
X170668873Y-125382644D01*
X170779170Y-125453527D01*
X170789947Y-125460453D01*
X170896403Y-125491711D01*
X170928035Y-125500999D01*
X170928036Y-125500999D01*
X170928039Y-125501000D01*
X170928041Y-125501000D01*
X171071959Y-125501000D01*
X171071961Y-125501000D01*
X171210053Y-125460453D01*
X171331128Y-125382643D01*
X171331133Y-125382637D01*
X171335666Y-125378710D01*
X171392025Y-125354890D01*
X171451621Y-125368747D01*
X171491690Y-125414986D01*
X171499500Y-125453527D01*
X171499500Y-127246105D01*
X171480593Y-127304296D01*
X171473258Y-127312289D01*
X171473509Y-127312506D01*
X171374622Y-127426628D01*
X171314834Y-127557543D01*
X171294353Y-127699997D01*
X171294353Y-127700002D01*
X171314834Y-127842456D01*
X171374622Y-127973371D01*
X171374623Y-127973373D01*
X171468872Y-128082143D01*
X171468873Y-128082144D01*
X171589942Y-128159950D01*
X171589947Y-128159953D01*
X171696403Y-128191211D01*
X171728035Y-128200499D01*
X171728036Y-128200499D01*
X171728039Y-128200500D01*
X171728041Y-128200500D01*
X171871959Y-128200500D01*
X171871961Y-128200500D01*
X172010053Y-128159953D01*
X172131128Y-128082143D01*
X172225377Y-127973373D01*
X172285165Y-127842457D01*
X172305647Y-127700000D01*
X172285165Y-127557543D01*
X172225377Y-127426627D01*
X172131128Y-127317857D01*
X172131127Y-127317856D01*
X172126491Y-127312506D01*
X172128524Y-127310743D01*
X172103067Y-127268505D01*
X172100500Y-127246105D01*
X172100500Y-122965478D01*
X172119407Y-122907287D01*
X172129490Y-122895480D01*
X172666405Y-122358564D01*
X172677664Y-122350493D01*
X172676905Y-122349487D01*
X172684221Y-122343961D01*
X172684228Y-122343958D01*
X172716632Y-122308411D01*
X172718186Y-122306783D01*
X172732174Y-122292797D01*
X172734181Y-122289865D01*
X172738440Y-122284490D01*
X172759916Y-122260933D01*
X172763466Y-122251767D01*
X172774107Y-122231580D01*
X172778457Y-122225230D01*
X172806602Y-122197905D01*
X172816924Y-122191271D01*
X172831128Y-122182143D01*
X172925377Y-122073373D01*
X172985165Y-121942457D01*
X173005647Y-121800000D01*
X173002639Y-121779081D01*
X172985165Y-121657543D01*
X172925377Y-121526627D01*
X172831128Y-121417857D01*
X172831127Y-121417856D01*
X172831126Y-121417855D01*
X172710057Y-121340049D01*
X172710054Y-121340048D01*
X172710053Y-121340047D01*
X172658605Y-121324940D01*
X172608099Y-121290405D01*
X172587538Y-121232778D01*
X172604776Y-121174071D01*
X172616489Y-121159952D01*
X173453889Y-120322551D01*
X173508404Y-120294776D01*
X173568836Y-120304347D01*
X173612101Y-120347612D01*
X173613942Y-120351425D01*
X173621051Y-120366989D01*
X173630000Y-120408121D01*
X173630000Y-123058857D01*
X173611093Y-123117048D01*
X173561593Y-123153012D01*
X173500407Y-123153012D01*
X173456183Y-123123691D01*
X173451128Y-123117857D01*
X173418182Y-123096684D01*
X173330057Y-123040049D01*
X173330054Y-123040047D01*
X173330053Y-123040047D01*
X173330050Y-123040046D01*
X173191964Y-122999500D01*
X173191961Y-122999500D01*
X173048039Y-122999500D01*
X173048035Y-122999500D01*
X172909949Y-123040046D01*
X172909942Y-123040049D01*
X172788873Y-123117855D01*
X172694622Y-123226628D01*
X172634834Y-123357543D01*
X172614353Y-123499997D01*
X172614353Y-123500002D01*
X172634834Y-123642456D01*
X172678055Y-123737095D01*
X172694623Y-123773373D01*
X172756441Y-123844715D01*
X172788873Y-123882144D01*
X172880676Y-123941142D01*
X172909947Y-123959953D01*
X173016403Y-123991211D01*
X173048035Y-124000499D01*
X173048036Y-124000499D01*
X173048039Y-124000500D01*
X173048041Y-124000500D01*
X173191959Y-124000500D01*
X173191961Y-124000500D01*
X173330053Y-123959953D01*
X173451128Y-123882143D01*
X173456183Y-123876309D01*
X173508576Y-123844715D01*
X173569537Y-123849951D01*
X173615778Y-123890018D01*
X173630000Y-123941142D01*
X173630000Y-126110102D01*
X173621053Y-126151229D01*
X173595334Y-126207543D01*
X173574853Y-126349997D01*
X173574853Y-126350002D01*
X173595334Y-126492456D01*
X173644739Y-126600635D01*
X173655123Y-126623373D01*
X173737709Y-126718683D01*
X173749373Y-126732144D01*
X173870442Y-126809950D01*
X173870447Y-126809953D01*
X173976903Y-126841211D01*
X174008535Y-126850499D01*
X174008536Y-126850499D01*
X174008539Y-126850500D01*
X174008541Y-126850500D01*
X174152459Y-126850500D01*
X174152461Y-126850500D01*
X174290553Y-126809953D01*
X174411628Y-126732143D01*
X174505877Y-126623373D01*
X174565665Y-126492457D01*
X174586147Y-126350000D01*
X174584861Y-126341058D01*
X174565665Y-126207543D01*
X174539947Y-126151229D01*
X174531000Y-126110102D01*
X174531000Y-120471674D01*
X174539947Y-120430547D01*
X174550189Y-120408121D01*
X174580177Y-120342457D01*
X174598434Y-120215475D01*
X174600659Y-120200002D01*
X174600659Y-120199997D01*
X174580177Y-120057543D01*
X174520389Y-119926628D01*
X174520389Y-119926627D01*
X174426140Y-119817857D01*
X174426139Y-119817856D01*
X174426138Y-119817855D01*
X174305069Y-119740049D01*
X174305066Y-119740048D01*
X174305065Y-119740047D01*
X174275773Y-119731446D01*
X174257474Y-119726073D01*
X174206967Y-119691537D01*
X174186406Y-119633909D01*
X174203645Y-119575203D01*
X174215357Y-119561083D01*
X174830496Y-118945944D01*
X174885013Y-118918168D01*
X174945445Y-118927739D01*
X174988710Y-118971004D01*
X174999500Y-119015949D01*
X174999500Y-139692761D01*
X174997598Y-139712076D01*
X174981005Y-139795492D01*
X174966223Y-139831178D01*
X174923073Y-139895758D01*
X174895758Y-139923073D01*
X174831178Y-139966223D01*
X174795492Y-139981005D01*
X174737485Y-139992543D01*
X174712074Y-139997598D01*
X174692762Y-139999500D01*
X165307238Y-139999500D01*
X165287925Y-139997598D01*
X165254409Y-139990931D01*
X165204507Y-139981005D01*
X165168821Y-139966223D01*
X165156246Y-139957821D01*
X165104238Y-139923070D01*
X165076929Y-139895761D01*
X165033775Y-139831177D01*
X165018994Y-139795490D01*
X165002402Y-139712074D01*
X165000500Y-139692761D01*
X165000500Y-139219746D01*
X166749500Y-139219746D01*
X166749501Y-139219758D01*
X166760255Y-139273817D01*
X166761133Y-139278231D01*
X166805448Y-139344552D01*
X166871769Y-139388867D01*
X166916231Y-139397711D01*
X166930241Y-139400498D01*
X166930246Y-139400498D01*
X166930252Y-139400500D01*
X166930253Y-139400500D01*
X167969747Y-139400500D01*
X167969748Y-139400500D01*
X168028231Y-139388867D01*
X168094552Y-139344552D01*
X168138867Y-139278231D01*
X168138867Y-139278230D01*
X168141816Y-139273817D01*
X168189866Y-139235938D01*
X168251004Y-139233536D01*
X168289780Y-139254716D01*
X168319148Y-139280734D01*
X168469775Y-139359790D01*
X168634944Y-139400500D01*
X168634947Y-139400500D01*
X168805053Y-139400500D01*
X168805056Y-139400500D01*
X168970225Y-139359790D01*
X169120852Y-139280734D01*
X169248183Y-139167929D01*
X169344818Y-139027930D01*
X169405140Y-138868872D01*
X169425645Y-138700000D01*
X170554355Y-138700000D01*
X170574860Y-138868872D01*
X170635182Y-139027930D01*
X170731817Y-139167929D01*
X170859148Y-139280734D01*
X171009775Y-139359790D01*
X171174944Y-139400500D01*
X171174947Y-139400500D01*
X171345053Y-139400500D01*
X171345056Y-139400500D01*
X171510225Y-139359790D01*
X171660852Y-139280734D01*
X171788183Y-139167929D01*
X171813525Y-139131214D01*
X171862141Y-139094065D01*
X171923308Y-139092587D01*
X171973663Y-139127344D01*
X171976475Y-139131215D01*
X172001813Y-139167924D01*
X172001816Y-139167927D01*
X172001817Y-139167929D01*
X172129148Y-139280734D01*
X172279775Y-139359790D01*
X172444944Y-139400500D01*
X172444947Y-139400500D01*
X172615053Y-139400500D01*
X172615056Y-139400500D01*
X172780225Y-139359790D01*
X172930852Y-139280734D01*
X173058183Y-139167929D01*
X173154818Y-139027930D01*
X173215140Y-138868872D01*
X173235645Y-138700000D01*
X173215140Y-138531128D01*
X173154818Y-138372070D01*
X173058183Y-138232071D01*
X172930852Y-138119266D01*
X172780225Y-138040210D01*
X172780224Y-138040209D01*
X172780223Y-138040209D01*
X172615058Y-137999500D01*
X172615056Y-137999500D01*
X172444944Y-137999500D01*
X172444941Y-137999500D01*
X172279776Y-138040209D01*
X172129146Y-138119267D01*
X172001818Y-138232069D01*
X172001816Y-138232072D01*
X171976475Y-138268785D01*
X171927858Y-138305934D01*
X171866690Y-138307412D01*
X171816336Y-138272654D01*
X171813525Y-138268785D01*
X171788183Y-138232071D01*
X171660852Y-138119266D01*
X171510225Y-138040210D01*
X171510224Y-138040209D01*
X171510223Y-138040209D01*
X171345058Y-137999500D01*
X171345056Y-137999500D01*
X171174944Y-137999500D01*
X171174941Y-137999500D01*
X171009776Y-138040209D01*
X170859146Y-138119267D01*
X170731818Y-138232069D01*
X170731816Y-138232072D01*
X170635182Y-138372070D01*
X170574860Y-138531128D01*
X170554355Y-138700000D01*
X169425645Y-138700000D01*
X169405140Y-138531128D01*
X169344818Y-138372070D01*
X169248183Y-138232071D01*
X169120852Y-138119266D01*
X168970225Y-138040210D01*
X168970224Y-138040209D01*
X168970223Y-138040209D01*
X168805058Y-137999500D01*
X168805056Y-137999500D01*
X168634944Y-137999500D01*
X168634941Y-137999500D01*
X168469776Y-138040209D01*
X168319146Y-138119267D01*
X168289780Y-138145283D01*
X168233685Y-138169718D01*
X168173941Y-138156515D01*
X168141816Y-138126182D01*
X168094554Y-138055451D01*
X168094552Y-138055448D01*
X168094548Y-138055445D01*
X168028233Y-138011134D01*
X168028231Y-138011133D01*
X168028228Y-138011132D01*
X168028227Y-138011132D01*
X167969758Y-137999501D01*
X167969748Y-137999500D01*
X166930252Y-137999500D01*
X166930251Y-137999500D01*
X166930241Y-137999501D01*
X166871772Y-138011132D01*
X166871766Y-138011134D01*
X166805451Y-138055445D01*
X166805445Y-138055451D01*
X166761134Y-138121766D01*
X166761132Y-138121772D01*
X166749501Y-138180241D01*
X166749500Y-138180253D01*
X166749500Y-139219746D01*
X165000500Y-139219746D01*
X165000500Y-137266317D01*
X165019407Y-137208126D01*
X165068907Y-137172162D01*
X165128237Y-137171581D01*
X165164416Y-137182556D01*
X165164423Y-137182557D01*
X165164425Y-137182558D01*
X165255295Y-137200634D01*
X165255293Y-137200634D01*
X165261949Y-137201620D01*
X165265277Y-137202114D01*
X165294632Y-137205005D01*
X165304708Y-137205500D01*
X165304715Y-137205500D01*
X168495285Y-137205500D01*
X168495292Y-137205500D01*
X168505369Y-137205005D01*
X168530529Y-137202527D01*
X168534724Y-137202114D01*
X168534724Y-137202113D01*
X168541746Y-137201072D01*
X168544706Y-137200634D01*
X168544705Y-137200634D01*
X168590765Y-137191471D01*
X168635584Y-137182556D01*
X168635593Y-137182553D01*
X168635602Y-137182551D01*
X168674119Y-137170867D01*
X168674121Y-137170866D01*
X168674135Y-137170862D01*
X168709821Y-137156080D01*
X168745346Y-137137091D01*
X168809926Y-137093941D01*
X168841068Y-137068383D01*
X168868383Y-137041068D01*
X168893941Y-137009926D01*
X168937091Y-136945346D01*
X168956080Y-136909821D01*
X168970862Y-136874135D01*
X168982556Y-136835584D01*
X169000634Y-136744705D01*
X169000634Y-136744706D01*
X169001072Y-136741746D01*
X169002114Y-136734723D01*
X169005005Y-136705369D01*
X169005500Y-136695292D01*
X169005500Y-136228971D01*
X169005005Y-136218896D01*
X169002114Y-136189539D01*
X169000634Y-136179557D01*
X168982556Y-136088678D01*
X168970862Y-136050128D01*
X168956080Y-136014442D01*
X168937090Y-135978916D01*
X168885622Y-135901887D01*
X168879610Y-135893781D01*
X168879607Y-135893777D01*
X168860895Y-135870975D01*
X168860892Y-135870972D01*
X168860893Y-135870972D01*
X168854113Y-135863491D01*
X168854113Y-135863492D01*
X166634496Y-133643875D01*
X166606719Y-133589358D01*
X166605500Y-133573871D01*
X166605500Y-131300002D01*
X167194353Y-131300002D01*
X167214834Y-131442456D01*
X167217037Y-131447279D01*
X167274623Y-131573373D01*
X167368872Y-131682143D01*
X167368873Y-131682144D01*
X167489942Y-131759950D01*
X167489947Y-131759953D01*
X167596403Y-131791211D01*
X167628035Y-131800499D01*
X167628036Y-131800499D01*
X167628039Y-131800500D01*
X167628041Y-131800500D01*
X167771959Y-131800500D01*
X167771961Y-131800500D01*
X167910053Y-131759953D01*
X168031128Y-131682143D01*
X168125377Y-131573373D01*
X168169775Y-131476153D01*
X168189820Y-131447282D01*
X170207607Y-129429496D01*
X170262124Y-129401719D01*
X170277611Y-129400500D01*
X172752712Y-129400500D01*
X172788083Y-129408195D01*
X172788153Y-129407958D01*
X172791468Y-129408931D01*
X172793838Y-129409447D01*
X172794943Y-129409951D01*
X172794944Y-129409951D01*
X172794947Y-129409953D01*
X172908939Y-129443423D01*
X172933035Y-129450499D01*
X172933036Y-129450499D01*
X172933039Y-129450500D01*
X172933041Y-129450500D01*
X173076959Y-129450500D01*
X173076961Y-129450500D01*
X173215053Y-129409953D01*
X173336128Y-129332143D01*
X173430377Y-129223373D01*
X173490165Y-129092457D01*
X173510647Y-128950000D01*
X173490165Y-128807543D01*
X173430377Y-128676627D01*
X173336128Y-128567857D01*
X173336127Y-128567856D01*
X173336126Y-128567855D01*
X173215057Y-128490049D01*
X173215054Y-128490047D01*
X173215053Y-128490047D01*
X173215050Y-128490046D01*
X173076964Y-128449500D01*
X173076961Y-128449500D01*
X172933039Y-128449500D01*
X172933035Y-128449500D01*
X172794943Y-128490048D01*
X172793838Y-128490553D01*
X172791468Y-128491068D01*
X172788153Y-128492042D01*
X172788083Y-128491804D01*
X172752712Y-128499500D01*
X170078087Y-128499500D01*
X170072541Y-128499189D01*
X170032961Y-128494729D01*
X169974508Y-128505789D01*
X169915715Y-128514651D01*
X169908629Y-128516837D01*
X169908500Y-128516419D01*
X169906385Y-128517115D01*
X169906529Y-128517526D01*
X169899528Y-128519975D01*
X169846915Y-128547783D01*
X169793356Y-128573576D01*
X169787229Y-128577753D01*
X169786984Y-128577393D01*
X169785168Y-128578681D01*
X169785427Y-128579032D01*
X169779458Y-128583437D01*
X169737400Y-128625495D01*
X169693805Y-128665945D01*
X169689179Y-128671746D01*
X169688835Y-128671472D01*
X169680297Y-128682597D01*
X167554392Y-130808503D01*
X167512281Y-130833488D01*
X167489949Y-130840045D01*
X167489947Y-130840046D01*
X167368873Y-130917855D01*
X167274622Y-131026628D01*
X167214834Y-131157543D01*
X167194353Y-131299997D01*
X167194353Y-131300002D01*
X166605500Y-131300002D01*
X166605500Y-120992618D01*
X166624407Y-120934427D01*
X166641118Y-120916568D01*
X167019574Y-120601187D01*
X167027806Y-120593528D01*
X167050630Y-120569826D01*
X167057981Y-120561305D01*
X167120932Y-120479698D01*
X167144315Y-120441348D01*
X167162562Y-120402391D01*
X167177055Y-120359875D01*
X167199448Y-120259271D01*
X167200237Y-120254512D01*
X167201289Y-120248171D01*
X167204883Y-120215475D01*
X167204884Y-120215469D01*
X167205500Y-120204231D01*
X167205500Y-119378971D01*
X167205005Y-119368896D01*
X167202114Y-119339539D01*
X167200634Y-119329557D01*
X167182556Y-119238678D01*
X167179052Y-119227128D01*
X167170865Y-119200138D01*
X167170862Y-119200128D01*
X167156080Y-119164442D01*
X167137090Y-119128916D01*
X167130035Y-119118357D01*
X167085622Y-119051887D01*
X167079610Y-119043781D01*
X167076956Y-119040547D01*
X167060895Y-119020975D01*
X167060892Y-119020972D01*
X167060893Y-119020972D01*
X167054113Y-119013491D01*
X167054113Y-119013492D01*
X166834496Y-118793875D01*
X166806719Y-118739358D01*
X166805500Y-118723871D01*
X166805500Y-114504475D01*
X166824407Y-114446284D01*
X166826337Y-114443717D01*
X167396592Y-113710533D01*
X167401525Y-113703619D01*
X167415101Y-113682825D01*
X167419445Y-113675530D01*
X167456664Y-113606713D01*
X167470281Y-113575652D01*
X167470282Y-113575651D01*
X167480855Y-113544836D01*
X167480855Y-113544835D01*
X167489179Y-113511948D01*
X167489178Y-113511949D01*
X167502049Y-113434777D01*
X167503099Y-113426351D01*
X167504112Y-113414116D01*
X167511312Y-113384396D01*
X167513862Y-113378238D01*
X167513867Y-113378231D01*
X167525500Y-113319748D01*
X167525500Y-112280252D01*
X167513867Y-112221769D01*
X167513863Y-112221764D01*
X167513034Y-112219759D01*
X167505500Y-112181877D01*
X167505500Y-111729250D01*
X167509944Y-111704997D01*
X167508706Y-111704692D01*
X167510139Y-111698874D01*
X167510138Y-111698874D01*
X167510140Y-111698872D01*
X167530645Y-111530000D01*
X167510140Y-111361128D01*
X167510138Y-111361124D01*
X167508707Y-111355314D01*
X167509941Y-111355009D01*
X167505500Y-111330751D01*
X167505500Y-111304713D01*
X167505005Y-111294637D01*
X167505005Y-111294632D01*
X167502114Y-111265275D01*
X167500634Y-111255293D01*
X167482556Y-111164414D01*
X167470862Y-111125864D01*
X167456080Y-111090178D01*
X167437090Y-111054651D01*
X167437089Y-111054649D01*
X167437085Y-111054642D01*
X167393942Y-110990075D01*
X167393935Y-110990066D01*
X167368385Y-110958934D01*
X167368384Y-110958933D01*
X167368380Y-110958928D01*
X167341071Y-110931619D01*
X167341065Y-110931614D01*
X167341062Y-110931611D01*
X167309933Y-110906063D01*
X167245354Y-110862912D01*
X167245341Y-110862904D01*
X167209835Y-110843926D01*
X167209822Y-110843919D01*
X167209817Y-110843917D01*
X167209813Y-110843915D01*
X167209802Y-110843910D01*
X167174127Y-110829134D01*
X167135584Y-110817442D01*
X167089825Y-110808340D01*
X167044704Y-110799366D01*
X167044697Y-110799365D01*
X167044699Y-110799365D01*
X167042018Y-110798967D01*
X167034724Y-110797886D01*
X167030529Y-110797473D01*
X167005368Y-110794995D01*
X166995292Y-110794500D01*
X166428972Y-110794500D01*
X166418895Y-110794995D01*
X166389542Y-110797886D01*
X166379570Y-110799364D01*
X166379572Y-110799364D01*
X166288690Y-110817440D01*
X166288669Y-110817445D01*
X166250141Y-110829132D01*
X166250123Y-110829139D01*
X166214464Y-110843909D01*
X166214437Y-110843921D01*
X166178915Y-110862908D01*
X166178911Y-110862911D01*
X166126487Y-110897940D01*
X166115137Y-110905525D01*
X166101862Y-110914395D01*
X166099368Y-110916245D01*
X166093771Y-110920396D01*
X166070980Y-110939098D01*
X166065048Y-110944474D01*
X166063504Y-110945874D01*
X165169504Y-111839874D01*
X165114987Y-111867651D01*
X165054555Y-111858080D01*
X165011290Y-111814815D01*
X165000500Y-111769870D01*
X165000500Y-110307237D01*
X165002402Y-110287923D01*
X165018994Y-110204508D01*
X165033774Y-110168824D01*
X165076931Y-110104235D01*
X165104235Y-110076931D01*
X165168824Y-110033774D01*
X165204507Y-110018994D01*
X165255285Y-110008894D01*
X165287925Y-110002402D01*
X165307238Y-110000500D01*
X171500520Y-110000500D01*
X171558711Y-110019407D01*
G37*
%TD.AperFunction*%
%TA.AperFunction,Conductor*%
G36*
X172618663Y-113227344D02*
G01*
X172621475Y-113231215D01*
X172646813Y-113267924D01*
X172646816Y-113267927D01*
X172646817Y-113267929D01*
X172774148Y-113380734D01*
X172924775Y-113459790D01*
X173089944Y-113500500D01*
X173089947Y-113500500D01*
X173200500Y-113500500D01*
X173258691Y-113519407D01*
X173294655Y-113568907D01*
X173299500Y-113599500D01*
X173299500Y-117888933D01*
X173280593Y-117947124D01*
X173270504Y-117958937D01*
X172126629Y-119102811D01*
X172072112Y-119130588D01*
X172011680Y-119121017D01*
X172003110Y-119116096D01*
X171885553Y-119040547D01*
X171885550Y-119040546D01*
X171747464Y-119000000D01*
X171747461Y-119000000D01*
X171603539Y-119000000D01*
X171603535Y-119000000D01*
X171465449Y-119040546D01*
X171465442Y-119040549D01*
X171344373Y-119118355D01*
X171250122Y-119227128D01*
X171190334Y-119358043D01*
X171169853Y-119500497D01*
X171169853Y-119500502D01*
X171190333Y-119642954D01*
X171197832Y-119659372D01*
X171204808Y-119720158D01*
X171174722Y-119773436D01*
X171119066Y-119798854D01*
X171107779Y-119799500D01*
X170775952Y-119799500D01*
X170762276Y-119797267D01*
X170762105Y-119798494D01*
X170753021Y-119797226D01*
X170712674Y-119799092D01*
X170704994Y-119799447D01*
X170702718Y-119799500D01*
X170682941Y-119799500D01*
X170679446Y-119800153D01*
X170672633Y-119800943D01*
X170640798Y-119802414D01*
X170640794Y-119802415D01*
X170631803Y-119806385D01*
X170610015Y-119813132D01*
X170600358Y-119814937D01*
X170600352Y-119814939D01*
X170573254Y-119831717D01*
X170567187Y-119834915D01*
X170538025Y-119847792D01*
X170538021Y-119847795D01*
X170531072Y-119854744D01*
X170513197Y-119868903D01*
X170504836Y-119874080D01*
X170485627Y-119899515D01*
X170481123Y-119904692D01*
X169569504Y-120816312D01*
X169514987Y-120844089D01*
X169454555Y-120834518D01*
X169411290Y-120791253D01*
X169400500Y-120746308D01*
X169400500Y-118743758D01*
X169419407Y-118685567D01*
X169468907Y-118649603D01*
X169530093Y-118649603D01*
X169553019Y-118660471D01*
X169590335Y-118684453D01*
X169696791Y-118715711D01*
X169728423Y-118724999D01*
X169728424Y-118724999D01*
X169728427Y-118725000D01*
X169728429Y-118725000D01*
X169872347Y-118725000D01*
X169872349Y-118725000D01*
X170010441Y-118684453D01*
X170131516Y-118606643D01*
X170131517Y-118606641D01*
X170133340Y-118605470D01*
X170192516Y-118589915D01*
X170249532Y-118612114D01*
X170261680Y-118623920D01*
X170268372Y-118631643D01*
X170389447Y-118709453D01*
X170488387Y-118738504D01*
X170527535Y-118749999D01*
X170527536Y-118749999D01*
X170527539Y-118750000D01*
X170527541Y-118750000D01*
X170671459Y-118750000D01*
X170671461Y-118750000D01*
X170809553Y-118709453D01*
X170902682Y-118649603D01*
X170936585Y-118627815D01*
X170937313Y-118628947D01*
X170986692Y-118608079D01*
X171046287Y-118621936D01*
X171062079Y-118635229D01*
X171062482Y-118634765D01*
X171067835Y-118639403D01*
X171176830Y-118709450D01*
X171188910Y-118717213D01*
X171264330Y-118739358D01*
X171326998Y-118757759D01*
X171326999Y-118757759D01*
X171327002Y-118757760D01*
X171327004Y-118757760D01*
X171470922Y-118757760D01*
X171470924Y-118757760D01*
X171609016Y-118717213D01*
X171730091Y-118639403D01*
X171824340Y-118530633D01*
X171884128Y-118399717D01*
X171904610Y-118257260D01*
X171891997Y-118169536D01*
X171897676Y-118119684D01*
X171900500Y-118112396D01*
X171900500Y-118102571D01*
X171903129Y-118079906D01*
X171905379Y-118070342D01*
X171900975Y-118038769D01*
X171900500Y-118031922D01*
X171900500Y-113599080D01*
X171919407Y-113540889D01*
X171968907Y-113504925D01*
X171987568Y-113500802D01*
X171990048Y-113500500D01*
X171990056Y-113500500D01*
X172155225Y-113459790D01*
X172305852Y-113380734D01*
X172433183Y-113267929D01*
X172458525Y-113231214D01*
X172507141Y-113194065D01*
X172568308Y-113192587D01*
X172618663Y-113227344D01*
G37*
%TD.AperFunction*%
%TD*%
%TA.AperFunction,Conductor*%
%TO.N,+12V*%
G36*
X167009562Y-111001902D02*
G01*
X167095492Y-111018994D01*
X167131177Y-111033775D01*
X167195761Y-111076929D01*
X167223070Y-111104238D01*
X167257821Y-111156246D01*
X167266223Y-111168821D01*
X167281005Y-111204507D01*
X167298098Y-111290436D01*
X167300000Y-111309751D01*
X167300000Y-113388870D01*
X167298651Y-113405157D01*
X167286478Y-113478143D01*
X167275907Y-113508952D01*
X167240707Y-113574036D01*
X167231773Y-113587720D01*
X166663195Y-114318747D01*
X166663191Y-114318754D01*
X166600000Y-114400000D01*
X166600000Y-118850000D01*
X166687868Y-118937868D01*
X166687871Y-118937871D01*
X166905239Y-119155239D01*
X166917551Y-119170242D01*
X166966223Y-119243085D01*
X166981005Y-119278771D01*
X166998098Y-119364700D01*
X167000000Y-119384015D01*
X167000000Y-120198604D01*
X166997635Y-120220114D01*
X166976464Y-120315225D01*
X166958217Y-120354182D01*
X166898703Y-120431334D01*
X166883693Y-120446921D01*
X166507948Y-120760043D01*
X166400000Y-120850000D01*
X166400000Y-133700000D01*
X166487868Y-133787868D01*
X166487871Y-133787871D01*
X168705239Y-136005239D01*
X168717551Y-136020242D01*
X168766223Y-136093085D01*
X168781005Y-136128771D01*
X168798098Y-136214700D01*
X168800000Y-136234015D01*
X168800000Y-136690248D01*
X168798098Y-136709561D01*
X168793873Y-136730801D01*
X168781005Y-136795492D01*
X168766223Y-136831178D01*
X168723073Y-136895758D01*
X168695758Y-136923073D01*
X168631178Y-136966223D01*
X168595492Y-136981005D01*
X168530801Y-136993873D01*
X168509561Y-136998098D01*
X168490248Y-137000000D01*
X165309752Y-137000000D01*
X165290438Y-136998098D01*
X165204508Y-136981005D01*
X165168821Y-136966223D01*
X165156246Y-136957821D01*
X165104238Y-136923070D01*
X165076929Y-136895761D01*
X165033775Y-136831177D01*
X165018994Y-136795490D01*
X165002402Y-136712074D01*
X165000500Y-136692761D01*
X165000500Y-112431501D01*
X165002402Y-112412187D01*
X165018994Y-112328772D01*
X165033774Y-112293088D01*
X165082453Y-112220235D01*
X165094755Y-112205244D01*
X166205244Y-111094755D01*
X166220235Y-111082453D01*
X166293088Y-111033774D01*
X166328771Y-111018994D01*
X166373605Y-111010076D01*
X166414703Y-111001902D01*
X166434016Y-111000000D01*
X166990248Y-111000000D01*
X167009562Y-111001902D01*
G37*
%TD.AperFunction*%
%TD*%
M02*
