M48
; DRILL file {KiCad 7.0.8-7.0.8~ubuntu22.04.1} date Mon 09 Oct 2023 16:02:48 BST
; FORMAT={-:-/ absolute / inch / decimal}
; #@! TF.CreationDate,2023-10-09T16:02:48+01:00
; #@! TF.GenerationSoftware,Kicad,Pcbnew,7.0.8-7.0.8~ubuntu22.04.1
; #@! TF.FileFunction,Plated,1,2,PTH
FMAT,2
INCH
; #@! TA.AperFunction,Plated,PTH,ViaDrill
T1C0.0118
; #@! TA.AperFunction,Plated,PTH,ComponentDrill
T2C0.0130
; #@! TA.AperFunction,Plated,PTH,ViaDrill
T3C0.0157
; #@! TA.AperFunction,Plated,PTH,ComponentDrill
T4C0.0256
%
G90
G05
T1
X6.5354Y-5.4606
X6.5728Y-5.2323
X6.5728Y-5.2559
X6.5748Y-4.7736
X6.5748Y-4.8031
X6.5846Y-4.5118
X6.6024Y-4.9655
X6.6024Y-5.1693
X6.6043Y-4.7874
X6.624Y-4.5256
X6.6298Y-4.995
X6.6575Y-4.8977
X6.6575Y-5.0138
X6.6654Y-4.5079
X6.6851Y-4.6545
X6.7165Y-4.6555
X6.7205Y-4.8898
X6.7244Y-5.0039
X6.7323Y-4.9213
X6.7362Y-4.7687
X6.748Y-4.6558
X6.7589Y-4.7047
X6.7638Y-5.0276
X6.7835Y-4.6614
X6.7913Y-4.7953
X6.7913Y-4.9764
X6.7953Y-4.4764
X6.8112Y-5.0768
X6.815Y-5.0059
X6.8157Y-4.8622
X6.8319Y-5.4606
X6.8536Y-4.9744
X6.8541Y-4.7323
T2
X6.685Y-5.1644
X6.685Y-5.2156
X6.7362Y-5.1644
X6.7362Y-5.2156
X6.7874Y-5.1644
X6.7874Y-5.2156
T3
X6.5157Y-5.3228
X6.5236Y-4.7283
X6.5472Y-5.3228
X6.5551Y-4.7283
X6.5787Y-5.3268
X6.6181Y-5.3661
X6.7598Y-5.2756
X6.7598Y-5.3071
X6.7598Y-5.3386
T4
X6.5679Y-4.3909
X6.5679Y-4.4409
X6.5925Y-5.4606
X6.6179Y-4.3909
X6.6179Y-4.4409
X6.6425Y-5.4606
X6.6679Y-4.3909
X6.6679Y-4.4409
X6.6925Y-5.4606
X6.7179Y-4.3909
X6.7179Y-4.4409
X6.7425Y-5.4606
X6.7679Y-4.3909
X6.7679Y-4.4409
X6.7925Y-5.4606
X6.8179Y-4.3909
X6.8179Y-4.4409
T0
M30
