  0
SECTION
  2
HEADER
  9
$ANGBASE
  50
0.0
  9
$ANGDIR
  70
1
  9
$MEASUREMENT
  70
0
  0
ENDSEC
  0
SECTION
  2
TABLES
  0
TABLE
  2
LTYPE
  70
4
  0
LTYPE
  5
40F
  2
CONTINUOUS
  70
0
  3
Solid line
  72
65
  73
0
  40
0.0
  0
LTYPE
  5
410
  2
DASHDOT
 70
0
  3
Dash Dot ____ _ ____ _
 72
65
 73
4
 40
2.0
 49
1.25
 49
-0.25
 49
0.25
 49
-0.25
  0
LTYPE
  5
411
  2
DASHED
 70
0
  3
Dashed __ __ __ __ __
 72
65
 73
2
 40
0.75
 49
0.5
 49
-0.25
  0
LTYPE
  5
43B
  2
DOTTED
 70
0
  3
Dotted .  .  .  .
 72
65
 73
2
 40
0.2
 49
0.0
 49
-0.2
  0
ENDTAB
  0
TABLE
  2
STYLE
  70
4
  0
STYLE
  2
KICAD
  70
0
  40
0
  41
1
  42
1
  50
0
  71
0
  3
isocp.shx
  0
STYLE
  2
KICADB
  70
0
  40
0
  41
1
  42
1
  50
0
  71
0
  3
isocp.shx
  0
STYLE
  2
KICADI
  70
0
  40
0
  41
1
  42
1
  50
15
  71
0
  3
isocp.shx
  0
STYLE
  2
KICADBI
  70
0
  40
0
  41
1
  42
1
  50
15
  71
0
  3
isocp.shx
  0
ENDTAB
  0
TABLE
  2
LAYER
  70
1
  0
LAYER
  2
BLACK
  70
0
  62
7
  6
CONTINUOUS
  0
ENDTAB
  0
ENDSEC
  0
SECTION
  2
ENTITIES
0
LINE
8
BLACK
6
CONTINUOUS
10
2.90033
20
-3.90583
11
2.9043
21
-3.90758
0
LINE
8
BLACK
6
CONTINUOUS
10
2.9043
20
-3.90758
11
2.90737
21
-3.91065
0
LINE
8
BLACK
6
CONTINUOUS
10
2.90737
20
-3.91065
11
2.90912
21
-3.91462
0
LINE
8
BLACK
6
CONTINUOUS
10
2.90912
20
-3.91462
11
2.90943
21
-3.91732
0
LINE
8
BLACK
6
CONTINUOUS
10
2.90943
20
-3.91732
11
2.90943
21
-3.97244
0
LINE
8
BLACK
6
CONTINUOUS
10
2.90943
20
-3.97244
11
2.90912
21
-3.97515
0
LINE
8
BLACK
6
CONTINUOUS
10
2.90912
20
-3.97515
11
2.90737
21
-3.97912
0
LINE
8
BLACK
6
CONTINUOUS
10
2.90737
20
-3.97912
11
2.9043
21
-3.98218
0
LINE
8
BLACK
6
CONTINUOUS
10
2.9043
20
-3.98218
11
2.90033
21
-3.98394
0
LINE
8
BLACK
6
CONTINUOUS
10
2.90033
20
-3.98394
11
2.89762
21
-3.98425
0
LINE
8
BLACK
6
CONTINUOUS
10
2.89762
20
-3.98425
11
2.874
21
-3.98425
0
LINE
8
BLACK
6
CONTINUOUS
10
2.874
20
-3.98425
11
2.8713
21
-3.98394
0
LINE
8
BLACK
6
CONTINUOUS
10
2.8713
20
-3.98394
11
2.86733
21
-3.98218
0
LINE
8
BLACK
6
CONTINUOUS
10
2.86733
20
-3.98218
11
2.86426
21
-3.97912
0
LINE
8
BLACK
6
CONTINUOUS
10
2.86426
20
-3.97912
11
2.8625
21
-3.97515
0
LINE
8
BLACK
6
CONTINUOUS
10
2.8625
20
-3.97515
11
2.86219
21
-3.97244
0
LINE
8
BLACK
6
CONTINUOUS
10
2.86219
20
-3.97244
11
2.86219
21
-3.91732
0
LINE
8
BLACK
6
CONTINUOUS
10
2.86219
20
-3.91732
11
2.8625
21
-3.91462
0
LINE
8
BLACK
6
CONTINUOUS
10
2.8625
20
-3.91462
11
2.86426
21
-3.91065
0
LINE
8
BLACK
6
CONTINUOUS
10
2.86426
20
-3.91065
11
2.86733
21
-3.90758
0
LINE
8
BLACK
6
CONTINUOUS
10
2.86733
20
-3.90758
11
2.8713
21
-3.90583
0
LINE
8
BLACK
6
CONTINUOUS
10
2.8713
20
-3.90583
11
2.874
21
-3.90551
0
LINE
8
BLACK
6
CONTINUOUS
10
2.874
20
-3.90551
11
2.89762
21
-3.90551
0
LINE
8
BLACK
6
CONTINUOUS
10
2.89762
20
-3.90551
11
2.90033
21
-3.90583
0
LINE
8
BLACK
6
CONTINUOUS
10
2.96333
20
-3.90583
11
2.9673
21
-3.90758
0
LINE
8
BLACK
6
CONTINUOUS
10
2.9673
20
-3.90758
11
2.97037
21
-3.91065
0
LINE
8
BLACK
6
CONTINUOUS
10
2.97037
20
-3.91065
11
2.97212
21
-3.91462
0
LINE
8
BLACK
6
CONTINUOUS
10
2.97212
20
-3.91462
11
2.97243
21
-3.91732
0
LINE
8
BLACK
6
CONTINUOUS
10
2.97243
20
-3.91732
11
2.97243
21
-3.97244
0
LINE
8
BLACK
6
CONTINUOUS
10
2.97243
20
-3.97244
11
2.97212
21
-3.97515
0
LINE
8
BLACK
6
CONTINUOUS
10
2.97212
20
-3.97515
11
2.97037
21
-3.97912
0
LINE
8
BLACK
6
CONTINUOUS
10
2.97037
20
-3.97912
11
2.9673
21
-3.98218
0
LINE
8
BLACK
6
CONTINUOUS
10
2.9673
20
-3.98218
11
2.96333
21
-3.98394
0
LINE
8
BLACK
6
CONTINUOUS
10
2.96333
20
-3.98394
11
2.96062
21
-3.98425
0
LINE
8
BLACK
6
CONTINUOUS
10
2.96062
20
-3.98425
11
2.937
21
-3.98425
0
LINE
8
BLACK
6
CONTINUOUS
10
2.937
20
-3.98425
11
2.9343
21
-3.98394
0
LINE
8
BLACK
6
CONTINUOUS
10
2.9343
20
-3.98394
11
2.93033
21
-3.98218
0
LINE
8
BLACK
6
CONTINUOUS
10
2.93033
20
-3.98218
11
2.92726
21
-3.97912
0
LINE
8
BLACK
6
CONTINUOUS
10
2.92726
20
-3.97912
11
2.9255
21
-3.97515
0
LINE
8
BLACK
6
CONTINUOUS
10
2.9255
20
-3.97515
11
2.92519
21
-3.97244
0
LINE
8
BLACK
6
CONTINUOUS
10
2.92519
20
-3.97244
11
2.92519
21
-3.91732
0
LINE
8
BLACK
6
CONTINUOUS
10
2.92519
20
-3.91732
11
2.9255
21
-3.91462
0
LINE
8
BLACK
6
CONTINUOUS
10
2.9255
20
-3.91462
11
2.92726
21
-3.91065
0
LINE
8
BLACK
6
CONTINUOUS
10
2.92726
20
-3.91065
11
2.93033
21
-3.90758
0
LINE
8
BLACK
6
CONTINUOUS
10
2.93033
20
-3.90758
11
2.9343
21
-3.90583
0
LINE
8
BLACK
6
CONTINUOUS
10
2.9343
20
-3.90583
11
2.937
21
-3.90551
0
LINE
8
BLACK
6
CONTINUOUS
10
2.937
20
-3.90551
11
2.96062
21
-3.90551
0
LINE
8
BLACK
6
CONTINUOUS
10
2.96062
20
-3.90551
11
2.96333
21
-3.90583
0
LINE
8
BLACK
6
CONTINUOUS
10
3.02633
20
-3.90583
11
3.0303
21
-3.90758
0
LINE
8
BLACK
6
CONTINUOUS
10
3.0303
20
-3.90758
11
3.03337
21
-3.91065
0
LINE
8
BLACK
6
CONTINUOUS
10
3.03337
20
-3.91065
11
3.03512
21
-3.91462
0
LINE
8
BLACK
6
CONTINUOUS
10
3.03512
20
-3.91462
11
3.03543
21
-3.91732
0
LINE
8
BLACK
6
CONTINUOUS
10
3.03543
20
-3.91732
11
3.03543
21
-3.97244
0
LINE
8
BLACK
6
CONTINUOUS
10
3.03543
20
-3.97244
11
3.03512
21
-3.97515
0
LINE
8
BLACK
6
CONTINUOUS
10
3.03512
20
-3.97515
11
3.03337
21
-3.97912
0
LINE
8
BLACK
6
CONTINUOUS
10
3.03337
20
-3.97912
11
3.0303
21
-3.98218
0
LINE
8
BLACK
6
CONTINUOUS
10
3.0303
20
-3.98218
11
3.02633
21
-3.98394
0
LINE
8
BLACK
6
CONTINUOUS
10
3.02633
20
-3.98394
11
3.02362
21
-3.98425
0
LINE
8
BLACK
6
CONTINUOUS
10
3.02362
20
-3.98425
11
3
21
-3.98425
0
LINE
8
BLACK
6
CONTINUOUS
10
3
20
-3.98425
11
2.9973
21
-3.98394
0
LINE
8
BLACK
6
CONTINUOUS
10
2.9973
20
-3.98394
11
2.99333
21
-3.98218
0
LINE
8
BLACK
6
CONTINUOUS
10
2.99333
20
-3.98218
11
2.99026
21
-3.97912
0
LINE
8
BLACK
6
CONTINUOUS
10
2.99026
20
-3.97912
11
2.9885
21
-3.97515
0
LINE
8
BLACK
6
CONTINUOUS
10
2.9885
20
-3.97515
11
2.98819
21
-3.97244
0
LINE
8
BLACK
6
CONTINUOUS
10
2.98819
20
-3.97244
11
2.98819
21
-3.91732
0
LINE
8
BLACK
6
CONTINUOUS
10
2.98819
20
-3.91732
11
2.9885
21
-3.91462
0
LINE
8
BLACK
6
CONTINUOUS
10
2.9885
20
-3.91462
11
2.99026
21
-3.91065
0
LINE
8
BLACK
6
CONTINUOUS
10
2.99026
20
-3.91065
11
2.99333
21
-3.90758
0
LINE
8
BLACK
6
CONTINUOUS
10
2.99333
20
-3.90758
11
2.9973
21
-3.90583
0
LINE
8
BLACK
6
CONTINUOUS
10
2.9973
20
-3.90583
11
3
21
-3.90551
0
LINE
8
BLACK
6
CONTINUOUS
10
3
20
-3.90551
11
3.02362
21
-3.90551
0
LINE
8
BLACK
6
CONTINUOUS
10
3.02362
20
-3.90551
11
3.02633
21
-3.90583
0
LINE
8
BLACK
6
CONTINUOUS
10
3.08933
20
-3.90583
11
3.0933
21
-3.90758
0
LINE
8
BLACK
6
CONTINUOUS
10
3.0933
20
-3.90758
11
3.09637
21
-3.91065
0
LINE
8
BLACK
6
CONTINUOUS
10
3.09637
20
-3.91065
11
3.09812
21
-3.91462
0
LINE
8
BLACK
6
CONTINUOUS
10
3.09812
20
-3.91462
11
3.09843
21
-3.91732
0
LINE
8
BLACK
6
CONTINUOUS
10
3.09843
20
-3.91732
11
3.09843
21
-3.97244
0
LINE
8
BLACK
6
CONTINUOUS
10
3.09843
20
-3.97244
11
3.09812
21
-3.97515
0
LINE
8
BLACK
6
CONTINUOUS
10
3.09812
20
-3.97515
11
3.09637
21
-3.97912
0
LINE
8
BLACK
6
CONTINUOUS
10
3.09637
20
-3.97912
11
3.0933
21
-3.98218
0
LINE
8
BLACK
6
CONTINUOUS
10
3.0933
20
-3.98218
11
3.08933
21
-3.98394
0
LINE
8
BLACK
6
CONTINUOUS
10
3.08933
20
-3.98394
11
3.08662
21
-3.98425
0
LINE
8
BLACK
6
CONTINUOUS
10
3.08662
20
-3.98425
11
3.063
21
-3.98425
0
LINE
8
BLACK
6
CONTINUOUS
10
3.063
20
-3.98425
11
3.0603
21
-3.98394
0
LINE
8
BLACK
6
CONTINUOUS
10
3.0603
20
-3.98394
11
3.05633
21
-3.98218
0
LINE
8
BLACK
6
CONTINUOUS
10
3.05633
20
-3.98218
11
3.05326
21
-3.97912
0
LINE
8
BLACK
6
CONTINUOUS
10
3.05326
20
-3.97912
11
3.0515
21
-3.97515
0
LINE
8
BLACK
6
CONTINUOUS
10
3.0515
20
-3.97515
11
3.05119
21
-3.97244
0
LINE
8
BLACK
6
CONTINUOUS
10
3.05119
20
-3.97244
11
3.05119
21
-3.91732
0
LINE
8
BLACK
6
CONTINUOUS
10
3.05119
20
-3.91732
11
3.0515
21
-3.91462
0
LINE
8
BLACK
6
CONTINUOUS
10
3.0515
20
-3.91462
11
3.05326
21
-3.91065
0
LINE
8
BLACK
6
CONTINUOUS
10
3.05326
20
-3.91065
11
3.05633
21
-3.90758
0
LINE
8
BLACK
6
CONTINUOUS
10
3.05633
20
-3.90758
11
3.0603
21
-3.90583
0
LINE
8
BLACK
6
CONTINUOUS
10
3.0603
20
-3.90583
11
3.063
21
-3.90551
0
LINE
8
BLACK
6
CONTINUOUS
10
3.063
20
-3.90551
11
3.08662
21
-3.90551
0
LINE
8
BLACK
6
CONTINUOUS
10
3.08662
20
-3.90551
11
3.08933
21
-3.90583
0
LINE
8
BLACK
6
CONTINUOUS
10
3.15229
20
-3.90583
11
3.15627
21
-3.90758
0
LINE
8
BLACK
6
CONTINUOUS
10
3.15627
20
-3.90758
11
3.15933
21
-3.91065
0
LINE
8
BLACK
6
CONTINUOUS
10
3.15933
20
-3.91065
11
3.16109
21
-3.91462
0
LINE
8
BLACK
6
CONTINUOUS
10
3.16109
20
-3.91462
11
3.1614
21
-3.91732
0
LINE
8
BLACK
6
CONTINUOUS
10
3.1614
20
-3.91732
11
3.1614
21
-3.97244
0
LINE
8
BLACK
6
CONTINUOUS
10
3.1614
20
-3.97244
11
3.16109
21
-3.97515
0
LINE
8
BLACK
6
CONTINUOUS
10
3.16109
20
-3.97515
11
3.15933
21
-3.97912
0
LINE
8
BLACK
6
CONTINUOUS
10
3.15933
20
-3.97912
11
3.15627
21
-3.98218
0
LINE
8
BLACK
6
CONTINUOUS
10
3.15627
20
-3.98218
11
3.15229
21
-3.98394
0
LINE
8
BLACK
6
CONTINUOUS
10
3.15229
20
-3.98394
11
3.14959
21
-3.98425
0
LINE
8
BLACK
6
CONTINUOUS
10
3.14959
20
-3.98425
11
3.12597
21
-3.98425
0
LINE
8
BLACK
6
CONTINUOUS
10
3.12597
20
-3.98425
11
3.12326
21
-3.98394
0
LINE
8
BLACK
6
CONTINUOUS
10
3.12326
20
-3.98394
11
3.11929
21
-3.98218
0
LINE
8
BLACK
6
CONTINUOUS
10
3.11929
20
-3.98218
11
3.11622
21
-3.97912
0
LINE
8
BLACK
6
CONTINUOUS
10
3.11622
20
-3.97912
11
3.11447
21
-3.97515
0
LINE
8
BLACK
6
CONTINUOUS
10
3.11447
20
-3.97515
11
3.11416
21
-3.97244
0
LINE
8
BLACK
6
CONTINUOUS
10
3.11416
20
-3.97244
11
3.11416
21
-3.91732
0
LINE
8
BLACK
6
CONTINUOUS
10
3.11416
20
-3.91732
11
3.11447
21
-3.91462
0
LINE
8
BLACK
6
CONTINUOUS
10
3.11447
20
-3.91462
11
3.11622
21
-3.91065
0
LINE
8
BLACK
6
CONTINUOUS
10
3.11622
20
-3.91065
11
3.11929
21
-3.90758
0
LINE
8
BLACK
6
CONTINUOUS
10
3.11929
20
-3.90758
11
3.12326
21
-3.90583
0
LINE
8
BLACK
6
CONTINUOUS
10
3.12326
20
-3.90583
11
3.12597
21
-3.90551
0
LINE
8
BLACK
6
CONTINUOUS
10
3.12597
20
-3.90551
11
3.14959
21
-3.90551
0
LINE
8
BLACK
6
CONTINUOUS
10
3.14959
20
-3.90551
11
3.15229
21
-3.90583
0
LINE
8
BLACK
6
CONTINUOUS
10
2.94865
20
-3.83343
11
2.95184
21
-3.83556
0
LINE
8
BLACK
6
CONTINUOUS
10
2.95184
20
-3.83556
11
2.95398
21
-3.83875
0
LINE
8
BLACK
6
CONTINUOUS
10
2.95398
20
-3.83875
11
2.95472
21
-3.84252
0
LINE
8
BLACK
6
CONTINUOUS
10
2.95472
20
-3.84252
11
2.95472
21
-3.875
0
LINE
8
BLACK
6
CONTINUOUS
10
2.95472
20
-3.875
11
2.95398
21
-3.87877
0
LINE
8
BLACK
6
CONTINUOUS
10
2.95398
20
-3.87877
11
2.95184
21
-3.88196
0
LINE
8
BLACK
6
CONTINUOUS
10
2.95184
20
-3.88196
11
2.94865
21
-3.88409
0
LINE
8
BLACK
6
CONTINUOUS
10
2.94865
20
-3.88409
11
2.94488
21
-3.88484
0
LINE
8
BLACK
6
CONTINUOUS
10
2.94488
20
-3.88484
11
2.87205
21
-3.88484
0
LINE
8
BLACK
6
CONTINUOUS
10
2.87205
20
-3.88484
11
2.86828
21
-3.88409
0
LINE
8
BLACK
6
CONTINUOUS
10
2.86828
20
-3.88409
11
2.86509
21
-3.88196
0
LINE
8
BLACK
6
CONTINUOUS
10
2.86509
20
-3.88196
11
2.86295
21
-3.87877
0
LINE
8
BLACK
6
CONTINUOUS
10
2.86295
20
-3.87877
11
2.8622
21
-3.875
0
LINE
8
BLACK
6
CONTINUOUS
10
2.8622
20
-3.875
11
2.8622
21
-3.84252
0
LINE
8
BLACK
6
CONTINUOUS
10
2.8622
20
-3.84252
11
2.86295
21
-3.83875
0
LINE
8
BLACK
6
CONTINUOUS
10
2.86295
20
-3.83875
11
2.86509
21
-3.83556
0
LINE
8
BLACK
6
CONTINUOUS
10
2.86509
20
-3.83556
11
2.86828
21
-3.83343
0
LINE
8
BLACK
6
CONTINUOUS
10
2.86828
20
-3.83343
11
2.87205
21
-3.83268
0
LINE
8
BLACK
6
CONTINUOUS
10
2.87205
20
-3.83268
11
2.94488
21
-3.83268
0
LINE
8
BLACK
6
CONTINUOUS
10
2.94488
20
-3.83268
11
2.94865
21
-3.83343
0
LINE
8
BLACK
6
CONTINUOUS
10
2.98524
20
-3.86646
11
2.97343
21
-3.86646
0
LINE
8
BLACK
6
CONTINUOUS
10
2.97343
20
-3.86646
11
2.97343
21
-3.8389
0
LINE
8
BLACK
6
CONTINUOUS
10
2.97343
20
-3.8389
11
2.98524
21
-3.8389
0
LINE
8
BLACK
6
CONTINUOUS
10
2.98524
20
-3.8389
11
2.98524
21
-3.86646
0
LINE
8
BLACK
6
CONTINUOUS
10
3.00492
20
-3.86646
11
2.99311
21
-3.86646
0
LINE
8
BLACK
6
CONTINUOUS
10
2.99311
20
-3.86646
11
2.99311
21
-3.8389
0
LINE
8
BLACK
6
CONTINUOUS
10
2.99311
20
-3.8389
11
3.00492
21
-3.8389
0
LINE
8
BLACK
6
CONTINUOUS
10
3.00492
20
-3.8389
11
3.00492
21
-3.86646
0
LINE
8
BLACK
6
CONTINUOUS
10
3.02461
20
-3.86646
11
3.0128
21
-3.86646
0
LINE
8
BLACK
6
CONTINUOUS
10
3.0128
20
-3.86646
11
3.0128
21
-3.8389
0
LINE
8
BLACK
6
CONTINUOUS
10
3.0128
20
-3.8389
11
3.02461
21
-3.8389
0
LINE
8
BLACK
6
CONTINUOUS
10
3.02461
20
-3.8389
11
3.02461
21
-3.86646
0
LINE
8
BLACK
6
CONTINUOUS
10
3.04429
20
-3.86646
11
3.03248
21
-3.86646
0
LINE
8
BLACK
6
CONTINUOUS
10
3.03248
20
-3.86646
11
3.03248
21
-3.8389
0
LINE
8
BLACK
6
CONTINUOUS
10
3.03248
20
-3.8389
11
3.04429
21
-3.8389
0
LINE
8
BLACK
6
CONTINUOUS
10
3.04429
20
-3.8389
11
3.04429
21
-3.86646
0
LINE
8
BLACK
6
CONTINUOUS
10
3.08745
20
-3.8118
11
3.08949
21
-3.81316
0
LINE
8
BLACK
6
CONTINUOUS
10
3.08949
20
-3.81316
11
3.09086
21
-3.81521
0
LINE
8
BLACK
6
CONTINUOUS
10
3.09086
20
-3.81521
11
3.09134
21
-3.81762
0
LINE
8
BLACK
6
CONTINUOUS
10
3.09134
20
-3.81762
11
3.09134
21
-3.83317
0
LINE
8
BLACK
6
CONTINUOUS
10
3.09134
20
-3.83317
11
3.09086
21
-3.83558
0
LINE
8
BLACK
6
CONTINUOUS
10
3.09086
20
-3.83558
11
3.08949
21
-3.83762
0
LINE
8
BLACK
6
CONTINUOUS
10
3.08949
20
-3.83762
11
3.08745
21
-3.83899
0
LINE
8
BLACK
6
CONTINUOUS
10
3.08745
20
-3.83899
11
3.08504
21
-3.83947
0
LINE
8
BLACK
6
CONTINUOUS
10
3.08504
20
-3.83947
11
3.07244
21
-3.83947
0
LINE
8
BLACK
6
CONTINUOUS
10
3.07244
20
-3.83947
11
3.07003
21
-3.83899
0
LINE
8
BLACK
6
CONTINUOUS
10
3.07003
20
-3.83899
11
3.06799
21
-3.83762
0
LINE
8
BLACK
6
CONTINUOUS
10
3.06799
20
-3.83762
11
3.06662
21
-3.83558
0
LINE
8
BLACK
6
CONTINUOUS
10
3.06662
20
-3.83558
11
3.06614
21
-3.83317
0
LINE
8
BLACK
6
CONTINUOUS
10
3.06614
20
-3.83317
11
3.06614
21
-3.81762
0
LINE
8
BLACK
6
CONTINUOUS
10
3.06614
20
-3.81762
11
3.06662
21
-3.81521
0
LINE
8
BLACK
6
CONTINUOUS
10
3.06662
20
-3.81521
11
3.06799
21
-3.81316
0
LINE
8
BLACK
6
CONTINUOUS
10
3.06799
20
-3.81316
11
3.07003
21
-3.8118
0
LINE
8
BLACK
6
CONTINUOUS
10
3.07003
20
-3.8118
11
3.07244
21
-3.81132
0
LINE
8
BLACK
6
CONTINUOUS
10
3.07244
20
-3.81132
11
3.08504
21
-3.81132
0
LINE
8
BLACK
6
CONTINUOUS
10
3.08504
20
-3.81132
11
3.08745
21
-3.8118
0
LINE
8
BLACK
6
CONTINUOUS
10
3.04232
20
-3.83102
11
2.97539
21
-3.83102
0
LINE
8
BLACK
6
CONTINUOUS
10
2.97539
20
-3.83102
11
2.97539
21
-3.79165
0
LINE
8
BLACK
6
CONTINUOUS
10
2.97539
20
-3.79165
11
3.04232
21
-3.79165
0
LINE
8
BLACK
6
CONTINUOUS
10
3.04232
20
-3.79165
11
3.04232
21
-3.83102
0
LINE
8
BLACK
6
CONTINUOUS
10
3.12546
20
-3.80524
11
3.12718
21
-3.80639
0
LINE
8
BLACK
6
CONTINUOUS
10
3.12718
20
-3.80639
11
3.12834
21
-3.80812
0
LINE
8
BLACK
6
CONTINUOUS
10
3.12834
20
-3.80812
11
3.12874
21
-3.81015
0
LINE
8
BLACK
6
CONTINUOUS
10
3.12874
20
-3.81015
11
3.12874
21
-3.82078
0
LINE
8
BLACK
6
CONTINUOUS
10
3.12874
20
-3.82078
11
3.12834
21
-3.82281
0
LINE
8
BLACK
6
CONTINUOUS
10
3.12834
20
-3.82281
11
3.12718
21
-3.82454
0
LINE
8
BLACK
6
CONTINUOUS
10
3.12718
20
-3.82454
11
3.12546
21
-3.82569
0
LINE
8
BLACK
6
CONTINUOUS
10
3.12546
20
-3.82569
11
3.12343
21
-3.82609
0
LINE
8
BLACK
6
CONTINUOUS
10
3.12343
20
-3.82609
11
3.10886
21
-3.82609
0
LINE
8
BLACK
6
CONTINUOUS
10
3.10886
20
-3.82609
11
3.10682
21
-3.82569
0
LINE
8
BLACK
6
CONTINUOUS
10
3.10682
20
-3.82569
11
3.1051
21
-3.82454
0
LINE
8
BLACK
6
CONTINUOUS
10
3.1051
20
-3.82454
11
3.10395
21
-3.82281
0
LINE
8
BLACK
6
CONTINUOUS
10
3.10395
20
-3.82281
11
3.10354
21
-3.82078
0
LINE
8
BLACK
6
CONTINUOUS
10
3.10354
20
-3.82078
11
3.10354
21
-3.81015
0
LINE
8
BLACK
6
CONTINUOUS
10
3.10354
20
-3.81015
11
3.10395
21
-3.80812
0
LINE
8
BLACK
6
CONTINUOUS
10
3.10395
20
-3.80812
11
3.1051
21
-3.80639
0
LINE
8
BLACK
6
CONTINUOUS
10
3.1051
20
-3.80639
11
3.10682
21
-3.80524
0
LINE
8
BLACK
6
CONTINUOUS
10
3.10682
20
-3.80524
11
3.10886
21
-3.80483
0
LINE
8
BLACK
6
CONTINUOUS
10
3.10886
20
-3.80483
11
3.12343
21
-3.80483
0
LINE
8
BLACK
6
CONTINUOUS
10
3.12343
20
-3.80483
11
3.12546
21
-3.80524
0
LINE
8
BLACK
6
CONTINUOUS
10
3.16286
20
-3.80316
11
3.16458
21
-3.80431
0
LINE
8
BLACK
6
CONTINUOUS
10
3.16458
20
-3.80431
11
3.16574
21
-3.80604
0
LINE
8
BLACK
6
CONTINUOUS
10
3.16574
20
-3.80604
11
3.16614
21
-3.80807
0
LINE
8
BLACK
6
CONTINUOUS
10
3.16614
20
-3.80807
11
3.16614
21
-3.8187
0
LINE
8
BLACK
6
CONTINUOUS
10
3.16614
20
-3.8187
11
3.16574
21
-3.82073
0
LINE
8
BLACK
6
CONTINUOUS
10
3.16574
20
-3.82073
11
3.16458
21
-3.82246
0
LINE
8
BLACK
6
CONTINUOUS
10
3.16458
20
-3.82246
11
3.16286
21
-3.82361
0
LINE
8
BLACK
6
CONTINUOUS
10
3.16286
20
-3.82361
11
3.16083
21
-3.82402
0
LINE
8
BLACK
6
CONTINUOUS
10
3.16083
20
-3.82402
11
3.14626
21
-3.82402
0
LINE
8
BLACK
6
CONTINUOUS
10
3.14626
20
-3.82402
11
3.14423
21
-3.82361
0
LINE
8
BLACK
6
CONTINUOUS
10
3.14423
20
-3.82361
11
3.1425
21
-3.82246
0
LINE
8
BLACK
6
CONTINUOUS
10
3.1425
20
-3.82246
11
3.14135
21
-3.82073
0
LINE
8
BLACK
6
CONTINUOUS
10
3.14135
20
-3.82073
11
3.14094
21
-3.8187
0
LINE
8
BLACK
6
CONTINUOUS
10
3.14094
20
-3.8187
11
3.14094
21
-3.80807
0
LINE
8
BLACK
6
CONTINUOUS
10
3.14094
20
-3.80807
11
3.14135
21
-3.80604
0
LINE
8
BLACK
6
CONTINUOUS
10
3.14135
20
-3.80604
11
3.1425
21
-3.80431
0
LINE
8
BLACK
6
CONTINUOUS
10
3.1425
20
-3.80431
11
3.14423
21
-3.80316
0
LINE
8
BLACK
6
CONTINUOUS
10
3.14423
20
-3.80316
11
3.14626
21
-3.80276
0
LINE
8
BLACK
6
CONTINUOUS
10
3.14626
20
-3.80276
11
3.16083
21
-3.80276
0
LINE
8
BLACK
6
CONTINUOUS
10
3.16083
20
-3.80276
11
3.16286
21
-3.80316
0
LINE
8
BLACK
6
CONTINUOUS
10
3.08745
20
-3.76475
11
3.08949
21
-3.76612
0
LINE
8
BLACK
6
CONTINUOUS
10
3.08949
20
-3.76612
11
3.09086
21
-3.76816
0
LINE
8
BLACK
6
CONTINUOUS
10
3.09086
20
-3.76816
11
3.09134
21
-3.77057
0
LINE
8
BLACK
6
CONTINUOUS
10
3.09134
20
-3.77057
11
3.09134
21
-3.78612
0
LINE
8
BLACK
6
CONTINUOUS
10
3.09134
20
-3.78612
11
3.09086
21
-3.78853
0
LINE
8
BLACK
6
CONTINUOUS
10
3.09086
20
-3.78853
11
3.08949
21
-3.79058
0
LINE
8
BLACK
6
CONTINUOUS
10
3.08949
20
-3.79058
11
3.08745
21
-3.79194
0
LINE
8
BLACK
6
CONTINUOUS
10
3.08745
20
-3.79194
11
3.08504
21
-3.79242
0
LINE
8
BLACK
6
CONTINUOUS
10
3.08504
20
-3.79242
11
3.07244
21
-3.79242
0
LINE
8
BLACK
6
CONTINUOUS
10
3.07244
20
-3.79242
11
3.07003
21
-3.79194
0
LINE
8
BLACK
6
CONTINUOUS
10
3.07003
20
-3.79194
11
3.06799
21
-3.79058
0
LINE
8
BLACK
6
CONTINUOUS
10
3.06799
20
-3.79058
11
3.06662
21
-3.78853
0
LINE
8
BLACK
6
CONTINUOUS
10
3.06662
20
-3.78853
11
3.06614
21
-3.78612
0
LINE
8
BLACK
6
CONTINUOUS
10
3.06614
20
-3.78612
11
3.06614
21
-3.77057
0
LINE
8
BLACK
6
CONTINUOUS
10
3.06614
20
-3.77057
11
3.06662
21
-3.76816
0
LINE
8
BLACK
6
CONTINUOUS
10
3.06662
20
-3.76816
11
3.06799
21
-3.76612
0
LINE
8
BLACK
6
CONTINUOUS
10
3.06799
20
-3.76612
11
3.07003
21
-3.76475
0
LINE
8
BLACK
6
CONTINUOUS
10
3.07003
20
-3.76475
11
3.07244
21
-3.76427
0
LINE
8
BLACK
6
CONTINUOUS
10
3.07244
20
-3.76427
11
3.08504
21
-3.76427
0
LINE
8
BLACK
6
CONTINUOUS
10
3.08504
20
-3.76427
11
3.08745
21
-3.76475
0
LINE
8
BLACK
6
CONTINUOUS
10
3.16286
20
-3.76716
11
3.16458
21
-3.76831
0
LINE
8
BLACK
6
CONTINUOUS
10
3.16458
20
-3.76831
11
3.16574
21
-3.77004
0
LINE
8
BLACK
6
CONTINUOUS
10
3.16574
20
-3.77004
11
3.16614
21
-3.77207
0
LINE
8
BLACK
6
CONTINUOUS
10
3.16614
20
-3.77207
11
3.16614
21
-3.7827
0
LINE
8
BLACK
6
CONTINUOUS
10
3.16614
20
-3.7827
11
3.16574
21
-3.78473
0
LINE
8
BLACK
6
CONTINUOUS
10
3.16574
20
-3.78473
11
3.16458
21
-3.78646
0
LINE
8
BLACK
6
CONTINUOUS
10
3.16458
20
-3.78646
11
3.16286
21
-3.78761
0
LINE
8
BLACK
6
CONTINUOUS
10
3.16286
20
-3.78761
11
3.16083
21
-3.78802
0
LINE
8
BLACK
6
CONTINUOUS
10
3.16083
20
-3.78802
11
3.14626
21
-3.78802
0
LINE
8
BLACK
6
CONTINUOUS
10
3.14626
20
-3.78802
11
3.14423
21
-3.78761
0
LINE
8
BLACK
6
CONTINUOUS
10
3.14423
20
-3.78761
11
3.1425
21
-3.78646
0
LINE
8
BLACK
6
CONTINUOUS
10
3.1425
20
-3.78646
11
3.14135
21
-3.78473
0
LINE
8
BLACK
6
CONTINUOUS
10
3.14135
20
-3.78473
11
3.14094
21
-3.7827
0
LINE
8
BLACK
6
CONTINUOUS
10
3.14094
20
-3.7827
11
3.14094
21
-3.77207
0
LINE
8
BLACK
6
CONTINUOUS
10
3.14094
20
-3.77207
11
3.14135
21
-3.77004
0
LINE
8
BLACK
6
CONTINUOUS
10
3.14135
20
-3.77004
11
3.1425
21
-3.76831
0
LINE
8
BLACK
6
CONTINUOUS
10
3.1425
20
-3.76831
11
3.14423
21
-3.76716
0
LINE
8
BLACK
6
CONTINUOUS
10
3.14423
20
-3.76716
11
3.14626
21
-3.76676
0
LINE
8
BLACK
6
CONTINUOUS
10
3.14626
20
-3.76676
11
3.16083
21
-3.76676
0
LINE
8
BLACK
6
CONTINUOUS
10
3.16083
20
-3.76676
11
3.16286
21
-3.76716
0
LINE
8
BLACK
6
CONTINUOUS
10
3.12546
20
-3.76508
11
3.12718
21
-3.76623
0
LINE
8
BLACK
6
CONTINUOUS
10
3.12718
20
-3.76623
11
3.12834
21
-3.76796
0
LINE
8
BLACK
6
CONTINUOUS
10
3.12834
20
-3.76796
11
3.12874
21
-3.76999
0
LINE
8
BLACK
6
CONTINUOUS
10
3.12874
20
-3.76999
11
3.12874
21
-3.78062
0
LINE
8
BLACK
6
CONTINUOUS
10
3.12874
20
-3.78062
11
3.12834
21
-3.78266
0
LINE
8
BLACK
6
CONTINUOUS
10
3.12834
20
-3.78266
11
3.12718
21
-3.78438
0
LINE
8
BLACK
6
CONTINUOUS
10
3.12718
20
-3.78438
11
3.12546
21
-3.78553
0
LINE
8
BLACK
6
CONTINUOUS
10
3.12546
20
-3.78553
11
3.12343
21
-3.78594
0
LINE
8
BLACK
6
CONTINUOUS
10
3.12343
20
-3.78594
11
3.10886
21
-3.78594
0
LINE
8
BLACK
6
CONTINUOUS
10
3.10886
20
-3.78594
11
3.10682
21
-3.78553
0
LINE
8
BLACK
6
CONTINUOUS
10
3.10682
20
-3.78553
11
3.1051
21
-3.78438
0
LINE
8
BLACK
6
CONTINUOUS
10
3.1051
20
-3.78438
11
3.10395
21
-3.78266
0
LINE
8
BLACK
6
CONTINUOUS
10
3.10395
20
-3.78266
11
3.10354
21
-3.78062
0
LINE
8
BLACK
6
CONTINUOUS
10
3.10354
20
-3.78062
11
3.10354
21
-3.76999
0
LINE
8
BLACK
6
CONTINUOUS
10
3.10354
20
-3.76999
11
3.10395
21
-3.76796
0
LINE
8
BLACK
6
CONTINUOUS
10
3.10395
20
-3.76796
11
3.1051
21
-3.76623
0
LINE
8
BLACK
6
CONTINUOUS
10
3.1051
20
-3.76623
11
3.10682
21
-3.76508
0
LINE
8
BLACK
6
CONTINUOUS
10
3.10682
20
-3.76508
11
3.10886
21
-3.76468
0
LINE
8
BLACK
6
CONTINUOUS
10
3.10886
20
-3.76468
11
3.12343
21
-3.76468
0
LINE
8
BLACK
6
CONTINUOUS
10
3.12343
20
-3.76468
11
3.12546
21
-3.76508
0
LINE
8
BLACK
6
CONTINUOUS
10
2.98524
20
-3.78378
11
2.97343
21
-3.78378
0
LINE
8
BLACK
6
CONTINUOUS
10
2.97343
20
-3.78378
11
2.97343
21
-3.75622
0
LINE
8
BLACK
6
CONTINUOUS
10
2.97343
20
-3.75622
11
2.98524
21
-3.75622
0
LINE
8
BLACK
6
CONTINUOUS
10
2.98524
20
-3.75622
11
2.98524
21
-3.78378
0
LINE
8
BLACK
6
CONTINUOUS
10
3.00492
20
-3.78378
11
2.99311
21
-3.78378
0
LINE
8
BLACK
6
CONTINUOUS
10
2.99311
20
-3.78378
11
2.99311
21
-3.75622
0
LINE
8
BLACK
6
CONTINUOUS
10
2.99311
20
-3.75622
11
3.00492
21
-3.75622
0
LINE
8
BLACK
6
CONTINUOUS
10
3.00492
20
-3.75622
11
3.00492
21
-3.78378
0
LINE
8
BLACK
6
CONTINUOUS
10
3.02461
20
-3.78378
11
3.0128
21
-3.78378
0
LINE
8
BLACK
6
CONTINUOUS
10
3.0128
20
-3.78378
11
3.0128
21
-3.75622
0
LINE
8
BLACK
6
CONTINUOUS
10
3.0128
20
-3.75622
11
3.02461
21
-3.75622
0
LINE
8
BLACK
6
CONTINUOUS
10
3.02461
20
-3.75622
11
3.02461
21
-3.78378
0
LINE
8
BLACK
6
CONTINUOUS
10
3.04429
20
-3.78378
11
3.03248
21
-3.78378
0
LINE
8
BLACK
6
CONTINUOUS
10
3.03248
20
-3.78378
11
3.03248
21
-3.75622
0
LINE
8
BLACK
6
CONTINUOUS
10
3.03248
20
-3.75622
11
3.04429
21
-3.75622
0
LINE
8
BLACK
6
CONTINUOUS
10
3.04429
20
-3.75622
11
3.04429
21
-3.78378
0
LINE
8
BLACK
6
CONTINUOUS
10
2.94865
20
-3.71236
11
2.95184
21
-3.7145
0
LINE
8
BLACK
6
CONTINUOUS
10
2.95184
20
-3.7145
11
2.95398
21
-3.71769
0
LINE
8
BLACK
6
CONTINUOUS
10
2.95398
20
-3.71769
11
2.95472
21
-3.72146
0
LINE
8
BLACK
6
CONTINUOUS
10
2.95472
20
-3.72146
11
2.95472
21
-3.75394
0
LINE
8
BLACK
6
CONTINUOUS
10
2.95472
20
-3.75394
11
2.95398
21
-3.7577
0
LINE
8
BLACK
6
CONTINUOUS
10
2.95398
20
-3.7577
11
2.95184
21
-3.7609
0
LINE
8
BLACK
6
CONTINUOUS
10
2.95184
20
-3.7609
11
2.94865
21
-3.76303
0
LINE
8
BLACK
6
CONTINUOUS
10
2.94865
20
-3.76303
11
2.94488
21
-3.76378
0
LINE
8
BLACK
6
CONTINUOUS
10
2.94488
20
-3.76378
11
2.87205
21
-3.76378
0
LINE
8
BLACK
6
CONTINUOUS
10
2.87205
20
-3.76378
11
2.86828
21
-3.76303
0
LINE
8
BLACK
6
CONTINUOUS
10
2.86828
20
-3.76303
11
2.86509
21
-3.7609
0
LINE
8
BLACK
6
CONTINUOUS
10
2.86509
20
-3.7609
11
2.86295
21
-3.7577
0
LINE
8
BLACK
6
CONTINUOUS
10
2.86295
20
-3.7577
11
2.8622
21
-3.75394
0
LINE
8
BLACK
6
CONTINUOUS
10
2.8622
20
-3.75394
11
2.8622
21
-3.72146
0
LINE
8
BLACK
6
CONTINUOUS
10
2.8622
20
-3.72146
11
2.86295
21
-3.71769
0
LINE
8
BLACK
6
CONTINUOUS
10
2.86295
20
-3.71769
11
2.86509
21
-3.7145
0
LINE
8
BLACK
6
CONTINUOUS
10
2.86509
20
-3.7145
11
2.86828
21
-3.71236
0
LINE
8
BLACK
6
CONTINUOUS
10
2.86828
20
-3.71236
11
2.87205
21
-3.71161
0
LINE
8
BLACK
6
CONTINUOUS
10
2.87205
20
-3.71161
11
2.94488
21
-3.71161
0
LINE
8
BLACK
6
CONTINUOUS
10
2.94488
20
-3.71161
11
2.94865
21
-3.71236
0
LINE
8
BLACK
6
CONTINUOUS
10
3.1011
20
-3.71322
11
3.10289
21
-3.71442
0
LINE
8
BLACK
6
CONTINUOUS
10
3.10289
20
-3.71442
11
3.11235
21
-3.72388
0
LINE
8
BLACK
6
CONTINUOUS
10
3.11235
20
-3.72388
11
3.11355
21
-3.72567
0
LINE
8
BLACK
6
CONTINUOUS
10
3.11355
20
-3.72567
11
3.11397
21
-3.72778
0
LINE
8
BLACK
6
CONTINUOUS
10
3.11397
20
-3.72778
11
3.11355
21
-3.72989
0
LINE
8
BLACK
6
CONTINUOUS
10
3.11355
20
-3.72989
11
3.11235
21
-3.73168
0
LINE
8
BLACK
6
CONTINUOUS
10
3.11235
20
-3.73168
11
3.10456
21
-3.73947
0
LINE
8
BLACK
6
CONTINUOUS
10
3.10456
20
-3.73947
11
3.10277
21
-3.74067
0
LINE
8
BLACK
6
CONTINUOUS
10
3.10277
20
-3.74067
11
3.10066
21
-3.74109
0
LINE
8
BLACK
6
CONTINUOUS
10
3.10066
20
-3.74109
11
3.09855
21
-3.74067
0
LINE
8
BLACK
6
CONTINUOUS
10
3.09855
20
-3.74067
11
3.09676
21
-3.73947
0
LINE
8
BLACK
6
CONTINUOUS
10
3.09676
20
-3.73947
11
3.0873
21
-3.73001
0
LINE
8
BLACK
6
CONTINUOUS
10
3.0873
20
-3.73001
11
3.0861
21
-3.72822
0
LINE
8
BLACK
6
CONTINUOUS
10
3.0861
20
-3.72822
11
3.08568
21
-3.72611
0
LINE
8
BLACK
6
CONTINUOUS
10
3.08568
20
-3.72611
11
3.0861
21
-3.724
0
LINE
8
BLACK
6
CONTINUOUS
10
3.0861
20
-3.724
11
3.0873
21
-3.72221
0
LINE
8
BLACK
6
CONTINUOUS
10
3.0873
20
-3.72221
11
3.09509
21
-3.71442
0
LINE
8
BLACK
6
CONTINUOUS
10
3.09509
20
-3.71442
11
3.09688
21
-3.71322
0
LINE
8
BLACK
6
CONTINUOUS
10
3.09688
20
-3.71322
11
3.09899
21
-3.7128
0
LINE
8
BLACK
6
CONTINUOUS
10
3.09899
20
-3.7128
11
3.1011
21
-3.71322
0
LINE
8
BLACK
6
CONTINUOUS
10
3.07059
20
-3.6896
11
3.07238
21
-3.6908
0
LINE
8
BLACK
6
CONTINUOUS
10
3.07238
20
-3.6908
11
3.08184
21
-3.70026
0
LINE
8
BLACK
6
CONTINUOUS
10
3.08184
20
-3.70026
11
3.08304
21
-3.70205
0
LINE
8
BLACK
6
CONTINUOUS
10
3.08304
20
-3.70205
11
3.08346
21
-3.70416
0
LINE
8
BLACK
6
CONTINUOUS
10
3.08346
20
-3.70416
11
3.08304
21
-3.70627
0
LINE
8
BLACK
6
CONTINUOUS
10
3.08304
20
-3.70627
11
3.08184
21
-3.70806
0
LINE
8
BLACK
6
CONTINUOUS
10
3.08184
20
-3.70806
11
3.07405
21
-3.71585
0
LINE
8
BLACK
6
CONTINUOUS
10
3.07405
20
-3.71585
11
3.07226
21
-3.71705
0
LINE
8
BLACK
6
CONTINUOUS
10
3.07226
20
-3.71705
11
3.07015
21
-3.71747
0
LINE
8
BLACK
6
CONTINUOUS
10
3.07015
20
-3.71747
11
3.06804
21
-3.71705
0
LINE
8
BLACK
6
CONTINUOUS
10
3.06804
20
-3.71705
11
3.06625
21
-3.71585
0
LINE
8
BLACK
6
CONTINUOUS
10
3.06625
20
-3.71585
11
3.05679
21
-3.70639
0
LINE
8
BLACK
6
CONTINUOUS
10
3.05679
20
-3.70639
11
3.05559
21
-3.7046
0
LINE
8
BLACK
6
CONTINUOUS
10
3.05559
20
-3.7046
11
3.05517
21
-3.70249
0
LINE
8
BLACK
6
CONTINUOUS
10
3.05517
20
-3.70249
11
3.05559
21
-3.70038
0
LINE
8
BLACK
6
CONTINUOUS
10
3.05559
20
-3.70038
11
3.05679
21
-3.69859
0
LINE
8
BLACK
6
CONTINUOUS
10
3.05679
20
-3.69859
11
3.06458
21
-3.6908
0
LINE
8
BLACK
6
CONTINUOUS
10
3.06458
20
-3.6908
11
3.06637
21
-3.6896
0
LINE
8
BLACK
6
CONTINUOUS
10
3.06637
20
-3.6896
11
3.06848
21
-3.68918
0
LINE
8
BLACK
6
CONTINUOUS
10
3.06848
20
-3.68918
11
3.07059
21
-3.6896
0
LINE
8
BLACK
6
CONTINUOUS
10
3.12783
20
-3.6865
11
3.12961
21
-3.68769
0
LINE
8
BLACK
6
CONTINUOUS
10
3.12961
20
-3.68769
11
3.13908
21
-3.69716
0
LINE
8
BLACK
6
CONTINUOUS
10
3.13908
20
-3.69716
11
3.14027
21
-3.69895
0
LINE
8
BLACK
6
CONTINUOUS
10
3.14027
20
-3.69895
11
3.14069
21
-3.70106
0
LINE
8
BLACK
6
CONTINUOUS
10
3.14069
20
-3.70106
11
3.14027
21
-3.70316
0
LINE
8
BLACK
6
CONTINUOUS
10
3.14027
20
-3.70316
11
3.13908
21
-3.70495
0
LINE
8
BLACK
6
CONTINUOUS
10
3.13908
20
-3.70495
11
3.13128
21
-3.71275
0
LINE
8
BLACK
6
CONTINUOUS
10
3.13128
20
-3.71275
11
3.1295
21
-3.71394
0
LINE
8
BLACK
6
CONTINUOUS
10
3.1295
20
-3.71394
11
3.12739
21
-3.71436
0
LINE
8
BLACK
6
CONTINUOUS
10
3.12739
20
-3.71436
11
3.12528
21
-3.71394
0
LINE
8
BLACK
6
CONTINUOUS
10
3.12528
20
-3.71394
11
3.12349
21
-3.71275
0
LINE
8
BLACK
6
CONTINUOUS
10
3.12349
20
-3.71275
11
3.11402
21
-3.70328
0
LINE
8
BLACK
6
CONTINUOUS
10
3.11402
20
-3.70328
11
3.11283
21
-3.70149
0
LINE
8
BLACK
6
CONTINUOUS
10
3.11283
20
-3.70149
11
3.11241
21
-3.69938
0
LINE
8
BLACK
6
CONTINUOUS
10
3.11241
20
-3.69938
11
3.11283
21
-3.69728
0
LINE
8
BLACK
6
CONTINUOUS
10
3.11283
20
-3.69728
11
3.11402
21
-3.69549
0
LINE
8
BLACK
6
CONTINUOUS
10
3.11402
20
-3.69549
11
3.12182
21
-3.68769
0
LINE
8
BLACK
6
CONTINUOUS
10
3.12182
20
-3.68769
11
3.12361
21
-3.6865
0
LINE
8
BLACK
6
CONTINUOUS
10
3.12361
20
-3.6865
11
3.12572
21
-3.68608
0
LINE
8
BLACK
6
CONTINUOUS
10
3.12572
20
-3.68608
11
3.12783
21
-3.6865
0
LINE
8
BLACK
6
CONTINUOUS
10
2.99378
20
-3.68595
11
2.99452
21
-3.68669
0
LINE
8
BLACK
6
CONTINUOUS
10
2.99452
20
-3.68669
11
2.99452
21
-3.68669
0
LINE
8
BLACK
6
CONTINUOUS
10
2.99452
20
-3.68669
11
2.99488
21
-3.68757
0
LINE
8
BLACK
6
CONTINUOUS
10
2.99488
20
-3.68757
11
2.99504
21
-3.68794
0
LINE
8
BLACK
6
CONTINUOUS
10
2.99504
20
-3.68794
11
2.99504
21
-3.68794
0
LINE
8
BLACK
6
CONTINUOUS
10
2.99504
20
-3.68794
11
2.99504
21
-3.69538
0
LINE
8
BLACK
6
CONTINUOUS
10
2.99504
20
-3.69538
11
2.99452
21
-3.69663
0
LINE
8
BLACK
6
CONTINUOUS
10
2.99452
20
-3.69663
11
2.97973
21
-3.71142
0
LINE
8
BLACK
6
CONTINUOUS
10
2.97973
20
-3.71142
11
2.97847
21
-3.71194
0
LINE
8
BLACK
6
CONTINUOUS
10
2.97847
20
-3.71194
11
2.97722
21
-3.71142
0
LINE
8
BLACK
6
CONTINUOUS
10
2.97722
20
-3.71142
11
2.97277
21
-3.70697
0
LINE
8
BLACK
6
CONTINUOUS
10
2.97277
20
-3.70697
11
2.97225
21
-3.70572
0
LINE
8
BLACK
6
CONTINUOUS
10
2.97225
20
-3.70572
11
2.97277
21
-3.70446
0
LINE
8
BLACK
6
CONTINUOUS
10
2.97277
20
-3.70446
11
2.99128
21
-3.68595
0
LINE
8
BLACK
6
CONTINUOUS
10
2.99128
20
-3.68595
11
2.99253
21
-3.68543
0
LINE
8
BLACK
6
CONTINUOUS
10
2.99253
20
-3.68543
11
2.99378
21
-3.68595
0
LINE
8
BLACK
6
CONTINUOUS
10
3.00743
20
-3.68595
11
3.02594
21
-3.70446
0
LINE
8
BLACK
6
CONTINUOUS
10
3.02594
20
-3.70446
11
3.02646
21
-3.70572
0
LINE
8
BLACK
6
CONTINUOUS
10
3.02646
20
-3.70572
11
3.02594
21
-3.70697
0
LINE
8
BLACK
6
CONTINUOUS
10
3.02594
20
-3.70697
11
3.02148
21
-3.71142
0
LINE
8
BLACK
6
CONTINUOUS
10
3.02148
20
-3.71142
11
3.02023
21
-3.71194
0
LINE
8
BLACK
6
CONTINUOUS
10
3.02023
20
-3.71194
11
3.01898
21
-3.71142
0
LINE
8
BLACK
6
CONTINUOUS
10
3.01898
20
-3.71142
11
3.00419
21
-3.69663
0
LINE
8
BLACK
6
CONTINUOUS
10
3.00419
20
-3.69663
11
3.00367
21
-3.69538
0
LINE
8
BLACK
6
CONTINUOUS
10
3.00367
20
-3.69538
11
3.00367
21
-3.68794
0
LINE
8
BLACK
6
CONTINUOUS
10
3.00367
20
-3.68794
11
3.00367
21
-3.68794
0
LINE
8
BLACK
6
CONTINUOUS
10
3.00367
20
-3.68794
11
3.00367
21
-3.68794
0
LINE
8
BLACK
6
CONTINUOUS
10
3.00367
20
-3.68794
11
3.00419
21
-3.68669
0
LINE
8
BLACK
6
CONTINUOUS
10
3.00419
20
-3.68669
11
3.00419
21
-3.68669
0
LINE
8
BLACK
6
CONTINUOUS
10
3.00419
20
-3.68669
11
3.00492
21
-3.68595
0
LINE
8
BLACK
6
CONTINUOUS
10
3.00492
20
-3.68595
11
3.00617
21
-3.68543
0
LINE
8
BLACK
6
CONTINUOUS
10
3.00617
20
-3.68543
11
3.00743
21
-3.68595
0
LINE
8
BLACK
6
CONTINUOUS
10
2.92558
20
-3.67887
11
2.92686
21
-3.67972
0
LINE
8
BLACK
6
CONTINUOUS
10
2.92686
20
-3.67972
11
2.9341
21
-3.68696
0
LINE
8
BLACK
6
CONTINUOUS
10
2.9341
20
-3.68696
11
2.93495
21
-3.68824
0
LINE
8
BLACK
6
CONTINUOUS
10
2.93495
20
-3.68824
11
2.93525
21
-3.68974
0
LINE
8
BLACK
6
CONTINUOUS
10
2.93525
20
-3.68974
11
2.93495
21
-3.69125
0
LINE
8
BLACK
6
CONTINUOUS
10
2.93495
20
-3.69125
11
2.9341
21
-3.69253
0
LINE
8
BLACK
6
CONTINUOUS
10
2.9341
20
-3.69253
11
2.92853
21
-3.6981
0
LINE
8
BLACK
6
CONTINUOUS
10
2.92853
20
-3.6981
11
2.92725
21
-3.69895
0
LINE
8
BLACK
6
CONTINUOUS
10
2.92725
20
-3.69895
11
2.92574
21
-3.69925
0
LINE
8
BLACK
6
CONTINUOUS
10
2.92574
20
-3.69925
11
2.92424
21
-3.69895
0
LINE
8
BLACK
6
CONTINUOUS
10
2.92424
20
-3.69895
11
2.92296
21
-3.6981
0
LINE
8
BLACK
6
CONTINUOUS
10
2.92296
20
-3.6981
11
2.91572
21
-3.69086
0
LINE
8
BLACK
6
CONTINUOUS
10
2.91572
20
-3.69086
11
2.91487
21
-3.68958
0
LINE
8
BLACK
6
CONTINUOUS
10
2.91487
20
-3.68958
11
2.91457
21
-3.68807
0
LINE
8
BLACK
6
CONTINUOUS
10
2.91457
20
-3.68807
11
2.91487
21
-3.68657
0
LINE
8
BLACK
6
CONTINUOUS
10
2.91487
20
-3.68657
11
2.91572
21
-3.68529
0
LINE
8
BLACK
6
CONTINUOUS
10
2.91572
20
-3.68529
11
2.92129
21
-3.67972
0
LINE
8
BLACK
6
CONTINUOUS
10
2.92129
20
-3.67972
11
2.92257
21
-3.67887
0
LINE
8
BLACK
6
CONTINUOUS
10
2.92257
20
-3.67887
11
2.92407
21
-3.67857
0
LINE
8
BLACK
6
CONTINUOUS
10
2.92407
20
-3.67857
11
2.92558
21
-3.67887
0
LINE
8
BLACK
6
CONTINUOUS
10
2.885
20
-3.67525
11
2.88688
21
-3.6765
0
LINE
8
BLACK
6
CONTINUOUS
10
2.88688
20
-3.6765
11
2.88814
21
-3.67839
0
LINE
8
BLACK
6
CONTINUOUS
10
2.88814
20
-3.67839
11
2.88858
21
-3.68061
0
LINE
8
BLACK
6
CONTINUOUS
10
2.88858
20
-3.68061
11
2.88858
21
-3.69222
0
LINE
8
BLACK
6
CONTINUOUS
10
2.88858
20
-3.69222
11
2.88814
21
-3.69445
0
LINE
8
BLACK
6
CONTINUOUS
10
2.88814
20
-3.69445
11
2.88688
21
-3.69633
0
LINE
8
BLACK
6
CONTINUOUS
10
2.88688
20
-3.69633
11
2.885
21
-3.69759
0
LINE
8
BLACK
6
CONTINUOUS
10
2.885
20
-3.69759
11
2.88278
21
-3.69803
0
LINE
8
BLACK
6
CONTINUOUS
10
2.88278
20
-3.69803
11
2.86919
21
-3.69803
0
LINE
8
BLACK
6
CONTINUOUS
10
2.86919
20
-3.69803
11
2.86697
21
-3.69759
0
LINE
8
BLACK
6
CONTINUOUS
10
2.86697
20
-3.69759
11
2.86509
21
-3.69633
0
LINE
8
BLACK
6
CONTINUOUS
10
2.86509
20
-3.69633
11
2.86383
21
-3.69445
0
LINE
8
BLACK
6
CONTINUOUS
10
2.86383
20
-3.69445
11
2.86339
21
-3.69222
0
LINE
8
BLACK
6
CONTINUOUS
10
2.86339
20
-3.69222
11
2.86339
21
-3.68061
0
LINE
8
BLACK
6
CONTINUOUS
10
2.86339
20
-3.68061
11
2.86383
21
-3.67839
0
LINE
8
BLACK
6
CONTINUOUS
10
2.86383
20
-3.67839
11
2.86509
21
-3.6765
0
LINE
8
BLACK
6
CONTINUOUS
10
2.86509
20
-3.6765
11
2.86697
21
-3.67525
0
LINE
8
BLACK
6
CONTINUOUS
10
2.86697
20
-3.67525
11
2.86919
21
-3.6748
0
LINE
8
BLACK
6
CONTINUOUS
10
2.86919
20
-3.6748
11
2.88278
21
-3.6748
0
LINE
8
BLACK
6
CONTINUOUS
10
2.88278
20
-3.6748
11
2.885
21
-3.67525
0
LINE
8
BLACK
6
CONTINUOUS
10
2.98289
20
-3.66865
11
2.98369
21
-3.66918
0
LINE
8
BLACK
6
CONTINUOUS
10
2.98369
20
-3.66918
11
2.98717
21
-3.67266
0
LINE
8
BLACK
6
CONTINUOUS
10
2.98717
20
-3.67266
11
2.98771
21
-3.67346
0
LINE
8
BLACK
6
CONTINUOUS
10
2.98771
20
-3.67346
11
2.98789
21
-3.6744
0
LINE
8
BLACK
6
CONTINUOUS
10
2.98789
20
-3.6744
11
2.98771
21
-3.67534
0
LINE
8
BLACK
6
CONTINUOUS
10
2.98771
20
-3.67534
11
2.98717
21
-3.67614
0
LINE
8
BLACK
6
CONTINUOUS
10
2.98717
20
-3.67614
11
2.96629
21
-3.69702
0
LINE
8
BLACK
6
CONTINUOUS
10
2.96629
20
-3.69702
11
2.96549
21
-3.69755
0
LINE
8
BLACK
6
CONTINUOUS
10
2.96549
20
-3.69755
11
2.96455
21
-3.69774
0
LINE
8
BLACK
6
CONTINUOUS
10
2.96455
20
-3.69774
11
2.96361
21
-3.69755
0
LINE
8
BLACK
6
CONTINUOUS
10
2.96361
20
-3.69755
11
2.96281
21
-3.69702
0
LINE
8
BLACK
6
CONTINUOUS
10
2.96281
20
-3.69702
11
2.95933
21
-3.69354
0
LINE
8
BLACK
6
CONTINUOUS
10
2.95933
20
-3.69354
11
2.9588
21
-3.69274
0
LINE
8
BLACK
6
CONTINUOUS
10
2.9588
20
-3.69274
11
2.95861
21
-3.6918
0
LINE
8
BLACK
6
CONTINUOUS
10
2.95861
20
-3.6918
11
2.9588
21
-3.69086
0
LINE
8
BLACK
6
CONTINUOUS
10
2.9588
20
-3.69086
11
2.95933
21
-3.69006
0
LINE
8
BLACK
6
CONTINUOUS
10
2.95933
20
-3.69006
11
2.98021
21
-3.66918
0
LINE
8
BLACK
6
CONTINUOUS
10
2.98021
20
-3.66918
11
2.98101
21
-3.66865
0
LINE
8
BLACK
6
CONTINUOUS
10
2.98101
20
-3.66865
11
2.98195
21
-3.66846
0
LINE
8
BLACK
6
CONTINUOUS
10
2.98195
20
-3.66846
11
2.98289
21
-3.66865
0
LINE
8
BLACK
6
CONTINUOUS
10
3.01769
20
-3.66865
11
3.01849
21
-3.66918
0
LINE
8
BLACK
6
CONTINUOUS
10
3.01849
20
-3.66918
11
3.03937
21
-3.69006
0
LINE
8
BLACK
6
CONTINUOUS
10
3.03937
20
-3.69006
11
3.0399
21
-3.69086
0
LINE
8
BLACK
6
CONTINUOUS
10
3.0399
20
-3.69086
11
3.04009
21
-3.6918
0
LINE
8
BLACK
6
CONTINUOUS
10
3.04009
20
-3.6918
11
3.0399
21
-3.69274
0
LINE
8
BLACK
6
CONTINUOUS
10
3.0399
20
-3.69274
11
3.03937
21
-3.69354
0
LINE
8
BLACK
6
CONTINUOUS
10
3.03937
20
-3.69354
11
3.03589
21
-3.69702
0
LINE
8
BLACK
6
CONTINUOUS
10
3.03589
20
-3.69702
11
3.03509
21
-3.69755
0
LINE
8
BLACK
6
CONTINUOUS
10
3.03509
20
-3.69755
11
3.03415
21
-3.69774
0
LINE
8
BLACK
6
CONTINUOUS
10
3.03415
20
-3.69774
11
3.03321
21
-3.69755
0
LINE
8
BLACK
6
CONTINUOUS
10
3.03321
20
-3.69755
11
3.03241
21
-3.69702
0
LINE
8
BLACK
6
CONTINUOUS
10
3.03241
20
-3.69702
11
3.01153
21
-3.67614
0
LINE
8
BLACK
6
CONTINUOUS
10
3.01153
20
-3.67614
11
3.011
21
-3.67534
0
LINE
8
BLACK
6
CONTINUOUS
10
3.011
20
-3.67534
11
3.01081
21
-3.6744
0
LINE
8
BLACK
6
CONTINUOUS
10
3.01081
20
-3.6744
11
3.011
21
-3.67346
0
LINE
8
BLACK
6
CONTINUOUS
10
3.011
20
-3.67346
11
3.01153
21
-3.67266
0
LINE
8
BLACK
6
CONTINUOUS
10
3.01153
20
-3.67266
11
3.01501
21
-3.66918
0
LINE
8
BLACK
6
CONTINUOUS
10
3.01501
20
-3.66918
11
3.01581
21
-3.66865
0
LINE
8
BLACK
6
CONTINUOUS
10
3.01581
20
-3.66865
11
3.01675
21
-3.66846
0
LINE
8
BLACK
6
CONTINUOUS
10
3.01675
20
-3.66846
11
3.01769
21
-3.66865
0
LINE
8
BLACK
6
CONTINUOUS
10
3.09731
20
-3.66288
11
3.0991
21
-3.66407
0
LINE
8
BLACK
6
CONTINUOUS
10
3.0991
20
-3.66407
11
3.10857
21
-3.67354
0
LINE
8
BLACK
6
CONTINUOUS
10
3.10857
20
-3.67354
11
3.10976
21
-3.67532
0
LINE
8
BLACK
6
CONTINUOUS
10
3.10976
20
-3.67532
11
3.11018
21
-3.67743
0
LINE
8
BLACK
6
CONTINUOUS
10
3.11018
20
-3.67743
11
3.10976
21
-3.67954
0
LINE
8
BLACK
6
CONTINUOUS
10
3.10976
20
-3.67954
11
3.10857
21
-3.68133
0
LINE
8
BLACK
6
CONTINUOUS
10
3.10857
20
-3.68133
11
3.10077
21
-3.68913
0
LINE
8
BLACK
6
CONTINUOUS
10
3.10077
20
-3.68913
11
3.09898
21
-3.69032
0
LINE
8
BLACK
6
CONTINUOUS
10
3.09898
20
-3.69032
11
3.09687
21
-3.69074
0
LINE
8
BLACK
6
CONTINUOUS
10
3.09687
20
-3.69074
11
3.09477
21
-3.69032
0
LINE
8
BLACK
6
CONTINUOUS
10
3.09477
20
-3.69032
11
3.09298
21
-3.68913
0
LINE
8
BLACK
6
CONTINUOUS
10
3.09298
20
-3.68913
11
3.08351
21
-3.67966
0
LINE
8
BLACK
6
CONTINUOUS
10
3.08351
20
-3.67966
11
3.08232
21
-3.67787
0
LINE
8
BLACK
6
CONTINUOUS
10
3.08232
20
-3.67787
11
3.0819
21
-3.67576
0
LINE
8
BLACK
6
CONTINUOUS
10
3.0819
20
-3.67576
11
3.08232
21
-3.67365
0
LINE
8
BLACK
6
CONTINUOUS
10
3.08232
20
-3.67365
11
3.08351
21
-3.67187
0
LINE
8
BLACK
6
CONTINUOUS
10
3.08351
20
-3.67187
11
3.09131
21
-3.66407
0
LINE
8
BLACK
6
CONTINUOUS
10
3.09131
20
-3.66407
11
3.0931
21
-3.66288
0
LINE
8
BLACK
6
CONTINUOUS
10
3.0931
20
-3.66288
11
3.0952
21
-3.66246
0
LINE
8
BLACK
6
CONTINUOUS
10
3.0952
20
-3.66246
11
3.09731
21
-3.66288
0
LINE
8
BLACK
6
CONTINUOUS
10
2.96897
20
-3.65473
11
2.96977
21
-3.65526
0
LINE
8
BLACK
6
CONTINUOUS
10
2.96977
20
-3.65526
11
2.97325
21
-3.65874
0
LINE
8
BLACK
6
CONTINUOUS
10
2.97325
20
-3.65874
11
2.97379
21
-3.65954
0
LINE
8
BLACK
6
CONTINUOUS
10
2.97379
20
-3.65954
11
2.97397
21
-3.66048
0
LINE
8
BLACK
6
CONTINUOUS
10
2.97397
20
-3.66048
11
2.97379
21
-3.66142
0
LINE
8
BLACK
6
CONTINUOUS
10
2.97379
20
-3.66142
11
2.97325
21
-3.66222
0
LINE
8
BLACK
6
CONTINUOUS
10
2.97325
20
-3.66222
11
2.95237
21
-3.6831
0
LINE
8
BLACK
6
CONTINUOUS
10
2.95237
20
-3.6831
11
2.95158
21
-3.68363
0
LINE
8
BLACK
6
CONTINUOUS
10
2.95158
20
-3.68363
11
2.95063
21
-3.68382
0
LINE
8
BLACK
6
CONTINUOUS
10
2.95063
20
-3.68382
11
2.94969
21
-3.68363
0
LINE
8
BLACK
6
CONTINUOUS
10
2.94969
20
-3.68363
11
2.94889
21
-3.6831
0
LINE
8
BLACK
6
CONTINUOUS
10
2.94889
20
-3.6831
11
2.94541
21
-3.67962
0
LINE
8
BLACK
6
CONTINUOUS
10
2.94541
20
-3.67962
11
2.94488
21
-3.67882
0
LINE
8
BLACK
6
CONTINUOUS
10
2.94488
20
-3.67882
11
2.94469
21
-3.67788
0
LINE
8
BLACK
6
CONTINUOUS
10
2.94469
20
-3.67788
11
2.94488
21
-3.67694
0
LINE
8
BLACK
6
CONTINUOUS
10
2.94488
20
-3.67694
11
2.94541
21
-3.67614
0
LINE
8
BLACK
6
CONTINUOUS
10
2.94541
20
-3.67614
11
2.96629
21
-3.65526
0
LINE
8
BLACK
6
CONTINUOUS
10
2.96629
20
-3.65526
11
2.96709
21
-3.65473
0
LINE
8
BLACK
6
CONTINUOUS
10
2.96709
20
-3.65473
11
2.96803
21
-3.65454
0
LINE
8
BLACK
6
CONTINUOUS
10
2.96803
20
-3.65454
11
2.96897
21
-3.65473
0
LINE
8
BLACK
6
CONTINUOUS
10
3.03161
20
-3.65473
11
3.03241
21
-3.65526
0
LINE
8
BLACK
6
CONTINUOUS
10
3.03241
20
-3.65526
11
3.05329
21
-3.67614
0
LINE
8
BLACK
6
CONTINUOUS
10
3.05329
20
-3.67614
11
3.05382
21
-3.67694
0
LINE
8
BLACK
6
CONTINUOUS
10
3.05382
20
-3.67694
11
3.05401
21
-3.67788
0
LINE
8
BLACK
6
CONTINUOUS
10
3.05401
20
-3.67788
11
3.05382
21
-3.67882
0
LINE
8
BLACK
6
CONTINUOUS
10
3.05382
20
-3.67882
11
3.05329
21
-3.67962
0
LINE
8
BLACK
6
CONTINUOUS
10
3.05329
20
-3.67962
11
3.04981
21
-3.6831
0
LINE
8
BLACK
6
CONTINUOUS
10
3.04981
20
-3.6831
11
3.04901
21
-3.68363
0
LINE
8
BLACK
6
CONTINUOUS
10
3.04901
20
-3.68363
11
3.04807
21
-3.68382
0
LINE
8
BLACK
6
CONTINUOUS
10
3.04807
20
-3.68382
11
3.04713
21
-3.68363
0
LINE
8
BLACK
6
CONTINUOUS
10
3.04713
20
-3.68363
11
3.04633
21
-3.6831
0
LINE
8
BLACK
6
CONTINUOUS
10
3.04633
20
-3.6831
11
3.02545
21
-3.66222
0
LINE
8
BLACK
6
CONTINUOUS
10
3.02545
20
-3.66222
11
3.02492
21
-3.66142
0
LINE
8
BLACK
6
CONTINUOUS
10
3.02492
20
-3.66142
11
3.02473
21
-3.66048
0
LINE
8
BLACK
6
CONTINUOUS
10
3.02473
20
-3.66048
11
3.02492
21
-3.65954
0
LINE
8
BLACK
6
CONTINUOUS
10
3.02492
20
-3.65954
11
3.02545
21
-3.65874
0
LINE
8
BLACK
6
CONTINUOUS
10
3.02545
20
-3.65874
11
3.02893
21
-3.65526
0
LINE
8
BLACK
6
CONTINUOUS
10
3.02893
20
-3.65526
11
3.02973
21
-3.65473
0
LINE
8
BLACK
6
CONTINUOUS
10
3.02973
20
-3.65473
11
3.03067
21
-3.65454
0
LINE
8
BLACK
6
CONTINUOUS
10
3.03067
20
-3.65454
11
3.03161
21
-3.65473
0
LINE
8
BLACK
6
CONTINUOUS
10
2.90776
20
-3.66105
11
2.90904
21
-3.6619
0
LINE
8
BLACK
6
CONTINUOUS
10
2.90904
20
-3.6619
11
2.91628
21
-3.66914
0
LINE
8
BLACK
6
CONTINUOUS
10
2.91628
20
-3.66914
11
2.91713
21
-3.67042
0
LINE
8
BLACK
6
CONTINUOUS
10
2.91713
20
-3.67042
11
2.91743
21
-3.67193
0
LINE
8
BLACK
6
CONTINUOUS
10
2.91743
20
-3.67193
11
2.91713
21
-3.67343
0
LINE
8
BLACK
6
CONTINUOUS
10
2.91713
20
-3.67343
11
2.91628
21
-3.67471
0
LINE
8
BLACK
6
CONTINUOUS
10
2.91628
20
-3.67471
11
2.91071
21
-3.68028
0
LINE
8
BLACK
6
CONTINUOUS
10
2.91071
20
-3.68028
11
2.90943
21
-3.68113
0
LINE
8
BLACK
6
CONTINUOUS
10
2.90943
20
-3.68113
11
2.90793
21
-3.68143
0
LINE
8
BLACK
6
CONTINUOUS
10
2.90793
20
-3.68143
11
2.90642
21
-3.68113
0
LINE
8
BLACK
6
CONTINUOUS
10
2.90642
20
-3.68113
11
2.90514
21
-3.68028
0
LINE
8
BLACK
6
CONTINUOUS
10
2.90514
20
-3.68028
11
2.8979
21
-3.67304
0
LINE
8
BLACK
6
CONTINUOUS
10
2.8979
20
-3.67304
11
2.89705
21
-3.67176
0
LINE
8
BLACK
6
CONTINUOUS
10
2.89705
20
-3.67176
11
2.89675
21
-3.67026
0
LINE
8
BLACK
6
CONTINUOUS
10
2.89675
20
-3.67026
11
2.89705
21
-3.66875
0
LINE
8
BLACK
6
CONTINUOUS
10
2.89705
20
-3.66875
11
2.8979
21
-3.66747
0
LINE
8
BLACK
6
CONTINUOUS
10
2.8979
20
-3.66747
11
2.90347
21
-3.6619
0
LINE
8
BLACK
6
CONTINUOUS
10
2.90347
20
-3.6619
11
2.90475
21
-3.66105
0
LINE
8
BLACK
6
CONTINUOUS
10
2.90475
20
-3.66105
11
2.90626
21
-3.66075
0
LINE
8
BLACK
6
CONTINUOUS
10
2.90626
20
-3.66075
11
2.90776
21
-3.66105
0
LINE
8
BLACK
6
CONTINUOUS
10
2.95506
20
-3.64081
11
2.95585
21
-3.64134
0
LINE
8
BLACK
6
CONTINUOUS
10
2.95585
20
-3.64134
11
2.95933
21
-3.64482
0
LINE
8
BLACK
6
CONTINUOUS
10
2.95933
20
-3.64482
11
2.95987
21
-3.64562
0
LINE
8
BLACK
6
CONTINUOUS
10
2.95987
20
-3.64562
11
2.96005
21
-3.64656
0
LINE
8
BLACK
6
CONTINUOUS
10
2.96005
20
-3.64656
11
2.95987
21
-3.6475
0
LINE
8
BLACK
6
CONTINUOUS
10
2.95987
20
-3.6475
11
2.95933
21
-3.6483
0
LINE
8
BLACK
6
CONTINUOUS
10
2.95933
20
-3.6483
11
2.93845
21
-3.66918
0
LINE
8
BLACK
6
CONTINUOUS
10
2.93845
20
-3.66918
11
2.93766
21
-3.66971
0
LINE
8
BLACK
6
CONTINUOUS
10
2.93766
20
-3.66971
11
2.93671
21
-3.6699
0
LINE
8
BLACK
6
CONTINUOUS
10
2.93671
20
-3.6699
11
2.93577
21
-3.66971
0
LINE
8
BLACK
6
CONTINUOUS
10
2.93577
20
-3.66971
11
2.93497
21
-3.66918
0
LINE
8
BLACK
6
CONTINUOUS
10
2.93497
20
-3.66918
11
2.93149
21
-3.6657
0
LINE
8
BLACK
6
CONTINUOUS
10
2.93149
20
-3.6657
11
2.93096
21
-3.6649
0
LINE
8
BLACK
6
CONTINUOUS
10
2.93096
20
-3.6649
11
2.93077
21
-3.66396
0
LINE
8
BLACK
6
CONTINUOUS
10
2.93077
20
-3.66396
11
2.93096
21
-3.66302
0
LINE
8
BLACK
6
CONTINUOUS
10
2.93096
20
-3.66302
11
2.93149
21
-3.66222
0
LINE
8
BLACK
6
CONTINUOUS
10
2.93149
20
-3.66222
11
2.95237
21
-3.64134
0
LINE
8
BLACK
6
CONTINUOUS
10
2.95237
20
-3.64134
11
2.95317
21
-3.64081
0
LINE
8
BLACK
6
CONTINUOUS
10
2.95317
20
-3.64081
11
2.95411
21
-3.64062
0
LINE
8
BLACK
6
CONTINUOUS
10
2.95411
20
-3.64062
11
2.95506
21
-3.64081
0
LINE
8
BLACK
6
CONTINUOUS
10
3.04553
20
-3.64081
11
3.04633
21
-3.64134
0
LINE
8
BLACK
6
CONTINUOUS
10
3.04633
20
-3.64134
11
3.06721
21
-3.66222
0
LINE
8
BLACK
6
CONTINUOUS
10
3.06721
20
-3.66222
11
3.06774
21
-3.66302
0
LINE
8
BLACK
6
CONTINUOUS
10
3.06774
20
-3.66302
11
3.06793
21
-3.66396
0
LINE
8
BLACK
6
CONTINUOUS
10
3.06793
20
-3.66396
11
3.06774
21
-3.6649
0
LINE
8
BLACK
6
CONTINUOUS
10
3.06774
20
-3.6649
11
3.06721
21
-3.6657
0
LINE
8
BLACK
6
CONTINUOUS
10
3.06721
20
-3.6657
11
3.06373
21
-3.66918
0
LINE
8
BLACK
6
CONTINUOUS
10
3.06373
20
-3.66918
11
3.06293
21
-3.66971
0
LINE
8
BLACK
6
CONTINUOUS
10
3.06293
20
-3.66971
11
3.06199
21
-3.6699
0
LINE
8
BLACK
6
CONTINUOUS
10
3.06199
20
-3.6699
11
3.06105
21
-3.66971
0
LINE
8
BLACK
6
CONTINUOUS
10
3.06105
20
-3.66971
11
3.06025
21
-3.66918
0
LINE
8
BLACK
6
CONTINUOUS
10
3.06025
20
-3.66918
11
3.03937
21
-3.6483
0
LINE
8
BLACK
6
CONTINUOUS
10
3.03937
20
-3.6483
11
3.03884
21
-3.6475
0
LINE
8
BLACK
6
CONTINUOUS
10
3.03884
20
-3.6475
11
3.03865
21
-3.64656
0
LINE
8
BLACK
6
CONTINUOUS
10
3.03865
20
-3.64656
11
3.03884
21
-3.64562
0
LINE
8
BLACK
6
CONTINUOUS
10
3.03884
20
-3.64562
11
3.03937
21
-3.64482
0
LINE
8
BLACK
6
CONTINUOUS
10
3.03937
20
-3.64482
11
3.04285
21
-3.64134
0
LINE
8
BLACK
6
CONTINUOUS
10
3.04285
20
-3.64134
11
3.04365
21
-3.64081
0
LINE
8
BLACK
6
CONTINUOUS
10
3.04365
20
-3.64081
11
3.04459
21
-3.64062
0
LINE
8
BLACK
6
CONTINUOUS
10
3.04459
20
-3.64062
11
3.04553
21
-3.64081
0
LINE
8
BLACK
6
CONTINUOUS
10
3.12177
20
-3.6394
11
3.12356
21
-3.6406
0
LINE
8
BLACK
6
CONTINUOUS
10
3.12356
20
-3.6406
11
3.13302
21
-3.65006
0
LINE
8
BLACK
6
CONTINUOUS
10
3.13302
20
-3.65006
11
3.13422
21
-3.65185
0
LINE
8
BLACK
6
CONTINUOUS
10
3.13422
20
-3.65185
11
3.13464
21
-3.65396
0
LINE
8
BLACK
6
CONTINUOUS
10
3.13464
20
-3.65396
11
3.13422
21
-3.65607
0
LINE
8
BLACK
6
CONTINUOUS
10
3.13422
20
-3.65607
11
3.13302
21
-3.65786
0
LINE
8
BLACK
6
CONTINUOUS
10
3.13302
20
-3.65786
11
3.12523
21
-3.66565
0
LINE
8
BLACK
6
CONTINUOUS
10
3.12523
20
-3.66565
11
3.12344
21
-3.66685
0
LINE
8
BLACK
6
CONTINUOUS
10
3.12344
20
-3.66685
11
3.12133
21
-3.66727
0
LINE
8
BLACK
6
CONTINUOUS
10
3.12133
20
-3.66727
11
3.11922
21
-3.66685
0
LINE
8
BLACK
6
CONTINUOUS
10
3.11922
20
-3.66685
11
3.11743
21
-3.66565
0
LINE
8
BLACK
6
CONTINUOUS
10
3.11743
20
-3.66565
11
3.10797
21
-3.65619
0
LINE
8
BLACK
6
CONTINUOUS
10
3.10797
20
-3.65619
11
3.10677
21
-3.6544
0
LINE
8
BLACK
6
CONTINUOUS
10
3.10677
20
-3.6544
11
3.10635
21
-3.65229
0
LINE
8
BLACK
6
CONTINUOUS
10
3.10635
20
-3.65229
11
3.10677
21
-3.65018
0
LINE
8
BLACK
6
CONTINUOUS
10
3.10677
20
-3.65018
11
3.10797
21
-3.64839
0
LINE
8
BLACK
6
CONTINUOUS
10
3.10797
20
-3.64839
11
3.11576
21
-3.6406
0
LINE
8
BLACK
6
CONTINUOUS
10
3.11576
20
-3.6406
11
3.11755
21
-3.6394
0
LINE
8
BLACK
6
CONTINUOUS
10
3.11755
20
-3.6394
11
3.11966
21
-3.63898
0
LINE
8
BLACK
6
CONTINUOUS
10
3.11966
20
-3.63898
11
3.12177
21
-3.6394
0
LINE
8
BLACK
6
CONTINUOUS
10
2.885
20
-3.63706
11
2.88688
21
-3.63832
0
LINE
8
BLACK
6
CONTINUOUS
10
2.88688
20
-3.63832
11
2.88814
21
-3.6402
0
LINE
8
BLACK
6
CONTINUOUS
10
2.88814
20
-3.6402
11
2.88858
21
-3.64242
0
LINE
8
BLACK
6
CONTINUOUS
10
2.88858
20
-3.64242
11
2.88858
21
-3.65404
0
LINE
8
BLACK
6
CONTINUOUS
10
2.88858
20
-3.65404
11
2.88814
21
-3.65626
0
LINE
8
BLACK
6
CONTINUOUS
10
2.88814
20
-3.65626
11
2.88688
21
-3.65814
0
LINE
8
BLACK
6
CONTINUOUS
10
2.88688
20
-3.65814
11
2.885
21
-3.6594
0
LINE
8
BLACK
6
CONTINUOUS
10
2.885
20
-3.6594
11
2.88278
21
-3.65984
0
LINE
8
BLACK
6
CONTINUOUS
10
2.88278
20
-3.65984
11
2.86919
21
-3.65984
0
LINE
8
BLACK
6
CONTINUOUS
10
2.86919
20
-3.65984
11
2.86697
21
-3.6594
0
LINE
8
BLACK
6
CONTINUOUS
10
2.86697
20
-3.6594
11
2.86509
21
-3.65814
0
LINE
8
BLACK
6
CONTINUOUS
10
2.86509
20
-3.65814
11
2.86383
21
-3.65626
0
LINE
8
BLACK
6
CONTINUOUS
10
2.86383
20
-3.65626
11
2.86339
21
-3.65404
0
LINE
8
BLACK
6
CONTINUOUS
10
2.86339
20
-3.65404
11
2.86339
21
-3.64242
0
LINE
8
BLACK
6
CONTINUOUS
10
2.86339
20
-3.64242
11
2.86383
21
-3.6402
0
LINE
8
BLACK
6
CONTINUOUS
10
2.86383
20
-3.6402
11
2.86509
21
-3.63832
0
LINE
8
BLACK
6
CONTINUOUS
10
2.86509
20
-3.63832
11
2.86697
21
-3.63706
0
LINE
8
BLACK
6
CONTINUOUS
10
2.86697
20
-3.63706
11
2.86919
21
-3.63661
0
LINE
8
BLACK
6
CONTINUOUS
10
2.86919
20
-3.63661
11
2.88278
21
-3.63661
0
LINE
8
BLACK
6
CONTINUOUS
10
2.88278
20
-3.63661
11
2.885
21
-3.63706
0
LINE
8
BLACK
6
CONTINUOUS
10
2.94114
20
-3.62689
11
2.94193
21
-3.62742
0
LINE
8
BLACK
6
CONTINUOUS
10
2.94193
20
-3.62742
11
2.94541
21
-3.6309
0
LINE
8
BLACK
6
CONTINUOUS
10
2.94541
20
-3.6309
11
2.94595
21
-3.6317
0
LINE
8
BLACK
6
CONTINUOUS
10
2.94595
20
-3.6317
11
2.94613
21
-3.63264
0
LINE
8
BLACK
6
CONTINUOUS
10
2.94613
20
-3.63264
11
2.94595
21
-3.63358
0
LINE
8
BLACK
6
CONTINUOUS
10
2.94595
20
-3.63358
11
2.94541
21
-3.63438
0
LINE
8
BLACK
6
CONTINUOUS
10
2.94541
20
-3.63438
11
2.92453
21
-3.65526
0
LINE
8
BLACK
6
CONTINUOUS
10
2.92453
20
-3.65526
11
2.92374
21
-3.65579
0
LINE
8
BLACK
6
CONTINUOUS
10
2.92374
20
-3.65579
11
2.92279
21
-3.65598
0
LINE
8
BLACK
6
CONTINUOUS
10
2.92279
20
-3.65598
11
2.92185
21
-3.65579
0
LINE
8
BLACK
6
CONTINUOUS
10
2.92185
20
-3.65579
11
2.92105
21
-3.65526
0
LINE
8
BLACK
6
CONTINUOUS
10
2.92105
20
-3.65526
11
2.91758
21
-3.65178
0
LINE
8
BLACK
6
CONTINUOUS
10
2.91758
20
-3.65178
11
2.91704
21
-3.65098
0
LINE
8
BLACK
6
CONTINUOUS
10
2.91704
20
-3.65098
11
2.91685
21
-3.65004
0
LINE
8
BLACK
6
CONTINUOUS
10
2.91685
20
-3.65004
11
2.91704
21
-3.6491
0
LINE
8
BLACK
6
CONTINUOUS
10
2.91704
20
-3.6491
11
2.91758
21
-3.6483
0
LINE
8
BLACK
6
CONTINUOUS
10
2.91758
20
-3.6483
11
2.93845
21
-3.62742
0
LINE
8
BLACK
6
CONTINUOUS
10
2.93845
20
-3.62742
11
2.93925
21
-3.62689
0
LINE
8
BLACK
6
CONTINUOUS
10
2.93925
20
-3.62689
11
2.94019
21
-3.6267
0
LINE
8
BLACK
6
CONTINUOUS
10
2.94019
20
-3.6267
11
2.94114
21
-3.62689
0
LINE
8
BLACK
6
CONTINUOUS
10
3.05945
20
-3.62689
11
3.06025
21
-3.62742
0
LINE
8
BLACK
6
CONTINUOUS
10
3.06025
20
-3.62742
11
3.08113
21
-3.6483
0
LINE
8
BLACK
6
CONTINUOUS
10
3.08113
20
-3.6483
11
3.08166
21
-3.6491
0
LINE
8
BLACK
6
CONTINUOUS
10
3.08166
20
-3.6491
11
3.08185
21
-3.65004
0
LINE
8
BLACK
6
CONTINUOUS
10
3.08185
20
-3.65004
11
3.08166
21
-3.65098
0
LINE
8
BLACK
6
CONTINUOUS
10
3.08166
20
-3.65098
11
3.08113
21
-3.65178
0
LINE
8
BLACK
6
CONTINUOUS
10
3.08113
20
-3.65178
11
3.07765
21
-3.65526
0
LINE
8
BLACK
6
CONTINUOUS
10
3.07765
20
-3.65526
11
3.07685
21
-3.65579
0
LINE
8
BLACK
6
CONTINUOUS
10
3.07685
20
-3.65579
11
3.07591
21
-3.65598
0
LINE
8
BLACK
6
CONTINUOUS
10
3.07591
20
-3.65598
11
3.07497
21
-3.65579
0
LINE
8
BLACK
6
CONTINUOUS
10
3.07497
20
-3.65579
11
3.07417
21
-3.65526
0
LINE
8
BLACK
6
CONTINUOUS
10
3.07417
20
-3.65526
11
3.05329
21
-3.63438
0
LINE
8
BLACK
6
CONTINUOUS
10
3.05329
20
-3.63438
11
3.05276
21
-3.63358
0
LINE
8
BLACK
6
CONTINUOUS
10
3.05276
20
-3.63358
11
3.05257
21
-3.63264
0
LINE
8
BLACK
6
CONTINUOUS
10
3.05257
20
-3.63264
11
3.05276
21
-3.6317
0
LINE
8
BLACK
6
CONTINUOUS
10
3.05276
20
-3.6317
11
3.05329
21
-3.6309
0
LINE
8
BLACK
6
CONTINUOUS
10
3.05329
20
-3.6309
11
3.05677
21
-3.62742
0
LINE
8
BLACK
6
CONTINUOUS
10
3.05677
20
-3.62742
11
3.05757
21
-3.62689
0
LINE
8
BLACK
6
CONTINUOUS
10
3.05757
20
-3.62689
11
3.05851
21
-3.6267
0
LINE
8
BLACK
6
CONTINUOUS
10
3.05851
20
-3.6267
11
3.05945
21
-3.62689
0
LINE
8
BLACK
6
CONTINUOUS
10
2.92722
20
-3.61297
11
2.92801
21
-3.6135
0
LINE
8
BLACK
6
CONTINUOUS
10
2.92801
20
-3.6135
11
2.93149
21
-3.61698
0
LINE
8
BLACK
6
CONTINUOUS
10
2.93149
20
-3.61698
11
2.93203
21
-3.61778
0
LINE
8
BLACK
6
CONTINUOUS
10
2.93203
20
-3.61778
11
2.93222
21
-3.61872
0
LINE
8
BLACK
6
CONTINUOUS
10
2.93222
20
-3.61872
11
2.93203
21
-3.61966
0
LINE
8
BLACK
6
CONTINUOUS
10
2.93203
20
-3.61966
11
2.93149
21
-3.62046
0
LINE
8
BLACK
6
CONTINUOUS
10
2.93149
20
-3.62046
11
2.91062
21
-3.64134
0
LINE
8
BLACK
6
CONTINUOUS
10
2.91062
20
-3.64134
11
2.90982
21
-3.64187
0
LINE
8
BLACK
6
CONTINUOUS
10
2.90982
20
-3.64187
11
2.90888
21
-3.64206
0
LINE
8
BLACK
6
CONTINUOUS
10
2.90888
20
-3.64206
11
2.90793
21
-3.64187
0
LINE
8
BLACK
6
CONTINUOUS
10
2.90793
20
-3.64187
11
2.90714
21
-3.64134
0
LINE
8
BLACK
6
CONTINUOUS
10
2.90714
20
-3.64134
11
2.90366
21
-3.63786
0
LINE
8
BLACK
6
CONTINUOUS
10
2.90366
20
-3.63786
11
2.90312
21
-3.63706
0
LINE
8
BLACK
6
CONTINUOUS
10
2.90312
20
-3.63706
11
2.90293
21
-3.63612
0
LINE
8
BLACK
6
CONTINUOUS
10
2.90293
20
-3.63612
11
2.90312
21
-3.63518
0
LINE
8
BLACK
6
CONTINUOUS
10
2.90312
20
-3.63518
11
2.90366
21
-3.63438
0
LINE
8
BLACK
6
CONTINUOUS
10
2.90366
20
-3.63438
11
2.92453
21
-3.6135
0
LINE
8
BLACK
6
CONTINUOUS
10
2.92453
20
-3.6135
11
2.92533
21
-3.61297
0
LINE
8
BLACK
6
CONTINUOUS
10
2.92533
20
-3.61297
11
2.92627
21
-3.61278
0
LINE
8
BLACK
6
CONTINUOUS
10
2.92627
20
-3.61278
11
2.92722
21
-3.61297
0
LINE
8
BLACK
6
CONTINUOUS
10
3.07337
20
-3.61297
11
3.07417
21
-3.6135
0
LINE
8
BLACK
6
CONTINUOUS
10
3.07417
20
-3.6135
11
3.09505
21
-3.63438
0
LINE
8
BLACK
6
CONTINUOUS
10
3.09505
20
-3.63438
11
3.09558
21
-3.63518
0
LINE
8
BLACK
6
CONTINUOUS
10
3.09558
20
-3.63518
11
3.09577
21
-3.63612
0
LINE
8
BLACK
6
CONTINUOUS
10
3.09577
20
-3.63612
11
3.09558
21
-3.63706
0
LINE
8
BLACK
6
CONTINUOUS
10
3.09558
20
-3.63706
11
3.09505
21
-3.63786
0
LINE
8
BLACK
6
CONTINUOUS
10
3.09505
20
-3.63786
11
3.09157
21
-3.64134
0
LINE
8
BLACK
6
CONTINUOUS
10
3.09157
20
-3.64134
11
3.09077
21
-3.64187
0
LINE
8
BLACK
6
CONTINUOUS
10
3.09077
20
-3.64187
11
3.08983
21
-3.64206
0
LINE
8
BLACK
6
CONTINUOUS
10
3.08983
20
-3.64206
11
3.08889
21
-3.64187
0
LINE
8
BLACK
6
CONTINUOUS
10
3.08889
20
-3.64187
11
3.08809
21
-3.64134
0
LINE
8
BLACK
6
CONTINUOUS
10
3.08809
20
-3.64134
11
3.06721
21
-3.62046
0
LINE
8
BLACK
6
CONTINUOUS
10
3.06721
20
-3.62046
11
3.06668
21
-3.61966
0
LINE
8
BLACK
6
CONTINUOUS
10
3.06668
20
-3.61966
11
3.06649
21
-3.61872
0
LINE
8
BLACK
6
CONTINUOUS
10
3.06649
20
-3.61872
11
3.06668
21
-3.61778
0
LINE
8
BLACK
6
CONTINUOUS
10
3.06668
20
-3.61778
11
3.06721
21
-3.61698
0
LINE
8
BLACK
6
CONTINUOUS
10
3.06721
20
-3.61698
11
3.07069
21
-3.6135
0
LINE
8
BLACK
6
CONTINUOUS
10
3.07069
20
-3.6135
11
3.07149
21
-3.61297
0
LINE
8
BLACK
6
CONTINUOUS
10
3.07149
20
-3.61297
11
3.07243
21
-3.61278
0
LINE
8
BLACK
6
CONTINUOUS
10
3.07243
20
-3.61278
11
3.07337
21
-3.61297
0
LINE
8
BLACK
6
CONTINUOUS
10
3.1485
20
-3.61268
11
3.15028
21
-3.61387
0
LINE
8
BLACK
6
CONTINUOUS
10
3.15028
20
-3.61387
11
3.15975
21
-3.62334
0
LINE
8
BLACK
6
CONTINUOUS
10
3.15975
20
-3.62334
11
3.16094
21
-3.62513
0
LINE
8
BLACK
6
CONTINUOUS
10
3.16094
20
-3.62513
11
3.16136
21
-3.62724
0
LINE
8
BLACK
6
CONTINUOUS
10
3.16136
20
-3.62724
11
3.16094
21
-3.62935
0
LINE
8
BLACK
6
CONTINUOUS
10
3.16094
20
-3.62935
11
3.15975
21
-3.63113
0
LINE
8
BLACK
6
CONTINUOUS
10
3.15975
20
-3.63113
11
3.15195
21
-3.63893
0
LINE
8
BLACK
6
CONTINUOUS
10
3.15195
20
-3.63893
11
3.15017
21
-3.64012
0
LINE
8
BLACK
6
CONTINUOUS
10
3.15017
20
-3.64012
11
3.14806
21
-3.64054
0
LINE
8
BLACK
6
CONTINUOUS
10
3.14806
20
-3.64054
11
3.14595
21
-3.64012
0
LINE
8
BLACK
6
CONTINUOUS
10
3.14595
20
-3.64012
11
3.14416
21
-3.63893
0
LINE
8
BLACK
6
CONTINUOUS
10
3.14416
20
-3.63893
11
3.13469
21
-3.62946
0
LINE
8
BLACK
6
CONTINUOUS
10
3.13469
20
-3.62946
11
3.1335
21
-3.62768
0
LINE
8
BLACK
6
CONTINUOUS
10
3.1335
20
-3.62768
11
3.13308
21
-3.62557
0
LINE
8
BLACK
6
CONTINUOUS
10
3.13308
20
-3.62557
11
3.1335
21
-3.62346
0
LINE
8
BLACK
6
CONTINUOUS
10
3.1335
20
-3.62346
11
3.13469
21
-3.62167
0
LINE
8
BLACK
6
CONTINUOUS
10
3.13469
20
-3.62167
11
3.14249
21
-3.61387
0
LINE
8
BLACK
6
CONTINUOUS
10
3.14249
20
-3.61387
11
3.14428
21
-3.61268
0
LINE
8
BLACK
6
CONTINUOUS
10
3.14428
20
-3.61268
11
3.14639
21
-3.61226
0
LINE
8
BLACK
6
CONTINUOUS
10
3.14639
20
-3.61226
11
3.1485
21
-3.61268
0
LINE
8
BLACK
6
CONTINUOUS
10
2.91399
20
-3.60616
11
2.91472
21
-3.60689
0
LINE
8
BLACK
6
CONTINUOUS
10
2.91472
20
-3.60689
11
2.91524
21
-3.60814
0
LINE
8
BLACK
6
CONTINUOUS
10
2.91524
20
-3.60814
11
2.91472
21
-3.6094
0
LINE
8
BLACK
6
CONTINUOUS
10
2.91472
20
-3.6094
11
2.89621
21
-3.62791
0
LINE
8
BLACK
6
CONTINUOUS
10
2.89621
20
-3.62791
11
2.89496
21
-3.62843
0
LINE
8
BLACK
6
CONTINUOUS
10
2.89496
20
-3.62843
11
2.8937
21
-3.62791
0
LINE
8
BLACK
6
CONTINUOUS
10
2.8937
20
-3.62791
11
2.88925
21
-3.62345
0
LINE
8
BLACK
6
CONTINUOUS
10
2.88925
20
-3.62345
11
2.88873
21
-3.6222
0
LINE
8
BLACK
6
CONTINUOUS
10
2.88873
20
-3.6222
11
2.88925
21
-3.62095
0
LINE
8
BLACK
6
CONTINUOUS
10
2.88925
20
-3.62095
11
2.90404
21
-3.60616
0
LINE
8
BLACK
6
CONTINUOUS
10
2.90404
20
-3.60616
11
2.90404
21
-3.60616
0
LINE
8
BLACK
6
CONTINUOUS
10
2.90404
20
-3.60616
11
2.90493
21
-3.60579
0
LINE
8
BLACK
6
CONTINUOUS
10
2.90493
20
-3.60579
11
2.90529
21
-3.60564
0
LINE
8
BLACK
6
CONTINUOUS
10
2.90529
20
-3.60564
11
2.90529
21
-3.60564
0
LINE
8
BLACK
6
CONTINUOUS
10
2.90529
20
-3.60564
11
2.91274
21
-3.60564
0
LINE
8
BLACK
6
CONTINUOUS
10
2.91274
20
-3.60564
11
2.91399
21
-3.60616
0
LINE
8
BLACK
6
CONTINUOUS
10
3.09466
20
-3.60616
11
3.10945
21
-3.62095
0
LINE
8
BLACK
6
CONTINUOUS
10
3.10945
20
-3.62095
11
3.10997
21
-3.6222
0
LINE
8
BLACK
6
CONTINUOUS
10
3.10997
20
-3.6222
11
3.10945
21
-3.62345
0
LINE
8
BLACK
6
CONTINUOUS
10
3.10945
20
-3.62345
11
3.105
21
-3.62791
0
LINE
8
BLACK
6
CONTINUOUS
10
3.105
20
-3.62791
11
3.10375
21
-3.62843
0
LINE
8
BLACK
6
CONTINUOUS
10
3.10375
20
-3.62843
11
3.10249
21
-3.62791
0
LINE
8
BLACK
6
CONTINUOUS
10
3.10249
20
-3.62791
11
3.08398
21
-3.6094
0
LINE
8
BLACK
6
CONTINUOUS
10
3.08398
20
-3.6094
11
3.08346
21
-3.60814
0
LINE
8
BLACK
6
CONTINUOUS
10
3.08346
20
-3.60814
11
3.08398
21
-3.60689
0
LINE
8
BLACK
6
CONTINUOUS
10
3.08398
20
-3.60689
11
3.08472
21
-3.60616
0
LINE
8
BLACK
6
CONTINUOUS
10
3.08472
20
-3.60616
11
3.08472
21
-3.60616
0
LINE
8
BLACK
6
CONTINUOUS
10
3.08472
20
-3.60616
11
3.08545
21
-3.60585
0
LINE
8
BLACK
6
CONTINUOUS
10
3.08545
20
-3.60585
11
3.08597
21
-3.60564
0
LINE
8
BLACK
6
CONTINUOUS
10
3.08597
20
-3.60564
11
3.08597
21
-3.60564
0
LINE
8
BLACK
6
CONTINUOUS
10
3.08597
20
-3.60564
11
3.09341
21
-3.60564
0
LINE
8
BLACK
6
CONTINUOUS
10
3.09341
20
-3.60564
11
3.09466
21
-3.60616
0
LINE
8
BLACK
6
CONTINUOUS
10
2.89621
20
-3.57474
11
2.91472
21
-3.59325
0
LINE
8
BLACK
6
CONTINUOUS
10
2.91472
20
-3.59325
11
2.91524
21
-3.5945
0
LINE
8
BLACK
6
CONTINUOUS
10
2.91524
20
-3.5945
11
2.91472
21
-3.59575
0
LINE
8
BLACK
6
CONTINUOUS
10
2.91472
20
-3.59575
11
2.91399
21
-3.59649
0
LINE
8
BLACK
6
CONTINUOUS
10
2.91399
20
-3.59649
11
2.91274
21
-3.59701
0
LINE
8
BLACK
6
CONTINUOUS
10
2.91274
20
-3.59701
11
2.90529
21
-3.59701
0
LINE
8
BLACK
6
CONTINUOUS
10
2.90529
20
-3.59701
11
2.90529
21
-3.59701
0
LINE
8
BLACK
6
CONTINUOUS
10
2.90529
20
-3.59701
11
2.90493
21
-3.59685
0
LINE
8
BLACK
6
CONTINUOUS
10
2.90493
20
-3.59685
11
2.90404
21
-3.59649
0
LINE
8
BLACK
6
CONTINUOUS
10
2.90404
20
-3.59649
11
2.90404
21
-3.59649
0
LINE
8
BLACK
6
CONTINUOUS
10
2.90404
20
-3.59649
11
2.88925
21
-3.5817
0
LINE
8
BLACK
6
CONTINUOUS
10
2.88925
20
-3.5817
11
2.88873
21
-3.58044
0
LINE
8
BLACK
6
CONTINUOUS
10
2.88873
20
-3.58044
11
2.88925
21
-3.57919
0
LINE
8
BLACK
6
CONTINUOUS
10
2.88925
20
-3.57919
11
2.8937
21
-3.57474
0
LINE
8
BLACK
6
CONTINUOUS
10
2.8937
20
-3.57474
11
2.89496
21
-3.57422
0
LINE
8
BLACK
6
CONTINUOUS
10
2.89496
20
-3.57422
11
2.89621
21
-3.57474
0
LINE
8
BLACK
6
CONTINUOUS
10
3.105
20
-3.57474
11
3.10945
21
-3.57919
0
LINE
8
BLACK
6
CONTINUOUS
10
3.10945
20
-3.57919
11
3.10997
21
-3.58044
0
LINE
8
BLACK
6
CONTINUOUS
10
3.10997
20
-3.58044
11
3.10945
21
-3.5817
0
LINE
8
BLACK
6
CONTINUOUS
10
3.10945
20
-3.5817
11
3.09466
21
-3.59649
0
LINE
8
BLACK
6
CONTINUOUS
10
3.09466
20
-3.59649
11
3.09341
21
-3.59701
0
LINE
8
BLACK
6
CONTINUOUS
10
3.09341
20
-3.59701
11
3.08597
21
-3.59701
0
LINE
8
BLACK
6
CONTINUOUS
10
3.08597
20
-3.59701
11
3.08597
21
-3.59701
0
LINE
8
BLACK
6
CONTINUOUS
10
3.08597
20
-3.59701
11
3.0856
21
-3.59685
0
LINE
8
BLACK
6
CONTINUOUS
10
3.0856
20
-3.59685
11
3.08472
21
-3.59649
0
LINE
8
BLACK
6
CONTINUOUS
10
3.08472
20
-3.59649
11
3.08472
21
-3.59649
0
LINE
8
BLACK
6
CONTINUOUS
10
3.08472
20
-3.59649
11
3.08398
21
-3.59575
0
LINE
8
BLACK
6
CONTINUOUS
10
3.08398
20
-3.59575
11
3.08346
21
-3.5945
0
LINE
8
BLACK
6
CONTINUOUS
10
3.08346
20
-3.5945
11
3.08398
21
-3.59325
0
LINE
8
BLACK
6
CONTINUOUS
10
3.08398
20
-3.59325
11
3.10249
21
-3.57474
0
LINE
8
BLACK
6
CONTINUOUS
10
3.10249
20
-3.57474
11
3.10375
21
-3.57422
0
LINE
8
BLACK
6
CONTINUOUS
10
3.10375
20
-3.57422
11
3.105
21
-3.57474
0
LINE
8
BLACK
6
CONTINUOUS
10
3.15312
20
-3.56559
11
3.15491
21
-3.56678
0
LINE
8
BLACK
6
CONTINUOUS
10
3.15491
20
-3.56678
11
3.1627
21
-3.57457
0
LINE
8
BLACK
6
CONTINUOUS
10
3.1627
20
-3.57457
11
3.1639
21
-3.57636
0
LINE
8
BLACK
6
CONTINUOUS
10
3.1639
20
-3.57636
11
3.16432
21
-3.57847
0
LINE
8
BLACK
6
CONTINUOUS
10
3.16432
20
-3.57847
11
3.1639
21
-3.58058
0
LINE
8
BLACK
6
CONTINUOUS
10
3.1639
20
-3.58058
11
3.1627
21
-3.58237
0
LINE
8
BLACK
6
CONTINUOUS
10
3.1627
20
-3.58237
11
3.15324
21
-3.59184
0
LINE
8
BLACK
6
CONTINUOUS
10
3.15324
20
-3.59184
11
3.15145
21
-3.59303
0
LINE
8
BLACK
6
CONTINUOUS
10
3.15145
20
-3.59303
11
3.14934
21
-3.59345
0
LINE
8
BLACK
6
CONTINUOUS
10
3.14934
20
-3.59345
11
3.14723
21
-3.59303
0
LINE
8
BLACK
6
CONTINUOUS
10
3.14723
20
-3.59303
11
3.14544
21
-3.59184
0
LINE
8
BLACK
6
CONTINUOUS
10
3.14544
20
-3.59184
11
3.13765
21
-3.58404
0
LINE
8
BLACK
6
CONTINUOUS
10
3.13765
20
-3.58404
11
3.13645
21
-3.58225
0
LINE
8
BLACK
6
CONTINUOUS
10
3.13645
20
-3.58225
11
3.13603
21
-3.58014
0
LINE
8
BLACK
6
CONTINUOUS
10
3.13603
20
-3.58014
11
3.13645
21
-3.57803
0
LINE
8
BLACK
6
CONTINUOUS
10
3.13645
20
-3.57803
11
3.13765
21
-3.57625
0
LINE
8
BLACK
6
CONTINUOUS
10
3.13765
20
-3.57625
11
3.14711
21
-3.56678
0
LINE
8
BLACK
6
CONTINUOUS
10
3.14711
20
-3.56678
11
3.1489
21
-3.56559
0
LINE
8
BLACK
6
CONTINUOUS
10
3.1489
20
-3.56559
11
3.15101
21
-3.56517
0
LINE
8
BLACK
6
CONTINUOUS
10
3.15101
20
-3.56517
11
3.15312
21
-3.56559
0
LINE
8
BLACK
6
CONTINUOUS
10
2.90982
20
-3.56077
11
2.91062
21
-3.5613
0
LINE
8
BLACK
6
CONTINUOUS
10
2.91062
20
-3.5613
11
2.93149
21
-3.58218
0
LINE
8
BLACK
6
CONTINUOUS
10
2.93149
20
-3.58218
11
2.93203
21
-3.58298
0
LINE
8
BLACK
6
CONTINUOUS
10
2.93203
20
-3.58298
11
2.93222
21
-3.58392
0
LINE
8
BLACK
6
CONTINUOUS
10
2.93222
20
-3.58392
11
2.93203
21
-3.58486
0
LINE
8
BLACK
6
CONTINUOUS
10
2.93203
20
-3.58486
11
2.93149
21
-3.58566
0
LINE
8
BLACK
6
CONTINUOUS
10
2.93149
20
-3.58566
11
2.92801
21
-3.58914
0
LINE
8
BLACK
6
CONTINUOUS
10
2.92801
20
-3.58914
11
2.92722
21
-3.58968
0
LINE
8
BLACK
6
CONTINUOUS
10
2.92722
20
-3.58968
11
2.92627
21
-3.58986
0
LINE
8
BLACK
6
CONTINUOUS
10
2.92627
20
-3.58986
11
2.92533
21
-3.58968
0
LINE
8
BLACK
6
CONTINUOUS
10
2.92533
20
-3.58968
11
2.92453
21
-3.58914
0
LINE
8
BLACK
6
CONTINUOUS
10
2.92453
20
-3.58914
11
2.90366
21
-3.56826
0
LINE
8
BLACK
6
CONTINUOUS
10
2.90366
20
-3.56826
11
2.90312
21
-3.56746
0
LINE
8
BLACK
6
CONTINUOUS
10
2.90312
20
-3.56746
11
2.90293
21
-3.56652
0
LINE
8
BLACK
6
CONTINUOUS
10
2.90293
20
-3.56652
11
2.90312
21
-3.56558
0
LINE
8
BLACK
6
CONTINUOUS
10
2.90312
20
-3.56558
11
2.90366
21
-3.56478
0
LINE
8
BLACK
6
CONTINUOUS
10
2.90366
20
-3.56478
11
2.90714
21
-3.5613
0
LINE
8
BLACK
6
CONTINUOUS
10
2.90714
20
-3.5613
11
2.90793
21
-3.56077
0
LINE
8
BLACK
6
CONTINUOUS
10
2.90793
20
-3.56077
11
2.90888
21
-3.56058
0
LINE
8
BLACK
6
CONTINUOUS
10
2.90888
20
-3.56058
11
2.90982
21
-3.56077
0
LINE
8
BLACK
6
CONTINUOUS
10
3.09077
20
-3.56077
11
3.09157
21
-3.5613
0
LINE
8
BLACK
6
CONTINUOUS
10
3.09157
20
-3.5613
11
3.09505
21
-3.56478
0
LINE
8
BLACK
6
CONTINUOUS
10
3.09505
20
-3.56478
11
3.09558
21
-3.56558
0
LINE
8
BLACK
6
CONTINUOUS
10
3.09558
20
-3.56558
11
3.09577
21
-3.56652
0
LINE
8
BLACK
6
CONTINUOUS
10
3.09577
20
-3.56652
11
3.09558
21
-3.56746
0
LINE
8
BLACK
6
CONTINUOUS
10
3.09558
20
-3.56746
11
3.09505
21
-3.56826
0
LINE
8
BLACK
6
CONTINUOUS
10
3.09505
20
-3.56826
11
3.07417
21
-3.58914
0
LINE
8
BLACK
6
CONTINUOUS
10
3.07417
20
-3.58914
11
3.07337
21
-3.58968
0
LINE
8
BLACK
6
CONTINUOUS
10
3.07337
20
-3.58968
11
3.07243
21
-3.58986
0
LINE
8
BLACK
6
CONTINUOUS
10
3.07243
20
-3.58986
11
3.07149
21
-3.58968
0
LINE
8
BLACK
6
CONTINUOUS
10
3.07149
20
-3.58968
11
3.07069
21
-3.58914
0
LINE
8
BLACK
6
CONTINUOUS
10
3.07069
20
-3.58914
11
3.06721
21
-3.58566
0
LINE
8
BLACK
6
CONTINUOUS
10
3.06721
20
-3.58566
11
3.06668
21
-3.58486
0
LINE
8
BLACK
6
CONTINUOUS
10
3.06668
20
-3.58486
11
3.06649
21
-3.58392
0
LINE
8
BLACK
6
CONTINUOUS
10
3.06649
20
-3.58392
11
3.06668
21
-3.58298
0
LINE
8
BLACK
6
CONTINUOUS
10
3.06668
20
-3.58298
11
3.06721
21
-3.58218
0
LINE
8
BLACK
6
CONTINUOUS
10
3.06721
20
-3.58218
11
3.08809
21
-3.5613
0
LINE
8
BLACK
6
CONTINUOUS
10
3.08809
20
-3.5613
11
3.08889
21
-3.56077
0
LINE
8
BLACK
6
CONTINUOUS
10
3.08889
20
-3.56077
11
3.08983
21
-3.56058
0
LINE
8
BLACK
6
CONTINUOUS
10
3.08983
20
-3.56058
11
3.09077
21
-3.56077
0
LINE
8
BLACK
6
CONTINUOUS
10
2.92374
20
-3.54685
11
2.92453
21
-3.54738
0
LINE
8
BLACK
6
CONTINUOUS
10
2.92453
20
-3.54738
11
2.94541
21
-3.56826
0
LINE
8
BLACK
6
CONTINUOUS
10
2.94541
20
-3.56826
11
2.94595
21
-3.56906
0
LINE
8
BLACK
6
CONTINUOUS
10
2.94595
20
-3.56906
11
2.94613
21
-3.57
0
LINE
8
BLACK
6
CONTINUOUS
10
2.94613
20
-3.57
11
2.94595
21
-3.57094
0
LINE
8
BLACK
6
CONTINUOUS
10
2.94595
20
-3.57094
11
2.94541
21
-3.57174
0
LINE
8
BLACK
6
CONTINUOUS
10
2.94541
20
-3.57174
11
2.94193
21
-3.57522
0
LINE
8
BLACK
6
CONTINUOUS
10
2.94193
20
-3.57522
11
2.94114
21
-3.57576
0
LINE
8
BLACK
6
CONTINUOUS
10
2.94114
20
-3.57576
11
2.94019
21
-3.57594
0
LINE
8
BLACK
6
CONTINUOUS
10
2.94019
20
-3.57594
11
2.93925
21
-3.57576
0
LINE
8
BLACK
6
CONTINUOUS
10
2.93925
20
-3.57576
11
2.93845
21
-3.57522
0
LINE
8
BLACK
6
CONTINUOUS
10
2.93845
20
-3.57522
11
2.91758
21
-3.55434
0
LINE
8
BLACK
6
CONTINUOUS
10
2.91758
20
-3.55434
11
2.91704
21
-3.55355
0
LINE
8
BLACK
6
CONTINUOUS
10
2.91704
20
-3.55355
11
2.91685
21
-3.5526
0
LINE
8
BLACK
6
CONTINUOUS
10
2.91685
20
-3.5526
11
2.91704
21
-3.55166
0
LINE
8
BLACK
6
CONTINUOUS
10
2.91704
20
-3.55166
11
2.91758
21
-3.55086
0
LINE
8
BLACK
6
CONTINUOUS
10
2.91758
20
-3.55086
11
2.92105
21
-3.54738
0
LINE
8
BLACK
6
CONTINUOUS
10
2.92105
20
-3.54738
11
2.92185
21
-3.54685
0
LINE
8
BLACK
6
CONTINUOUS
10
2.92185
20
-3.54685
11
2.92279
21
-3.54666
0
LINE
8
BLACK
6
CONTINUOUS
10
2.92279
20
-3.54666
11
2.92374
21
-3.54685
0
LINE
8
BLACK
6
CONTINUOUS
10
3.07685
20
-3.54685
11
3.07765
21
-3.54738
0
LINE
8
BLACK
6
CONTINUOUS
10
3.07765
20
-3.54738
11
3.08113
21
-3.55086
0
LINE
8
BLACK
6
CONTINUOUS
10
3.08113
20
-3.55086
11
3.08166
21
-3.55166
0
LINE
8
BLACK
6
CONTINUOUS
10
3.08166
20
-3.55166
11
3.08185
21
-3.5526
0
LINE
8
BLACK
6
CONTINUOUS
10
3.08185
20
-3.5526
11
3.08166
21
-3.55355
0
LINE
8
BLACK
6
CONTINUOUS
10
3.08166
20
-3.55355
11
3.08113
21
-3.55434
0
LINE
8
BLACK
6
CONTINUOUS
10
3.08113
20
-3.55434
11
3.06025
21
-3.57522
0
LINE
8
BLACK
6
CONTINUOUS
10
3.06025
20
-3.57522
11
3.05945
21
-3.57576
0
LINE
8
BLACK
6
CONTINUOUS
10
3.05945
20
-3.57576
11
3.05851
21
-3.57594
0
LINE
8
BLACK
6
CONTINUOUS
10
3.05851
20
-3.57594
11
3.05757
21
-3.57576
0
LINE
8
BLACK
6
CONTINUOUS
10
3.05757
20
-3.57576
11
3.05677
21
-3.57522
0
LINE
8
BLACK
6
CONTINUOUS
10
3.05677
20
-3.57522
11
3.05329
21
-3.57174
0
LINE
8
BLACK
6
CONTINUOUS
10
3.05329
20
-3.57174
11
3.05276
21
-3.57094
0
LINE
8
BLACK
6
CONTINUOUS
10
3.05276
20
-3.57094
11
3.05257
21
-3.57
0
LINE
8
BLACK
6
CONTINUOUS
10
3.05257
20
-3.57
11
3.05276
21
-3.56906
0
LINE
8
BLACK
6
CONTINUOUS
10
3.05276
20
-3.56906
11
3.05329
21
-3.56826
0
LINE
8
BLACK
6
CONTINUOUS
10
3.05329
20
-3.56826
11
3.07417
21
-3.54738
0
LINE
8
BLACK
6
CONTINUOUS
10
3.07417
20
-3.54738
11
3.07497
21
-3.54685
0
LINE
8
BLACK
6
CONTINUOUS
10
3.07497
20
-3.54685
11
3.07591
21
-3.54666
0
LINE
8
BLACK
6
CONTINUOUS
10
3.07591
20
-3.54666
11
3.07685
21
-3.54685
0
LINE
8
BLACK
6
CONTINUOUS
10
3.12639
20
-3.53886
11
3.12818
21
-3.54005
0
LINE
8
BLACK
6
CONTINUOUS
10
3.12818
20
-3.54005
11
3.13598
21
-3.54785
0
LINE
8
BLACK
6
CONTINUOUS
10
3.13598
20
-3.54785
11
3.13717
21
-3.54964
0
LINE
8
BLACK
6
CONTINUOUS
10
3.13717
20
-3.54964
11
3.13759
21
-3.55175
0
LINE
8
BLACK
6
CONTINUOUS
10
3.13759
20
-3.55175
11
3.13717
21
-3.55386
0
LINE
8
BLACK
6
CONTINUOUS
10
3.13717
20
-3.55386
11
3.13598
21
-3.55564
0
LINE
8
BLACK
6
CONTINUOUS
10
3.13598
20
-3.55564
11
3.12651
21
-3.56511
0
LINE
8
BLACK
6
CONTINUOUS
10
3.12651
20
-3.56511
11
3.12472
21
-3.5663
0
LINE
8
BLACK
6
CONTINUOUS
10
3.12472
20
-3.5663
11
3.12261
21
-3.56672
0
LINE
8
BLACK
6
CONTINUOUS
10
3.12261
20
-3.56672
11
3.1205
21
-3.5663
0
LINE
8
BLACK
6
CONTINUOUS
10
3.1205
20
-3.5663
11
3.11872
21
-3.56511
0
LINE
8
BLACK
6
CONTINUOUS
10
3.11872
20
-3.56511
11
3.11092
21
-3.55731
0
LINE
8
BLACK
6
CONTINUOUS
10
3.11092
20
-3.55731
11
3.10973
21
-3.55553
0
LINE
8
BLACK
6
CONTINUOUS
10
3.10973
20
-3.55553
11
3.10931
21
-3.55342
0
LINE
8
BLACK
6
CONTINUOUS
10
3.10931
20
-3.55342
11
3.10973
21
-3.55131
0
LINE
8
BLACK
6
CONTINUOUS
10
3.10973
20
-3.55131
11
3.11092
21
-3.54952
0
LINE
8
BLACK
6
CONTINUOUS
10
3.11092
20
-3.54952
11
3.12039
21
-3.54005
0
LINE
8
BLACK
6
CONTINUOUS
10
3.12039
20
-3.54005
11
3.12217
21
-3.53886
0
LINE
8
BLACK
6
CONTINUOUS
10
3.12217
20
-3.53886
11
3.12428
21
-3.53844
0
LINE
8
BLACK
6
CONTINUOUS
10
3.12428
20
-3.53844
11
3.12639
21
-3.53886
0
LINE
8
BLACK
6
CONTINUOUS
10
2.93766
20
-3.53293
11
2.93845
21
-3.53346
0
LINE
8
BLACK
6
CONTINUOUS
10
2.93845
20
-3.53346
11
2.95933
21
-3.55434
0
LINE
8
BLACK
6
CONTINUOUS
10
2.95933
20
-3.55434
11
2.95987
21
-3.55514
0
LINE
8
BLACK
6
CONTINUOUS
10
2.95987
20
-3.55514
11
2.96005
21
-3.55608
0
LINE
8
BLACK
6
CONTINUOUS
10
2.96005
20
-3.55608
11
2.95987
21
-3.55703
0
LINE
8
BLACK
6
CONTINUOUS
10
2.95987
20
-3.55703
11
2.95933
21
-3.55782
0
LINE
8
BLACK
6
CONTINUOUS
10
2.95933
20
-3.55782
11
2.95585
21
-3.5613
0
LINE
8
BLACK
6
CONTINUOUS
10
2.95585
20
-3.5613
11
2.95506
21
-3.56184
0
LINE
8
BLACK
6
CONTINUOUS
10
2.95506
20
-3.56184
11
2.95411
21
-3.56202
0
LINE
8
BLACK
6
CONTINUOUS
10
2.95411
20
-3.56202
11
2.95317
21
-3.56184
0
LINE
8
BLACK
6
CONTINUOUS
10
2.95317
20
-3.56184
11
2.95237
21
-3.5613
0
LINE
8
BLACK
6
CONTINUOUS
10
2.95237
20
-3.5613
11
2.93149
21
-3.54042
0
LINE
8
BLACK
6
CONTINUOUS
10
2.93149
20
-3.54042
11
2.93096
21
-3.53963
0
LINE
8
BLACK
6
CONTINUOUS
10
2.93096
20
-3.53963
11
2.93077
21
-3.53868
0
LINE
8
BLACK
6
CONTINUOUS
10
2.93077
20
-3.53868
11
2.93096
21
-3.53774
0
LINE
8
BLACK
6
CONTINUOUS
10
2.93096
20
-3.53774
11
2.93149
21
-3.53694
0
LINE
8
BLACK
6
CONTINUOUS
10
2.93149
20
-3.53694
11
2.93497
21
-3.53346
0
LINE
8
BLACK
6
CONTINUOUS
10
2.93497
20
-3.53346
11
2.93577
21
-3.53293
0
LINE
8
BLACK
6
CONTINUOUS
10
2.93577
20
-3.53293
11
2.93671
21
-3.53274
0
LINE
8
BLACK
6
CONTINUOUS
10
2.93671
20
-3.53274
11
2.93766
21
-3.53293
0
LINE
8
BLACK
6
CONTINUOUS
10
3.06293
20
-3.53293
11
3.06373
21
-3.53346
0
LINE
8
BLACK
6
CONTINUOUS
10
3.06373
20
-3.53346
11
3.06721
21
-3.53694
0
LINE
8
BLACK
6
CONTINUOUS
10
3.06721
20
-3.53694
11
3.06774
21
-3.53774
0
LINE
8
BLACK
6
CONTINUOUS
10
3.06774
20
-3.53774
11
3.06793
21
-3.53868
0
LINE
8
BLACK
6
CONTINUOUS
10
3.06793
20
-3.53868
11
3.06774
21
-3.53963
0
LINE
8
BLACK
6
CONTINUOUS
10
3.06774
20
-3.53963
11
3.06721
21
-3.54042
0
LINE
8
BLACK
6
CONTINUOUS
10
3.06721
20
-3.54042
11
3.04633
21
-3.5613
0
LINE
8
BLACK
6
CONTINUOUS
10
3.04633
20
-3.5613
11
3.04553
21
-3.56184
0
LINE
8
BLACK
6
CONTINUOUS
10
3.04553
20
-3.56184
11
3.04459
21
-3.56202
0
LINE
8
BLACK
6
CONTINUOUS
10
3.04459
20
-3.56202
11
3.04365
21
-3.56184
0
LINE
8
BLACK
6
CONTINUOUS
10
3.04365
20
-3.56184
11
3.04285
21
-3.5613
0
LINE
8
BLACK
6
CONTINUOUS
10
3.04285
20
-3.5613
11
3.03937
21
-3.55782
0
LINE
8
BLACK
6
CONTINUOUS
10
3.03937
20
-3.55782
11
3.03884
21
-3.55703
0
LINE
8
BLACK
6
CONTINUOUS
10
3.03884
20
-3.55703
11
3.03865
21
-3.55608
0
LINE
8
BLACK
6
CONTINUOUS
10
3.03865
20
-3.55608
11
3.03884
21
-3.55514
0
LINE
8
BLACK
6
CONTINUOUS
10
3.03884
20
-3.55514
11
3.03937
21
-3.55434
0
LINE
8
BLACK
6
CONTINUOUS
10
3.03937
20
-3.55434
11
3.06025
21
-3.53346
0
LINE
8
BLACK
6
CONTINUOUS
10
3.06025
20
-3.53346
11
3.06105
21
-3.53293
0
LINE
8
BLACK
6
CONTINUOUS
10
3.06105
20
-3.53293
11
3.06199
21
-3.53274
0
LINE
8
BLACK
6
CONTINUOUS
10
3.06199
20
-3.53274
11
3.06293
21
-3.53293
0
LINE
8
BLACK
6
CONTINUOUS
10
2.95158
20
-3.51901
11
2.95237
21
-3.51955
0
LINE
8
BLACK
6
CONTINUOUS
10
2.95237
20
-3.51955
11
2.97325
21
-3.54042
0
LINE
8
BLACK
6
CONTINUOUS
10
2.97325
20
-3.54042
11
2.97379
21
-3.54122
0
LINE
8
BLACK
6
CONTINUOUS
10
2.97379
20
-3.54122
11
2.97397
21
-3.54216
0
LINE
8
BLACK
6
CONTINUOUS
10
2.97397
20
-3.54216
11
2.97379
21
-3.54311
0
LINE
8
BLACK
6
CONTINUOUS
10
2.97379
20
-3.54311
11
2.97325
21
-3.5439
0
LINE
8
BLACK
6
CONTINUOUS
10
2.97325
20
-3.5439
11
2.96977
21
-3.54738
0
LINE
8
BLACK
6
CONTINUOUS
10
2.96977
20
-3.54738
11
2.96897
21
-3.54792
0
LINE
8
BLACK
6
CONTINUOUS
10
2.96897
20
-3.54792
11
2.96803
21
-3.5481
0
LINE
8
BLACK
6
CONTINUOUS
10
2.96803
20
-3.5481
11
2.96709
21
-3.54792
0
LINE
8
BLACK
6
CONTINUOUS
10
2.96709
20
-3.54792
11
2.96629
21
-3.54738
0
LINE
8
BLACK
6
CONTINUOUS
10
2.96629
20
-3.54738
11
2.94541
21
-3.5265
0
LINE
8
BLACK
6
CONTINUOUS
10
2.94541
20
-3.5265
11
2.94488
21
-3.52571
0
LINE
8
BLACK
6
CONTINUOUS
10
2.94488
20
-3.52571
11
2.94469
21
-3.52476
0
LINE
8
BLACK
6
CONTINUOUS
10
2.94469
20
-3.52476
11
2.94488
21
-3.52382
0
LINE
8
BLACK
6
CONTINUOUS
10
2.94488
20
-3.52382
11
2.94541
21
-3.52303
0
LINE
8
BLACK
6
CONTINUOUS
10
2.94541
20
-3.52303
11
2.94889
21
-3.51955
0
LINE
8
BLACK
6
CONTINUOUS
10
2.94889
20
-3.51955
11
2.94969
21
-3.51901
0
LINE
8
BLACK
6
CONTINUOUS
10
2.94969
20
-3.51901
11
2.95063
21
-3.51882
0
LINE
8
BLACK
6
CONTINUOUS
10
2.95063
20
-3.51882
11
2.95158
21
-3.51901
0
LINE
8
BLACK
6
CONTINUOUS
10
3.04901
20
-3.51901
11
3.04981
21
-3.51955
0
LINE
8
BLACK
6
CONTINUOUS
10
3.04981
20
-3.51955
11
3.05329
21
-3.52303
0
LINE
8
BLACK
6
CONTINUOUS
10
3.05329
20
-3.52303
11
3.05382
21
-3.52382
0
LINE
8
BLACK
6
CONTINUOUS
10
3.05382
20
-3.52382
11
3.05401
21
-3.52476
0
LINE
8
BLACK
6
CONTINUOUS
10
3.05401
20
-3.52476
11
3.05382
21
-3.52571
0
LINE
8
BLACK
6
CONTINUOUS
10
3.05382
20
-3.52571
11
3.05329
21
-3.5265
0
LINE
8
BLACK
6
CONTINUOUS
10
3.05329
20
-3.5265
11
3.03241
21
-3.54738
0
LINE
8
BLACK
6
CONTINUOUS
10
3.03241
20
-3.54738
11
3.03161
21
-3.54792
0
LINE
8
BLACK
6
CONTINUOUS
10
3.03161
20
-3.54792
11
3.03067
21
-3.5481
0
LINE
8
BLACK
6
CONTINUOUS
10
3.03067
20
-3.5481
11
3.02973
21
-3.54792
0
LINE
8
BLACK
6
CONTINUOUS
10
3.02973
20
-3.54792
11
3.02893
21
-3.54738
0
LINE
8
BLACK
6
CONTINUOUS
10
3.02893
20
-3.54738
11
3.02545
21
-3.5439
0
LINE
8
BLACK
6
CONTINUOUS
10
3.02545
20
-3.5439
11
3.02492
21
-3.54311
0
LINE
8
BLACK
6
CONTINUOUS
10
3.02492
20
-3.54311
11
3.02473
21
-3.54216
0
LINE
8
BLACK
6
CONTINUOUS
10
3.02473
20
-3.54216
11
3.02492
21
-3.54122
0
LINE
8
BLACK
6
CONTINUOUS
10
3.02492
20
-3.54122
11
3.02545
21
-3.54042
0
LINE
8
BLACK
6
CONTINUOUS
10
3.02545
20
-3.54042
11
3.04633
21
-3.51955
0
LINE
8
BLACK
6
CONTINUOUS
10
3.04633
20
-3.51955
11
3.04713
21
-3.51901
0
LINE
8
BLACK
6
CONTINUOUS
10
3.04713
20
-3.51901
11
3.04807
21
-3.51882
0
LINE
8
BLACK
6
CONTINUOUS
10
3.04807
20
-3.51882
11
3.04901
21
-3.51901
0
LINE
8
BLACK
6
CONTINUOUS
10
2.96549
20
-3.50509
11
2.96629
21
-3.50563
0
LINE
8
BLACK
6
CONTINUOUS
10
2.96629
20
-3.50563
11
2.98717
21
-3.5265
0
LINE
8
BLACK
6
CONTINUOUS
10
2.98717
20
-3.5265
11
2.98771
21
-3.5273
0
LINE
8
BLACK
6
CONTINUOUS
10
2.98771
20
-3.5273
11
2.98789
21
-3.52824
0
LINE
8
BLACK
6
CONTINUOUS
10
2.98789
20
-3.52824
11
2.98771
21
-3.52919
0
LINE
8
BLACK
6
CONTINUOUS
10
2.98771
20
-3.52919
11
2.98717
21
-3.52998
0
LINE
8
BLACK
6
CONTINUOUS
10
2.98717
20
-3.52998
11
2.98369
21
-3.53346
0
LINE
8
BLACK
6
CONTINUOUS
10
2.98369
20
-3.53346
11
2.98289
21
-3.534
0
LINE
8
BLACK
6
CONTINUOUS
10
2.98289
20
-3.534
11
2.98195
21
-3.53419
0
LINE
8
BLACK
6
CONTINUOUS
10
2.98195
20
-3.53419
11
2.98101
21
-3.534
0
LINE
8
BLACK
6
CONTINUOUS
10
2.98101
20
-3.534
11
2.98021
21
-3.53346
0
LINE
8
BLACK
6
CONTINUOUS
10
2.98021
20
-3.53346
11
2.95933
21
-3.51259
0
LINE
8
BLACK
6
CONTINUOUS
10
2.95933
20
-3.51259
11
2.9588
21
-3.51179
0
LINE
8
BLACK
6
CONTINUOUS
10
2.9588
20
-3.51179
11
2.95861
21
-3.51085
0
LINE
8
BLACK
6
CONTINUOUS
10
2.95861
20
-3.51085
11
2.9588
21
-3.5099
0
LINE
8
BLACK
6
CONTINUOUS
10
2.9588
20
-3.5099
11
2.95933
21
-3.50911
0
LINE
8
BLACK
6
CONTINUOUS
10
2.95933
20
-3.50911
11
2.96281
21
-3.50563
0
LINE
8
BLACK
6
CONTINUOUS
10
2.96281
20
-3.50563
11
2.96361
21
-3.50509
0
LINE
8
BLACK
6
CONTINUOUS
10
2.96361
20
-3.50509
11
2.96455
21
-3.50491
0
LINE
8
BLACK
6
CONTINUOUS
10
2.96455
20
-3.50491
11
2.96549
21
-3.50509
0
LINE
8
BLACK
6
CONTINUOUS
10
3.03509
20
-3.50509
11
3.03589
21
-3.50563
0
LINE
8
BLACK
6
CONTINUOUS
10
3.03589
20
-3.50563
11
3.03937
21
-3.50911
0
LINE
8
BLACK
6
CONTINUOUS
10
3.03937
20
-3.50911
11
3.0399
21
-3.5099
0
LINE
8
BLACK
6
CONTINUOUS
10
3.0399
20
-3.5099
11
3.04009
21
-3.51085
0
LINE
8
BLACK
6
CONTINUOUS
10
3.04009
20
-3.51085
11
3.0399
21
-3.51179
0
LINE
8
BLACK
6
CONTINUOUS
10
3.0399
20
-3.51179
11
3.03937
21
-3.51259
0
LINE
8
BLACK
6
CONTINUOUS
10
3.03937
20
-3.51259
11
3.01849
21
-3.53346
0
LINE
8
BLACK
6
CONTINUOUS
10
3.01849
20
-3.53346
11
3.01769
21
-3.534
0
LINE
8
BLACK
6
CONTINUOUS
10
3.01769
20
-3.534
11
3.01675
21
-3.53419
0
LINE
8
BLACK
6
CONTINUOUS
10
3.01675
20
-3.53419
11
3.01581
21
-3.534
0
LINE
8
BLACK
6
CONTINUOUS
10
3.01581
20
-3.534
11
3.01501
21
-3.53346
0
LINE
8
BLACK
6
CONTINUOUS
10
3.01501
20
-3.53346
11
3.01153
21
-3.52998
0
LINE
8
BLACK
6
CONTINUOUS
10
3.01153
20
-3.52998
11
3.011
21
-3.52919
0
LINE
8
BLACK
6
CONTINUOUS
10
3.011
20
-3.52919
11
3.01081
21
-3.52824
0
LINE
8
BLACK
6
CONTINUOUS
10
3.01081
20
-3.52824
11
3.011
21
-3.5273
0
LINE
8
BLACK
6
CONTINUOUS
10
3.011
20
-3.5273
11
3.01153
21
-3.5265
0
LINE
8
BLACK
6
CONTINUOUS
10
3.01153
20
-3.5265
11
3.03241
21
-3.50563
0
LINE
8
BLACK
6
CONTINUOUS
10
3.03241
20
-3.50563
11
3.03321
21
-3.50509
0
LINE
8
BLACK
6
CONTINUOUS
10
3.03321
20
-3.50509
11
3.03415
21
-3.50491
0
LINE
8
BLACK
6
CONTINUOUS
10
3.03415
20
-3.50491
11
3.03509
21
-3.50509
0
LINE
8
BLACK
6
CONTINUOUS
10
2.91429
20
-3.49964
11
2.91608
21
-3.50084
0
LINE
8
BLACK
6
CONTINUOUS
10
2.91608
20
-3.50084
11
2.92554
21
-3.5103
0
LINE
8
BLACK
6
CONTINUOUS
10
2.92554
20
-3.5103
11
2.92674
21
-3.51209
0
LINE
8
BLACK
6
CONTINUOUS
10
2.92674
20
-3.51209
11
2.92716
21
-3.5142
0
LINE
8
BLACK
6
CONTINUOUS
10
2.92716
20
-3.5142
11
2.92674
21
-3.51631
0
LINE
8
BLACK
6
CONTINUOUS
10
2.92674
20
-3.51631
11
2.92554
21
-3.5181
0
LINE
8
BLACK
6
CONTINUOUS
10
2.92554
20
-3.5181
11
2.91775
21
-3.52589
0
LINE
8
BLACK
6
CONTINUOUS
10
2.91775
20
-3.52589
11
2.91596
21
-3.52708
0
LINE
8
BLACK
6
CONTINUOUS
10
2.91596
20
-3.52708
11
2.91385
21
-3.5275
0
LINE
8
BLACK
6
CONTINUOUS
10
2.91385
20
-3.5275
11
2.91174
21
-3.52708
0
LINE
8
BLACK
6
CONTINUOUS
10
2.91174
20
-3.52708
11
2.90995
21
-3.52589
0
LINE
8
BLACK
6
CONTINUOUS
10
2.90995
20
-3.52589
11
2.90049
21
-3.51642
0
LINE
8
BLACK
6
CONTINUOUS
10
2.90049
20
-3.51642
11
2.89929
21
-3.51464
0
LINE
8
BLACK
6
CONTINUOUS
10
2.89929
20
-3.51464
11
2.89887
21
-3.51253
0
LINE
8
BLACK
6
CONTINUOUS
10
2.89887
20
-3.51253
11
2.89929
21
-3.51042
0
LINE
8
BLACK
6
CONTINUOUS
10
2.89929
20
-3.51042
11
2.90049
21
-3.50863
0
LINE
8
BLACK
6
CONTINUOUS
10
2.90049
20
-3.50863
11
2.90828
21
-3.50084
0
LINE
8
BLACK
6
CONTINUOUS
10
2.90828
20
-3.50084
11
2.91007
21
-3.49964
0
LINE
8
BLACK
6
CONTINUOUS
10
2.91007
20
-3.49964
11
2.91218
21
-3.49922
0
LINE
8
BLACK
6
CONTINUOUS
10
2.91218
20
-3.49922
11
2.91429
21
-3.49964
0
LINE
8
BLACK
6
CONTINUOUS
10
3.07458
20
-3.50487
11
3.07586
21
-3.50572
0
LINE
8
BLACK
6
CONTINUOUS
10
3.07586
20
-3.50572
11
3.0831
21
-3.51296
0
LINE
8
BLACK
6
CONTINUOUS
10
3.0831
20
-3.51296
11
3.08395
21
-3.51424
0
LINE
8
BLACK
6
CONTINUOUS
10
3.08395
20
-3.51424
11
3.08425
21
-3.51574
0
LINE
8
BLACK
6
CONTINUOUS
10
3.08425
20
-3.51574
11
3.08395
21
-3.51725
0
LINE
8
BLACK
6
CONTINUOUS
10
3.08395
20
-3.51725
11
3.0831
21
-3.51853
0
LINE
8
BLACK
6
CONTINUOUS
10
3.0831
20
-3.51853
11
3.07753
21
-3.5241
0
LINE
8
BLACK
6
CONTINUOUS
10
3.07753
20
-3.5241
11
3.07625
21
-3.52495
0
LINE
8
BLACK
6
CONTINUOUS
10
3.07625
20
-3.52495
11
3.07474
21
-3.52525
0
LINE
8
BLACK
6
CONTINUOUS
10
3.07474
20
-3.52525
11
3.07324
21
-3.52495
0
LINE
8
BLACK
6
CONTINUOUS
10
3.07324
20
-3.52495
11
3.07196
21
-3.5241
0
LINE
8
BLACK
6
CONTINUOUS
10
3.07196
20
-3.5241
11
3.06472
21
-3.51686
0
LINE
8
BLACK
6
CONTINUOUS
10
3.06472
20
-3.51686
11
3.06387
21
-3.51558
0
LINE
8
BLACK
6
CONTINUOUS
10
3.06387
20
-3.51558
11
3.06357
21
-3.51407
0
LINE
8
BLACK
6
CONTINUOUS
10
3.06357
20
-3.51407
11
3.06387
21
-3.51257
0
LINE
8
BLACK
6
CONTINUOUS
10
3.06387
20
-3.51257
11
3.06472
21
-3.51129
0
LINE
8
BLACK
6
CONTINUOUS
10
3.06472
20
-3.51129
11
3.07029
21
-3.50572
0
LINE
8
BLACK
6
CONTINUOUS
10
3.07029
20
-3.50572
11
3.07157
21
-3.50487
0
LINE
8
BLACK
6
CONTINUOUS
10
3.07157
20
-3.50487
11
3.07307
21
-3.50457
0
LINE
8
BLACK
6
CONTINUOUS
10
3.07307
20
-3.50457
11
3.07458
21
-3.50487
0
LINE
8
BLACK
6
CONTINUOUS
10
3.11372
20
-3.49621
11
3.11551
21
-3.49741
0
LINE
8
BLACK
6
CONTINUOUS
10
3.11551
20
-3.49741
11
3.11671
21
-3.4992
0
LINE
8
BLACK
6
CONTINUOUS
10
3.11671
20
-3.4992
11
3.11713
21
-3.50131
0
LINE
8
BLACK
6
CONTINUOUS
10
3.11713
20
-3.50131
11
3.11713
21
-3.51469
0
LINE
8
BLACK
6
CONTINUOUS
10
3.11713
20
-3.51469
11
3.11671
21
-3.5168
0
LINE
8
BLACK
6
CONTINUOUS
10
3.11671
20
-3.5168
11
3.11551
21
-3.51859
0
LINE
8
BLACK
6
CONTINUOUS
10
3.11551
20
-3.51859
11
3.11372
21
-3.51979
0
LINE
8
BLACK
6
CONTINUOUS
10
3.11372
20
-3.51979
11
3.11161
21
-3.5202
0
LINE
8
BLACK
6
CONTINUOUS
10
3.11161
20
-3.5202
11
3.10059
21
-3.5202
0
LINE
8
BLACK
6
CONTINUOUS
10
3.10059
20
-3.5202
11
3.09848
21
-3.51979
0
LINE
8
BLACK
6
CONTINUOUS
10
3.09848
20
-3.51979
11
3.09669
21
-3.51859
0
LINE
8
BLACK
6
CONTINUOUS
10
3.09669
20
-3.51859
11
3.0955
21
-3.5168
0
LINE
8
BLACK
6
CONTINUOUS
10
3.0955
20
-3.5168
11
3.09508
21
-3.51469
0
LINE
8
BLACK
6
CONTINUOUS
10
3.09508
20
-3.51469
11
3.09508
21
-3.50131
0
LINE
8
BLACK
6
CONTINUOUS
10
3.09508
20
-3.50131
11
3.0955
21
-3.4992
0
LINE
8
BLACK
6
CONTINUOUS
10
3.0955
20
-3.4992
11
3.09669
21
-3.49741
0
LINE
8
BLACK
6
CONTINUOUS
10
3.09669
20
-3.49741
11
3.09848
21
-3.49621
0
LINE
8
BLACK
6
CONTINUOUS
10
3.09848
20
-3.49621
11
3.10059
21
-3.4958
0
LINE
8
BLACK
6
CONTINUOUS
10
3.10059
20
-3.4958
11
3.11161
21
-3.4958
0
LINE
8
BLACK
6
CONTINUOUS
10
3.11161
20
-3.4958
11
3.11372
21
-3.49621
0
LINE
8
BLACK
6
CONTINUOUS
10
3.15152
20
-3.49621
11
3.15331
21
-3.49741
0
LINE
8
BLACK
6
CONTINUOUS
10
3.15331
20
-3.49741
11
3.1545
21
-3.4992
0
LINE
8
BLACK
6
CONTINUOUS
10
3.1545
20
-3.4992
11
3.15492
21
-3.50131
0
LINE
8
BLACK
6
CONTINUOUS
10
3.15492
20
-3.50131
11
3.15492
21
-3.51469
0
LINE
8
BLACK
6
CONTINUOUS
10
3.15492
20
-3.51469
11
3.1545
21
-3.5168
0
LINE
8
BLACK
6
CONTINUOUS
10
3.1545
20
-3.5168
11
3.15331
21
-3.51859
0
LINE
8
BLACK
6
CONTINUOUS
10
3.15331
20
-3.51859
11
3.15152
21
-3.51979
0
LINE
8
BLACK
6
CONTINUOUS
10
3.15152
20
-3.51979
11
3.14941
21
-3.5202
0
LINE
8
BLACK
6
CONTINUOUS
10
3.14941
20
-3.5202
11
3.13839
21
-3.5202
0
LINE
8
BLACK
6
CONTINUOUS
10
3.13839
20
-3.5202
11
3.13628
21
-3.51979
0
LINE
8
BLACK
6
CONTINUOUS
10
3.13628
20
-3.51979
11
3.13449
21
-3.51859
0
LINE
8
BLACK
6
CONTINUOUS
10
3.13449
20
-3.51859
11
3.13329
21
-3.5168
0
LINE
8
BLACK
6
CONTINUOUS
10
3.13329
20
-3.5168
11
3.13287
21
-3.51469
0
LINE
8
BLACK
6
CONTINUOUS
10
3.13287
20
-3.51469
11
3.13287
21
-3.50131
0
LINE
8
BLACK
6
CONTINUOUS
10
3.13287
20
-3.50131
11
3.13329
21
-3.4992
0
LINE
8
BLACK
6
CONTINUOUS
10
3.13329
20
-3.4992
11
3.13449
21
-3.49741
0
LINE
8
BLACK
6
CONTINUOUS
10
3.13449
20
-3.49741
11
3.13628
21
-3.49621
0
LINE
8
BLACK
6
CONTINUOUS
10
3.13628
20
-3.49621
11
3.13839
21
-3.4958
0
LINE
8
BLACK
6
CONTINUOUS
10
3.13839
20
-3.4958
11
3.14941
21
-3.4958
0
LINE
8
BLACK
6
CONTINUOUS
10
3.14941
20
-3.4958
11
3.15152
21
-3.49621
0
LINE
8
BLACK
6
CONTINUOUS
10
2.97973
20
-3.49122
11
2.99452
21
-3.50601
0
LINE
8
BLACK
6
CONTINUOUS
10
2.99452
20
-3.50601
11
2.99452
21
-3.50601
0
LINE
8
BLACK
6
CONTINUOUS
10
2.99452
20
-3.50601
11
2.99488
21
-3.5069
0
LINE
8
BLACK
6
CONTINUOUS
10
2.99488
20
-3.5069
11
2.99504
21
-3.50726
0
LINE
8
BLACK
6
CONTINUOUS
10
2.99504
20
-3.50726
11
2.99504
21
-3.50726
0
LINE
8
BLACK
6
CONTINUOUS
10
2.99504
20
-3.50726
11
2.99504
21
-3.51471
0
LINE
8
BLACK
6
CONTINUOUS
10
2.99504
20
-3.51471
11
2.99452
21
-3.51596
0
LINE
8
BLACK
6
CONTINUOUS
10
2.99452
20
-3.51596
11
2.99378
21
-3.51669
0
LINE
8
BLACK
6
CONTINUOUS
10
2.99378
20
-3.51669
11
2.99253
21
-3.51721
0
LINE
8
BLACK
6
CONTINUOUS
10
2.99253
20
-3.51721
11
2.99128
21
-3.51669
0
LINE
8
BLACK
6
CONTINUOUS
10
2.99128
20
-3.51669
11
2.97277
21
-3.49818
0
LINE
8
BLACK
6
CONTINUOUS
10
2.97277
20
-3.49818
11
2.97225
21
-3.49693
0
LINE
8
BLACK
6
CONTINUOUS
10
2.97225
20
-3.49693
11
2.97277
21
-3.49567
0
LINE
8
BLACK
6
CONTINUOUS
10
2.97277
20
-3.49567
11
2.97722
21
-3.49122
0
LINE
8
BLACK
6
CONTINUOUS
10
2.97722
20
-3.49122
11
2.97847
21
-3.4907
0
LINE
8
BLACK
6
CONTINUOUS
10
2.97847
20
-3.4907
11
2.97973
21
-3.49122
0
LINE
8
BLACK
6
CONTINUOUS
10
3.02148
20
-3.49122
11
3.02594
21
-3.49567
0
LINE
8
BLACK
6
CONTINUOUS
10
3.02594
20
-3.49567
11
3.02646
21
-3.49693
0
LINE
8
BLACK
6
CONTINUOUS
10
3.02646
20
-3.49693
11
3.02594
21
-3.49818
0
LINE
8
BLACK
6
CONTINUOUS
10
3.02594
20
-3.49818
11
3.00743
21
-3.51669
0
LINE
8
BLACK
6
CONTINUOUS
10
3.00743
20
-3.51669
11
3.00617
21
-3.51721
0
LINE
8
BLACK
6
CONTINUOUS
10
3.00617
20
-3.51721
11
3.00492
21
-3.51669
0
LINE
8
BLACK
6
CONTINUOUS
10
3.00492
20
-3.51669
11
3.00419
21
-3.51596
0
LINE
8
BLACK
6
CONTINUOUS
10
3.00419
20
-3.51596
11
3.00367
21
-3.51471
0
LINE
8
BLACK
6
CONTINUOUS
10
3.00367
20
-3.51471
11
3.00367
21
-3.50726
0
LINE
8
BLACK
6
CONTINUOUS
10
3.00367
20
-3.50726
11
3.00367
21
-3.50726
0
LINE
8
BLACK
6
CONTINUOUS
10
3.00367
20
-3.50726
11
3.00367
21
-3.50726
0
LINE
8
BLACK
6
CONTINUOUS
10
3.00367
20
-3.50726
11
3.00419
21
-3.50601
0
LINE
8
BLACK
6
CONTINUOUS
10
3.00419
20
-3.50601
11
3.00419
21
-3.50601
0
LINE
8
BLACK
6
CONTINUOUS
10
3.00419
20
-3.50601
11
3.01898
21
-3.49122
0
LINE
8
BLACK
6
CONTINUOUS
10
3.01898
20
-3.49122
11
3.02023
21
-3.4907
0
LINE
8
BLACK
6
CONTINUOUS
10
3.02023
20
-3.4907
11
3.02148
21
-3.49122
0
LINE
8
BLACK
6
CONTINUOUS
10
3.05676
20
-3.48705
11
3.05804
21
-3.4879
0
LINE
8
BLACK
6
CONTINUOUS
10
3.05804
20
-3.4879
11
3.06528
21
-3.49514
0
LINE
8
BLACK
6
CONTINUOUS
10
3.06528
20
-3.49514
11
3.06613
21
-3.49642
0
LINE
8
BLACK
6
CONTINUOUS
10
3.06613
20
-3.49642
11
3.06643
21
-3.49793
0
LINE
8
BLACK
6
CONTINUOUS
10
3.06643
20
-3.49793
11
3.06613
21
-3.49943
0
LINE
8
BLACK
6
CONTINUOUS
10
3.06613
20
-3.49943
11
3.06528
21
-3.50071
0
LINE
8
BLACK
6
CONTINUOUS
10
3.06528
20
-3.50071
11
3.05971
21
-3.50628
0
LINE
8
BLACK
6
CONTINUOUS
10
3.05971
20
-3.50628
11
3.05843
21
-3.50713
0
LINE
8
BLACK
6
CONTINUOUS
10
3.05843
20
-3.50713
11
3.05693
21
-3.50743
0
LINE
8
BLACK
6
CONTINUOUS
10
3.05693
20
-3.50743
11
3.05542
21
-3.50713
0
LINE
8
BLACK
6
CONTINUOUS
10
3.05542
20
-3.50713
11
3.05414
21
-3.50628
0
LINE
8
BLACK
6
CONTINUOUS
10
3.05414
20
-3.50628
11
3.0469
21
-3.49904
0
LINE
8
BLACK
6
CONTINUOUS
10
3.0469
20
-3.49904
11
3.04605
21
-3.49776
0
LINE
8
BLACK
6
CONTINUOUS
10
3.04605
20
-3.49776
11
3.04575
21
-3.49626
0
LINE
8
BLACK
6
CONTINUOUS
10
3.04575
20
-3.49626
11
3.04605
21
-3.49475
0
LINE
8
BLACK
6
CONTINUOUS
10
3.04605
20
-3.49475
11
3.0469
21
-3.49347
0
LINE
8
BLACK
6
CONTINUOUS
10
3.0469
20
-3.49347
11
3.05247
21
-3.4879
0
LINE
8
BLACK
6
CONTINUOUS
10
3.05247
20
-3.4879
11
3.05375
21
-3.48705
0
LINE
8
BLACK
6
CONTINUOUS
10
3.05375
20
-3.48705
11
3.05526
21
-3.48675
0
LINE
8
BLACK
6
CONTINUOUS
10
3.05526
20
-3.48675
11
3.05676
21
-3.48705
0
LINE
8
BLACK
6
CONTINUOUS
10
2.94101
20
-3.47292
11
2.9428
21
-3.47411
0
LINE
8
BLACK
6
CONTINUOUS
10
2.9428
20
-3.47411
11
2.95227
21
-3.48358
0
LINE
8
BLACK
6
CONTINUOUS
10
2.95227
20
-3.48358
11
2.95346
21
-3.48536
0
LINE
8
BLACK
6
CONTINUOUS
10
2.95346
20
-3.48536
11
2.95388
21
-3.48747
0
LINE
8
BLACK
6
CONTINUOUS
10
2.95388
20
-3.48747
11
2.95346
21
-3.48958
0
LINE
8
BLACK
6
CONTINUOUS
10
2.95346
20
-3.48958
11
2.95227
21
-3.49137
0
LINE
8
BLACK
6
CONTINUOUS
10
2.95227
20
-3.49137
11
2.94447
21
-3.49916
0
LINE
8
BLACK
6
CONTINUOUS
10
2.94447
20
-3.49916
11
2.94269
21
-3.50036
0
LINE
8
BLACK
6
CONTINUOUS
10
2.94269
20
-3.50036
11
2.94058
21
-3.50078
0
LINE
8
BLACK
6
CONTINUOUS
10
2.94058
20
-3.50078
11
2.93847
21
-3.50036
0
LINE
8
BLACK
6
CONTINUOUS
10
2.93847
20
-3.50036
11
2.93668
21
-3.49916
0
LINE
8
BLACK
6
CONTINUOUS
10
2.93668
20
-3.49916
11
2.92721
21
-3.4897
0
LINE
8
BLACK
6
CONTINUOUS
10
2.92721
20
-3.4897
11
2.92602
21
-3.48791
0
LINE
8
BLACK
6
CONTINUOUS
10
2.92602
20
-3.48791
11
2.9256
21
-3.4858
0
LINE
8
BLACK
6
CONTINUOUS
10
2.9256
20
-3.4858
11
2.92602
21
-3.48369
0
LINE
8
BLACK
6
CONTINUOUS
10
2.92602
20
-3.48369
11
2.92721
21
-3.4819
0
LINE
8
BLACK
6
CONTINUOUS
10
2.92721
20
-3.4819
11
2.93501
21
-3.47411
0
LINE
8
BLACK
6
CONTINUOUS
10
2.93501
20
-3.47411
11
2.9368
21
-3.47292
0
LINE
8
BLACK
6
CONTINUOUS
10
2.9368
20
-3.47292
11
2.93891
21
-3.4725
0
LINE
8
BLACK
6
CONTINUOUS
10
2.93891
20
-3.4725
11
2.94101
21
-3.47292
0
LINE
8
BLACK
6
CONTINUOUS
10
3.11372
20
-3.45921
11
3.11551
21
-3.46041
0
LINE
8
BLACK
6
CONTINUOUS
10
3.11551
20
-3.46041
11
3.11671
21
-3.4622
0
LINE
8
BLACK
6
CONTINUOUS
10
3.11671
20
-3.4622
11
3.11713
21
-3.46431
0
LINE
8
BLACK
6
CONTINUOUS
10
3.11713
20
-3.46431
11
3.11713
21
-3.47769
0
LINE
8
BLACK
6
CONTINUOUS
10
3.11713
20
-3.47769
11
3.11671
21
-3.4798
0
LINE
8
BLACK
6
CONTINUOUS
10
3.11671
20
-3.4798
11
3.11551
21
-3.48159
0
LINE
8
BLACK
6
CONTINUOUS
10
3.11551
20
-3.48159
11
3.11372
21
-3.48279
0
LINE
8
BLACK
6
CONTINUOUS
10
3.11372
20
-3.48279
11
3.11161
21
-3.4832
0
LINE
8
BLACK
6
CONTINUOUS
10
3.11161
20
-3.4832
11
3.10059
21
-3.4832
0
LINE
8
BLACK
6
CONTINUOUS
10
3.10059
20
-3.4832
11
3.09848
21
-3.48279
0
LINE
8
BLACK
6
CONTINUOUS
10
3.09848
20
-3.48279
11
3.09669
21
-3.48159
0
LINE
8
BLACK
6
CONTINUOUS
10
3.09669
20
-3.48159
11
3.0955
21
-3.4798
0
LINE
8
BLACK
6
CONTINUOUS
10
3.0955
20
-3.4798
11
3.09508
21
-3.47769
0
LINE
8
BLACK
6
CONTINUOUS
10
3.09508
20
-3.47769
11
3.09508
21
-3.46431
0
LINE
8
BLACK
6
CONTINUOUS
10
3.09508
20
-3.46431
11
3.0955
21
-3.4622
0
LINE
8
BLACK
6
CONTINUOUS
10
3.0955
20
-3.4622
11
3.09669
21
-3.46041
0
LINE
8
BLACK
6
CONTINUOUS
10
3.09669
20
-3.46041
11
3.09848
21
-3.45921
0
LINE
8
BLACK
6
CONTINUOUS
10
3.09848
20
-3.45921
11
3.10059
21
-3.4588
0
LINE
8
BLACK
6
CONTINUOUS
10
3.10059
20
-3.4588
11
3.11161
21
-3.4588
0
LINE
8
BLACK
6
CONTINUOUS
10
3.11161
20
-3.4588
11
3.11372
21
-3.45921
0
LINE
8
BLACK
6
CONTINUOUS
10
3.15152
20
-3.45921
11
3.15331
21
-3.46041
0
LINE
8
BLACK
6
CONTINUOUS
10
3.15331
20
-3.46041
11
3.1545
21
-3.4622
0
LINE
8
BLACK
6
CONTINUOUS
10
3.1545
20
-3.4622
11
3.15492
21
-3.46431
0
LINE
8
BLACK
6
CONTINUOUS
10
3.15492
20
-3.46431
11
3.15492
21
-3.47769
0
LINE
8
BLACK
6
CONTINUOUS
10
3.15492
20
-3.47769
11
3.1545
21
-3.4798
0
LINE
8
BLACK
6
CONTINUOUS
10
3.1545
20
-3.4798
11
3.15331
21
-3.48159
0
LINE
8
BLACK
6
CONTINUOUS
10
3.15331
20
-3.48159
11
3.15152
21
-3.48279
0
LINE
8
BLACK
6
CONTINUOUS
10
3.15152
20
-3.48279
11
3.14941
21
-3.4832
0
LINE
8
BLACK
6
CONTINUOUS
10
3.14941
20
-3.4832
11
3.13839
21
-3.4832
0
LINE
8
BLACK
6
CONTINUOUS
10
3.13839
20
-3.4832
11
3.13628
21
-3.48279
0
LINE
8
BLACK
6
CONTINUOUS
10
3.13628
20
-3.48279
11
3.13449
21
-3.48159
0
LINE
8
BLACK
6
CONTINUOUS
10
3.13449
20
-3.48159
11
3.13329
21
-3.4798
0
LINE
8
BLACK
6
CONTINUOUS
10
3.13329
20
-3.4798
11
3.13287
21
-3.47769
0
LINE
8
BLACK
6
CONTINUOUS
10
3.13287
20
-3.47769
11
3.13287
21
-3.46431
0
LINE
8
BLACK
6
CONTINUOUS
10
3.13287
20
-3.46431
11
3.13329
21
-3.4622
0
LINE
8
BLACK
6
CONTINUOUS
10
3.13329
20
-3.4622
11
3.13449
21
-3.46041
0
LINE
8
BLACK
6
CONTINUOUS
10
3.13449
20
-3.46041
11
3.13628
21
-3.45921
0
LINE
8
BLACK
6
CONTINUOUS
10
3.13628
20
-3.45921
11
3.13839
21
-3.4588
0
LINE
8
BLACK
6
CONTINUOUS
10
3.13839
20
-3.4588
11
3.14941
21
-3.4588
0
LINE
8
BLACK
6
CONTINUOUS
10
3.14941
20
-3.4588
11
3.15152
21
-3.45921
0
LINE
8
BLACK
6
CONTINUOUS
10
3.05466
20
-3.46369
11
3.05593
21
-3.46454
0
LINE
8
BLACK
6
CONTINUOUS
10
3.05593
20
-3.46454
11
3.05679
21
-3.46582
0
LINE
8
BLACK
6
CONTINUOUS
10
3.05679
20
-3.46582
11
3.05709
21
-3.46732
0
LINE
8
BLACK
6
CONTINUOUS
10
3.05709
20
-3.46732
11
3.05709
21
-3.4752
0
LINE
8
BLACK
6
CONTINUOUS
10
3.05709
20
-3.4752
11
3.05679
21
-3.4767
0
LINE
8
BLACK
6
CONTINUOUS
10
3.05679
20
-3.4767
11
3.05593
21
-3.47798
0
LINE
8
BLACK
6
CONTINUOUS
10
3.05593
20
-3.47798
11
3.05466
21
-3.47883
0
LINE
8
BLACK
6
CONTINUOUS
10
3.05466
20
-3.47883
11
3.05315
21
-3.47913
0
LINE
8
BLACK
6
CONTINUOUS
10
3.05315
20
-3.47913
11
3.04291
21
-3.47913
0
LINE
8
BLACK
6
CONTINUOUS
10
3.04291
20
-3.47913
11
3.04141
21
-3.47883
0
LINE
8
BLACK
6
CONTINUOUS
10
3.04141
20
-3.47883
11
3.04013
21
-3.47798
0
LINE
8
BLACK
6
CONTINUOUS
10
3.04013
20
-3.47798
11
3.03928
21
-3.4767
0
LINE
8
BLACK
6
CONTINUOUS
10
3.03928
20
-3.4767
11
3.03898
21
-3.4752
0
LINE
8
BLACK
6
CONTINUOUS
10
3.03898
20
-3.4752
11
3.03898
21
-3.46732
0
LINE
8
BLACK
6
CONTINUOUS
10
3.03898
20
-3.46732
11
3.03928
21
-3.46582
0
LINE
8
BLACK
6
CONTINUOUS
10
3.03928
20
-3.46582
11
3.04013
21
-3.46454
0
LINE
8
BLACK
6
CONTINUOUS
10
3.04013
20
-3.46454
11
3.04141
21
-3.46369
0
LINE
8
BLACK
6
CONTINUOUS
10
3.04141
20
-3.46369
11
3.04291
21
-3.46339
0
LINE
8
BLACK
6
CONTINUOUS
10
3.04291
20
-3.46339
11
3.05315
21
-3.46339
0
LINE
8
BLACK
6
CONTINUOUS
10
3.05315
20
-3.46339
11
3.05466
21
-3.46369
0
LINE
8
BLACK
6
CONTINUOUS
10
3.07985
20
-3.46369
11
3.08113
21
-3.46454
0
LINE
8
BLACK
6
CONTINUOUS
10
3.08113
20
-3.46454
11
3.08198
21
-3.46582
0
LINE
8
BLACK
6
CONTINUOUS
10
3.08198
20
-3.46582
11
3.08228
21
-3.46732
0
LINE
8
BLACK
6
CONTINUOUS
10
3.08228
20
-3.46732
11
3.08228
21
-3.4752
0
LINE
8
BLACK
6
CONTINUOUS
10
3.08228
20
-3.4752
11
3.08198
21
-3.4767
0
LINE
8
BLACK
6
CONTINUOUS
10
3.08198
20
-3.4767
11
3.08113
21
-3.47798
0
LINE
8
BLACK
6
CONTINUOUS
10
3.08113
20
-3.47798
11
3.07985
21
-3.47883
0
LINE
8
BLACK
6
CONTINUOUS
10
3.07985
20
-3.47883
11
3.07835
21
-3.47913
0
LINE
8
BLACK
6
CONTINUOUS
10
3.07835
20
-3.47913
11
3.06811
21
-3.47913
0
LINE
8
BLACK
6
CONTINUOUS
10
3.06811
20
-3.47913
11
3.0666
21
-3.47883
0
LINE
8
BLACK
6
CONTINUOUS
10
3.0666
20
-3.47883
11
3.06533
21
-3.47798
0
LINE
8
BLACK
6
CONTINUOUS
10
3.06533
20
-3.47798
11
3.06447
21
-3.4767
0
LINE
8
BLACK
6
CONTINUOUS
10
3.06447
20
-3.4767
11
3.06417
21
-3.4752
0
LINE
8
BLACK
6
CONTINUOUS
10
3.06417
20
-3.4752
11
3.06417
21
-3.46732
0
LINE
8
BLACK
6
CONTINUOUS
10
3.06417
20
-3.46732
11
3.06447
21
-3.46582
0
LINE
8
BLACK
6
CONTINUOUS
10
3.06447
20
-3.46582
11
3.06533
21
-3.46454
0
LINE
8
BLACK
6
CONTINUOUS
10
3.06533
20
-3.46454
11
3.0666
21
-3.46369
0
LINE
8
BLACK
6
CONTINUOUS
10
3.0666
20
-3.46369
11
3.06811
21
-3.46339
0
LINE
8
BLACK
6
CONTINUOUS
10
3.06811
20
-3.46339
11
3.07835
21
-3.46339
0
LINE
8
BLACK
6
CONTINUOUS
10
3.07835
20
-3.46339
11
3.07985
21
-3.46369
0
LINE
8
BLACK
6
CONTINUOUS
10
3.23892
20
-3.41765
11
3.2429
21
-3.41941
0
LINE
8
BLACK
6
CONTINUOUS
10
3.2429
20
-3.41941
11
3.24596
21
-3.42247
0
LINE
8
BLACK
6
CONTINUOUS
10
3.24596
20
-3.42247
11
3.24772
21
-3.42645
0
LINE
8
BLACK
6
CONTINUOUS
10
3.24772
20
-3.42645
11
3.24803
21
-3.42915
0
LINE
8
BLACK
6
CONTINUOUS
10
3.24803
20
-3.42915
11
3.24803
21
-3.45277
0
LINE
8
BLACK
6
CONTINUOUS
10
3.24803
20
-3.45277
11
3.24772
21
-3.45548
0
LINE
8
BLACK
6
CONTINUOUS
10
3.24772
20
-3.45548
11
3.24596
21
-3.45945
0
LINE
8
BLACK
6
CONTINUOUS
10
3.24596
20
-3.45945
11
3.2429
21
-3.46252
0
LINE
8
BLACK
6
CONTINUOUS
10
3.2429
20
-3.46252
11
3.23892
21
-3.46427
0
LINE
8
BLACK
6
CONTINUOUS
10
3.23892
20
-3.46427
11
3.23622
21
-3.46458
0
LINE
8
BLACK
6
CONTINUOUS
10
3.23622
20
-3.46458
11
3.1811
21
-3.46458
0
LINE
8
BLACK
6
CONTINUOUS
10
3.1811
20
-3.46458
11
3.1784
21
-3.46427
0
LINE
8
BLACK
6
CONTINUOUS
10
3.1784
20
-3.46427
11
3.17443
21
-3.46252
0
LINE
8
BLACK
6
CONTINUOUS
10
3.17443
20
-3.46252
11
3.17136
21
-3.45945
0
LINE
8
BLACK
6
CONTINUOUS
10
3.17136
20
-3.45945
11
3.16961
21
-3.45548
0
LINE
8
BLACK
6
CONTINUOUS
10
3.16961
20
-3.45548
11
3.16929
21
-3.45277
0
LINE
8
BLACK
6
CONTINUOUS
10
3.16929
20
-3.45277
11
3.16929
21
-3.42915
0
LINE
8
BLACK
6
CONTINUOUS
10
3.16929
20
-3.42915
11
3.16961
21
-3.42645
0
LINE
8
BLACK
6
CONTINUOUS
10
3.16961
20
-3.42645
11
3.17136
21
-3.42247
0
LINE
8
BLACK
6
CONTINUOUS
10
3.17136
20
-3.42247
11
3.17443
21
-3.41941
0
LINE
8
BLACK
6
CONTINUOUS
10
3.17443
20
-3.41941
11
3.1784
21
-3.41765
0
LINE
8
BLACK
6
CONTINUOUS
10
3.1784
20
-3.41765
11
3.1811
21
-3.41734
0
LINE
8
BLACK
6
CONTINUOUS
10
3.1811
20
-3.41734
11
3.23622
21
-3.41734
0
LINE
8
BLACK
6
CONTINUOUS
10
3.23622
20
-3.41734
11
3.23892
21
-3.41765
0
LINE
8
BLACK
6
CONTINUOUS
10
3.03489
20
-3.41701
11
3.03776
21
-3.41893
0
LINE
8
BLACK
6
CONTINUOUS
10
3.03776
20
-3.41893
11
3.03968
21
-3.42181
0
LINE
8
BLACK
6
CONTINUOUS
10
3.03968
20
-3.42181
11
3.04035
21
-3.4252
0
LINE
8
BLACK
6
CONTINUOUS
10
3.04035
20
-3.4252
11
3.04035
21
-3.44291
0
LINE
8
BLACK
6
CONTINUOUS
10
3.04035
20
-3.44291
11
3.03968
21
-3.4463
0
LINE
8
BLACK
6
CONTINUOUS
10
3.03968
20
-3.4463
11
3.03776
21
-3.44918
0
LINE
8
BLACK
6
CONTINUOUS
10
3.03776
20
-3.44918
11
3.03489
21
-3.4511
0
LINE
8
BLACK
6
CONTINUOUS
10
3.03489
20
-3.4511
11
3.0315
21
-3.45177
0
LINE
8
BLACK
6
CONTINUOUS
10
3.0315
20
-3.45177
11
3.01181
21
-3.45177
0
LINE
8
BLACK
6
CONTINUOUS
10
3.01181
20
-3.45177
11
3.00842
21
-3.4511
0
LINE
8
BLACK
6
CONTINUOUS
10
3.00842
20
-3.4511
11
3.00555
21
-3.44918
0
LINE
8
BLACK
6
CONTINUOUS
10
3.00555
20
-3.44918
11
3.00363
21
-3.4463
0
LINE
8
BLACK
6
CONTINUOUS
10
3.00363
20
-3.4463
11
3.00295
21
-3.44291
0
LINE
8
BLACK
6
CONTINUOUS
10
3.00295
20
-3.44291
11
3.00295
21
-3.4252
0
LINE
8
BLACK
6
CONTINUOUS
10
3.00295
20
-3.4252
11
3.00363
21
-3.42181
0
LINE
8
BLACK
6
CONTINUOUS
10
3.00363
20
-3.42181
11
3.00555
21
-3.41893
0
LINE
8
BLACK
6
CONTINUOUS
10
3.00555
20
-3.41893
11
3.00842
21
-3.41701
0
LINE
8
BLACK
6
CONTINUOUS
10
3.00842
20
-3.41701
11
3.01181
21
-3.41634
0
LINE
8
BLACK
6
CONTINUOUS
10
3.01181
20
-3.41634
11
3.0315
21
-3.41634
0
LINE
8
BLACK
6
CONTINUOUS
10
3.0315
20
-3.41634
11
3.03489
21
-3.41701
0
LINE
8
BLACK
6
CONTINUOUS
10
3.07449
20
-3.42075
11
3.07569
21
-3.42155
0
LINE
8
BLACK
6
CONTINUOUS
10
3.07569
20
-3.42155
11
3.07649
21
-3.42274
0
LINE
8
BLACK
6
CONTINUOUS
10
3.07649
20
-3.42274
11
3.07677
21
-3.42416
0
LINE
8
BLACK
6
CONTINUOUS
10
3.07677
20
-3.42416
11
3.07677
21
-3.43252
0
LINE
8
BLACK
6
CONTINUOUS
10
3.07677
20
-3.43252
11
3.07649
21
-3.43393
0
LINE
8
BLACK
6
CONTINUOUS
10
3.07649
20
-3.43393
11
3.07569
21
-3.43513
0
LINE
8
BLACK
6
CONTINUOUS
10
3.07569
20
-3.43513
11
3.07449
21
-3.43593
0
LINE
8
BLACK
6
CONTINUOUS
10
3.07449
20
-3.43593
11
3.07308
21
-3.43621
0
LINE
8
BLACK
6
CONTINUOUS
10
3.07308
20
-3.43621
11
3.0657
21
-3.43621
0
LINE
8
BLACK
6
CONTINUOUS
10
3.0657
20
-3.43621
11
3.06429
21
-3.43593
0
LINE
8
BLACK
6
CONTINUOUS
10
3.06429
20
-3.43593
11
3.06309
21
-3.43513
0
LINE
8
BLACK
6
CONTINUOUS
10
3.06309
20
-3.43513
11
3.06229
21
-3.43393
0
LINE
8
BLACK
6
CONTINUOUS
10
3.06229
20
-3.43393
11
3.06201
21
-3.43252
0
LINE
8
BLACK
6
CONTINUOUS
10
3.06201
20
-3.43252
11
3.06201
21
-3.42416
0
LINE
8
BLACK
6
CONTINUOUS
10
3.06201
20
-3.42416
11
3.06229
21
-3.42274
0
LINE
8
BLACK
6
CONTINUOUS
10
3.06229
20
-3.42274
11
3.06309
21
-3.42155
0
LINE
8
BLACK
6
CONTINUOUS
10
3.06309
20
-3.42155
11
3.06429
21
-3.42075
0
LINE
8
BLACK
6
CONTINUOUS
10
3.06429
20
-3.42075
11
3.0657
21
-3.42046
0
LINE
8
BLACK
6
CONTINUOUS
10
3.0657
20
-3.42046
11
3.07308
21
-3.42046
0
LINE
8
BLACK
6
CONTINUOUS
10
3.07308
20
-3.42046
11
3.07449
21
-3.42075
0
LINE
8
BLACK
6
CONTINUOUS
10
3.14438
20
-3.42075
11
3.14557
21
-3.42155
0
LINE
8
BLACK
6
CONTINUOUS
10
3.14557
20
-3.42155
11
3.14637
21
-3.42274
0
LINE
8
BLACK
6
CONTINUOUS
10
3.14637
20
-3.42274
11
3.14665
21
-3.42416
0
LINE
8
BLACK
6
CONTINUOUS
10
3.14665
20
-3.42416
11
3.14665
21
-3.43252
0
LINE
8
BLACK
6
CONTINUOUS
10
3.14665
20
-3.43252
11
3.14637
21
-3.43393
0
LINE
8
BLACK
6
CONTINUOUS
10
3.14637
20
-3.43393
11
3.14557
21
-3.43513
0
LINE
8
BLACK
6
CONTINUOUS
10
3.14557
20
-3.43513
11
3.14438
21
-3.43593
0
LINE
8
BLACK
6
CONTINUOUS
10
3.14438
20
-3.43593
11
3.14296
21
-3.43621
0
LINE
8
BLACK
6
CONTINUOUS
10
3.14296
20
-3.43621
11
3.13558
21
-3.43621
0
LINE
8
BLACK
6
CONTINUOUS
10
3.13558
20
-3.43621
11
3.13417
21
-3.43593
0
LINE
8
BLACK
6
CONTINUOUS
10
3.13417
20
-3.43593
11
3.13297
21
-3.43513
0
LINE
8
BLACK
6
CONTINUOUS
10
3.13297
20
-3.43513
11
3.13217
21
-3.43393
0
LINE
8
BLACK
6
CONTINUOUS
10
3.13217
20
-3.43393
11
3.13189
21
-3.43252
0
LINE
8
BLACK
6
CONTINUOUS
10
3.13189
20
-3.43252
11
3.13189
21
-3.42416
0
LINE
8
BLACK
6
CONTINUOUS
10
3.13189
20
-3.42416
11
3.13217
21
-3.42274
0
LINE
8
BLACK
6
CONTINUOUS
10
3.13217
20
-3.42274
11
3.13297
21
-3.42155
0
LINE
8
BLACK
6
CONTINUOUS
10
3.13297
20
-3.42155
11
3.13417
21
-3.42075
0
LINE
8
BLACK
6
CONTINUOUS
10
3.13417
20
-3.42075
11
3.13558
21
-3.42046
0
LINE
8
BLACK
6
CONTINUOUS
10
3.13558
20
-3.42046
11
3.14296
21
-3.42046
0
LINE
8
BLACK
6
CONTINUOUS
10
3.14296
20
-3.42046
11
3.14438
21
-3.42075
0
LINE
8
BLACK
6
CONTINUOUS
10
3.12402
20
-3.43424
11
3.08465
21
-3.43424
0
LINE
8
BLACK
6
CONTINUOUS
10
3.08465
20
-3.43424
11
3.08465
21
-3.37125
0
LINE
8
BLACK
6
CONTINUOUS
10
3.08465
20
-3.37125
11
3.12402
21
-3.37125
0
LINE
8
BLACK
6
CONTINUOUS
10
3.12402
20
-3.37125
11
3.12402
21
-3.43424
0
LINE
8
BLACK
6
CONTINUOUS
10
3.07449
20
-3.39515
11
3.07569
21
-3.39596
0
LINE
8
BLACK
6
CONTINUOUS
10
3.07569
20
-3.39596
11
3.07649
21
-3.39715
0
LINE
8
BLACK
6
CONTINUOUS
10
3.07649
20
-3.39715
11
3.07677
21
-3.39856
0
LINE
8
BLACK
6
CONTINUOUS
10
3.07677
20
-3.39856
11
3.07677
21
-3.40693
0
LINE
8
BLACK
6
CONTINUOUS
10
3.07677
20
-3.40693
11
3.07649
21
-3.40834
0
LINE
8
BLACK
6
CONTINUOUS
10
3.07649
20
-3.40834
11
3.07569
21
-3.40954
0
LINE
8
BLACK
6
CONTINUOUS
10
3.07569
20
-3.40954
11
3.07449
21
-3.41034
0
LINE
8
BLACK
6
CONTINUOUS
10
3.07449
20
-3.41034
11
3.07308
21
-3.41062
0
LINE
8
BLACK
6
CONTINUOUS
10
3.07308
20
-3.41062
11
3.0657
21
-3.41062
0
LINE
8
BLACK
6
CONTINUOUS
10
3.0657
20
-3.41062
11
3.06429
21
-3.41034
0
LINE
8
BLACK
6
CONTINUOUS
10
3.06429
20
-3.41034
11
3.06309
21
-3.40954
0
LINE
8
BLACK
6
CONTINUOUS
10
3.06309
20
-3.40954
11
3.06229
21
-3.40834
0
LINE
8
BLACK
6
CONTINUOUS
10
3.06229
20
-3.40834
11
3.06201
21
-3.40693
0
LINE
8
BLACK
6
CONTINUOUS
10
3.06201
20
-3.40693
11
3.06201
21
-3.39856
0
LINE
8
BLACK
6
CONTINUOUS
10
3.06201
20
-3.39856
11
3.06229
21
-3.39715
0
LINE
8
BLACK
6
CONTINUOUS
10
3.06229
20
-3.39715
11
3.06309
21
-3.39596
0
LINE
8
BLACK
6
CONTINUOUS
10
3.06309
20
-3.39596
11
3.06429
21
-3.39515
0
LINE
8
BLACK
6
CONTINUOUS
10
3.06429
20
-3.39515
11
3.0657
21
-3.39487
0
LINE
8
BLACK
6
CONTINUOUS
10
3.0657
20
-3.39487
11
3.07308
21
-3.39487
0
LINE
8
BLACK
6
CONTINUOUS
10
3.07308
20
-3.39487
11
3.07449
21
-3.39515
0
LINE
8
BLACK
6
CONTINUOUS
10
3.14438
20
-3.39515
11
3.14557
21
-3.39596
0
LINE
8
BLACK
6
CONTINUOUS
10
3.14557
20
-3.39596
11
3.14637
21
-3.39715
0
LINE
8
BLACK
6
CONTINUOUS
10
3.14637
20
-3.39715
11
3.14665
21
-3.39856
0
LINE
8
BLACK
6
CONTINUOUS
10
3.14665
20
-3.39856
11
3.14665
21
-3.40693
0
LINE
8
BLACK
6
CONTINUOUS
10
3.14665
20
-3.40693
11
3.14637
21
-3.40834
0
LINE
8
BLACK
6
CONTINUOUS
10
3.14637
20
-3.40834
11
3.14557
21
-3.40954
0
LINE
8
BLACK
6
CONTINUOUS
10
3.14557
20
-3.40954
11
3.14438
21
-3.41034
0
LINE
8
BLACK
6
CONTINUOUS
10
3.14438
20
-3.41034
11
3.14296
21
-3.41062
0
LINE
8
BLACK
6
CONTINUOUS
10
3.14296
20
-3.41062
11
3.13558
21
-3.41062
0
LINE
8
BLACK
6
CONTINUOUS
10
3.13558
20
-3.41062
11
3.13417
21
-3.41034
0
LINE
8
BLACK
6
CONTINUOUS
10
3.13417
20
-3.41034
11
3.13297
21
-3.40954
0
LINE
8
BLACK
6
CONTINUOUS
10
3.13297
20
-3.40954
11
3.13217
21
-3.40834
0
LINE
8
BLACK
6
CONTINUOUS
10
3.13217
20
-3.40834
11
3.13189
21
-3.40693
0
LINE
8
BLACK
6
CONTINUOUS
10
3.13189
20
-3.40693
11
3.13189
21
-3.39856
0
LINE
8
BLACK
6
CONTINUOUS
10
3.13189
20
-3.39856
11
3.13217
21
-3.39715
0
LINE
8
BLACK
6
CONTINUOUS
10
3.13217
20
-3.39715
11
3.13297
21
-3.39596
0
LINE
8
BLACK
6
CONTINUOUS
10
3.13297
20
-3.39596
11
3.13417
21
-3.39515
0
LINE
8
BLACK
6
CONTINUOUS
10
3.13417
20
-3.39515
11
3.13558
21
-3.39487
0
LINE
8
BLACK
6
CONTINUOUS
10
3.13558
20
-3.39487
11
3.14296
21
-3.39487
0
LINE
8
BLACK
6
CONTINUOUS
10
3.14296
20
-3.39487
11
3.14438
21
-3.39515
0
LINE
8
BLACK
6
CONTINUOUS
10
2.84522
20
-3.35465
11
2.84919
21
-3.35641
0
LINE
8
BLACK
6
CONTINUOUS
10
2.84919
20
-3.35641
11
2.85226
21
-3.35947
0
LINE
8
BLACK
6
CONTINUOUS
10
2.85226
20
-3.35947
11
2.85402
21
-3.36345
0
LINE
8
BLACK
6
CONTINUOUS
10
2.85402
20
-3.36345
11
2.85433
21
-3.36615
0
LINE
8
BLACK
6
CONTINUOUS
10
2.85433
20
-3.36615
11
2.85433
21
-3.38977
0
LINE
8
BLACK
6
CONTINUOUS
10
2.85433
20
-3.38977
11
2.85402
21
-3.39248
0
LINE
8
BLACK
6
CONTINUOUS
10
2.85402
20
-3.39248
11
2.85226
21
-3.39645
0
LINE
8
BLACK
6
CONTINUOUS
10
2.85226
20
-3.39645
11
2.84919
21
-3.39952
0
LINE
8
BLACK
6
CONTINUOUS
10
2.84919
20
-3.39952
11
2.84522
21
-3.40127
0
LINE
8
BLACK
6
CONTINUOUS
10
2.84522
20
-3.40127
11
2.84252
21
-3.40158
0
LINE
8
BLACK
6
CONTINUOUS
10
2.84252
20
-3.40158
11
2.7874
21
-3.40158
0
LINE
8
BLACK
6
CONTINUOUS
10
2.7874
20
-3.40158
11
2.7847
21
-3.40127
0
LINE
8
BLACK
6
CONTINUOUS
10
2.7847
20
-3.40127
11
2.78073
21
-3.39952
0
LINE
8
BLACK
6
CONTINUOUS
10
2.78073
20
-3.39952
11
2.77766
21
-3.39645
0
LINE
8
BLACK
6
CONTINUOUS
10
2.77766
20
-3.39645
11
2.7759
21
-3.39248
0
LINE
8
BLACK
6
CONTINUOUS
10
2.7759
20
-3.39248
11
2.77559
21
-3.38977
0
LINE
8
BLACK
6
CONTINUOUS
10
2.77559
20
-3.38977
11
2.77559
21
-3.36615
0
LINE
8
BLACK
6
CONTINUOUS
10
2.77559
20
-3.36615
11
2.7759
21
-3.36345
0
LINE
8
BLACK
6
CONTINUOUS
10
2.7759
20
-3.36345
11
2.77766
21
-3.35947
0
LINE
8
BLACK
6
CONTINUOUS
10
2.77766
20
-3.35947
11
2.78073
21
-3.35641
0
LINE
8
BLACK
6
CONTINUOUS
10
2.78073
20
-3.35641
11
2.7847
21
-3.35465
0
LINE
8
BLACK
6
CONTINUOUS
10
2.7847
20
-3.35465
11
2.7874
21
-3.35434
0
LINE
8
BLACK
6
CONTINUOUS
10
2.7874
20
-3.35434
11
2.84252
21
-3.35434
0
LINE
8
BLACK
6
CONTINUOUS
10
2.84252
20
-3.35434
11
2.84522
21
-3.35465
0
LINE
8
BLACK
6
CONTINUOUS
10
3.23892
20
-3.35465
11
3.2429
21
-3.35641
0
LINE
8
BLACK
6
CONTINUOUS
10
3.2429
20
-3.35641
11
3.24596
21
-3.35947
0
LINE
8
BLACK
6
CONTINUOUS
10
3.24596
20
-3.35947
11
3.24772
21
-3.36345
0
LINE
8
BLACK
6
CONTINUOUS
10
3.24772
20
-3.36345
11
3.24803
21
-3.36615
0
LINE
8
BLACK
6
CONTINUOUS
10
3.24803
20
-3.36615
11
3.24803
21
-3.38977
0
LINE
8
BLACK
6
CONTINUOUS
10
3.24803
20
-3.38977
11
3.24772
21
-3.39248
0
LINE
8
BLACK
6
CONTINUOUS
10
3.24772
20
-3.39248
11
3.24596
21
-3.39645
0
LINE
8
BLACK
6
CONTINUOUS
10
3.24596
20
-3.39645
11
3.2429
21
-3.39952
0
LINE
8
BLACK
6
CONTINUOUS
10
3.2429
20
-3.39952
11
3.23892
21
-3.40127
0
LINE
8
BLACK
6
CONTINUOUS
10
3.23892
20
-3.40127
11
3.23622
21
-3.40158
0
LINE
8
BLACK
6
CONTINUOUS
10
3.23622
20
-3.40158
11
3.1811
21
-3.40158
0
LINE
8
BLACK
6
CONTINUOUS
10
3.1811
20
-3.40158
11
3.1784
21
-3.40127
0
LINE
8
BLACK
6
CONTINUOUS
10
3.1784
20
-3.40127
11
3.17443
21
-3.39952
0
LINE
8
BLACK
6
CONTINUOUS
10
3.17443
20
-3.39952
11
3.17136
21
-3.39645
0
LINE
8
BLACK
6
CONTINUOUS
10
3.17136
20
-3.39645
11
3.16961
21
-3.39248
0
LINE
8
BLACK
6
CONTINUOUS
10
3.16961
20
-3.39248
11
3.16929
21
-3.38977
0
LINE
8
BLACK
6
CONTINUOUS
10
3.16929
20
-3.38977
11
3.16929
21
-3.36615
0
LINE
8
BLACK
6
CONTINUOUS
10
3.16929
20
-3.36615
11
3.16961
21
-3.36345
0
LINE
8
BLACK
6
CONTINUOUS
10
3.16961
20
-3.36345
11
3.17136
21
-3.35947
0
LINE
8
BLACK
6
CONTINUOUS
10
3.17136
20
-3.35947
11
3.17443
21
-3.35641
0
LINE
8
BLACK
6
CONTINUOUS
10
3.17443
20
-3.35641
11
3.1784
21
-3.35465
0
LINE
8
BLACK
6
CONTINUOUS
10
3.1784
20
-3.35465
11
3.1811
21
-3.35434
0
LINE
8
BLACK
6
CONTINUOUS
10
3.1811
20
-3.35434
11
3.23622
21
-3.35434
0
LINE
8
BLACK
6
CONTINUOUS
10
3.23622
20
-3.35434
11
3.23892
21
-3.35465
0
LINE
8
BLACK
6
CONTINUOUS
10
3.03489
20
-3.35599
11
3.03776
21
-3.35791
0
LINE
8
BLACK
6
CONTINUOUS
10
3.03776
20
-3.35791
11
3.03968
21
-3.36078
0
LINE
8
BLACK
6
CONTINUOUS
10
3.03968
20
-3.36078
11
3.04035
21
-3.36417
0
LINE
8
BLACK
6
CONTINUOUS
10
3.04035
20
-3.36417
11
3.04035
21
-3.38189
0
LINE
8
BLACK
6
CONTINUOUS
10
3.04035
20
-3.38189
11
3.03968
21
-3.38528
0
LINE
8
BLACK
6
CONTINUOUS
10
3.03968
20
-3.38528
11
3.03776
21
-3.38815
0
LINE
8
BLACK
6
CONTINUOUS
10
3.03776
20
-3.38815
11
3.03489
21
-3.39007
0
LINE
8
BLACK
6
CONTINUOUS
10
3.03489
20
-3.39007
11
3.0315
21
-3.39075
0
LINE
8
BLACK
6
CONTINUOUS
10
3.0315
20
-3.39075
11
3.01181
21
-3.39075
0
LINE
8
BLACK
6
CONTINUOUS
10
3.01181
20
-3.39075
11
3.00842
21
-3.39007
0
LINE
8
BLACK
6
CONTINUOUS
10
3.00842
20
-3.39007
11
3.00555
21
-3.38815
0
LINE
8
BLACK
6
CONTINUOUS
10
3.00555
20
-3.38815
11
3.00363
21
-3.38528
0
LINE
8
BLACK
6
CONTINUOUS
10
3.00363
20
-3.38528
11
3.00295
21
-3.38189
0
LINE
8
BLACK
6
CONTINUOUS
10
3.00295
20
-3.38189
11
3.00295
21
-3.36417
0
LINE
8
BLACK
6
CONTINUOUS
10
3.00295
20
-3.36417
11
3.00363
21
-3.36078
0
LINE
8
BLACK
6
CONTINUOUS
10
3.00363
20
-3.36078
11
3.00555
21
-3.35791
0
LINE
8
BLACK
6
CONTINUOUS
10
3.00555
20
-3.35791
11
3.00842
21
-3.35599
0
LINE
8
BLACK
6
CONTINUOUS
10
3.00842
20
-3.35599
11
3.01181
21
-3.35531
0
LINE
8
BLACK
6
CONTINUOUS
10
3.01181
20
-3.35531
11
3.0315
21
-3.35531
0
LINE
8
BLACK
6
CONTINUOUS
10
3.0315
20
-3.35531
11
3.03489
21
-3.35599
0
LINE
8
BLACK
6
CONTINUOUS
10
3.07449
20
-3.36956
11
3.07569
21
-3.37036
0
LINE
8
BLACK
6
CONTINUOUS
10
3.07569
20
-3.37036
11
3.07649
21
-3.37156
0
LINE
8
BLACK
6
CONTINUOUS
10
3.07649
20
-3.37156
11
3.07677
21
-3.37297
0
LINE
8
BLACK
6
CONTINUOUS
10
3.07677
20
-3.37297
11
3.07677
21
-3.38134
0
LINE
8
BLACK
6
CONTINUOUS
10
3.07677
20
-3.38134
11
3.07649
21
-3.38275
0
LINE
8
BLACK
6
CONTINUOUS
10
3.07649
20
-3.38275
11
3.07569
21
-3.38395
0
LINE
8
BLACK
6
CONTINUOUS
10
3.07569
20
-3.38395
11
3.07449
21
-3.38475
0
LINE
8
BLACK
6
CONTINUOUS
10
3.07449
20
-3.38475
11
3.07308
21
-3.38503
0
LINE
8
BLACK
6
CONTINUOUS
10
3.07308
20
-3.38503
11
3.0657
21
-3.38503
0
LINE
8
BLACK
6
CONTINUOUS
10
3.0657
20
-3.38503
11
3.06429
21
-3.38475
0
LINE
8
BLACK
6
CONTINUOUS
10
3.06429
20
-3.38475
11
3.06309
21
-3.38395
0
LINE
8
BLACK
6
CONTINUOUS
10
3.06309
20
-3.38395
11
3.06229
21
-3.38275
0
LINE
8
BLACK
6
CONTINUOUS
10
3.06229
20
-3.38275
11
3.06201
21
-3.38134
0
LINE
8
BLACK
6
CONTINUOUS
10
3.06201
20
-3.38134
11
3.06201
21
-3.37297
0
LINE
8
BLACK
6
CONTINUOUS
10
3.06201
20
-3.37297
11
3.06229
21
-3.37156
0
LINE
8
BLACK
6
CONTINUOUS
10
3.06229
20
-3.37156
11
3.06309
21
-3.37036
0
LINE
8
BLACK
6
CONTINUOUS
10
3.06309
20
-3.37036
11
3.06429
21
-3.36956
0
LINE
8
BLACK
6
CONTINUOUS
10
3.06429
20
-3.36956
11
3.0657
21
-3.36928
0
LINE
8
BLACK
6
CONTINUOUS
10
3.0657
20
-3.36928
11
3.07308
21
-3.36928
0
LINE
8
BLACK
6
CONTINUOUS
10
3.07308
20
-3.36928
11
3.07449
21
-3.36956
0
LINE
8
BLACK
6
CONTINUOUS
10
3.14438
20
-3.36956
11
3.14557
21
-3.37036
0
LINE
8
BLACK
6
CONTINUOUS
10
3.14557
20
-3.37036
11
3.14637
21
-3.37156
0
LINE
8
BLACK
6
CONTINUOUS
10
3.14637
20
-3.37156
11
3.14665
21
-3.37297
0
LINE
8
BLACK
6
CONTINUOUS
10
3.14665
20
-3.37297
11
3.14665
21
-3.38134
0
LINE
8
BLACK
6
CONTINUOUS
10
3.14665
20
-3.38134
11
3.14637
21
-3.38275
0
LINE
8
BLACK
6
CONTINUOUS
10
3.14637
20
-3.38275
11
3.14557
21
-3.38395
0
LINE
8
BLACK
6
CONTINUOUS
10
3.14557
20
-3.38395
11
3.14438
21
-3.38475
0
LINE
8
BLACK
6
CONTINUOUS
10
3.14438
20
-3.38475
11
3.14296
21
-3.38503
0
LINE
8
BLACK
6
CONTINUOUS
10
3.14296
20
-3.38503
11
3.13558
21
-3.38503
0
LINE
8
BLACK
6
CONTINUOUS
10
3.13558
20
-3.38503
11
3.13417
21
-3.38475
0
LINE
8
BLACK
6
CONTINUOUS
10
3.13417
20
-3.38475
11
3.13297
21
-3.38395
0
LINE
8
BLACK
6
CONTINUOUS
10
3.13297
20
-3.38395
11
3.13217
21
-3.38275
0
LINE
8
BLACK
6
CONTINUOUS
10
3.13217
20
-3.38275
11
3.13189
21
-3.38134
0
LINE
8
BLACK
6
CONTINUOUS
10
3.13189
20
-3.38134
11
3.13189
21
-3.37297
0
LINE
8
BLACK
6
CONTINUOUS
10
3.13189
20
-3.37297
11
3.13217
21
-3.37156
0
LINE
8
BLACK
6
CONTINUOUS
10
3.13217
20
-3.37156
11
3.13297
21
-3.37036
0
LINE
8
BLACK
6
CONTINUOUS
10
3.13297
20
-3.37036
11
3.13417
21
-3.36956
0
LINE
8
BLACK
6
CONTINUOUS
10
3.13417
20
-3.36956
11
3.13558
21
-3.36928
0
LINE
8
BLACK
6
CONTINUOUS
10
3.13558
20
-3.36928
11
3.14296
21
-3.36928
0
LINE
8
BLACK
6
CONTINUOUS
10
3.14296
20
-3.36928
11
3.14438
21
-3.36956
0
LINE
8
BLACK
6
CONTINUOUS
10
2.93733
20
-3.25862
11
2.94052
21
-3.26076
0
LINE
8
BLACK
6
CONTINUOUS
10
2.94052
20
-3.26076
11
2.94266
21
-3.26395
0
LINE
8
BLACK
6
CONTINUOUS
10
2.94266
20
-3.26395
11
2.94341
21
-3.26772
0
LINE
8
BLACK
6
CONTINUOUS
10
2.94341
20
-3.26772
11
2.94341
21
-3.34055
0
LINE
8
BLACK
6
CONTINUOUS
10
2.94341
20
-3.34055
11
2.94266
21
-3.34432
0
LINE
8
BLACK
6
CONTINUOUS
10
2.94266
20
-3.34432
11
2.94052
21
-3.34751
0
LINE
8
BLACK
6
CONTINUOUS
10
2.94052
20
-3.34751
11
2.93733
21
-3.34964
0
LINE
8
BLACK
6
CONTINUOUS
10
2.93733
20
-3.34964
11
2.93356
21
-3.35039
0
LINE
8
BLACK
6
CONTINUOUS
10
2.93356
20
-3.35039
11
2.90108
21
-3.35039
0
LINE
8
BLACK
6
CONTINUOUS
10
2.90108
20
-3.35039
11
2.89732
21
-3.34964
0
LINE
8
BLACK
6
CONTINUOUS
10
2.89732
20
-3.34964
11
2.89412
21
-3.34751
0
LINE
8
BLACK
6
CONTINUOUS
10
2.89412
20
-3.34751
11
2.89199
21
-3.34432
0
LINE
8
BLACK
6
CONTINUOUS
10
2.89199
20
-3.34432
11
2.89124
21
-3.34055
0
LINE
8
BLACK
6
CONTINUOUS
10
2.89124
20
-3.34055
11
2.89124
21
-3.26772
0
LINE
8
BLACK
6
CONTINUOUS
10
2.89124
20
-3.26772
11
2.89199
21
-3.26395
0
LINE
8
BLACK
6
CONTINUOUS
10
2.89199
20
-3.26395
11
2.89412
21
-3.26076
0
LINE
8
BLACK
6
CONTINUOUS
10
2.89412
20
-3.26076
11
2.89732
21
-3.25862
0
LINE
8
BLACK
6
CONTINUOUS
10
2.89732
20
-3.25862
11
2.90108
21
-3.25787
0
LINE
8
BLACK
6
CONTINUOUS
10
2.90108
20
-3.25787
11
2.93356
21
-3.25787
0
LINE
8
BLACK
6
CONTINUOUS
10
2.93356
20
-3.25787
11
2.93733
21
-3.25862
0
LINE
8
BLACK
6
CONTINUOUS
10
3.05839
20
-3.25862
11
3.06159
21
-3.26076
0
LINE
8
BLACK
6
CONTINUOUS
10
3.06159
20
-3.26076
11
3.06372
21
-3.26395
0
LINE
8
BLACK
6
CONTINUOUS
10
3.06372
20
-3.26395
11
3.06447
21
-3.26772
0
LINE
8
BLACK
6
CONTINUOUS
10
3.06447
20
-3.26772
11
3.06447
21
-3.34055
0
LINE
8
BLACK
6
CONTINUOUS
10
3.06447
20
-3.34055
11
3.06372
21
-3.34432
0
LINE
8
BLACK
6
CONTINUOUS
10
3.06372
20
-3.34432
11
3.06159
21
-3.34751
0
LINE
8
BLACK
6
CONTINUOUS
10
3.06159
20
-3.34751
11
3.05839
21
-3.34964
0
LINE
8
BLACK
6
CONTINUOUS
10
3.05839
20
-3.34964
11
3.05463
21
-3.35039
0
LINE
8
BLACK
6
CONTINUOUS
10
3.05463
20
-3.35039
11
3.02215
21
-3.35039
0
LINE
8
BLACK
6
CONTINUOUS
10
3.02215
20
-3.35039
11
3.01838
21
-3.34964
0
LINE
8
BLACK
6
CONTINUOUS
10
3.01838
20
-3.34964
11
3.01519
21
-3.34751
0
LINE
8
BLACK
6
CONTINUOUS
10
3.01519
20
-3.34751
11
3.01305
21
-3.34432
0
LINE
8
BLACK
6
CONTINUOUS
10
3.01305
20
-3.34432
11
3.0123
21
-3.34055
0
LINE
8
BLACK
6
CONTINUOUS
10
3.0123
20
-3.34055
11
3.0123
21
-3.26772
0
LINE
8
BLACK
6
CONTINUOUS
10
3.0123
20
-3.26772
11
3.01305
21
-3.26395
0
LINE
8
BLACK
6
CONTINUOUS
10
3.01305
20
-3.26395
11
3.01519
21
-3.26076
0
LINE
8
BLACK
6
CONTINUOUS
10
3.01519
20
-3.26076
11
3.01838
21
-3.25862
0
LINE
8
BLACK
6
CONTINUOUS
10
3.01838
20
-3.25862
11
3.02215
21
-3.25787
0
LINE
8
BLACK
6
CONTINUOUS
10
3.02215
20
-3.25787
11
3.05463
21
-3.25787
0
LINE
8
BLACK
6
CONTINUOUS
10
3.05463
20
-3.25787
11
3.05839
21
-3.25862
0
LINE
8
BLACK
6
CONTINUOUS
10
2.84522
20
-3.29165
11
2.84919
21
-3.29341
0
LINE
8
BLACK
6
CONTINUOUS
10
2.84919
20
-3.29341
11
2.85226
21
-3.29647
0
LINE
8
BLACK
6
CONTINUOUS
10
2.85226
20
-3.29647
11
2.85402
21
-3.30045
0
LINE
8
BLACK
6
CONTINUOUS
10
2.85402
20
-3.30045
11
2.85433
21
-3.30315
0
LINE
8
BLACK
6
CONTINUOUS
10
2.85433
20
-3.30315
11
2.85433
21
-3.32677
0
LINE
8
BLACK
6
CONTINUOUS
10
2.85433
20
-3.32677
11
2.85402
21
-3.32948
0
LINE
8
BLACK
6
CONTINUOUS
10
2.85402
20
-3.32948
11
2.85226
21
-3.33345
0
LINE
8
BLACK
6
CONTINUOUS
10
2.85226
20
-3.33345
11
2.84919
21
-3.33652
0
LINE
8
BLACK
6
CONTINUOUS
10
2.84919
20
-3.33652
11
2.84522
21
-3.33827
0
LINE
8
BLACK
6
CONTINUOUS
10
2.84522
20
-3.33827
11
2.84252
21
-3.33858
0
LINE
8
BLACK
6
CONTINUOUS
10
2.84252
20
-3.33858
11
2.7874
21
-3.33858
0
LINE
8
BLACK
6
CONTINUOUS
10
2.7874
20
-3.33858
11
2.7847
21
-3.33827
0
LINE
8
BLACK
6
CONTINUOUS
10
2.7847
20
-3.33827
11
2.78073
21
-3.33652
0
LINE
8
BLACK
6
CONTINUOUS
10
2.78073
20
-3.33652
11
2.77766
21
-3.33345
0
LINE
8
BLACK
6
CONTINUOUS
10
2.77766
20
-3.33345
11
2.7759
21
-3.32948
0
LINE
8
BLACK
6
CONTINUOUS
10
2.7759
20
-3.32948
11
2.77559
21
-3.32677
0
LINE
8
BLACK
6
CONTINUOUS
10
2.77559
20
-3.32677
11
2.77559
21
-3.30315
0
LINE
8
BLACK
6
CONTINUOUS
10
2.77559
20
-3.30315
11
2.7759
21
-3.30045
0
LINE
8
BLACK
6
CONTINUOUS
10
2.7759
20
-3.30045
11
2.77766
21
-3.29647
0
LINE
8
BLACK
6
CONTINUOUS
10
2.77766
20
-3.29647
11
2.78073
21
-3.29341
0
LINE
8
BLACK
6
CONTINUOUS
10
2.78073
20
-3.29341
11
2.7847
21
-3.29165
0
LINE
8
BLACK
6
CONTINUOUS
10
2.7847
20
-3.29165
11
2.7874
21
-3.29134
0
LINE
8
BLACK
6
CONTINUOUS
10
2.7874
20
-3.29134
11
2.84252
21
-3.29134
0
LINE
8
BLACK
6
CONTINUOUS
10
2.84252
20
-3.29134
11
2.84522
21
-3.29165
0
LINE
8
BLACK
6
CONTINUOUS
10
3.23892
20
-3.29165
11
3.2429
21
-3.29341
0
LINE
8
BLACK
6
CONTINUOUS
10
3.2429
20
-3.29341
11
3.24596
21
-3.29647
0
LINE
8
BLACK
6
CONTINUOUS
10
3.24596
20
-3.29647
11
3.24772
21
-3.30045
0
LINE
8
BLACK
6
CONTINUOUS
10
3.24772
20
-3.30045
11
3.24803
21
-3.30315
0
LINE
8
BLACK
6
CONTINUOUS
10
3.24803
20
-3.30315
11
3.24803
21
-3.32677
0
LINE
8
BLACK
6
CONTINUOUS
10
3.24803
20
-3.32677
11
3.24772
21
-3.32948
0
LINE
8
BLACK
6
CONTINUOUS
10
3.24772
20
-3.32948
11
3.24596
21
-3.33345
0
LINE
8
BLACK
6
CONTINUOUS
10
3.24596
20
-3.33345
11
3.2429
21
-3.33652
0
LINE
8
BLACK
6
CONTINUOUS
10
3.2429
20
-3.33652
11
3.23892
21
-3.33827
0
LINE
8
BLACK
6
CONTINUOUS
10
3.23892
20
-3.33827
11
3.23622
21
-3.33858
0
LINE
8
BLACK
6
CONTINUOUS
10
3.23622
20
-3.33858
11
3.1811
21
-3.33858
0
LINE
8
BLACK
6
CONTINUOUS
10
3.1811
20
-3.33858
11
3.1784
21
-3.33827
0
LINE
8
BLACK
6
CONTINUOUS
10
3.1784
20
-3.33827
11
3.17443
21
-3.33652
0
LINE
8
BLACK
6
CONTINUOUS
10
3.17443
20
-3.33652
11
3.17136
21
-3.33345
0
LINE
8
BLACK
6
CONTINUOUS
10
3.17136
20
-3.33345
11
3.16961
21
-3.32948
0
LINE
8
BLACK
6
CONTINUOUS
10
3.16961
20
-3.32948
11
3.16929
21
-3.32677
0
LINE
8
BLACK
6
CONTINUOUS
10
3.16929
20
-3.32677
11
3.16929
21
-3.30315
0
LINE
8
BLACK
6
CONTINUOUS
10
3.16929
20
-3.30315
11
3.16961
21
-3.30045
0
LINE
8
BLACK
6
CONTINUOUS
10
3.16961
20
-3.30045
11
3.17136
21
-3.29647
0
LINE
8
BLACK
6
CONTINUOUS
10
3.17136
20
-3.29647
11
3.17443
21
-3.29341
0
LINE
8
BLACK
6
CONTINUOUS
10
3.17443
20
-3.29341
11
3.1784
21
-3.29165
0
LINE
8
BLACK
6
CONTINUOUS
10
3.1784
20
-3.29165
11
3.1811
21
-3.29134
0
LINE
8
BLACK
6
CONTINUOUS
10
3.1811
20
-3.29134
11
3.23622
21
-3.29134
0
LINE
8
BLACK
6
CONTINUOUS
10
3.23622
20
-3.29134
11
3.23892
21
-3.29165
0
LINE
8
BLACK
6
CONTINUOUS
10
2.84522
20
-3.22866
11
2.84919
21
-3.23041
0
LINE
8
BLACK
6
CONTINUOUS
10
2.84919
20
-3.23041
11
2.85226
21
-3.23348
0
LINE
8
BLACK
6
CONTINUOUS
10
2.85226
20
-3.23348
11
2.85402
21
-3.23745
0
LINE
8
BLACK
6
CONTINUOUS
10
2.85402
20
-3.23745
11
2.85433
21
-3.24016
0
LINE
8
BLACK
6
CONTINUOUS
10
2.85433
20
-3.24016
11
2.85433
21
-3.26378
0
LINE
8
BLACK
6
CONTINUOUS
10
2.85433
20
-3.26378
11
2.85402
21
-3.26648
0
LINE
8
BLACK
6
CONTINUOUS
10
2.85402
20
-3.26648
11
2.85226
21
-3.27045
0
LINE
8
BLACK
6
CONTINUOUS
10
2.85226
20
-3.27045
11
2.84919
21
-3.27352
0
LINE
8
BLACK
6
CONTINUOUS
10
2.84919
20
-3.27352
11
2.84522
21
-3.27528
0
LINE
8
BLACK
6
CONTINUOUS
10
2.84522
20
-3.27528
11
2.84252
21
-3.27559
0
LINE
8
BLACK
6
CONTINUOUS
10
2.84252
20
-3.27559
11
2.7874
21
-3.27559
0
LINE
8
BLACK
6
CONTINUOUS
10
2.7874
20
-3.27559
11
2.7847
21
-3.27528
0
LINE
8
BLACK
6
CONTINUOUS
10
2.7847
20
-3.27528
11
2.78073
21
-3.27352
0
LINE
8
BLACK
6
CONTINUOUS
10
2.78073
20
-3.27352
11
2.77766
21
-3.27045
0
LINE
8
BLACK
6
CONTINUOUS
10
2.77766
20
-3.27045
11
2.7759
21
-3.26648
0
LINE
8
BLACK
6
CONTINUOUS
10
2.7759
20
-3.26648
11
2.77559
21
-3.26378
0
LINE
8
BLACK
6
CONTINUOUS
10
2.77559
20
-3.26378
11
2.77559
21
-3.24016
0
LINE
8
BLACK
6
CONTINUOUS
10
2.77559
20
-3.24016
11
2.7759
21
-3.23745
0
LINE
8
BLACK
6
CONTINUOUS
10
2.7759
20
-3.23745
11
2.77766
21
-3.23348
0
LINE
8
BLACK
6
CONTINUOUS
10
2.77766
20
-3.23348
11
2.78073
21
-3.23041
0
LINE
8
BLACK
6
CONTINUOUS
10
2.78073
20
-3.23041
11
2.7847
21
-3.22866
0
LINE
8
BLACK
6
CONTINUOUS
10
2.7847
20
-3.22866
11
2.7874
21
-3.22835
0
LINE
8
BLACK
6
CONTINUOUS
10
2.7874
20
-3.22835
11
2.84252
21
-3.22835
0
LINE
8
BLACK
6
CONTINUOUS
10
2.84252
20
-3.22835
11
2.84522
21
-3.22866
0
LINE
8
BLACK
6
CONTINUOUS
10
3.23892
20
-3.22866
11
3.2429
21
-3.23041
0
LINE
8
BLACK
6
CONTINUOUS
10
3.2429
20
-3.23041
11
3.24596
21
-3.23348
0
LINE
8
BLACK
6
CONTINUOUS
10
3.24596
20
-3.23348
11
3.24772
21
-3.23745
0
LINE
8
BLACK
6
CONTINUOUS
10
3.24772
20
-3.23745
11
3.24803
21
-3.24016
0
LINE
8
BLACK
6
CONTINUOUS
10
3.24803
20
-3.24016
11
3.24803
21
-3.26378
0
LINE
8
BLACK
6
CONTINUOUS
10
3.24803
20
-3.26378
11
3.24772
21
-3.26648
0
LINE
8
BLACK
6
CONTINUOUS
10
3.24772
20
-3.26648
11
3.24596
21
-3.27045
0
LINE
8
BLACK
6
CONTINUOUS
10
3.24596
20
-3.27045
11
3.2429
21
-3.27352
0
LINE
8
BLACK
6
CONTINUOUS
10
3.2429
20
-3.27352
11
3.23892
21
-3.27528
0
LINE
8
BLACK
6
CONTINUOUS
10
3.23892
20
-3.27528
11
3.23622
21
-3.27559
0
LINE
8
BLACK
6
CONTINUOUS
10
3.23622
20
-3.27559
11
3.1811
21
-3.27559
0
LINE
8
BLACK
6
CONTINUOUS
10
3.1811
20
-3.27559
11
3.1784
21
-3.27528
0
LINE
8
BLACK
6
CONTINUOUS
10
3.1784
20
-3.27528
11
3.17443
21
-3.27352
0
LINE
8
BLACK
6
CONTINUOUS
10
3.17443
20
-3.27352
11
3.17136
21
-3.27045
0
LINE
8
BLACK
6
CONTINUOUS
10
3.17136
20
-3.27045
11
3.16961
21
-3.26648
0
LINE
8
BLACK
6
CONTINUOUS
10
3.16961
20
-3.26648
11
3.16929
21
-3.26378
0
LINE
8
BLACK
6
CONTINUOUS
10
3.16929
20
-3.26378
11
3.16929
21
-3.24016
0
LINE
8
BLACK
6
CONTINUOUS
10
3.16929
20
-3.24016
11
3.16961
21
-3.23745
0
LINE
8
BLACK
6
CONTINUOUS
10
3.16961
20
-3.23745
11
3.17136
21
-3.23348
0
LINE
8
BLACK
6
CONTINUOUS
10
3.17136
20
-3.23348
11
3.17443
21
-3.23041
0
LINE
8
BLACK
6
CONTINUOUS
10
3.17443
20
-3.23041
11
3.1784
21
-3.22866
0
LINE
8
BLACK
6
CONTINUOUS
10
3.1784
20
-3.22866
11
3.1811
21
-3.22835
0
LINE
8
BLACK
6
CONTINUOUS
10
3.1811
20
-3.22835
11
3.23622
21
-3.22835
0
LINE
8
BLACK
6
CONTINUOUS
10
3.23622
20
-3.22835
11
3.23892
21
-3.22866
0
LINE
8
BLACK
6
CONTINUOUS
10
2.93182
20
-3.17157
11
2.93579
21
-3.17333
0
LINE
8
BLACK
6
CONTINUOUS
10
2.93579
20
-3.17333
11
2.93886
21
-3.1764
0
LINE
8
BLACK
6
CONTINUOUS
10
2.93886
20
-3.1764
11
2.94062
21
-3.18037
0
LINE
8
BLACK
6
CONTINUOUS
10
2.94062
20
-3.18037
11
2.94093
21
-3.18307
0
LINE
8
BLACK
6
CONTINUOUS
10
2.94093
20
-3.18307
11
2.94093
21
-3.23819
0
LINE
8
BLACK
6
CONTINUOUS
10
2.94093
20
-3.23819
11
2.94062
21
-3.24089
0
LINE
8
BLACK
6
CONTINUOUS
10
2.94062
20
-3.24089
11
2.93886
21
-3.24486
0
LINE
8
BLACK
6
CONTINUOUS
10
2.93886
20
-3.24486
11
2.93579
21
-3.24793
0
LINE
8
BLACK
6
CONTINUOUS
10
2.93579
20
-3.24793
11
2.93182
21
-3.24969
0
LINE
8
BLACK
6
CONTINUOUS
10
2.93182
20
-3.24969
11
2.92912
21
-3.25
0
LINE
8
BLACK
6
CONTINUOUS
10
2.92912
20
-3.25
11
2.9055
21
-3.25
0
LINE
8
BLACK
6
CONTINUOUS
10
2.9055
20
-3.25
11
2.90279
21
-3.24969
0
LINE
8
BLACK
6
CONTINUOUS
10
2.90279
20
-3.24969
11
2.89882
21
-3.24793
0
LINE
8
BLACK
6
CONTINUOUS
10
2.89882
20
-3.24793
11
2.89575
21
-3.24486
0
LINE
8
BLACK
6
CONTINUOUS
10
2.89575
20
-3.24486
11
2.894
21
-3.24089
0
LINE
8
BLACK
6
CONTINUOUS
10
2.894
20
-3.24089
11
2.89369
21
-3.23819
0
LINE
8
BLACK
6
CONTINUOUS
10
2.89369
20
-3.23819
11
2.89369
21
-3.18307
0
LINE
8
BLACK
6
CONTINUOUS
10
2.89369
20
-3.18307
11
2.894
21
-3.18037
0
LINE
8
BLACK
6
CONTINUOUS
10
2.894
20
-3.18037
11
2.89575
21
-3.1764
0
LINE
8
BLACK
6
CONTINUOUS
10
2.89575
20
-3.1764
11
2.89882
21
-3.17333
0
LINE
8
BLACK
6
CONTINUOUS
10
2.89882
20
-3.17333
11
2.90279
21
-3.17157
0
LINE
8
BLACK
6
CONTINUOUS
10
2.90279
20
-3.17157
11
2.9055
21
-3.17126
0
LINE
8
BLACK
6
CONTINUOUS
10
2.9055
20
-3.17126
11
2.92912
21
-3.17126
0
LINE
8
BLACK
6
CONTINUOUS
10
2.92912
20
-3.17126
11
2.93182
21
-3.17157
0
LINE
8
BLACK
6
CONTINUOUS
10
2.99482
20
-3.17157
11
2.99879
21
-3.17333
0
LINE
8
BLACK
6
CONTINUOUS
10
2.99879
20
-3.17333
11
3.00186
21
-3.1764
0
LINE
8
BLACK
6
CONTINUOUS
10
3.00186
20
-3.1764
11
3.00362
21
-3.18037
0
LINE
8
BLACK
6
CONTINUOUS
10
3.00362
20
-3.18037
11
3.00393
21
-3.18307
0
LINE
8
BLACK
6
CONTINUOUS
10
3.00393
20
-3.18307
11
3.00393
21
-3.23819
0
LINE
8
BLACK
6
CONTINUOUS
10
3.00393
20
-3.23819
11
3.00362
21
-3.24089
0
LINE
8
BLACK
6
CONTINUOUS
10
3.00362
20
-3.24089
11
3.00186
21
-3.24486
0
LINE
8
BLACK
6
CONTINUOUS
10
3.00186
20
-3.24486
11
2.99879
21
-3.24793
0
LINE
8
BLACK
6
CONTINUOUS
10
2.99879
20
-3.24793
11
2.99482
21
-3.24969
0
LINE
8
BLACK
6
CONTINUOUS
10
2.99482
20
-3.24969
11
2.99212
21
-3.25
0
LINE
8
BLACK
6
CONTINUOUS
10
2.99212
20
-3.25
11
2.9685
21
-3.25
0
LINE
8
BLACK
6
CONTINUOUS
10
2.9685
20
-3.25
11
2.96579
21
-3.24969
0
LINE
8
BLACK
6
CONTINUOUS
10
2.96579
20
-3.24969
11
2.96182
21
-3.24793
0
LINE
8
BLACK
6
CONTINUOUS
10
2.96182
20
-3.24793
11
2.95875
21
-3.24486
0
LINE
8
BLACK
6
CONTINUOUS
10
2.95875
20
-3.24486
11
2.957
21
-3.24089
0
LINE
8
BLACK
6
CONTINUOUS
10
2.957
20
-3.24089
11
2.95669
21
-3.23819
0
LINE
8
BLACK
6
CONTINUOUS
10
2.95669
20
-3.23819
11
2.95669
21
-3.18307
0
LINE
8
BLACK
6
CONTINUOUS
10
2.95669
20
-3.18307
11
2.957
21
-3.18037
0
LINE
8
BLACK
6
CONTINUOUS
10
2.957
20
-3.18037
11
2.95875
21
-3.1764
0
LINE
8
BLACK
6
CONTINUOUS
10
2.95875
20
-3.1764
11
2.96182
21
-3.17333
0
LINE
8
BLACK
6
CONTINUOUS
10
2.96182
20
-3.17333
11
2.96579
21
-3.17157
0
LINE
8
BLACK
6
CONTINUOUS
10
2.96579
20
-3.17157
11
2.9685
21
-3.17126
0
LINE
8
BLACK
6
CONTINUOUS
10
2.9685
20
-3.17126
11
2.99212
21
-3.17126
0
LINE
8
BLACK
6
CONTINUOUS
10
2.99212
20
-3.17126
11
2.99482
21
-3.17157
0
LINE
8
BLACK
6
CONTINUOUS
10
3.05782
20
-3.17157
11
3.06179
21
-3.17333
0
LINE
8
BLACK
6
CONTINUOUS
10
3.06179
20
-3.17333
11
3.06486
21
-3.1764
0
LINE
8
BLACK
6
CONTINUOUS
10
3.06486
20
-3.1764
11
3.06662
21
-3.18037
0
LINE
8
BLACK
6
CONTINUOUS
10
3.06662
20
-3.18037
11
3.06693
21
-3.18307
0
LINE
8
BLACK
6
CONTINUOUS
10
3.06693
20
-3.18307
11
3.06693
21
-3.23819
0
LINE
8
BLACK
6
CONTINUOUS
10
3.06693
20
-3.23819
11
3.06662
21
-3.24089
0
LINE
8
BLACK
6
CONTINUOUS
10
3.06662
20
-3.24089
11
3.06486
21
-3.24486
0
LINE
8
BLACK
6
CONTINUOUS
10
3.06486
20
-3.24486
11
3.06179
21
-3.24793
0
LINE
8
BLACK
6
CONTINUOUS
10
3.06179
20
-3.24793
11
3.05782
21
-3.24969
0
LINE
8
BLACK
6
CONTINUOUS
10
3.05782
20
-3.24969
11
3.05512
21
-3.25
0
LINE
8
BLACK
6
CONTINUOUS
10
3.05512
20
-3.25
11
3.0315
21
-3.25
0
LINE
8
BLACK
6
CONTINUOUS
10
3.0315
20
-3.25
11
3.02879
21
-3.24969
0
LINE
8
BLACK
6
CONTINUOUS
10
3.02879
20
-3.24969
11
3.02482
21
-3.24793
0
LINE
8
BLACK
6
CONTINUOUS
10
3.02482
20
-3.24793
11
3.02175
21
-3.24486
0
LINE
8
BLACK
6
CONTINUOUS
10
3.02175
20
-3.24486
11
3.02
21
-3.24089
0
LINE
8
BLACK
6
CONTINUOUS
10
3.02
20
-3.24089
11
3.01969
21
-3.23819
0
LINE
8
BLACK
6
CONTINUOUS
10
3.01969
20
-3.23819
11
3.01969
21
-3.18307
0
LINE
8
BLACK
6
CONTINUOUS
10
3.01969
20
-3.18307
11
3.02
21
-3.18037
0
LINE
8
BLACK
6
CONTINUOUS
10
3.02
20
-3.18037
11
3.02175
21
-3.1764
0
LINE
8
BLACK
6
CONTINUOUS
10
3.02175
20
-3.1764
11
3.02482
21
-3.17333
0
LINE
8
BLACK
6
CONTINUOUS
10
3.02482
20
-3.17333
11
3.02879
21
-3.17157
0
LINE
8
BLACK
6
CONTINUOUS
10
3.02879
20
-3.17157
11
3.0315
21
-3.17126
0
LINE
8
BLACK
6
CONTINUOUS
10
3.0315
20
-3.17126
11
3.05512
21
-3.17126
0
LINE
8
BLACK
6
CONTINUOUS
10
3.05512
20
-3.17126
11
3.05782
21
-3.17157
0
LINE
8
BLACK
6
CONTINUOUS
10
3.12081
20
-3.17157
11
3.12479
21
-3.17333
0
LINE
8
BLACK
6
CONTINUOUS
10
3.12479
20
-3.17333
11
3.12785
21
-3.1764
0
LINE
8
BLACK
6
CONTINUOUS
10
3.12785
20
-3.1764
11
3.12961
21
-3.18037
0
LINE
8
BLACK
6
CONTINUOUS
10
3.12961
20
-3.18037
11
3.12992
21
-3.18307
0
LINE
8
BLACK
6
CONTINUOUS
10
3.12992
20
-3.18307
11
3.12992
21
-3.23819
0
LINE
8
BLACK
6
CONTINUOUS
10
3.12992
20
-3.23819
11
3.12961
21
-3.24089
0
LINE
8
BLACK
6
CONTINUOUS
10
3.12961
20
-3.24089
11
3.12785
21
-3.24486
0
LINE
8
BLACK
6
CONTINUOUS
10
3.12785
20
-3.24486
11
3.12479
21
-3.24793
0
LINE
8
BLACK
6
CONTINUOUS
10
3.12479
20
-3.24793
11
3.12081
21
-3.24969
0
LINE
8
BLACK
6
CONTINUOUS
10
3.12081
20
-3.24969
11
3.11811
21
-3.25
0
LINE
8
BLACK
6
CONTINUOUS
10
3.11811
20
-3.25
11
3.09449
21
-3.25
0
LINE
8
BLACK
6
CONTINUOUS
10
3.09449
20
-3.25
11
3.09178
21
-3.24969
0
LINE
8
BLACK
6
CONTINUOUS
10
3.09178
20
-3.24969
11
3.08781
21
-3.24793
0
LINE
8
BLACK
6
CONTINUOUS
10
3.08781
20
-3.24793
11
3.08474
21
-3.24486
0
LINE
8
BLACK
6
CONTINUOUS
10
3.08474
20
-3.24486
11
3.08299
21
-3.24089
0
LINE
8
BLACK
6
CONTINUOUS
10
3.08299
20
-3.24089
11
3.08268
21
-3.23819
0
LINE
8
BLACK
6
CONTINUOUS
10
3.08268
20
-3.23819
11
3.08268
21
-3.18307
0
LINE
8
BLACK
6
CONTINUOUS
10
3.08268
20
-3.18307
11
3.08299
21
-3.18037
0
LINE
8
BLACK
6
CONTINUOUS
10
3.08299
20
-3.18037
11
3.08474
21
-3.1764
0
LINE
8
BLACK
6
CONTINUOUS
10
3.08474
20
-3.1764
11
3.08781
21
-3.17333
0
LINE
8
BLACK
6
CONTINUOUS
10
3.08781
20
-3.17333
11
3.09178
21
-3.17157
0
LINE
8
BLACK
6
CONTINUOUS
10
3.09178
20
-3.17157
11
3.09449
21
-3.17126
0
LINE
8
BLACK
6
CONTINUOUS
10
3.09449
20
-3.17126
11
3.11811
21
-3.17126
0
LINE
8
BLACK
6
CONTINUOUS
10
3.11811
20
-3.17126
11
3.12081
21
-3.17157
  0
ENDSEC
  0
EOF
