  0
SECTION
  2
HEADER
  9
$ANGBASE
  50
0.0
  9
$ANGDIR
  70
1
  9
$MEASUREMENT
  70
0
  0
ENDSEC
  0
SECTION
  2
TABLES
  0
TABLE
  2
LTYPE
  70
4
  0
LTYPE
  5
40F
  2
CONTINUOUS
  70
0
  3
Solid line
  72
65
  73
0
  40
0.0
  0
LTYPE
  5
410
  2
DASHDOT
 70
0
  3
Dash Dot ____ _ ____ _
 72
65
 73
4
 40
2.0
 49
1.25
 49
-0.25
 49
0.25
 49
-0.25
  0
LTYPE
  5
411
  2
DASHED
 70
0
  3
Dashed __ __ __ __ __
 72
65
 73
2
 40
0.75
 49
0.5
 49
-0.25
  0
LTYPE
  5
43B
  2
DOTTED
 70
0
  3
Dotted .  .  .  .
 72
65
 73
2
 40
0.2
 49
0.0
 49
-0.2
  0
ENDTAB
  0
TABLE
  2
STYLE
  70
4
  0
STYLE
  2
KICAD
  70
0
  40
0
  41
1
  42
1
  50
0
  71
0
  3
isocp.shx
  0
STYLE
  2
KICADB
  70
0
  40
0
  41
1
  42
1
  50
0
  71
0
  3
isocp.shx
  0
STYLE
  2
KICADI
  70
0
  40
0
  41
1
  42
1
  50
15
  71
0
  3
isocp.shx
  0
STYLE
  2
KICADBI
  70
0
  40
0
  41
1
  42
1
  50
15
  71
0
  3
isocp.shx
  0
ENDTAB
  0
TABLE
  2
LAYER
  70
1
  0
LAYER
  2
BLACK
  70
0
  62
7
  6
CONTINUOUS
  0
ENDTAB
  0
ENDSEC
  0
SECTION
  2
ENTITIES
0
LINE
8
BLACK
6
CONTINUOUS
10
3.2089
20
-3.21047
11
3.2089
21
-3.21047
0
LINE
8
BLACK
6
CONTINUOUS
10
3.2089
20
-3.21047
11
3.20961
21
-3.21077
0
LINE
8
BLACK
6
CONTINUOUS
10
3.20961
20
-3.21077
11
3.21029
21
-3.21105
0
LINE
8
BLACK
6
CONTINUOUS
10
3.21029
20
-3.21105
11
3.21029
21
-3.21105
0
LINE
8
BLACK
6
CONTINUOUS
10
3.21029
20
-3.21105
11
3.21029
21
-3.21105
0
LINE
8
BLACK
6
CONTINUOUS
10
3.21029
20
-3.21105
11
3.21058
21
-3.21176
0
LINE
8
BLACK
6
CONTINUOUS
10
3.21058
20
-3.21176
11
3.21087
21
-3.21244
0
LINE
8
BLACK
6
CONTINUOUS
10
3.21087
20
-3.21244
11
3.21087
21
-3.21244
0
LINE
8
BLACK
6
CONTINUOUS
10
3.21087
20
-3.21244
11
3.21087
21
-3.21244
0
LINE
8
BLACK
6
CONTINUOUS
10
3.21087
20
-3.21244
11
3.21069
21
-3.94472
0
LINE
8
BLACK
6
CONTINUOUS
10
3.21069
20
-3.94472
11
3.2104
21
-3.94544
0
LINE
8
BLACK
6
CONTINUOUS
10
3.2104
20
-3.94544
11
3.21012
21
-3.94612
0
LINE
8
BLACK
6
CONTINUOUS
10
3.21012
20
-3.94612
11
3.21012
21
-3.94612
0
LINE
8
BLACK
6
CONTINUOUS
10
3.21012
20
-3.94612
11
3.21012
21
-3.94612
0
LINE
8
BLACK
6
CONTINUOUS
10
3.21012
20
-3.94612
11
3.20944
21
-3.9464
0
LINE
8
BLACK
6
CONTINUOUS
10
3.20944
20
-3.9464
11
3.20872
21
-3.94669
0
LINE
8
BLACK
6
CONTINUOUS
10
3.20872
20
-3.94669
11
3.20872
21
-3.94669
0
LINE
8
BLACK
6
CONTINUOUS
10
3.20872
20
-3.94669
11
2.81502
21
-3.94669
0
LINE
8
BLACK
6
CONTINUOUS
10
2.81502
20
-3.94669
11
2.81502
21
-3.94669
0
LINE
8
BLACK
6
CONTINUOUS
10
2.81502
20
-3.94669
11
2.81502
21
-3.94669
0
LINE
8
BLACK
6
CONTINUOUS
10
2.81502
20
-3.94669
11
2.81431
21
-3.9464
0
LINE
8
BLACK
6
CONTINUOUS
10
2.81431
20
-3.9464
11
2.81363
21
-3.94612
0
LINE
8
BLACK
6
CONTINUOUS
10
2.81363
20
-3.94612
11
2.81363
21
-3.94612
0
LINE
8
BLACK
6
CONTINUOUS
10
2.81363
20
-3.94612
11
2.81363
21
-3.94612
0
LINE
8
BLACK
6
CONTINUOUS
10
2.81363
20
-3.94612
11
2.81335
21
-3.94544
0
LINE
8
BLACK
6
CONTINUOUS
10
2.81335
20
-3.94544
11
2.81306
21
-3.94472
0
LINE
8
BLACK
6
CONTINUOUS
10
2.81306
20
-3.94472
11
2.81306
21
-3.94472
0
LINE
8
BLACK
6
CONTINUOUS
10
2.81306
20
-3.94472
11
2.81306
21
-3.94472
0
LINE
8
BLACK
6
CONTINUOUS
10
2.81306
20
-3.94472
11
2.81323
21
-3.21244
0
LINE
8
BLACK
6
CONTINUOUS
10
2.81323
20
-3.21244
11
2.81354
21
-3.21169
0
LINE
8
BLACK
6
CONTINUOUS
10
2.81354
20
-3.21169
11
2.8138
21
-3.21105
0
LINE
8
BLACK
6
CONTINUOUS
10
2.8138
20
-3.21105
11
2.81381
21
-3.21105
0
LINE
8
BLACK
6
CONTINUOUS
10
2.81381
20
-3.21105
11
2.81381
21
-3.21105
0
LINE
8
BLACK
6
CONTINUOUS
10
2.81381
20
-3.21105
11
2.81455
21
-3.21074
0
LINE
8
BLACK
6
CONTINUOUS
10
2.81455
20
-3.21074
11
2.8152
21
-3.21047
0
LINE
8
BLACK
6
CONTINUOUS
10
2.8152
20
-3.21047
11
3.2089
21
-3.21047
0
LINE
8
BLACK
6
CONTINUOUS
10
3.2089
20
-3.21047
11
3.2089
21
-3.21047
0
LINE
8
BLACK
6
CONTINUOUS
10
2.81716
20
-3.21441
11
2.81699
21
-3.94276
0
LINE
8
BLACK
6
CONTINUOUS
10
2.81699
20
-3.94276
11
3.20676
21
-3.94276
0
LINE
8
BLACK
6
CONTINUOUS
10
3.20676
20
-3.94276
11
3.20693
21
-3.21441
0
LINE
8
BLACK
6
CONTINUOUS
10
3.20693
20
-3.21441
11
2.81716
21
-3.21441
  0
ENDSEC
  0
EOF
