%TF.GenerationSoftware,KiCad,Pcbnew,7.0.8*%
%TF.CreationDate,2024-02-17T11:30:40+00:00*%
%TF.ProjectId,uCoilDriver_I2C,75436f69-6c44-4726-9976-65725f493243,rev?*%
%TF.SameCoordinates,Original*%
%TF.FileFunction,Legend,Top*%
%TF.FilePolarity,Positive*%
%FSLAX46Y46*%
G04 Gerber Fmt 4.6, Leading zero omitted, Abs format (unit mm)*
G04 Created by KiCad (PCBNEW 7.0.8) date 2024-02-17 11:30:40*
%MOMM*%
%LPD*%
G01*
G04 APERTURE LIST*
%ADD10C,0.080000*%
%ADD11C,0.220000*%
%ADD12C,0.125000*%
%ADD13C,0.150000*%
%ADD14C,0.100000*%
%ADD15C,0.120000*%
%ADD16C,0.250000*%
G04 APERTURE END LIST*
D10*
X78894297Y-97469673D02*
X78860964Y-97453006D01*
X78860964Y-97453006D02*
X78810964Y-97453006D01*
X78810964Y-97453006D02*
X78760964Y-97469673D01*
X78760964Y-97469673D02*
X78727631Y-97503006D01*
X78727631Y-97503006D02*
X78710964Y-97536340D01*
X78710964Y-97536340D02*
X78694297Y-97603006D01*
X78694297Y-97603006D02*
X78694297Y-97653006D01*
X78694297Y-97653006D02*
X78710964Y-97719673D01*
X78710964Y-97719673D02*
X78727631Y-97753006D01*
X78727631Y-97753006D02*
X78760964Y-97786340D01*
X78760964Y-97786340D02*
X78810964Y-97803006D01*
X78810964Y-97803006D02*
X78844297Y-97803006D01*
X78844297Y-97803006D02*
X78894297Y-97786340D01*
X78894297Y-97786340D02*
X78910964Y-97769673D01*
X78910964Y-97769673D02*
X78910964Y-97653006D01*
X78910964Y-97653006D02*
X78844297Y-97653006D01*
X79060964Y-97803006D02*
X79060964Y-97453006D01*
X79060964Y-97453006D02*
X79260964Y-97803006D01*
X79260964Y-97803006D02*
X79260964Y-97453006D01*
X79427631Y-97803006D02*
X79427631Y-97453006D01*
X79427631Y-97453006D02*
X79510964Y-97453006D01*
X79510964Y-97453006D02*
X79560964Y-97469673D01*
X79560964Y-97469673D02*
X79594298Y-97503006D01*
X79594298Y-97503006D02*
X79610964Y-97536340D01*
X79610964Y-97536340D02*
X79627631Y-97603006D01*
X79627631Y-97603006D02*
X79627631Y-97653006D01*
X79627631Y-97653006D02*
X79610964Y-97719673D01*
X79610964Y-97719673D02*
X79594298Y-97753006D01*
X79594298Y-97753006D02*
X79560964Y-97786340D01*
X79560964Y-97786340D02*
X79510964Y-97803006D01*
X79510964Y-97803006D02*
X79427631Y-97803006D01*
X76243897Y-98794673D02*
X76210564Y-98778006D01*
X76210564Y-98778006D02*
X76160564Y-98778006D01*
X76160564Y-98778006D02*
X76110564Y-98794673D01*
X76110564Y-98794673D02*
X76077231Y-98828006D01*
X76077231Y-98828006D02*
X76060564Y-98861340D01*
X76060564Y-98861340D02*
X76043897Y-98928006D01*
X76043897Y-98928006D02*
X76043897Y-98978006D01*
X76043897Y-98978006D02*
X76060564Y-99044673D01*
X76060564Y-99044673D02*
X76077231Y-99078006D01*
X76077231Y-99078006D02*
X76110564Y-99111340D01*
X76110564Y-99111340D02*
X76160564Y-99128006D01*
X76160564Y-99128006D02*
X76193897Y-99128006D01*
X76193897Y-99128006D02*
X76243897Y-99111340D01*
X76243897Y-99111340D02*
X76260564Y-99094673D01*
X76260564Y-99094673D02*
X76260564Y-98978006D01*
X76260564Y-98978006D02*
X76193897Y-98978006D01*
X76410564Y-99128006D02*
X76410564Y-98778006D01*
X76410564Y-98778006D02*
X76610564Y-99128006D01*
X76610564Y-99128006D02*
X76610564Y-98778006D01*
X76777231Y-99128006D02*
X76777231Y-98778006D01*
X76777231Y-98778006D02*
X76860564Y-98778006D01*
X76860564Y-98778006D02*
X76910564Y-98794673D01*
X76910564Y-98794673D02*
X76943898Y-98828006D01*
X76943898Y-98828006D02*
X76960564Y-98861340D01*
X76960564Y-98861340D02*
X76977231Y-98928006D01*
X76977231Y-98928006D02*
X76977231Y-98978006D01*
X76977231Y-98978006D02*
X76960564Y-99044673D01*
X76960564Y-99044673D02*
X76943898Y-99078006D01*
X76943898Y-99078006D02*
X76910564Y-99111340D01*
X76910564Y-99111340D02*
X76860564Y-99128006D01*
X76860564Y-99128006D02*
X76777231Y-99128006D01*
X72827231Y-98778006D02*
X72893897Y-98778006D01*
X72893897Y-98778006D02*
X72927231Y-98794673D01*
X72927231Y-98794673D02*
X72960564Y-98828006D01*
X72960564Y-98828006D02*
X72977231Y-98894673D01*
X72977231Y-98894673D02*
X72977231Y-99011340D01*
X72977231Y-99011340D02*
X72960564Y-99078006D01*
X72960564Y-99078006D02*
X72927231Y-99111340D01*
X72927231Y-99111340D02*
X72893897Y-99128006D01*
X72893897Y-99128006D02*
X72827231Y-99128006D01*
X72827231Y-99128006D02*
X72793897Y-99111340D01*
X72793897Y-99111340D02*
X72760564Y-99078006D01*
X72760564Y-99078006D02*
X72743897Y-99011340D01*
X72743897Y-99011340D02*
X72743897Y-98894673D01*
X72743897Y-98894673D02*
X72760564Y-98828006D01*
X72760564Y-98828006D02*
X72793897Y-98794673D01*
X72793897Y-98794673D02*
X72827231Y-98778006D01*
X73277231Y-98894673D02*
X73277231Y-99128006D01*
X73127231Y-98894673D02*
X73127231Y-99078006D01*
X73127231Y-99078006D02*
X73143898Y-99111340D01*
X73143898Y-99111340D02*
X73177231Y-99128006D01*
X73177231Y-99128006D02*
X73227231Y-99128006D01*
X73227231Y-99128006D02*
X73260564Y-99111340D01*
X73260564Y-99111340D02*
X73277231Y-99094673D01*
X73393898Y-98894673D02*
X73527231Y-98894673D01*
X73443898Y-98778006D02*
X73443898Y-99078006D01*
X73443898Y-99078006D02*
X73460565Y-99111340D01*
X73460565Y-99111340D02*
X73493898Y-99128006D01*
X73493898Y-99128006D02*
X73527231Y-99128006D01*
X73827231Y-99128006D02*
X73627231Y-99128006D01*
X73727231Y-99128006D02*
X73727231Y-98778006D01*
X73727231Y-98778006D02*
X73693898Y-98828006D01*
X73693898Y-98828006D02*
X73660565Y-98861340D01*
X73660565Y-98861340D02*
X73627231Y-98878006D01*
X77718897Y-99028006D02*
X77885564Y-99028006D01*
X77685564Y-99128006D02*
X77802231Y-98778006D01*
X77802231Y-98778006D02*
X77918897Y-99128006D01*
X78035564Y-99128006D02*
X78035564Y-98778006D01*
X78035564Y-98778006D02*
X78118897Y-98778006D01*
X78118897Y-98778006D02*
X78168897Y-98794673D01*
X78168897Y-98794673D02*
X78202231Y-98828006D01*
X78202231Y-98828006D02*
X78218897Y-98861340D01*
X78218897Y-98861340D02*
X78235564Y-98928006D01*
X78235564Y-98928006D02*
X78235564Y-98978006D01*
X78235564Y-98978006D02*
X78218897Y-99044673D01*
X78218897Y-99044673D02*
X78202231Y-99078006D01*
X78202231Y-99078006D02*
X78168897Y-99111340D01*
X78168897Y-99111340D02*
X78118897Y-99128006D01*
X78118897Y-99128006D02*
X78035564Y-99128006D01*
X78585564Y-99094673D02*
X78568897Y-99111340D01*
X78568897Y-99111340D02*
X78518897Y-99128006D01*
X78518897Y-99128006D02*
X78485564Y-99128006D01*
X78485564Y-99128006D02*
X78435564Y-99111340D01*
X78435564Y-99111340D02*
X78402231Y-99078006D01*
X78402231Y-99078006D02*
X78385564Y-99044673D01*
X78385564Y-99044673D02*
X78368897Y-98978006D01*
X78368897Y-98978006D02*
X78368897Y-98928006D01*
X78368897Y-98928006D02*
X78385564Y-98861340D01*
X78385564Y-98861340D02*
X78402231Y-98828006D01*
X78402231Y-98828006D02*
X78435564Y-98794673D01*
X78435564Y-98794673D02*
X78485564Y-98778006D01*
X78485564Y-98778006D02*
X78518897Y-98778006D01*
X78518897Y-98778006D02*
X78568897Y-98794673D01*
X78568897Y-98794673D02*
X78585564Y-98811340D01*
D11*
X72426076Y-89609671D02*
X71718970Y-88902564D01*
X72830137Y-89205610D02*
X72123031Y-89104595D01*
X72123031Y-88498503D02*
X72123031Y-89306625D01*
X73537244Y-88498503D02*
X72964824Y-88397488D01*
X73133183Y-88902564D02*
X72426076Y-88195458D01*
X72426076Y-88195458D02*
X72695450Y-87926084D01*
X72695450Y-87926084D02*
X72796466Y-87892412D01*
X72796466Y-87892412D02*
X72863809Y-87892412D01*
X72863809Y-87892412D02*
X72964824Y-87926084D01*
X72964824Y-87926084D02*
X73065840Y-88027099D01*
X73065840Y-88027099D02*
X73099511Y-88128114D01*
X73099511Y-88128114D02*
X73099511Y-88195458D01*
X73099511Y-88195458D02*
X73065840Y-88296473D01*
X73065840Y-88296473D02*
X72796466Y-88565847D01*
X73469901Y-87825068D02*
X73705603Y-87589366D01*
X74177007Y-87858740D02*
X73840290Y-88195458D01*
X73840290Y-88195458D02*
X73133183Y-87488351D01*
X73133183Y-87488351D02*
X73469901Y-87151633D01*
X74244351Y-87387336D02*
X74581069Y-87050618D01*
X74379038Y-87656710D02*
X73907633Y-86713901D01*
X73907633Y-86713901D02*
X74850443Y-87185305D01*
X75018801Y-86949603D02*
X75153488Y-86882259D01*
X75153488Y-86882259D02*
X75321847Y-86713900D01*
X75321847Y-86713900D02*
X75355519Y-86612885D01*
X75355519Y-86612885D02*
X75355519Y-86545542D01*
X75355519Y-86545542D02*
X75321847Y-86444526D01*
X75321847Y-86444526D02*
X75254504Y-86377183D01*
X75254504Y-86377183D02*
X75153488Y-86343511D01*
X75153488Y-86343511D02*
X75086145Y-86343511D01*
X75086145Y-86343511D02*
X74985130Y-86377183D01*
X74985130Y-86377183D02*
X74816771Y-86478198D01*
X74816771Y-86478198D02*
X74715756Y-86511870D01*
X74715756Y-86511870D02*
X74648412Y-86511870D01*
X74648412Y-86511870D02*
X74547397Y-86478198D01*
X74547397Y-86478198D02*
X74480053Y-86410855D01*
X74480053Y-86410855D02*
X74446382Y-86309839D01*
X74446382Y-86309839D02*
X74446382Y-86242496D01*
X74446382Y-86242496D02*
X74480053Y-86141481D01*
X74480053Y-86141481D02*
X74648412Y-85973122D01*
X74648412Y-85973122D02*
X74783099Y-85905778D01*
X75389191Y-85905778D02*
X75624893Y-85670076D01*
X76096297Y-85939450D02*
X75759580Y-86276168D01*
X75759580Y-86276168D02*
X75052473Y-85569061D01*
X75052473Y-85569061D02*
X75389191Y-85232343D01*
D12*
X79956119Y-82936811D02*
X79932309Y-82984430D01*
X79932309Y-82984430D02*
X79932309Y-83055859D01*
X79932309Y-83055859D02*
X79956119Y-83127287D01*
X79956119Y-83127287D02*
X80003738Y-83174906D01*
X80003738Y-83174906D02*
X80051357Y-83198716D01*
X80051357Y-83198716D02*
X80146595Y-83222525D01*
X80146595Y-83222525D02*
X80218023Y-83222525D01*
X80218023Y-83222525D02*
X80313261Y-83198716D01*
X80313261Y-83198716D02*
X80360880Y-83174906D01*
X80360880Y-83174906D02*
X80408500Y-83127287D01*
X80408500Y-83127287D02*
X80432309Y-83055859D01*
X80432309Y-83055859D02*
X80432309Y-83008240D01*
X80432309Y-83008240D02*
X80408500Y-82936811D01*
X80408500Y-82936811D02*
X80384690Y-82913002D01*
X80384690Y-82913002D02*
X80218023Y-82913002D01*
X80218023Y-82913002D02*
X80218023Y-83008240D01*
X80432309Y-82698716D02*
X79932309Y-82698716D01*
X79932309Y-82698716D02*
X80432309Y-82413002D01*
X80432309Y-82413002D02*
X79932309Y-82413002D01*
X80432309Y-82174906D02*
X79932309Y-82174906D01*
X79932309Y-82174906D02*
X79932309Y-82055858D01*
X79932309Y-82055858D02*
X79956119Y-81984430D01*
X79956119Y-81984430D02*
X80003738Y-81936811D01*
X80003738Y-81936811D02*
X80051357Y-81913001D01*
X80051357Y-81913001D02*
X80146595Y-81889192D01*
X80146595Y-81889192D02*
X80218023Y-81889192D01*
X80218023Y-81889192D02*
X80313261Y-81913001D01*
X80313261Y-81913001D02*
X80360880Y-81936811D01*
X80360880Y-81936811D02*
X80408500Y-81984430D01*
X80408500Y-81984430D02*
X80432309Y-82055858D01*
X80432309Y-82055858D02*
X80432309Y-82174906D01*
D10*
X80165964Y-97443006D02*
X80282631Y-97793006D01*
X80282631Y-97793006D02*
X80399297Y-97443006D01*
X80715964Y-97793006D02*
X80599297Y-97626340D01*
X80515964Y-97793006D02*
X80515964Y-97443006D01*
X80515964Y-97443006D02*
X80649297Y-97443006D01*
X80649297Y-97443006D02*
X80682631Y-97459673D01*
X80682631Y-97459673D02*
X80699297Y-97476340D01*
X80699297Y-97476340D02*
X80715964Y-97509673D01*
X80715964Y-97509673D02*
X80715964Y-97559673D01*
X80715964Y-97559673D02*
X80699297Y-97593006D01*
X80699297Y-97593006D02*
X80682631Y-97609673D01*
X80682631Y-97609673D02*
X80649297Y-97626340D01*
X80649297Y-97626340D02*
X80515964Y-97626340D01*
X80865964Y-97609673D02*
X80982631Y-97609673D01*
X81032631Y-97793006D02*
X80865964Y-97793006D01*
X80865964Y-97793006D02*
X80865964Y-97443006D01*
X80865964Y-97443006D02*
X81032631Y-97443006D01*
X81299298Y-97609673D02*
X81182631Y-97609673D01*
X81182631Y-97793006D02*
X81182631Y-97443006D01*
X81182631Y-97443006D02*
X81349298Y-97443006D01*
D12*
X73258500Y-84747525D02*
X73282309Y-84676097D01*
X73282309Y-84676097D02*
X73282309Y-84557049D01*
X73282309Y-84557049D02*
X73258500Y-84509430D01*
X73258500Y-84509430D02*
X73234690Y-84485621D01*
X73234690Y-84485621D02*
X73187071Y-84461811D01*
X73187071Y-84461811D02*
X73139452Y-84461811D01*
X73139452Y-84461811D02*
X73091833Y-84485621D01*
X73091833Y-84485621D02*
X73068023Y-84509430D01*
X73068023Y-84509430D02*
X73044214Y-84557049D01*
X73044214Y-84557049D02*
X73020404Y-84652287D01*
X73020404Y-84652287D02*
X72996595Y-84699906D01*
X72996595Y-84699906D02*
X72972785Y-84723716D01*
X72972785Y-84723716D02*
X72925166Y-84747525D01*
X72925166Y-84747525D02*
X72877547Y-84747525D01*
X72877547Y-84747525D02*
X72829928Y-84723716D01*
X72829928Y-84723716D02*
X72806119Y-84699906D01*
X72806119Y-84699906D02*
X72782309Y-84652287D01*
X72782309Y-84652287D02*
X72782309Y-84533240D01*
X72782309Y-84533240D02*
X72806119Y-84461811D01*
X73234690Y-83961812D02*
X73258500Y-83985621D01*
X73258500Y-83985621D02*
X73282309Y-84057050D01*
X73282309Y-84057050D02*
X73282309Y-84104669D01*
X73282309Y-84104669D02*
X73258500Y-84176097D01*
X73258500Y-84176097D02*
X73210880Y-84223716D01*
X73210880Y-84223716D02*
X73163261Y-84247526D01*
X73163261Y-84247526D02*
X73068023Y-84271335D01*
X73068023Y-84271335D02*
X72996595Y-84271335D01*
X72996595Y-84271335D02*
X72901357Y-84247526D01*
X72901357Y-84247526D02*
X72853738Y-84223716D01*
X72853738Y-84223716D02*
X72806119Y-84176097D01*
X72806119Y-84176097D02*
X72782309Y-84104669D01*
X72782309Y-84104669D02*
X72782309Y-84057050D01*
X72782309Y-84057050D02*
X72806119Y-83985621D01*
X72806119Y-83985621D02*
X72829928Y-83961812D01*
X73282309Y-83509431D02*
X73282309Y-83747526D01*
X73282309Y-83747526D02*
X72782309Y-83747526D01*
X72806119Y-82961811D02*
X72782309Y-83009430D01*
X72782309Y-83009430D02*
X72782309Y-83080859D01*
X72782309Y-83080859D02*
X72806119Y-83152287D01*
X72806119Y-83152287D02*
X72853738Y-83199906D01*
X72853738Y-83199906D02*
X72901357Y-83223716D01*
X72901357Y-83223716D02*
X72996595Y-83247525D01*
X72996595Y-83247525D02*
X73068023Y-83247525D01*
X73068023Y-83247525D02*
X73163261Y-83223716D01*
X73163261Y-83223716D02*
X73210880Y-83199906D01*
X73210880Y-83199906D02*
X73258500Y-83152287D01*
X73258500Y-83152287D02*
X73282309Y-83080859D01*
X73282309Y-83080859D02*
X73282309Y-83033240D01*
X73282309Y-83033240D02*
X73258500Y-82961811D01*
X73258500Y-82961811D02*
X73234690Y-82938002D01*
X73234690Y-82938002D02*
X73068023Y-82938002D01*
X73068023Y-82938002D02*
X73068023Y-83033240D01*
X73282309Y-82723716D02*
X72782309Y-82723716D01*
X72782309Y-82723716D02*
X73282309Y-82438002D01*
X73282309Y-82438002D02*
X72782309Y-82438002D01*
X73282309Y-82199906D02*
X72782309Y-82199906D01*
X72782309Y-82199906D02*
X72782309Y-82080858D01*
X72782309Y-82080858D02*
X72806119Y-82009430D01*
X72806119Y-82009430D02*
X72853738Y-81961811D01*
X72853738Y-81961811D02*
X72901357Y-81938001D01*
X72901357Y-81938001D02*
X72996595Y-81914192D01*
X72996595Y-81914192D02*
X73068023Y-81914192D01*
X73068023Y-81914192D02*
X73163261Y-81938001D01*
X73163261Y-81938001D02*
X73210880Y-81961811D01*
X73210880Y-81961811D02*
X73258500Y-82009430D01*
X73258500Y-82009430D02*
X73282309Y-82080858D01*
X73282309Y-82080858D02*
X73282309Y-82199906D01*
D13*
X71889866Y-98934649D02*
X72589866Y-98934649D01*
X72256533Y-98601316D02*
X72323200Y-98567982D01*
X72323200Y-98567982D02*
X72356533Y-98501316D01*
X72256533Y-98934649D02*
X72323200Y-98901316D01*
X72323200Y-98901316D02*
X72356533Y-98834649D01*
X72356533Y-98834649D02*
X72356533Y-98701316D01*
X72356533Y-98701316D02*
X72323200Y-98634649D01*
X72323200Y-98634649D02*
X72256533Y-98601316D01*
X72256533Y-98601316D02*
X71889866Y-98601316D01*
X72356533Y-98201316D02*
X71656533Y-98201316D01*
X71656533Y-98201316D02*
X71656533Y-98034649D01*
X71656533Y-98034649D02*
X71689866Y-97934649D01*
X71689866Y-97934649D02*
X71756533Y-97867983D01*
X71756533Y-97867983D02*
X71823200Y-97834649D01*
X71823200Y-97834649D02*
X71956533Y-97801316D01*
X71956533Y-97801316D02*
X72056533Y-97801316D01*
X72056533Y-97801316D02*
X72189866Y-97834649D01*
X72189866Y-97834649D02*
X72256533Y-97867983D01*
X72256533Y-97867983D02*
X72323200Y-97934649D01*
X72323200Y-97934649D02*
X72356533Y-98034649D01*
X72356533Y-98034649D02*
X72356533Y-98201316D01*
X72356533Y-97501316D02*
X71889866Y-97501316D01*
X72023200Y-97501316D02*
X71956533Y-97467983D01*
X71956533Y-97467983D02*
X71923200Y-97434649D01*
X71923200Y-97434649D02*
X71889866Y-97367983D01*
X71889866Y-97367983D02*
X71889866Y-97301316D01*
X72356533Y-97067983D02*
X71889866Y-97067983D01*
X71656533Y-97067983D02*
X71689866Y-97101316D01*
X71689866Y-97101316D02*
X71723200Y-97067983D01*
X71723200Y-97067983D02*
X71689866Y-97034650D01*
X71689866Y-97034650D02*
X71656533Y-97067983D01*
X71656533Y-97067983D02*
X71723200Y-97067983D01*
X71889866Y-96801317D02*
X72356533Y-96634650D01*
X72356533Y-96634650D02*
X71889866Y-96467983D01*
X72323200Y-95934650D02*
X72356533Y-96001317D01*
X72356533Y-96001317D02*
X72356533Y-96134650D01*
X72356533Y-96134650D02*
X72323200Y-96201317D01*
X72323200Y-96201317D02*
X72256533Y-96234650D01*
X72256533Y-96234650D02*
X71989866Y-96234650D01*
X71989866Y-96234650D02*
X71923200Y-96201317D01*
X71923200Y-96201317D02*
X71889866Y-96134650D01*
X71889866Y-96134650D02*
X71889866Y-96001317D01*
X71889866Y-96001317D02*
X71923200Y-95934650D01*
X71923200Y-95934650D02*
X71989866Y-95901317D01*
X71989866Y-95901317D02*
X72056533Y-95901317D01*
X72056533Y-95901317D02*
X72123200Y-96234650D01*
X72356533Y-95601317D02*
X71889866Y-95601317D01*
X72023200Y-95601317D02*
X71956533Y-95567984D01*
X71956533Y-95567984D02*
X71923200Y-95534650D01*
X71923200Y-95534650D02*
X71889866Y-95467984D01*
X71889866Y-95467984D02*
X71889866Y-95401317D01*
X71889866Y-94701318D02*
X72356533Y-94534651D01*
X72356533Y-94534651D02*
X71889866Y-94367984D01*
X72356533Y-93734651D02*
X72356533Y-94134651D01*
X72356533Y-93934651D02*
X71656533Y-93934651D01*
X71656533Y-93934651D02*
X71756533Y-94001318D01*
X71756533Y-94001318D02*
X71823200Y-94067985D01*
X71823200Y-94067985D02*
X71856533Y-94134651D01*
X72289866Y-93434651D02*
X72323200Y-93401318D01*
X72323200Y-93401318D02*
X72356533Y-93434651D01*
X72356533Y-93434651D02*
X72323200Y-93467984D01*
X72323200Y-93467984D02*
X72289866Y-93434651D01*
X72289866Y-93434651D02*
X72356533Y-93434651D01*
X71723200Y-93134651D02*
X71689866Y-93101318D01*
X71689866Y-93101318D02*
X71656533Y-93034651D01*
X71656533Y-93034651D02*
X71656533Y-92867985D01*
X71656533Y-92867985D02*
X71689866Y-92801318D01*
X71689866Y-92801318D02*
X71723200Y-92767985D01*
X71723200Y-92767985D02*
X71789866Y-92734651D01*
X71789866Y-92734651D02*
X71856533Y-92734651D01*
X71856533Y-92734651D02*
X71956533Y-92767985D01*
X71956533Y-92767985D02*
X72356533Y-93167985D01*
X72356533Y-93167985D02*
X72356533Y-92734651D01*
D12*
X80408500Y-84722525D02*
X80432309Y-84651097D01*
X80432309Y-84651097D02*
X80432309Y-84532049D01*
X80432309Y-84532049D02*
X80408500Y-84484430D01*
X80408500Y-84484430D02*
X80384690Y-84460621D01*
X80384690Y-84460621D02*
X80337071Y-84436811D01*
X80337071Y-84436811D02*
X80289452Y-84436811D01*
X80289452Y-84436811D02*
X80241833Y-84460621D01*
X80241833Y-84460621D02*
X80218023Y-84484430D01*
X80218023Y-84484430D02*
X80194214Y-84532049D01*
X80194214Y-84532049D02*
X80170404Y-84627287D01*
X80170404Y-84627287D02*
X80146595Y-84674906D01*
X80146595Y-84674906D02*
X80122785Y-84698716D01*
X80122785Y-84698716D02*
X80075166Y-84722525D01*
X80075166Y-84722525D02*
X80027547Y-84722525D01*
X80027547Y-84722525D02*
X79979928Y-84698716D01*
X79979928Y-84698716D02*
X79956119Y-84674906D01*
X79956119Y-84674906D02*
X79932309Y-84627287D01*
X79932309Y-84627287D02*
X79932309Y-84508240D01*
X79932309Y-84508240D02*
X79956119Y-84436811D01*
X80384690Y-83936812D02*
X80408500Y-83960621D01*
X80408500Y-83960621D02*
X80432309Y-84032050D01*
X80432309Y-84032050D02*
X80432309Y-84079669D01*
X80432309Y-84079669D02*
X80408500Y-84151097D01*
X80408500Y-84151097D02*
X80360880Y-84198716D01*
X80360880Y-84198716D02*
X80313261Y-84222526D01*
X80313261Y-84222526D02*
X80218023Y-84246335D01*
X80218023Y-84246335D02*
X80146595Y-84246335D01*
X80146595Y-84246335D02*
X80051357Y-84222526D01*
X80051357Y-84222526D02*
X80003738Y-84198716D01*
X80003738Y-84198716D02*
X79956119Y-84151097D01*
X79956119Y-84151097D02*
X79932309Y-84079669D01*
X79932309Y-84079669D02*
X79932309Y-84032050D01*
X79932309Y-84032050D02*
X79956119Y-83960621D01*
X79956119Y-83960621D02*
X79979928Y-83936812D01*
X80432309Y-83484431D02*
X80432309Y-83722526D01*
X80432309Y-83722526D02*
X79932309Y-83722526D01*
D10*
X80162631Y-95143006D02*
X80379297Y-95143006D01*
X80379297Y-95143006D02*
X80262631Y-95276340D01*
X80262631Y-95276340D02*
X80312631Y-95276340D01*
X80312631Y-95276340D02*
X80345964Y-95293006D01*
X80345964Y-95293006D02*
X80362631Y-95309673D01*
X80362631Y-95309673D02*
X80379297Y-95343006D01*
X80379297Y-95343006D02*
X80379297Y-95426340D01*
X80379297Y-95426340D02*
X80362631Y-95459673D01*
X80362631Y-95459673D02*
X80345964Y-95476340D01*
X80345964Y-95476340D02*
X80312631Y-95493006D01*
X80312631Y-95493006D02*
X80212631Y-95493006D01*
X80212631Y-95493006D02*
X80179297Y-95476340D01*
X80179297Y-95476340D02*
X80162631Y-95459673D01*
X80529297Y-95459673D02*
X80545964Y-95476340D01*
X80545964Y-95476340D02*
X80529297Y-95493006D01*
X80529297Y-95493006D02*
X80512630Y-95476340D01*
X80512630Y-95476340D02*
X80529297Y-95459673D01*
X80529297Y-95459673D02*
X80529297Y-95493006D01*
X80662631Y-95143006D02*
X80879297Y-95143006D01*
X80879297Y-95143006D02*
X80762631Y-95276340D01*
X80762631Y-95276340D02*
X80812631Y-95276340D01*
X80812631Y-95276340D02*
X80845964Y-95293006D01*
X80845964Y-95293006D02*
X80862631Y-95309673D01*
X80862631Y-95309673D02*
X80879297Y-95343006D01*
X80879297Y-95343006D02*
X80879297Y-95426340D01*
X80879297Y-95426340D02*
X80862631Y-95459673D01*
X80862631Y-95459673D02*
X80845964Y-95476340D01*
X80845964Y-95476340D02*
X80812631Y-95493006D01*
X80812631Y-95493006D02*
X80712631Y-95493006D01*
X80712631Y-95493006D02*
X80679297Y-95476340D01*
X80679297Y-95476340D02*
X80662631Y-95459673D01*
X80979297Y-95143006D02*
X81095964Y-95493006D01*
X81095964Y-95493006D02*
X81212630Y-95143006D01*
X79252231Y-98778006D02*
X79468897Y-98778006D01*
X79468897Y-98778006D02*
X79352231Y-98911340D01*
X79352231Y-98911340D02*
X79402231Y-98911340D01*
X79402231Y-98911340D02*
X79435564Y-98928006D01*
X79435564Y-98928006D02*
X79452231Y-98944673D01*
X79452231Y-98944673D02*
X79468897Y-98978006D01*
X79468897Y-98978006D02*
X79468897Y-99061340D01*
X79468897Y-99061340D02*
X79452231Y-99094673D01*
X79452231Y-99094673D02*
X79435564Y-99111340D01*
X79435564Y-99111340D02*
X79402231Y-99128006D01*
X79402231Y-99128006D02*
X79302231Y-99128006D01*
X79302231Y-99128006D02*
X79268897Y-99111340D01*
X79268897Y-99111340D02*
X79252231Y-99094673D01*
X79618897Y-99094673D02*
X79635564Y-99111340D01*
X79635564Y-99111340D02*
X79618897Y-99128006D01*
X79618897Y-99128006D02*
X79602230Y-99111340D01*
X79602230Y-99111340D02*
X79618897Y-99094673D01*
X79618897Y-99094673D02*
X79618897Y-99128006D01*
X79752231Y-98778006D02*
X79968897Y-98778006D01*
X79968897Y-98778006D02*
X79852231Y-98911340D01*
X79852231Y-98911340D02*
X79902231Y-98911340D01*
X79902231Y-98911340D02*
X79935564Y-98928006D01*
X79935564Y-98928006D02*
X79952231Y-98944673D01*
X79952231Y-98944673D02*
X79968897Y-98978006D01*
X79968897Y-98978006D02*
X79968897Y-99061340D01*
X79968897Y-99061340D02*
X79952231Y-99094673D01*
X79952231Y-99094673D02*
X79935564Y-99111340D01*
X79935564Y-99111340D02*
X79902231Y-99128006D01*
X79902231Y-99128006D02*
X79802231Y-99128006D01*
X79802231Y-99128006D02*
X79768897Y-99111340D01*
X79768897Y-99111340D02*
X79752231Y-99094673D01*
X80068897Y-98778006D02*
X80185564Y-99128006D01*
X80185564Y-99128006D02*
X80302230Y-98778006D01*
D12*
X80408500Y-86422525D02*
X80432309Y-86351097D01*
X80432309Y-86351097D02*
X80432309Y-86232049D01*
X80432309Y-86232049D02*
X80408500Y-86184430D01*
X80408500Y-86184430D02*
X80384690Y-86160621D01*
X80384690Y-86160621D02*
X80337071Y-86136811D01*
X80337071Y-86136811D02*
X80289452Y-86136811D01*
X80289452Y-86136811D02*
X80241833Y-86160621D01*
X80241833Y-86160621D02*
X80218023Y-86184430D01*
X80218023Y-86184430D02*
X80194214Y-86232049D01*
X80194214Y-86232049D02*
X80170404Y-86327287D01*
X80170404Y-86327287D02*
X80146595Y-86374906D01*
X80146595Y-86374906D02*
X80122785Y-86398716D01*
X80122785Y-86398716D02*
X80075166Y-86422525D01*
X80075166Y-86422525D02*
X80027547Y-86422525D01*
X80027547Y-86422525D02*
X79979928Y-86398716D01*
X79979928Y-86398716D02*
X79956119Y-86374906D01*
X79956119Y-86374906D02*
X79932309Y-86327287D01*
X79932309Y-86327287D02*
X79932309Y-86208240D01*
X79932309Y-86208240D02*
X79956119Y-86136811D01*
X80432309Y-85922526D02*
X79932309Y-85922526D01*
X79932309Y-85922526D02*
X79932309Y-85803478D01*
X79932309Y-85803478D02*
X79956119Y-85732050D01*
X79956119Y-85732050D02*
X80003738Y-85684431D01*
X80003738Y-85684431D02*
X80051357Y-85660621D01*
X80051357Y-85660621D02*
X80146595Y-85636812D01*
X80146595Y-85636812D02*
X80218023Y-85636812D01*
X80218023Y-85636812D02*
X80313261Y-85660621D01*
X80313261Y-85660621D02*
X80360880Y-85684431D01*
X80360880Y-85684431D02*
X80408500Y-85732050D01*
X80408500Y-85732050D02*
X80432309Y-85803478D01*
X80432309Y-85803478D02*
X80432309Y-85922526D01*
X80289452Y-85446335D02*
X80289452Y-85208240D01*
X80432309Y-85493954D02*
X79932309Y-85327288D01*
X79932309Y-85327288D02*
X80432309Y-85160621D01*
D10*
X74477231Y-98778006D02*
X74543897Y-98778006D01*
X74543897Y-98778006D02*
X74577231Y-98794673D01*
X74577231Y-98794673D02*
X74610564Y-98828006D01*
X74610564Y-98828006D02*
X74627231Y-98894673D01*
X74627231Y-98894673D02*
X74627231Y-99011340D01*
X74627231Y-99011340D02*
X74610564Y-99078006D01*
X74610564Y-99078006D02*
X74577231Y-99111340D01*
X74577231Y-99111340D02*
X74543897Y-99128006D01*
X74543897Y-99128006D02*
X74477231Y-99128006D01*
X74477231Y-99128006D02*
X74443897Y-99111340D01*
X74443897Y-99111340D02*
X74410564Y-99078006D01*
X74410564Y-99078006D02*
X74393897Y-99011340D01*
X74393897Y-99011340D02*
X74393897Y-98894673D01*
X74393897Y-98894673D02*
X74410564Y-98828006D01*
X74410564Y-98828006D02*
X74443897Y-98794673D01*
X74443897Y-98794673D02*
X74477231Y-98778006D01*
X74927231Y-98894673D02*
X74927231Y-99128006D01*
X74777231Y-98894673D02*
X74777231Y-99078006D01*
X74777231Y-99078006D02*
X74793898Y-99111340D01*
X74793898Y-99111340D02*
X74827231Y-99128006D01*
X74827231Y-99128006D02*
X74877231Y-99128006D01*
X74877231Y-99128006D02*
X74910564Y-99111340D01*
X74910564Y-99111340D02*
X74927231Y-99094673D01*
X75043898Y-98894673D02*
X75177231Y-98894673D01*
X75093898Y-98778006D02*
X75093898Y-99078006D01*
X75093898Y-99078006D02*
X75110565Y-99111340D01*
X75110565Y-99111340D02*
X75143898Y-99128006D01*
X75143898Y-99128006D02*
X75177231Y-99128006D01*
X75277231Y-98811340D02*
X75293898Y-98794673D01*
X75293898Y-98794673D02*
X75327231Y-98778006D01*
X75327231Y-98778006D02*
X75410565Y-98778006D01*
X75410565Y-98778006D02*
X75443898Y-98794673D01*
X75443898Y-98794673D02*
X75460565Y-98811340D01*
X75460565Y-98811340D02*
X75477231Y-98844673D01*
X75477231Y-98844673D02*
X75477231Y-98878006D01*
X75477231Y-98878006D02*
X75460565Y-98928006D01*
X75460565Y-98928006D02*
X75260565Y-99128006D01*
X75260565Y-99128006D02*
X75477231Y-99128006D01*
D14*
X73501503Y-94205847D02*
X73311027Y-94205847D01*
X73311027Y-94205847D02*
X73311027Y-93805847D01*
X73634837Y-94205847D02*
X73634837Y-93805847D01*
X73634837Y-93805847D02*
X73730075Y-93805847D01*
X73730075Y-93805847D02*
X73787218Y-93824895D01*
X73787218Y-93824895D02*
X73825313Y-93862990D01*
X73825313Y-93862990D02*
X73844360Y-93901085D01*
X73844360Y-93901085D02*
X73863408Y-93977276D01*
X73863408Y-93977276D02*
X73863408Y-94034419D01*
X73863408Y-94034419D02*
X73844360Y-94110609D01*
X73844360Y-94110609D02*
X73825313Y-94148704D01*
X73825313Y-94148704D02*
X73787218Y-94186800D01*
X73787218Y-94186800D02*
X73730075Y-94205847D01*
X73730075Y-94205847D02*
X73634837Y-94205847D01*
X74244360Y-94205847D02*
X74015789Y-94205847D01*
X74130075Y-94205847D02*
X74130075Y-93805847D01*
X74130075Y-93805847D02*
X74091979Y-93862990D01*
X74091979Y-93862990D02*
X74053884Y-93901085D01*
X74053884Y-93901085D02*
X74015789Y-93920133D01*
D10*
X75519297Y-97744673D02*
X75485964Y-97728006D01*
X75485964Y-97728006D02*
X75435964Y-97728006D01*
X75435964Y-97728006D02*
X75385964Y-97744673D01*
X75385964Y-97744673D02*
X75352631Y-97778006D01*
X75352631Y-97778006D02*
X75335964Y-97811340D01*
X75335964Y-97811340D02*
X75319297Y-97878006D01*
X75319297Y-97878006D02*
X75319297Y-97928006D01*
X75319297Y-97928006D02*
X75335964Y-97994673D01*
X75335964Y-97994673D02*
X75352631Y-98028006D01*
X75352631Y-98028006D02*
X75385964Y-98061340D01*
X75385964Y-98061340D02*
X75435964Y-98078006D01*
X75435964Y-98078006D02*
X75469297Y-98078006D01*
X75469297Y-98078006D02*
X75519297Y-98061340D01*
X75519297Y-98061340D02*
X75535964Y-98044673D01*
X75535964Y-98044673D02*
X75535964Y-97928006D01*
X75535964Y-97928006D02*
X75469297Y-97928006D01*
X75685964Y-98078006D02*
X75685964Y-97728006D01*
X75685964Y-97728006D02*
X75885964Y-98078006D01*
X75885964Y-98078006D02*
X75885964Y-97728006D01*
X76052631Y-98078006D02*
X76052631Y-97728006D01*
X76052631Y-97728006D02*
X76135964Y-97728006D01*
X76135964Y-97728006D02*
X76185964Y-97744673D01*
X76185964Y-97744673D02*
X76219298Y-97778006D01*
X76219298Y-97778006D02*
X76235964Y-97811340D01*
X76235964Y-97811340D02*
X76252631Y-97878006D01*
X76252631Y-97878006D02*
X76252631Y-97928006D01*
X76252631Y-97928006D02*
X76235964Y-97994673D01*
X76235964Y-97994673D02*
X76219298Y-98028006D01*
X76219298Y-98028006D02*
X76185964Y-98061340D01*
X76185964Y-98061340D02*
X76135964Y-98078006D01*
X76135964Y-98078006D02*
X76052631Y-98078006D01*
D12*
X73258500Y-86447525D02*
X73282309Y-86376097D01*
X73282309Y-86376097D02*
X73282309Y-86257049D01*
X73282309Y-86257049D02*
X73258500Y-86209430D01*
X73258500Y-86209430D02*
X73234690Y-86185621D01*
X73234690Y-86185621D02*
X73187071Y-86161811D01*
X73187071Y-86161811D02*
X73139452Y-86161811D01*
X73139452Y-86161811D02*
X73091833Y-86185621D01*
X73091833Y-86185621D02*
X73068023Y-86209430D01*
X73068023Y-86209430D02*
X73044214Y-86257049D01*
X73044214Y-86257049D02*
X73020404Y-86352287D01*
X73020404Y-86352287D02*
X72996595Y-86399906D01*
X72996595Y-86399906D02*
X72972785Y-86423716D01*
X72972785Y-86423716D02*
X72925166Y-86447525D01*
X72925166Y-86447525D02*
X72877547Y-86447525D01*
X72877547Y-86447525D02*
X72829928Y-86423716D01*
X72829928Y-86423716D02*
X72806119Y-86399906D01*
X72806119Y-86399906D02*
X72782309Y-86352287D01*
X72782309Y-86352287D02*
X72782309Y-86233240D01*
X72782309Y-86233240D02*
X72806119Y-86161811D01*
X73282309Y-85947526D02*
X72782309Y-85947526D01*
X72782309Y-85947526D02*
X72782309Y-85828478D01*
X72782309Y-85828478D02*
X72806119Y-85757050D01*
X72806119Y-85757050D02*
X72853738Y-85709431D01*
X72853738Y-85709431D02*
X72901357Y-85685621D01*
X72901357Y-85685621D02*
X72996595Y-85661812D01*
X72996595Y-85661812D02*
X73068023Y-85661812D01*
X73068023Y-85661812D02*
X73163261Y-85685621D01*
X73163261Y-85685621D02*
X73210880Y-85709431D01*
X73210880Y-85709431D02*
X73258500Y-85757050D01*
X73258500Y-85757050D02*
X73282309Y-85828478D01*
X73282309Y-85828478D02*
X73282309Y-85947526D01*
X73139452Y-85471335D02*
X73139452Y-85233240D01*
X73282309Y-85518954D02*
X72782309Y-85352288D01*
X72782309Y-85352288D02*
X73282309Y-85185621D01*
X81352309Y-89898716D02*
X80852309Y-89898716D01*
X80852309Y-89898716D02*
X81352309Y-89613002D01*
X81352309Y-89613002D02*
X80852309Y-89613002D01*
X81352309Y-89089192D02*
X81114214Y-89255858D01*
X81352309Y-89374906D02*
X80852309Y-89374906D01*
X80852309Y-89374906D02*
X80852309Y-89184430D01*
X80852309Y-89184430D02*
X80876119Y-89136811D01*
X80876119Y-89136811D02*
X80899928Y-89113001D01*
X80899928Y-89113001D02*
X80947547Y-89089192D01*
X80947547Y-89089192D02*
X81018976Y-89089192D01*
X81018976Y-89089192D02*
X81066595Y-89113001D01*
X81066595Y-89113001D02*
X81090404Y-89136811D01*
X81090404Y-89136811D02*
X81114214Y-89184430D01*
X81114214Y-89184430D02*
X81114214Y-89374906D01*
X81328500Y-88898715D02*
X81352309Y-88827287D01*
X81352309Y-88827287D02*
X81352309Y-88708239D01*
X81352309Y-88708239D02*
X81328500Y-88660620D01*
X81328500Y-88660620D02*
X81304690Y-88636811D01*
X81304690Y-88636811D02*
X81257071Y-88613001D01*
X81257071Y-88613001D02*
X81209452Y-88613001D01*
X81209452Y-88613001D02*
X81161833Y-88636811D01*
X81161833Y-88636811D02*
X81138023Y-88660620D01*
X81138023Y-88660620D02*
X81114214Y-88708239D01*
X81114214Y-88708239D02*
X81090404Y-88803477D01*
X81090404Y-88803477D02*
X81066595Y-88851096D01*
X81066595Y-88851096D02*
X81042785Y-88874906D01*
X81042785Y-88874906D02*
X80995166Y-88898715D01*
X80995166Y-88898715D02*
X80947547Y-88898715D01*
X80947547Y-88898715D02*
X80899928Y-88874906D01*
X80899928Y-88874906D02*
X80876119Y-88851096D01*
X80876119Y-88851096D02*
X80852309Y-88803477D01*
X80852309Y-88803477D02*
X80852309Y-88684430D01*
X80852309Y-88684430D02*
X80876119Y-88613001D01*
X80852309Y-88470144D02*
X80852309Y-88184430D01*
X81352309Y-88327287D02*
X80852309Y-88327287D01*
D10*
X78802631Y-95319673D02*
X78852631Y-95336340D01*
X78852631Y-95336340D02*
X78869297Y-95353006D01*
X78869297Y-95353006D02*
X78885964Y-95386340D01*
X78885964Y-95386340D02*
X78885964Y-95436340D01*
X78885964Y-95436340D02*
X78869297Y-95469673D01*
X78869297Y-95469673D02*
X78852631Y-95486340D01*
X78852631Y-95486340D02*
X78819297Y-95503006D01*
X78819297Y-95503006D02*
X78685964Y-95503006D01*
X78685964Y-95503006D02*
X78685964Y-95153006D01*
X78685964Y-95153006D02*
X78802631Y-95153006D01*
X78802631Y-95153006D02*
X78835964Y-95169673D01*
X78835964Y-95169673D02*
X78852631Y-95186340D01*
X78852631Y-95186340D02*
X78869297Y-95219673D01*
X78869297Y-95219673D02*
X78869297Y-95253006D01*
X78869297Y-95253006D02*
X78852631Y-95286340D01*
X78852631Y-95286340D02*
X78835964Y-95303006D01*
X78835964Y-95303006D02*
X78802631Y-95319673D01*
X78802631Y-95319673D02*
X78685964Y-95319673D01*
X79085964Y-95503006D02*
X79052631Y-95486340D01*
X79052631Y-95486340D02*
X79035964Y-95469673D01*
X79035964Y-95469673D02*
X79019297Y-95436340D01*
X79019297Y-95436340D02*
X79019297Y-95336340D01*
X79019297Y-95336340D02*
X79035964Y-95303006D01*
X79035964Y-95303006D02*
X79052631Y-95286340D01*
X79052631Y-95286340D02*
X79085964Y-95269673D01*
X79085964Y-95269673D02*
X79135964Y-95269673D01*
X79135964Y-95269673D02*
X79169297Y-95286340D01*
X79169297Y-95286340D02*
X79185964Y-95303006D01*
X79185964Y-95303006D02*
X79202631Y-95336340D01*
X79202631Y-95336340D02*
X79202631Y-95436340D01*
X79202631Y-95436340D02*
X79185964Y-95469673D01*
X79185964Y-95469673D02*
X79169297Y-95486340D01*
X79169297Y-95486340D02*
X79135964Y-95503006D01*
X79135964Y-95503006D02*
X79085964Y-95503006D01*
X79402631Y-95503006D02*
X79369298Y-95486340D01*
X79369298Y-95486340D02*
X79352631Y-95469673D01*
X79352631Y-95469673D02*
X79335964Y-95436340D01*
X79335964Y-95436340D02*
X79335964Y-95336340D01*
X79335964Y-95336340D02*
X79352631Y-95303006D01*
X79352631Y-95303006D02*
X79369298Y-95286340D01*
X79369298Y-95286340D02*
X79402631Y-95269673D01*
X79402631Y-95269673D02*
X79452631Y-95269673D01*
X79452631Y-95269673D02*
X79485964Y-95286340D01*
X79485964Y-95286340D02*
X79502631Y-95303006D01*
X79502631Y-95303006D02*
X79519298Y-95336340D01*
X79519298Y-95336340D02*
X79519298Y-95436340D01*
X79519298Y-95436340D02*
X79502631Y-95469673D01*
X79502631Y-95469673D02*
X79485964Y-95486340D01*
X79485964Y-95486340D02*
X79452631Y-95503006D01*
X79452631Y-95503006D02*
X79402631Y-95503006D01*
X79619298Y-95269673D02*
X79752631Y-95269673D01*
X79669298Y-95153006D02*
X79669298Y-95453006D01*
X79669298Y-95453006D02*
X79685965Y-95486340D01*
X79685965Y-95486340D02*
X79719298Y-95503006D01*
X79719298Y-95503006D02*
X79752631Y-95503006D01*
D14*
X76201503Y-88325847D02*
X76011027Y-88325847D01*
X76011027Y-88325847D02*
X76011027Y-87925847D01*
X76334837Y-88325847D02*
X76334837Y-87925847D01*
X76334837Y-87925847D02*
X76430075Y-87925847D01*
X76430075Y-87925847D02*
X76487218Y-87944895D01*
X76487218Y-87944895D02*
X76525313Y-87982990D01*
X76525313Y-87982990D02*
X76544360Y-88021085D01*
X76544360Y-88021085D02*
X76563408Y-88097276D01*
X76563408Y-88097276D02*
X76563408Y-88154419D01*
X76563408Y-88154419D02*
X76544360Y-88230609D01*
X76544360Y-88230609D02*
X76525313Y-88268704D01*
X76525313Y-88268704D02*
X76487218Y-88306800D01*
X76487218Y-88306800D02*
X76430075Y-88325847D01*
X76430075Y-88325847D02*
X76334837Y-88325847D01*
X76715789Y-87963942D02*
X76734837Y-87944895D01*
X76734837Y-87944895D02*
X76772932Y-87925847D01*
X76772932Y-87925847D02*
X76868170Y-87925847D01*
X76868170Y-87925847D02*
X76906265Y-87944895D01*
X76906265Y-87944895D02*
X76925313Y-87963942D01*
X76925313Y-87963942D02*
X76944360Y-88002038D01*
X76944360Y-88002038D02*
X76944360Y-88040133D01*
X76944360Y-88040133D02*
X76925313Y-88097276D01*
X76925313Y-88097276D02*
X76696741Y-88325847D01*
X76696741Y-88325847D02*
X76944360Y-88325847D01*
D12*
X78067474Y-83348500D02*
X78138902Y-83372309D01*
X78138902Y-83372309D02*
X78257950Y-83372309D01*
X78257950Y-83372309D02*
X78305569Y-83348500D01*
X78305569Y-83348500D02*
X78329378Y-83324690D01*
X78329378Y-83324690D02*
X78353188Y-83277071D01*
X78353188Y-83277071D02*
X78353188Y-83229452D01*
X78353188Y-83229452D02*
X78329378Y-83181833D01*
X78329378Y-83181833D02*
X78305569Y-83158023D01*
X78305569Y-83158023D02*
X78257950Y-83134214D01*
X78257950Y-83134214D02*
X78162712Y-83110404D01*
X78162712Y-83110404D02*
X78115093Y-83086595D01*
X78115093Y-83086595D02*
X78091283Y-83062785D01*
X78091283Y-83062785D02*
X78067474Y-83015166D01*
X78067474Y-83015166D02*
X78067474Y-82967547D01*
X78067474Y-82967547D02*
X78091283Y-82919928D01*
X78091283Y-82919928D02*
X78115093Y-82896119D01*
X78115093Y-82896119D02*
X78162712Y-82872309D01*
X78162712Y-82872309D02*
X78281759Y-82872309D01*
X78281759Y-82872309D02*
X78353188Y-82896119D01*
X78519854Y-82872309D02*
X78638902Y-83372309D01*
X78638902Y-83372309D02*
X78734140Y-83015166D01*
X78734140Y-83015166D02*
X78829378Y-83372309D01*
X78829378Y-83372309D02*
X78948426Y-82872309D01*
X79138902Y-83372309D02*
X79138902Y-82872309D01*
X79472235Y-82872309D02*
X79567473Y-82872309D01*
X79567473Y-82872309D02*
X79615092Y-82896119D01*
X79615092Y-82896119D02*
X79662711Y-82943738D01*
X79662711Y-82943738D02*
X79686521Y-83038976D01*
X79686521Y-83038976D02*
X79686521Y-83205642D01*
X79686521Y-83205642D02*
X79662711Y-83300880D01*
X79662711Y-83300880D02*
X79615092Y-83348500D01*
X79615092Y-83348500D02*
X79567473Y-83372309D01*
X79567473Y-83372309D02*
X79472235Y-83372309D01*
X79472235Y-83372309D02*
X79424616Y-83348500D01*
X79424616Y-83348500D02*
X79376997Y-83300880D01*
X79376997Y-83300880D02*
X79353188Y-83205642D01*
X79353188Y-83205642D02*
X79353188Y-83038976D01*
X79353188Y-83038976D02*
X79376997Y-82943738D01*
X79376997Y-82943738D02*
X79424616Y-82896119D01*
X79424616Y-82896119D02*
X79472235Y-82872309D01*
D15*
%TO.C,C8*%
X79269190Y-92271693D02*
X79421693Y-92119190D01*
X79778307Y-92780810D02*
X79930810Y-92628307D01*
%TO.C,U2*%
X79167525Y-91473573D02*
X79008426Y-91632672D01*
X76024435Y-94298465D02*
X76183534Y-94457564D01*
X79008426Y-91314474D02*
X79167525Y-91473573D01*
X73358642Y-91632672D02*
X73199543Y-91473573D01*
X76342633Y-88648681D02*
X76183534Y-88489582D01*
X73199543Y-91473573D02*
X73358642Y-91314474D01*
X76183534Y-88489582D02*
X76024435Y-88648681D01*
%TO.C,R4*%
X77820000Y-96735121D02*
X77820000Y-96399879D01*
X78580000Y-96735121D02*
X78580000Y-96399879D01*
D16*
%TO.C,U1*%
X77950000Y-95408000D02*
G75*
G03*
X77950000Y-95408000I-125000J0D01*
G01*
%TO.C,G\u002A\u002A\u002A*%
G36*
X81396137Y-93590108D02*
G01*
X81396473Y-93627206D01*
X81396781Y-93664116D01*
X81397042Y-93698620D01*
X81397242Y-93728502D01*
X81397363Y-93751547D01*
X81397387Y-93758750D01*
X81397500Y-93807500D01*
X81385184Y-93806121D01*
X81369163Y-93799808D01*
X81354908Y-93786242D01*
X81345243Y-93768113D01*
X81345211Y-93768015D01*
X81341070Y-93749692D01*
X81337793Y-93724154D01*
X81335550Y-93694166D01*
X81334508Y-93662489D01*
X81334835Y-93631886D01*
X81335842Y-93614125D01*
X81341211Y-93567221D01*
X81349059Y-93529699D01*
X81359356Y-93501649D01*
X81372070Y-93483163D01*
X81382099Y-93476093D01*
X81395000Y-93470215D01*
X81396137Y-93590108D01*
G37*
G36*
X81620245Y-93472958D02*
G01*
X81628552Y-93478862D01*
X81643107Y-93496180D01*
X81654513Y-93522929D01*
X81662774Y-93559124D01*
X81667894Y-93604782D01*
X81669876Y-93659919D01*
X81669901Y-93666063D01*
X81669637Y-93695262D01*
X81668552Y-93717002D01*
X81666362Y-93733807D01*
X81662786Y-93748203D01*
X81659719Y-93757105D01*
X81651888Y-93773375D01*
X81641666Y-93788541D01*
X81630840Y-93800569D01*
X81621200Y-93807426D01*
X81615275Y-93807670D01*
X81612376Y-93801703D01*
X81609389Y-93789246D01*
X81608118Y-93781387D01*
X81607406Y-93770733D01*
X81607006Y-93752522D01*
X81606885Y-93728210D01*
X81607016Y-93699255D01*
X81607367Y-93667113D01*
X81607908Y-93633242D01*
X81608609Y-93599099D01*
X81609441Y-93566140D01*
X81610372Y-93535824D01*
X81611374Y-93509607D01*
X81612416Y-93488946D01*
X81613467Y-93475299D01*
X81614498Y-93470122D01*
X81614548Y-93470112D01*
X81620245Y-93472958D01*
G37*
G36*
X81508561Y-93453191D02*
G01*
X81514804Y-93458746D01*
X81523148Y-93469630D01*
X81526061Y-93474104D01*
X81529471Y-93479944D01*
X81532147Y-93486045D01*
X81534197Y-93493672D01*
X81535729Y-93504087D01*
X81536851Y-93518557D01*
X81537671Y-93538345D01*
X81538296Y-93564715D01*
X81538835Y-93598932D01*
X81539219Y-93628358D01*
X81539612Y-93676741D01*
X81539359Y-93716207D01*
X81538331Y-93747823D01*
X81536399Y-93772658D01*
X81533434Y-93791782D01*
X81529308Y-93806262D01*
X81523892Y-93817168D01*
X81517056Y-93825567D01*
X81515245Y-93827279D01*
X81507101Y-93833228D01*
X81499923Y-93832431D01*
X81493385Y-93828540D01*
X81486473Y-93822834D01*
X81480881Y-93815018D01*
X81476474Y-93804073D01*
X81473122Y-93788978D01*
X81470690Y-93768716D01*
X81469045Y-93742266D01*
X81468056Y-93708610D01*
X81467588Y-93666729D01*
X81467500Y-93630000D01*
X81467536Y-93588313D01*
X81467694Y-93555404D01*
X81468053Y-93530052D01*
X81468692Y-93511036D01*
X81469688Y-93497135D01*
X81471121Y-93487127D01*
X81473069Y-93479791D01*
X81475610Y-93473905D01*
X81477771Y-93470017D01*
X81488457Y-93456087D01*
X81499423Y-93451304D01*
X81508561Y-93453191D01*
G37*
G36*
X81765316Y-92287931D02*
G01*
X81794087Y-92347935D01*
X81807651Y-92380302D01*
X81842307Y-92475805D01*
X81869412Y-92570921D01*
X81873162Y-92589051D01*
X81888793Y-92664626D01*
X81900275Y-92755896D01*
X81903412Y-92836667D01*
X81903685Y-92843709D01*
X81899599Y-92920000D01*
X81896098Y-92956532D01*
X81894009Y-92984108D01*
X81893302Y-93003669D01*
X81893946Y-93016154D01*
X81895913Y-93022505D01*
X81896328Y-93022994D01*
X81903959Y-93024253D01*
X81915588Y-93019474D01*
X81928707Y-93010214D01*
X81940810Y-92998031D01*
X81944564Y-92993041D01*
X81954649Y-92977968D01*
X81962961Y-92964247D01*
X81969820Y-92950593D01*
X81975550Y-92935721D01*
X81980471Y-92918346D01*
X81984907Y-92897184D01*
X81989178Y-92870950D01*
X81993607Y-92838358D01*
X81998515Y-92798125D01*
X82002955Y-92760000D01*
X82010886Y-92694010D01*
X82018551Y-92636887D01*
X82026252Y-92587515D01*
X82034289Y-92544778D01*
X82042965Y-92507559D01*
X82052579Y-92474742D01*
X82063434Y-92445210D01*
X82075831Y-92417848D01*
X82090069Y-92391538D01*
X82106452Y-92365164D01*
X82111542Y-92357500D01*
X82147706Y-92312043D01*
X82192527Y-92269780D01*
X82244992Y-92231348D01*
X82304092Y-92197379D01*
X82368816Y-92168508D01*
X82438154Y-92145369D01*
X82458091Y-92140046D01*
X82496592Y-92131242D01*
X82526736Y-92126635D01*
X82549308Y-92126365D01*
X82565091Y-92130576D01*
X82574871Y-92139408D01*
X82579432Y-92153004D01*
X82580000Y-92162056D01*
X82575256Y-92179596D01*
X82561719Y-92194378D01*
X82540436Y-92205436D01*
X82529333Y-92208765D01*
X82513892Y-92212595D01*
X82492828Y-92217842D01*
X82470217Y-92223491D01*
X82465948Y-92224559D01*
X82407430Y-92242786D01*
X82351042Y-92267229D01*
X82298477Y-92296865D01*
X82251425Y-92330670D01*
X82211578Y-92367619D01*
X82192313Y-92390245D01*
X82164965Y-92432772D01*
X82141296Y-92484398D01*
X82121369Y-92544899D01*
X82105246Y-92614048D01*
X82092992Y-92691622D01*
X82084997Y-92772814D01*
X82080398Y-92829141D01*
X82075354Y-92876732D01*
X82069574Y-92916849D01*
X82062767Y-92950753D01*
X82054645Y-92979708D01*
X82044917Y-93004975D01*
X82033293Y-93027817D01*
X82022388Y-93045260D01*
X82013564Y-93057653D01*
X82003988Y-93069340D01*
X81992532Y-93081333D01*
X81978066Y-93094647D01*
X81959459Y-93110293D01*
X81935582Y-93129285D01*
X81927600Y-93135441D01*
X81905305Y-93152635D01*
X81887500Y-93166195D01*
X81867230Y-93181857D01*
X81848989Y-93196436D01*
X81834774Y-93208303D01*
X81826584Y-93215831D01*
X81826580Y-93215836D01*
X81819303Y-93225960D01*
X81809435Y-93242907D01*
X81797897Y-93264727D01*
X81785605Y-93289473D01*
X81773479Y-93315196D01*
X81762437Y-93339945D01*
X81753398Y-93361773D01*
X81747280Y-93378731D01*
X81745001Y-93388869D01*
X81745000Y-93388936D01*
X81746332Y-93392530D01*
X81751019Y-93393099D01*
X81760100Y-93390215D01*
X81774611Y-93383453D01*
X81795592Y-93372388D01*
X81824080Y-93356594D01*
X81824687Y-93356252D01*
X81844934Y-93344889D01*
X81872032Y-93329699D01*
X81904100Y-93311735D01*
X81939260Y-93292048D01*
X81975634Y-93271692D01*
X82007500Y-93253866D01*
X82040574Y-93235260D01*
X82071528Y-93217640D01*
X82099068Y-93201760D01*
X82121900Y-93188371D01*
X82138726Y-93178229D01*
X82148254Y-93172085D01*
X82148845Y-93171653D01*
X82159012Y-93161442D01*
X82171366Y-93145357D01*
X82183607Y-93126464D01*
X82186345Y-93121722D01*
X82231612Y-93048505D01*
X82279776Y-92984794D01*
X82330957Y-92930489D01*
X82385273Y-92885490D01*
X82442844Y-92849698D01*
X82503791Y-92823010D01*
X82562418Y-92806526D01*
X82590328Y-92802636D01*
X82624992Y-92800888D01*
X82663423Y-92801171D01*
X82702631Y-92803373D01*
X82739629Y-92807382D01*
X82771428Y-92813085D01*
X82777500Y-92814575D01*
X82807578Y-92824911D01*
X82829073Y-92837781D01*
X82841629Y-92852785D01*
X82844893Y-92869525D01*
X82840039Y-92884929D01*
X82833035Y-92893610D01*
X82822213Y-92899087D01*
X82806290Y-92901478D01*
X82783981Y-92900899D01*
X82754001Y-92897468D01*
X82734566Y-92894534D01*
X82671022Y-92887272D01*
X82613557Y-92887108D01*
X82560874Y-92894388D01*
X82511679Y-92909456D01*
X82464674Y-92932659D01*
X82418563Y-92964341D01*
X82393115Y-92985504D01*
X82377893Y-93000311D01*
X82359592Y-93020224D01*
X82340122Y-93042926D01*
X82321398Y-93066101D01*
X82305330Y-93087432D01*
X82293833Y-93104604D01*
X82291694Y-93108348D01*
X82286181Y-93119837D01*
X82285812Y-93126097D01*
X82290012Y-93130113D01*
X82296980Y-93131456D01*
X82312528Y-93132660D01*
X82335236Y-93133671D01*
X82363684Y-93134437D01*
X82396452Y-93134904D01*
X82420000Y-93135022D01*
X82490333Y-93136012D01*
X82552304Y-93138955D01*
X82607411Y-93144128D01*
X82657152Y-93151809D01*
X82703025Y-93162277D01*
X82746528Y-93175810D01*
X82789157Y-93192684D01*
X82827350Y-93210626D01*
X82868563Y-93232920D01*
X82896061Y-93250549D01*
X82906549Y-93257273D01*
X82943487Y-93285331D01*
X82981561Y-93318737D01*
X83018864Y-93355000D01*
X83059818Y-93397550D01*
X83073545Y-93413078D01*
X83093096Y-93435193D01*
X83119126Y-93468880D01*
X83138338Y-93499564D01*
X83151161Y-93528196D01*
X83158022Y-93555727D01*
X83159350Y-93583109D01*
X83156939Y-93601107D01*
X83155574Y-93611293D01*
X83147415Y-93640375D01*
X83129778Y-93682047D01*
X83107751Y-93715218D01*
X83080694Y-93740656D01*
X83049162Y-93758615D01*
X83031661Y-93763756D01*
X83005443Y-93768096D01*
X82971759Y-93771597D01*
X82931864Y-93774221D01*
X82887011Y-93775929D01*
X82838452Y-93776683D01*
X82787441Y-93776446D01*
X82735231Y-93775179D01*
X82683075Y-93772844D01*
X82650000Y-93770750D01*
X82575835Y-93765329D01*
X82510723Y-93760259D01*
X82453728Y-93755448D01*
X82403915Y-93750803D01*
X82360347Y-93746232D01*
X82322087Y-93741644D01*
X82288199Y-93736945D01*
X82259232Y-93732301D01*
X82240365Y-93728788D01*
X82213399Y-93723397D01*
X82179986Y-93716486D01*
X82141772Y-93708414D01*
X82100407Y-93699542D01*
X82057539Y-93690227D01*
X82014819Y-93680829D01*
X81973893Y-93671708D01*
X81936412Y-93663222D01*
X81904024Y-93655731D01*
X81878378Y-93649593D01*
X81870548Y-93647640D01*
X81848574Y-93642456D01*
X81829834Y-93638747D01*
X81816655Y-93636935D01*
X81811798Y-93637078D01*
X81807005Y-93643846D01*
X81805017Y-93657953D01*
X81805000Y-93659589D01*
X81806099Y-93670827D01*
X81810318Y-93680443D01*
X81819045Y-93689834D01*
X81833666Y-93700394D01*
X81855566Y-93713519D01*
X81862500Y-93717454D01*
X81890083Y-93736498D01*
X81919623Y-93763749D01*
X81951406Y-93799528D01*
X81985716Y-93844156D01*
X82022836Y-93897955D01*
X82024451Y-93900405D01*
X82048022Y-93935667D01*
X82067531Y-93963280D01*
X82083978Y-93984221D01*
X82098360Y-93999468D01*
X82111677Y-94009996D01*
X82124926Y-94016782D01*
X82139106Y-94020805D01*
X82149132Y-94022379D01*
X82190981Y-94028950D01*
X82225245Y-94037873D01*
X82254240Y-94050113D01*
X82280283Y-94066633D01*
X82303966Y-94086759D01*
X82316534Y-94099788D01*
X82332422Y-94118009D01*
X82350449Y-94139872D01*
X82369432Y-94163826D01*
X82388190Y-94188320D01*
X82405541Y-94211803D01*
X82420301Y-94232726D01*
X82431291Y-94249536D01*
X82437326Y-94260685D01*
X82437956Y-94262535D01*
X82437364Y-94278395D01*
X82429100Y-94292600D01*
X82415481Y-94303124D01*
X82398829Y-94307938D01*
X82387127Y-94306960D01*
X82377751Y-94301172D01*
X82363390Y-94287538D01*
X82344518Y-94266589D01*
X82321611Y-94238858D01*
X82295143Y-94204876D01*
X82290582Y-94198858D01*
X82264628Y-94167436D01*
X82239651Y-94144158D01*
X82213530Y-94127660D01*
X82184145Y-94116575D01*
X82152516Y-94110003D01*
X82111036Y-94101615D01*
X82077508Y-94089967D01*
X82050230Y-94074399D01*
X82040431Y-94066709D01*
X82030631Y-94056516D01*
X82016819Y-94039694D01*
X82000368Y-94018038D01*
X81982653Y-93993345D01*
X81968753Y-93972999D01*
X81941731Y-93932790D01*
X81919273Y-93900072D01*
X81900615Y-93873879D01*
X81884992Y-93853240D01*
X81871638Y-93837189D01*
X81859787Y-93824755D01*
X81848675Y-93814971D01*
X81837537Y-93806868D01*
X81837429Y-93806796D01*
X81823305Y-93797821D01*
X81812894Y-93791964D01*
X81808478Y-93790493D01*
X81805853Y-93795776D01*
X81800438Y-93807446D01*
X81794803Y-93819871D01*
X81773083Y-93857058D01*
X81742681Y-93892255D01*
X81704901Y-93924008D01*
X81695677Y-93930421D01*
X81678429Y-93942329D01*
X81664824Y-93952346D01*
X81656680Y-93959101D01*
X81655170Y-93961024D01*
X81659447Y-93963999D01*
X81670273Y-93966981D01*
X81673750Y-93967611D01*
X81695947Y-93971454D01*
X81710870Y-93974846D01*
X81721159Y-93978671D01*
X81729450Y-93983814D01*
X81732998Y-93986655D01*
X81734787Y-93988088D01*
X81748419Y-94005369D01*
X81757470Y-94028568D01*
X81761393Y-94054453D01*
X81759642Y-94079791D01*
X81753401Y-94098259D01*
X81741708Y-94114952D01*
X81725246Y-94131320D01*
X81707185Y-94144673D01*
X81690693Y-94152318D01*
X81689386Y-94152636D01*
X81669559Y-94158417D01*
X81656810Y-94166129D01*
X81651117Y-94176720D01*
X81652459Y-94191142D01*
X81660812Y-94210344D01*
X81676155Y-94235277D01*
X81687096Y-94251115D01*
X81723475Y-94298728D01*
X81763265Y-94344187D01*
X81804257Y-94385140D01*
X81844240Y-94419236D01*
X81847437Y-94421679D01*
X81882712Y-94449573D01*
X81911487Y-94474847D01*
X81933194Y-94496925D01*
X81947263Y-94515234D01*
X81952978Y-94528285D01*
X81953257Y-94546728D01*
X81948102Y-94563425D01*
X81938792Y-94575150D01*
X81933237Y-94578060D01*
X81920304Y-94581130D01*
X81908514Y-94580862D01*
X81896139Y-94576449D01*
X81881451Y-94567082D01*
X81862724Y-94551953D01*
X81845990Y-94537236D01*
X81797218Y-94492526D01*
X81751065Y-94448181D01*
X81708690Y-94405396D01*
X81671254Y-94365364D01*
X81639918Y-94329278D01*
X81622830Y-94307794D01*
X81606664Y-94287055D01*
X81591979Y-94269266D01*
X81580094Y-94255949D01*
X81572330Y-94248628D01*
X81570805Y-94247756D01*
X81560386Y-94247247D01*
X81546379Y-94249623D01*
X81544919Y-94250024D01*
X81523231Y-94253805D01*
X81497659Y-94254795D01*
X81473425Y-94252959D01*
X81462069Y-94250594D01*
X81450139Y-94248454D01*
X81438984Y-94249907D01*
X81427471Y-94255835D01*
X81414465Y-94267124D01*
X81398834Y-94284656D01*
X81379443Y-94309316D01*
X81369107Y-94323084D01*
X81312375Y-94392421D01*
X81251110Y-94453684D01*
X81196418Y-94498961D01*
X81176505Y-94514924D01*
X81157442Y-94531624D01*
X81142148Y-94546447D01*
X81136824Y-94552340D01*
X81118264Y-94571259D01*
X81101409Y-94581067D01*
X81085210Y-94582266D01*
X81078422Y-94580351D01*
X81066266Y-94571954D01*
X81054800Y-94558202D01*
X81046895Y-94543086D01*
X81045019Y-94533924D01*
X81047809Y-94525086D01*
X81056549Y-94512804D01*
X81071746Y-94496552D01*
X81093908Y-94475805D01*
X81123543Y-94450039D01*
X81137365Y-94438408D01*
X81197285Y-94385934D01*
X81247955Y-94336310D01*
X81289631Y-94289280D01*
X81306209Y-94267965D01*
X81328271Y-94236844D01*
X81343327Y-94212376D01*
X81351547Y-94194248D01*
X81353097Y-94182147D01*
X81352782Y-94180888D01*
X81347453Y-94174307D01*
X81335776Y-94164571D01*
X81320049Y-94153552D01*
X81316286Y-94151148D01*
X81287359Y-94131974D01*
X81266466Y-94115289D01*
X81252457Y-94099624D01*
X81244182Y-94083513D01*
X81240493Y-94065486D01*
X81240000Y-94053718D01*
X81244262Y-94024699D01*
X81256705Y-94001177D01*
X81271715Y-93988141D01*
X81407358Y-93988141D01*
X81407544Y-94001384D01*
X81411947Y-94022725D01*
X81412549Y-94025197D01*
X81418600Y-94060585D01*
X81418501Y-94095178D01*
X81418463Y-94095639D01*
X81417338Y-94113121D01*
X81418427Y-94125401D01*
X81423231Y-94134210D01*
X81433250Y-94141275D01*
X81449984Y-94148325D01*
X81470461Y-94155545D01*
X81503421Y-94166916D01*
X81541437Y-94153051D01*
X81564116Y-94144315D01*
X81578604Y-94136929D01*
X81586276Y-94129329D01*
X81588506Y-94119952D01*
X81586668Y-94107232D01*
X81585598Y-94102804D01*
X81580793Y-94075352D01*
X81582007Y-94050972D01*
X81589596Y-94024940D01*
X81591933Y-94019065D01*
X81598592Y-93999134D01*
X81598940Y-93986655D01*
X81592879Y-93981247D01*
X81582518Y-93981947D01*
X81573502Y-93983266D01*
X81557100Y-93984918D01*
X81535912Y-93986660D01*
X81519432Y-93987816D01*
X81486618Y-93989136D01*
X81461307Y-93988172D01*
X81441246Y-93984835D01*
X81440638Y-93984681D01*
X81423051Y-93981022D01*
X81412242Y-93981765D01*
X81407358Y-93988141D01*
X81271715Y-93988141D01*
X81276816Y-93983711D01*
X81304082Y-93972856D01*
X81316604Y-93970528D01*
X81332594Y-93967906D01*
X81344255Y-93965156D01*
X81348209Y-93963459D01*
X81348500Y-93957372D01*
X81339778Y-93948508D01*
X81321875Y-93936734D01*
X81299126Y-93924241D01*
X81270289Y-93907227D01*
X81248904Y-93889132D01*
X81232547Y-93867299D01*
X81218794Y-93839068D01*
X81216676Y-93833785D01*
X81209220Y-93816288D01*
X81202157Y-93802251D01*
X81196945Y-93794552D01*
X81196710Y-93794345D01*
X81187021Y-93792562D01*
X81173029Y-93799385D01*
X81155002Y-93814527D01*
X81133208Y-93837700D01*
X81107914Y-93868614D01*
X81079386Y-93906982D01*
X81047893Y-93952515D01*
X81042288Y-93960911D01*
X81016657Y-93998761D01*
X80994780Y-94028947D01*
X80975427Y-94052477D01*
X80957370Y-94070356D01*
X80939380Y-94083592D01*
X80920228Y-94093191D01*
X80898685Y-94100160D01*
X80873521Y-94105505D01*
X80863753Y-94107159D01*
X80836714Y-94112147D01*
X80813878Y-94118195D01*
X80793837Y-94126313D01*
X80775180Y-94137509D01*
X80756498Y-94152793D01*
X80736383Y-94173173D01*
X80713423Y-94199657D01*
X80686211Y-94233256D01*
X80684407Y-94235527D01*
X80666132Y-94258015D01*
X80649351Y-94277680D01*
X80635275Y-94293178D01*
X80625114Y-94303166D01*
X80620612Y-94306289D01*
X80602478Y-94306761D01*
X80585442Y-94300109D01*
X80572198Y-94288184D01*
X80565438Y-94272840D01*
X80565074Y-94268076D01*
X80568193Y-94259651D01*
X80576768Y-94245075D01*
X80589722Y-94225774D01*
X80605980Y-94203169D01*
X80624466Y-94178684D01*
X80644104Y-94153743D01*
X80663820Y-94129768D01*
X80682536Y-94108183D01*
X80699179Y-94090412D01*
X80699856Y-94089730D01*
X80728127Y-94064157D01*
X80755477Y-94046184D01*
X80785059Y-94034277D01*
X80820028Y-94026906D01*
X80832500Y-94025297D01*
X80865136Y-94019723D01*
X80890026Y-94010986D01*
X80909137Y-93998293D01*
X80915664Y-93991866D01*
X80922496Y-93983235D01*
X80933655Y-93967784D01*
X80948044Y-93947095D01*
X80964564Y-93922746D01*
X80982116Y-93896320D01*
X80982982Y-93895000D01*
X81023236Y-93837292D01*
X81061791Y-93789408D01*
X81098672Y-93751324D01*
X81133901Y-93723013D01*
X81153756Y-93710971D01*
X81174128Y-93699047D01*
X81186679Y-93688233D01*
X81193078Y-93676481D01*
X81194991Y-93661744D01*
X81195000Y-93660329D01*
X81194560Y-93651555D01*
X81191596Y-93646996D01*
X81183642Y-93645270D01*
X81168233Y-93645001D01*
X81167594Y-93645000D01*
X81152952Y-93646173D01*
X81131139Y-93649398D01*
X81104668Y-93654238D01*
X81076054Y-93660256D01*
X81063844Y-93663066D01*
X81005871Y-93676775D01*
X80956337Y-93688427D01*
X80913950Y-93698264D01*
X80877417Y-93706531D01*
X80845446Y-93713471D01*
X80816745Y-93719328D01*
X80790020Y-93724346D01*
X80763980Y-93728767D01*
X80737332Y-93732836D01*
X80708783Y-93736796D01*
X80677041Y-93740890D01*
X80640814Y-93745363D01*
X80602500Y-93750011D01*
X80532533Y-93758105D01*
X80469668Y-93764489D01*
X80411191Y-93769338D01*
X80354384Y-93772828D01*
X80296530Y-93775135D01*
X80234913Y-93776433D01*
X80187500Y-93776839D01*
X80137282Y-93776904D01*
X80095793Y-93776530D01*
X80061768Y-93775590D01*
X80033940Y-93773959D01*
X80011045Y-93771509D01*
X79991815Y-93768114D01*
X79974986Y-93763648D01*
X79959291Y-93757985D01*
X79947500Y-93752874D01*
X79928074Y-93741466D01*
X79907940Y-93725616D01*
X79890132Y-93708057D01*
X79877678Y-93691521D01*
X79876040Y-93688460D01*
X79862066Y-93659235D01*
X79852159Y-93636880D01*
X79845662Y-93619452D01*
X79841916Y-93605009D01*
X79840264Y-93591610D01*
X79840120Y-93586417D01*
X79930000Y-93586417D01*
X79934687Y-93617683D01*
X79948055Y-93645248D01*
X79969069Y-93667774D01*
X79996695Y-93683919D01*
X80008554Y-93688057D01*
X80017238Y-93690316D01*
X80026839Y-93692088D01*
X80038496Y-93693404D01*
X80053348Y-93694292D01*
X80072533Y-93694783D01*
X80097190Y-93694905D01*
X80128457Y-93694689D01*
X80167475Y-93694163D01*
X80213987Y-93693383D01*
X80261072Y-93692516D01*
X80299266Y-93691704D01*
X80329678Y-93690871D01*
X80353417Y-93689942D01*
X80371591Y-93688844D01*
X80385309Y-93687500D01*
X80395679Y-93685838D01*
X80403810Y-93683781D01*
X80410811Y-93681255D01*
X80413987Y-93679902D01*
X80425702Y-93673436D01*
X80485000Y-93673436D01*
X80485794Y-93676316D01*
X80488820Y-93678269D01*
X80495047Y-93679217D01*
X80505444Y-93679080D01*
X80520980Y-93677782D01*
X80542624Y-93675242D01*
X80571344Y-93671382D01*
X80608109Y-93666125D01*
X80648566Y-93660178D01*
X80722411Y-93648900D01*
X80789532Y-93637936D01*
X80849536Y-93627371D01*
X80902033Y-93617289D01*
X80946631Y-93607776D01*
X80982938Y-93598916D01*
X81010563Y-93590794D01*
X81029115Y-93583494D01*
X81038201Y-93577101D01*
X81038922Y-93575736D01*
X81038010Y-93574335D01*
X81280616Y-93574335D01*
X81280655Y-93575736D01*
X81281505Y-93606568D01*
X81282015Y-93616633D01*
X81284758Y-93666065D01*
X81287234Y-93706471D01*
X81289540Y-93738818D01*
X81291770Y-93764074D01*
X81294020Y-93783206D01*
X81296384Y-93797182D01*
X81298958Y-93806969D01*
X81301267Y-93812500D01*
X81319388Y-93836883D01*
X81345804Y-93857830D01*
X81379236Y-93874802D01*
X81418407Y-93887258D01*
X81462039Y-93894657D01*
X81500000Y-93896573D01*
X81550130Y-93893406D01*
X81596430Y-93884319D01*
X81637473Y-93869778D01*
X81671831Y-93850247D01*
X81690370Y-93834631D01*
X81696595Y-93828177D01*
X81701584Y-93821839D01*
X81705543Y-93814414D01*
X81708681Y-93804699D01*
X81711207Y-93791489D01*
X81713328Y-93773582D01*
X81715253Y-93749774D01*
X81717189Y-93718862D01*
X81719346Y-93679641D01*
X81720304Y-93661595D01*
X81722132Y-93625465D01*
X81723270Y-93597670D01*
X81723684Y-93576565D01*
X81723654Y-93575157D01*
X81960000Y-93575157D01*
X81961693Y-93576565D01*
X81964716Y-93579079D01*
X81978052Y-93584510D01*
X81998793Y-93591149D01*
X82025724Y-93598700D01*
X82057631Y-93606863D01*
X82093298Y-93615341D01*
X82131510Y-93623834D01*
X82171052Y-93632046D01*
X82210709Y-93639677D01*
X82249266Y-93646429D01*
X82252500Y-93646961D01*
X82285159Y-93652091D01*
X82320191Y-93657235D01*
X82356195Y-93662224D01*
X82391769Y-93666890D01*
X82425512Y-93671063D01*
X82456022Y-93674574D01*
X82481897Y-93677254D01*
X82501735Y-93678933D01*
X82514135Y-93679443D01*
X82517711Y-93678956D01*
X82518543Y-93671589D01*
X82510329Y-93660363D01*
X82493198Y-93645404D01*
X82467278Y-93626837D01*
X82460273Y-93622192D01*
X82440325Y-93610471D01*
X82517210Y-93610471D01*
X82518465Y-93617019D01*
X82525557Y-93627945D01*
X82536664Y-93641203D01*
X82549960Y-93654744D01*
X82563623Y-93666520D01*
X82570975Y-93671589D01*
X82572689Y-93672771D01*
X82586936Y-93678741D01*
X82608074Y-93683713D01*
X82636598Y-93687724D01*
X82673003Y-93690816D01*
X82717782Y-93693027D01*
X82771430Y-93694398D01*
X82834441Y-93694967D01*
X82850360Y-93694988D01*
X82894087Y-93694835D01*
X82929135Y-93694211D01*
X82956821Y-93692883D01*
X82978464Y-93690617D01*
X82995381Y-93687180D01*
X83008891Y-93682339D01*
X83020310Y-93675860D01*
X83030957Y-93667511D01*
X83037063Y-93661941D01*
X83049770Y-93647880D01*
X83060077Y-93632915D01*
X83062914Y-93627282D01*
X83069216Y-93601107D01*
X83068902Y-93571440D01*
X83062165Y-93542114D01*
X83058133Y-93532225D01*
X83050647Y-93519459D01*
X83039080Y-93503446D01*
X83025071Y-93486053D01*
X83010262Y-93469147D01*
X82996293Y-93454595D01*
X82984804Y-93444264D01*
X82977435Y-93440021D01*
X82977108Y-93440000D01*
X82970977Y-93443053D01*
X82959740Y-93451084D01*
X82945747Y-93462405D01*
X82944702Y-93463298D01*
X82917804Y-93485076D01*
X82891253Y-93503597D01*
X82863603Y-93519432D01*
X82833410Y-93533153D01*
X82799228Y-93545330D01*
X82759615Y-93556535D01*
X82713124Y-93567341D01*
X82658311Y-93578318D01*
X82650000Y-93579881D01*
X82610011Y-93587416D01*
X82578811Y-93593470D01*
X82555337Y-93598288D01*
X82538528Y-93602115D01*
X82527323Y-93605194D01*
X82520660Y-93607771D01*
X82517478Y-93610089D01*
X82517210Y-93610471D01*
X82440325Y-93610471D01*
X82389688Y-93580717D01*
X82317985Y-93547881D01*
X82252277Y-93526129D01*
X82370976Y-93526129D01*
X82373045Y-93531722D01*
X82381876Y-93538872D01*
X82398487Y-93548297D01*
X82412381Y-93555228D01*
X82432887Y-93564929D01*
X82447766Y-93570886D01*
X82460324Y-93573843D01*
X82473871Y-93574548D01*
X82491714Y-93573744D01*
X82493942Y-93573605D01*
X82513760Y-93571708D01*
X82540104Y-93568285D01*
X82569699Y-93563801D01*
X82599273Y-93558724D01*
X82602500Y-93558127D01*
X82653642Y-93548514D01*
X82696123Y-93540273D01*
X82731138Y-93533080D01*
X82759882Y-93526612D01*
X82783549Y-93520543D01*
X82803333Y-93514550D01*
X82820430Y-93508308D01*
X82836033Y-93501494D01*
X82851338Y-93493784D01*
X82862900Y-93487462D01*
X82880272Y-93476614D01*
X82898936Y-93463135D01*
X82917058Y-93448594D01*
X82932799Y-93434561D01*
X82944323Y-93422603D01*
X82949792Y-93414290D01*
X82950000Y-93413078D01*
X82946159Y-93405319D01*
X82935626Y-93393103D01*
X82919892Y-93377727D01*
X82900445Y-93360486D01*
X82878774Y-93342677D01*
X82856368Y-93325595D01*
X82834716Y-93310537D01*
X82825468Y-93304677D01*
X82805828Y-93293709D01*
X82782745Y-93282381D01*
X82758430Y-93271598D01*
X82735100Y-93262269D01*
X82714966Y-93255302D01*
X82700243Y-93251604D01*
X82695263Y-93251291D01*
X82687884Y-93254131D01*
X82679032Y-93262083D01*
X82667580Y-93276376D01*
X82652894Y-93297500D01*
X82627833Y-93331400D01*
X82598132Y-93365914D01*
X82566219Y-93398527D01*
X82534520Y-93426726D01*
X82511341Y-93444150D01*
X82491432Y-93456655D01*
X82467080Y-93470559D01*
X82442979Y-93483204D01*
X82438841Y-93485232D01*
X82413199Y-93497665D01*
X82395175Y-93506603D01*
X82383376Y-93512887D01*
X82376409Y-93517356D01*
X82372879Y-93520851D01*
X82371393Y-93524210D01*
X82370976Y-93526129D01*
X82252277Y-93526129D01*
X82246242Y-93524131D01*
X82197226Y-93513265D01*
X82172383Y-93509509D01*
X82152680Y-93508490D01*
X82133604Y-93510343D01*
X82110639Y-93515206D01*
X82107500Y-93515976D01*
X82088106Y-93521454D01*
X82065316Y-93528952D01*
X82040963Y-93537731D01*
X82016885Y-93547057D01*
X81994914Y-93556192D01*
X81976887Y-93564401D01*
X81964639Y-93570948D01*
X81960003Y-93575095D01*
X81960000Y-93575157D01*
X81723654Y-93575157D01*
X81723341Y-93560505D01*
X81722208Y-93547847D01*
X81720251Y-93536946D01*
X81717562Y-93526595D01*
X81704774Y-93492287D01*
X81786502Y-93492287D01*
X81787425Y-93499231D01*
X81794746Y-93514303D01*
X81808107Y-93530557D01*
X81824526Y-93544855D01*
X81838590Y-93553097D01*
X81852182Y-93557696D01*
X81866534Y-93559524D01*
X81883223Y-93558306D01*
X81903826Y-93553769D01*
X81929923Y-93545639D01*
X81963090Y-93533644D01*
X81973355Y-93529748D01*
X82000194Y-93519309D01*
X82024183Y-93509642D01*
X82043570Y-93501479D01*
X82056602Y-93495553D01*
X82061059Y-93493087D01*
X82066404Y-93486776D01*
X82075728Y-93473411D01*
X82076724Y-93471881D01*
X82125955Y-93471881D01*
X82125959Y-93472172D01*
X82132354Y-93474097D01*
X82146535Y-93477097D01*
X82166392Y-93480818D01*
X82189813Y-93484905D01*
X82214688Y-93489003D01*
X82238906Y-93492757D01*
X82260356Y-93495811D01*
X82276927Y-93497811D01*
X82280241Y-93498120D01*
X82307604Y-93499180D01*
X82330643Y-93496816D01*
X82347741Y-93492682D01*
X82403413Y-93472184D01*
X82458445Y-93443705D01*
X82509887Y-93408994D01*
X82554382Y-93370207D01*
X82572536Y-93350754D01*
X82590762Y-93329038D01*
X82607803Y-93306813D01*
X82622404Y-93285835D01*
X82633311Y-93267856D01*
X82639268Y-93254631D01*
X82640000Y-93250549D01*
X82637245Y-93241213D01*
X82628283Y-93233833D01*
X82612070Y-93227981D01*
X82587563Y-93223223D01*
X82567500Y-93220605D01*
X82544797Y-93217937D01*
X82524658Y-93215457D01*
X82509939Y-93213521D01*
X82505000Y-93212787D01*
X82492618Y-93211955D01*
X82471911Y-93211970D01*
X82444512Y-93212764D01*
X82412055Y-93214267D01*
X82376173Y-93216413D01*
X82338498Y-93219131D01*
X82322500Y-93220431D01*
X82288193Y-93223836D01*
X82262434Y-93227797D01*
X82243775Y-93232781D01*
X82230766Y-93239254D01*
X82221956Y-93247685D01*
X82217969Y-93254094D01*
X82213215Y-93264090D01*
X82205853Y-93280526D01*
X82205787Y-93280673D01*
X82196335Y-93302301D01*
X82185510Y-93327432D01*
X82173963Y-93354524D01*
X82162345Y-93382034D01*
X82151306Y-93408420D01*
X82141496Y-93432140D01*
X82133568Y-93451652D01*
X82128170Y-93465413D01*
X82125955Y-93471881D01*
X82076724Y-93471881D01*
X82087987Y-93454582D01*
X82102134Y-93431881D01*
X82112516Y-93414684D01*
X82131717Y-93380934D01*
X82147903Y-93349439D01*
X82160578Y-93321403D01*
X82169242Y-93298030D01*
X82173398Y-93280526D01*
X82172548Y-93270096D01*
X82172379Y-93269804D01*
X82167359Y-93266492D01*
X82158114Y-93267242D01*
X82143689Y-93272416D01*
X82123126Y-93282376D01*
X82095471Y-93297486D01*
X82087500Y-93302017D01*
X82060970Y-93317246D01*
X82029766Y-93335249D01*
X81997841Y-93353741D01*
X81970000Y-93369940D01*
X81943897Y-93385134D01*
X81917354Y-93400515D01*
X81893261Y-93414412D01*
X81874508Y-93425155D01*
X81872500Y-93426297D01*
X81851078Y-93439123D01*
X81828803Y-93453497D01*
X81810829Y-93466069D01*
X81796469Y-93477323D01*
X81788886Y-93485318D01*
X81786502Y-93492287D01*
X81704774Y-93492287D01*
X81704159Y-93490638D01*
X81686365Y-93459212D01*
X81665396Y-93434019D01*
X81642462Y-93416765D01*
X81637707Y-93414399D01*
X81630153Y-93411432D01*
X81621308Y-93409169D01*
X81609772Y-93407516D01*
X81594146Y-93406379D01*
X81573028Y-93405664D01*
X81545019Y-93405276D01*
X81508719Y-93405122D01*
X81499497Y-93405110D01*
X81455801Y-93405335D01*
X81419796Y-93406080D01*
X81392092Y-93407321D01*
X81373296Y-93409032D01*
X81365211Y-93410676D01*
X81355513Y-93415918D01*
X81345093Y-93425824D01*
X81332569Y-93441910D01*
X81320330Y-93459905D01*
X81304368Y-93485278D01*
X81299075Y-93495344D01*
X81293055Y-93506792D01*
X81285751Y-93527062D01*
X81281818Y-93548705D01*
X81280616Y-93574335D01*
X81038010Y-93574335D01*
X81035660Y-93570724D01*
X81024589Y-93563556D01*
X81007479Y-93554956D01*
X80986099Y-93545642D01*
X80962218Y-93536337D01*
X80937606Y-93527760D01*
X80914032Y-93520632D01*
X80893265Y-93515675D01*
X80890000Y-93515075D01*
X80855972Y-93511130D01*
X80822506Y-93511817D01*
X80795000Y-93515301D01*
X80768006Y-93521052D01*
X80756207Y-93524342D01*
X80735402Y-93530143D01*
X80700537Y-93541464D01*
X80666757Y-93553905D01*
X80637407Y-93566356D01*
X80629143Y-93570338D01*
X80600670Y-93585521D01*
X80572549Y-93602124D01*
X80566213Y-93606214D01*
X80546149Y-93619167D01*
X80522842Y-93635670D01*
X80503997Y-93650652D01*
X80490985Y-93663134D01*
X80485177Y-93672135D01*
X80485000Y-93673436D01*
X80425702Y-93673436D01*
X80428552Y-93671863D01*
X80444103Y-93660677D01*
X80459297Y-93647734D01*
X80472793Y-93634425D01*
X80483251Y-93622142D01*
X80489328Y-93612275D01*
X80489683Y-93606214D01*
X80486250Y-93604975D01*
X80478960Y-93604082D01*
X80463706Y-93601662D01*
X80442351Y-93598051D01*
X80416758Y-93593583D01*
X80388789Y-93588593D01*
X80360305Y-93583416D01*
X80333170Y-93578388D01*
X80309245Y-93573842D01*
X80290393Y-93570115D01*
X80279554Y-93567796D01*
X80216522Y-93550171D01*
X80160261Y-93527740D01*
X80108241Y-93499365D01*
X80072112Y-93474707D01*
X80054490Y-93462158D01*
X80039336Y-93452251D01*
X80028753Y-93446313D01*
X80025471Y-93445208D01*
X80018786Y-93448548D01*
X80007813Y-93457530D01*
X79994841Y-93470264D01*
X79993915Y-93471250D01*
X79966036Y-93503567D01*
X79946468Y-93532207D01*
X79934669Y-93558149D01*
X79930098Y-93582367D01*
X79930000Y-93586417D01*
X79840120Y-93586417D01*
X79840000Y-93582083D01*
X79840582Y-93567484D01*
X79842957Y-93554624D01*
X79848074Y-93540700D01*
X79856880Y-93522910D01*
X79865113Y-93507798D01*
X79907910Y-93440663D01*
X79929703Y-93413950D01*
X80055000Y-93413950D01*
X80059328Y-93422971D01*
X80071315Y-93435076D01*
X80089464Y-93449324D01*
X80112281Y-93464773D01*
X80138269Y-93480481D01*
X80165934Y-93495508D01*
X80193780Y-93508911D01*
X80220311Y-93519750D01*
X80226562Y-93521948D01*
X80279552Y-93537777D01*
X80337157Y-93550783D01*
X80401021Y-93561276D01*
X80472791Y-93569567D01*
X80485857Y-93570776D01*
X80554214Y-93576896D01*
X80586926Y-93560292D01*
X80606368Y-93549500D01*
X80621928Y-93539110D01*
X80632060Y-93530323D01*
X80635219Y-93524342D01*
X80634553Y-93523255D01*
X80629593Y-93520450D01*
X80617461Y-93513957D01*
X80599868Y-93504684D01*
X80578526Y-93493537D01*
X80573701Y-93491029D01*
X80511782Y-93455337D01*
X80458417Y-93416723D01*
X80412323Y-93374064D01*
X80372216Y-93326238D01*
X80352063Y-93297042D01*
X80340055Y-93279149D01*
X80329414Y-93264590D01*
X80322208Y-93256033D01*
X80366181Y-93256033D01*
X80372367Y-93272914D01*
X80384606Y-93293181D01*
X80425476Y-93345561D01*
X80473957Y-93392535D01*
X80528659Y-93433048D01*
X80588193Y-93466049D01*
X80640882Y-93487183D01*
X80664810Y-93494253D01*
X80686817Y-93498294D01*
X80709699Y-93499415D01*
X80736248Y-93497727D01*
X80769260Y-93493341D01*
X80774782Y-93492482D01*
X80799888Y-93488621D01*
X80825319Y-93484865D01*
X80846740Y-93481852D01*
X80852500Y-93481088D01*
X80867935Y-93478712D01*
X80877148Y-93475348D01*
X80880326Y-93469434D01*
X80877652Y-93459407D01*
X80869314Y-93443703D01*
X80858987Y-93426492D01*
X80831014Y-93375201D01*
X80811191Y-93326279D01*
X80802916Y-93297500D01*
X80795833Y-93272433D01*
X80830000Y-93272433D01*
X80831893Y-93281486D01*
X80837018Y-93297546D01*
X80844545Y-93318485D01*
X80853643Y-93342173D01*
X80863484Y-93366478D01*
X80873236Y-93389273D01*
X80882071Y-93408426D01*
X80886088Y-93416355D01*
X80904254Y-93444523D01*
X80925564Y-93469434D01*
X80927393Y-93471572D01*
X80952827Y-93494746D01*
X80977881Y-93511292D01*
X80978800Y-93511758D01*
X80993518Y-93518359D01*
X81014586Y-93526824D01*
X81038844Y-93535919D01*
X81056692Y-93542225D01*
X81081964Y-93550580D01*
X81100502Y-93555737D01*
X81114869Y-93558187D01*
X81127626Y-93558420D01*
X81136692Y-93557563D01*
X81166525Y-93552136D01*
X81187881Y-93543919D01*
X81202114Y-93531951D01*
X81210579Y-93515268D01*
X81213378Y-93503062D01*
X81214090Y-93495344D01*
X81212887Y-93488346D01*
X81208819Y-93481268D01*
X81200940Y-93473313D01*
X81188301Y-93463682D01*
X81169954Y-93451577D01*
X81144951Y-93436198D01*
X81112344Y-93416747D01*
X81107500Y-93413880D01*
X81076720Y-93395657D01*
X81044612Y-93376630D01*
X81013794Y-93358351D01*
X80986883Y-93342373D01*
X80970000Y-93332335D01*
X80930817Y-93309255D01*
X80899292Y-93291304D01*
X80874696Y-93278169D01*
X80856296Y-93269537D01*
X80843361Y-93265095D01*
X80835162Y-93264531D01*
X80830966Y-93267532D01*
X80830000Y-93272433D01*
X80795833Y-93272433D01*
X80795559Y-93271462D01*
X80787687Y-93253440D01*
X80778104Y-93241476D01*
X80765615Y-93233609D01*
X80763362Y-93232639D01*
X80751032Y-93229232D01*
X80730604Y-93225480D01*
X80703962Y-93221638D01*
X80672990Y-93217959D01*
X80639573Y-93214699D01*
X80617500Y-93212930D01*
X80596080Y-93212130D01*
X80568008Y-93212158D01*
X80536061Y-93212901D01*
X80503013Y-93214247D01*
X80471639Y-93216081D01*
X80444712Y-93218292D01*
X80425008Y-93220766D01*
X80425000Y-93220767D01*
X80396668Y-93226704D01*
X80377785Y-93233907D01*
X80367804Y-93243357D01*
X80366181Y-93256033D01*
X80322208Y-93256033D01*
X80321649Y-93255369D01*
X80319055Y-93253254D01*
X80305448Y-93251786D01*
X80284828Y-93256116D01*
X80256865Y-93266339D01*
X80227500Y-93279529D01*
X80200770Y-93293520D01*
X80172836Y-93310310D01*
X80145049Y-93328848D01*
X80118757Y-93348083D01*
X80095308Y-93366965D01*
X80076052Y-93384441D01*
X80062337Y-93399461D01*
X80055512Y-93410974D01*
X80055000Y-93413950D01*
X79929703Y-93413950D01*
X79958951Y-93378098D01*
X80017198Y-93320950D01*
X80081614Y-93270067D01*
X80151162Y-93226295D01*
X80224805Y-93190480D01*
X80278094Y-93170644D01*
X80305982Y-93162054D01*
X80332777Y-93155053D01*
X80360054Y-93149444D01*
X80389387Y-93145032D01*
X80422351Y-93141620D01*
X80460520Y-93139012D01*
X80505468Y-93137013D01*
X80558770Y-93135425D01*
X80561339Y-93135362D01*
X80608369Y-93134016D01*
X80646985Y-93132507D01*
X80676831Y-93130856D01*
X80697549Y-93129086D01*
X80708784Y-93127218D01*
X80710644Y-93126357D01*
X80712100Y-93118206D01*
X80707267Y-93104452D01*
X80697085Y-93086400D01*
X80682497Y-93065352D01*
X80664448Y-93042611D01*
X80643879Y-93019480D01*
X80621732Y-92997263D01*
X80608673Y-92985427D01*
X80558011Y-92946300D01*
X80506839Y-92916905D01*
X80454246Y-92897004D01*
X80399318Y-92886357D01*
X80341144Y-92884727D01*
X80278812Y-92891876D01*
X80262500Y-92895000D01*
X80233830Y-92900587D01*
X80212930Y-92903680D01*
X80197886Y-92904272D01*
X80186784Y-92902355D01*
X80177707Y-92897922D01*
X80173175Y-92894638D01*
X80162136Y-92880690D01*
X80159542Y-92864541D01*
X80164787Y-92848241D01*
X80177266Y-92833843D01*
X80193950Y-92824295D01*
X80225092Y-92814864D01*
X80263156Y-92807634D01*
X80305267Y-92802806D01*
X80348548Y-92800581D01*
X80390124Y-92801159D01*
X80427119Y-92804743D01*
X80440123Y-92807090D01*
X80484010Y-92819244D01*
X80530693Y-92837177D01*
X80576224Y-92859287D01*
X80594934Y-92869960D01*
X80644818Y-92903993D01*
X80689844Y-92943569D01*
X80731172Y-92989928D01*
X80769968Y-93044310D01*
X80791528Y-93079604D01*
X80816867Y-93119345D01*
X80842640Y-93151085D01*
X80870719Y-93176721D01*
X80902975Y-93198150D01*
X80914949Y-93204670D01*
X80935154Y-93215460D01*
X80960658Y-93229487D01*
X80988147Y-93244908D01*
X81013500Y-93259416D01*
X81065145Y-93289303D01*
X81108817Y-93314517D01*
X81145175Y-93335430D01*
X81174879Y-93352413D01*
X81198589Y-93365841D01*
X81216964Y-93376083D01*
X81230665Y-93383513D01*
X81240352Y-93388504D01*
X81246685Y-93391426D01*
X81249244Y-93392371D01*
X81257578Y-93393960D01*
X81258834Y-93389552D01*
X81257422Y-93384244D01*
X81249784Y-93362453D01*
X81238820Y-93335374D01*
X81226061Y-93306457D01*
X81213038Y-93279156D01*
X81201282Y-93256922D01*
X81199838Y-93254432D01*
X81187494Y-93234822D01*
X81174485Y-93217516D01*
X81159234Y-93200939D01*
X81140164Y-93183518D01*
X81115698Y-93163679D01*
X81087500Y-93142258D01*
X81078456Y-93135262D01*
X81242191Y-93135262D01*
X81243063Y-93141956D01*
X81247798Y-93153037D01*
X81256610Y-93170163D01*
X81268337Y-93191380D01*
X81281816Y-93214731D01*
X81295888Y-93238260D01*
X81309391Y-93260011D01*
X81321162Y-93278029D01*
X81330040Y-93290358D01*
X81333462Y-93294181D01*
X81338410Y-93298481D01*
X81343182Y-93301525D01*
X81349263Y-93303321D01*
X81358136Y-93303874D01*
X81371284Y-93303194D01*
X81390190Y-93301287D01*
X81416338Y-93298160D01*
X81443871Y-93294736D01*
X81471399Y-93291851D01*
X81495499Y-93290839D01*
X81520449Y-93291704D01*
X81550529Y-93294450D01*
X81553871Y-93294816D01*
X81588223Y-93298607D01*
X81614057Y-93301332D01*
X81632801Y-93302981D01*
X81645880Y-93303543D01*
X81654723Y-93303009D01*
X81660755Y-93301368D01*
X81665403Y-93298610D01*
X81670094Y-93294724D01*
X81670973Y-93293972D01*
X81678282Y-93285420D01*
X81688701Y-93270217D01*
X81701175Y-93250243D01*
X81714646Y-93227379D01*
X81728059Y-93203507D01*
X81740357Y-93180508D01*
X81750484Y-93160263D01*
X81757384Y-93144652D01*
X81759999Y-93135557D01*
X81760000Y-93135441D01*
X81759143Y-93129713D01*
X81755716Y-93125134D01*
X81748434Y-93121324D01*
X81736015Y-93117906D01*
X81717175Y-93114501D01*
X81690630Y-93110732D01*
X81665000Y-93107452D01*
X81634607Y-93103608D01*
X81603458Y-93099592D01*
X81574955Y-93095847D01*
X81552496Y-93092816D01*
X81550000Y-93092470D01*
X81529707Y-93089913D01*
X81512704Y-93088262D01*
X81501810Y-93087772D01*
X81500000Y-93087915D01*
X81490828Y-93089261D01*
X81475992Y-93091142D01*
X81467500Y-93092143D01*
X81428765Y-93096770D01*
X81390519Y-93101683D01*
X81354108Y-93106677D01*
X81320878Y-93111547D01*
X81292173Y-93116088D01*
X81269339Y-93120097D01*
X81253720Y-93123368D01*
X81246664Y-93125697D01*
X81246619Y-93125732D01*
X81242191Y-93135262D01*
X81078456Y-93135262D01*
X81052630Y-93115283D01*
X81023582Y-93090127D01*
X80999692Y-93065441D01*
X80980294Y-93039876D01*
X80964725Y-93012083D01*
X80952320Y-92980713D01*
X80942414Y-92944417D01*
X80934341Y-92901845D01*
X80927439Y-92851650D01*
X80922558Y-92807500D01*
X80917295Y-92757354D01*
X80912618Y-92715127D01*
X80908276Y-92678775D01*
X80904020Y-92646251D01*
X80899600Y-92615510D01*
X80897224Y-92600000D01*
X80883242Y-92534357D01*
X80862633Y-92475757D01*
X80834889Y-92423334D01*
X80799501Y-92376220D01*
X80755961Y-92333549D01*
X80727708Y-92311183D01*
X80698230Y-92291171D01*
X80666972Y-92273640D01*
X80632129Y-92257814D01*
X80591901Y-92242921D01*
X80544483Y-92228186D01*
X80515819Y-92220175D01*
X80483548Y-92211015D01*
X80459880Y-92203232D01*
X80443603Y-92196302D01*
X80433501Y-92189699D01*
X80428361Y-92182900D01*
X80428106Y-92182276D01*
X80425308Y-92162089D01*
X80432183Y-92142961D01*
X80436511Y-92137176D01*
X80443771Y-92130383D01*
X80452625Y-92125966D01*
X80464153Y-92124072D01*
X80479434Y-92124850D01*
X80499547Y-92128447D01*
X80525570Y-92135011D01*
X80558584Y-92144691D01*
X80599667Y-92157634D01*
X80610000Y-92160969D01*
X80681124Y-92188261D01*
X80745250Y-92221736D01*
X80801950Y-92261106D01*
X80850793Y-92306087D01*
X80880192Y-92340907D01*
X80910902Y-92387125D01*
X80937100Y-92438878D01*
X80959000Y-92496876D01*
X80976812Y-92561828D01*
X80990748Y-92634444D01*
X81001021Y-92715432D01*
X81004714Y-92757500D01*
X81008912Y-92807426D01*
X81013271Y-92848633D01*
X81018012Y-92882401D01*
X81023352Y-92910012D01*
X81029509Y-92932746D01*
X81036701Y-92951884D01*
X81038541Y-92955945D01*
X81052894Y-92982191D01*
X81068577Y-93003319D01*
X81084319Y-93017949D01*
X81098849Y-93024704D01*
X81102144Y-93025000D01*
X81115606Y-93025000D01*
X81112370Y-92988750D01*
X81109961Y-92964941D01*
X81106987Y-92939872D01*
X81104605Y-92922500D01*
X81100467Y-92877553D01*
X81100439Y-92872363D01*
X81175074Y-92872363D01*
X81175598Y-92903851D01*
X81177381Y-92926728D01*
X81180871Y-92942350D01*
X81186520Y-92952073D01*
X81194776Y-92957254D01*
X81203816Y-92959064D01*
X81214317Y-92958801D01*
X81232483Y-92957032D01*
X81256137Y-92954020D01*
X81283102Y-92950028D01*
X81296202Y-92947904D01*
X81357728Y-92938239D01*
X81411937Y-92931242D01*
X81461151Y-92926914D01*
X81507691Y-92925257D01*
X81553878Y-92926274D01*
X81602035Y-92929965D01*
X81654481Y-92936333D01*
X81713540Y-92945380D01*
X81730714Y-92948247D01*
X81757921Y-92952601D01*
X81781985Y-92955983D01*
X81801035Y-92958167D01*
X81813204Y-92958927D01*
X81816382Y-92958622D01*
X81819592Y-92955315D01*
X81822122Y-92947265D01*
X81824178Y-92933108D01*
X81825969Y-92911482D01*
X81827449Y-92885991D01*
X81828551Y-92859842D01*
X81829059Y-92836667D01*
X81828961Y-92818603D01*
X81828244Y-92807791D01*
X81827935Y-92806369D01*
X81824821Y-92800202D01*
X81818869Y-92794941D01*
X81808693Y-92790065D01*
X81792908Y-92785052D01*
X81770129Y-92779382D01*
X81738971Y-92772533D01*
X81736769Y-92772065D01*
X81712122Y-92767137D01*
X81689383Y-92763384D01*
X81666237Y-92760582D01*
X81640369Y-92758508D01*
X81609462Y-92756937D01*
X81571202Y-92755646D01*
X81565000Y-92755472D01*
X81516436Y-92754285D01*
X81476126Y-92753694D01*
X81442340Y-92753739D01*
X81413346Y-92754457D01*
X81387415Y-92755888D01*
X81362817Y-92758069D01*
X81342500Y-92760436D01*
X81309601Y-92765206D01*
X81274227Y-92771315D01*
X81240352Y-92778021D01*
X81211950Y-92784582D01*
X81208934Y-92785368D01*
X81195895Y-92789856D01*
X81186652Y-92796370D01*
X81180577Y-92806524D01*
X81177042Y-92821932D01*
X81175419Y-92844206D01*
X81175074Y-92872363D01*
X81100439Y-92872363D01*
X81100184Y-92825283D01*
X81103524Y-92767494D01*
X81110255Y-92705990D01*
X81120145Y-92642575D01*
X81130787Y-92589835D01*
X81232902Y-92589835D01*
X81237841Y-92595357D01*
X81249112Y-92597421D01*
X81267763Y-92596199D01*
X81294842Y-92591868D01*
X81297500Y-92591374D01*
X81322838Y-92587911D01*
X81356308Y-92585252D01*
X81396073Y-92583394D01*
X81440298Y-92582334D01*
X81487148Y-92582068D01*
X81534786Y-92582593D01*
X81581376Y-92583904D01*
X81625084Y-92585998D01*
X81664072Y-92588872D01*
X81693847Y-92592154D01*
X81724253Y-92596019D01*
X81746033Y-92598148D01*
X81760399Y-92598605D01*
X81768563Y-92597451D01*
X81770908Y-92596093D01*
X81771718Y-92589051D01*
X81768891Y-92575022D01*
X81763199Y-92555994D01*
X81755411Y-92533957D01*
X81746297Y-92510899D01*
X81736627Y-92488809D01*
X81727172Y-92469677D01*
X81718702Y-92455492D01*
X81714413Y-92450182D01*
X81708284Y-92444456D01*
X81701851Y-92440012D01*
X81693569Y-92436470D01*
X81681891Y-92433453D01*
X81665269Y-92430581D01*
X81642156Y-92427476D01*
X81611006Y-92423758D01*
X81602500Y-92422771D01*
X81568913Y-92418904D01*
X81543675Y-92416080D01*
X81525205Y-92414170D01*
X81511922Y-92413050D01*
X81502244Y-92412593D01*
X81494589Y-92412671D01*
X81487375Y-92413159D01*
X81485000Y-92413372D01*
X81473901Y-92414425D01*
X81455105Y-92416242D01*
X81430865Y-92418604D01*
X81403437Y-92421291D01*
X81390853Y-92422528D01*
X81359178Y-92425784D01*
X81335811Y-92428669D01*
X81319092Y-92431606D01*
X81307360Y-92435017D01*
X81298956Y-92439325D01*
X81292220Y-92444951D01*
X81288892Y-92448463D01*
X81283935Y-92456512D01*
X81276469Y-92471667D01*
X81267450Y-92491654D01*
X81257835Y-92514199D01*
X81248581Y-92537030D01*
X81240645Y-92557871D01*
X81234984Y-92574450D01*
X81233246Y-92580680D01*
X81232902Y-92589835D01*
X81130787Y-92589835D01*
X81132963Y-92579054D01*
X81148477Y-92517231D01*
X81162676Y-92470201D01*
X81181902Y-92417420D01*
X81205492Y-92362078D01*
X81231894Y-92307418D01*
X81246732Y-92280204D01*
X81375000Y-92280204D01*
X81376420Y-92282797D01*
X81381355Y-92284945D01*
X81390823Y-92286742D01*
X81405839Y-92288284D01*
X81427420Y-92289664D01*
X81456581Y-92290976D01*
X81494339Y-92292316D01*
X81511140Y-92292851D01*
X81550985Y-92294037D01*
X81581666Y-92294582D01*
X81604013Y-92294148D01*
X81618857Y-92292395D01*
X81627029Y-92288985D01*
X81629361Y-92283580D01*
X81626682Y-92275841D01*
X81619824Y-92265428D01*
X81610034Y-92252544D01*
X81583565Y-92221638D01*
X81557747Y-92198069D01*
X81533433Y-92182480D01*
X81511478Y-92175510D01*
X81506997Y-92175196D01*
X81495059Y-92176680D01*
X81480396Y-92180547D01*
X81479497Y-92180851D01*
X81449046Y-92195819D01*
X81420752Y-92219323D01*
X81399328Y-92244355D01*
X81387985Y-92259770D01*
X81379464Y-92272172D01*
X81375223Y-92279410D01*
X81375000Y-92280204D01*
X81246732Y-92280204D01*
X81259557Y-92256682D01*
X81282486Y-92219692D01*
X81316636Y-92173931D01*
X81352868Y-92135765D01*
X81390533Y-92105524D01*
X81428981Y-92083542D01*
X81467565Y-92070149D01*
X81505634Y-92065679D01*
X81542540Y-92070461D01*
X81561667Y-92076970D01*
X81588805Y-92089686D01*
X81612623Y-92104191D01*
X81636074Y-92122560D01*
X81662112Y-92146867D01*
X81664298Y-92149034D01*
X81701324Y-92189938D01*
X81734696Y-92235752D01*
X81762763Y-92283580D01*
X81765316Y-92287931D01*
G37*
D14*
%TO.C,D1*%
X73100000Y-92060000D02*
G75*
G03*
X73100000Y-92060000I-50000J0D01*
G01*
D15*
%TO.C,R2*%
X79610000Y-96553641D02*
X79610000Y-96246359D01*
X80370000Y-96553641D02*
X80370000Y-96246359D01*
D14*
%TO.C,D2*%
X78650000Y-88170000D02*
G75*
G03*
X78650000Y-88170000I-50000J0D01*
G01*
D15*
%TO.C,C2*%
X76240000Y-86590580D02*
X76240000Y-86309420D01*
X77260000Y-86590580D02*
X77260000Y-86309420D01*
%TO.C,C3*%
X79482836Y-88523400D02*
X79267164Y-88523400D01*
X79482836Y-87803400D02*
X79267164Y-87803400D01*
%TO.C,C11*%
X78630810Y-93903307D02*
X78478307Y-94055810D01*
X78121693Y-93394190D02*
X77969190Y-93546693D01*
%TO.C,C6*%
X73999190Y-88721693D02*
X74151693Y-88569190D01*
X74508307Y-89230810D02*
X74660810Y-89078307D01*
%TO.C,C5*%
X79482836Y-89463200D02*
X79267164Y-89463200D01*
X79482836Y-88743200D02*
X79267164Y-88743200D01*
%TO.C,R1*%
X78770000Y-96556441D02*
X78770000Y-96249159D01*
X79530000Y-96556441D02*
X79530000Y-96249159D01*
%TO.C,C12*%
X79405810Y-94503307D02*
X79253307Y-94655810D01*
X78896693Y-93994190D02*
X78744190Y-94146693D01*
%TD*%
M02*
