%TF.GenerationSoftware,KiCad,Pcbnew,7.0.8*%
%TF.CreationDate,2024-02-17T11:30:54+00:00*%
%TF.ProjectId,uCoilDriver_I2C,75436f69-6c44-4726-9976-65725f493243,rev?*%
%TF.SameCoordinates,Original*%
%TF.FileFunction,Drillmap*%
%TF.FilePolarity,Positive*%
%FSLAX45Y45*%
G04 Gerber Fmt 4.5, Leading zero omitted, Abs format (unit mm)*
G04 Created by KiCad (PCBNEW 7.0.8) date 2024-02-17 11:30:54*
%MOMM*%
%LPD*%
G01*
G04 APERTURE LIST*
%ADD10C,0.100000*%
%ADD11C,0.200000*%
G04 APERTURE END LIST*
D10*
X7150160Y-10019600D02*
X7150600Y-8159600D01*
X7150600Y-8159600D02*
X8150600Y-8159600D01*
X8150160Y-10019600D02*
X7150160Y-10019600D01*
X8150600Y-8159600D02*
X8150160Y-10019600D01*
D11*
X7405937Y-10336084D02*
X7405937Y-10136084D01*
X7405937Y-10136084D02*
X7453556Y-10136084D01*
X7453556Y-10136084D02*
X7482127Y-10145608D01*
X7482127Y-10145608D02*
X7501175Y-10164655D01*
X7501175Y-10164655D02*
X7510699Y-10183703D01*
X7510699Y-10183703D02*
X7520222Y-10221798D01*
X7520222Y-10221798D02*
X7520222Y-10250370D01*
X7520222Y-10250370D02*
X7510699Y-10288465D01*
X7510699Y-10288465D02*
X7501175Y-10307512D01*
X7501175Y-10307512D02*
X7482127Y-10326560D01*
X7482127Y-10326560D02*
X7453556Y-10336084D01*
X7453556Y-10336084D02*
X7405937Y-10336084D01*
X7605937Y-10336084D02*
X7605937Y-10202750D01*
X7605937Y-10240846D02*
X7615461Y-10221798D01*
X7615461Y-10221798D02*
X7624984Y-10212274D01*
X7624984Y-10212274D02*
X7644032Y-10202750D01*
X7644032Y-10202750D02*
X7663080Y-10202750D01*
X7729746Y-10336084D02*
X7729746Y-10202750D01*
X7729746Y-10136084D02*
X7720222Y-10145608D01*
X7720222Y-10145608D02*
X7729746Y-10155131D01*
X7729746Y-10155131D02*
X7739270Y-10145608D01*
X7739270Y-10145608D02*
X7729746Y-10136084D01*
X7729746Y-10136084D02*
X7729746Y-10155131D01*
X7853556Y-10336084D02*
X7834508Y-10326560D01*
X7834508Y-10326560D02*
X7824984Y-10307512D01*
X7824984Y-10307512D02*
X7824984Y-10136084D01*
X7958318Y-10336084D02*
X7939270Y-10326560D01*
X7939270Y-10326560D02*
X7929746Y-10307512D01*
X7929746Y-10307512D02*
X7929746Y-10136084D01*
X8186889Y-10336084D02*
X8186889Y-10136084D01*
X8186889Y-10136084D02*
X8253556Y-10278941D01*
X8253556Y-10278941D02*
X8320222Y-10136084D01*
X8320222Y-10136084D02*
X8320222Y-10336084D01*
X8501175Y-10336084D02*
X8501175Y-10231322D01*
X8501175Y-10231322D02*
X8491651Y-10212274D01*
X8491651Y-10212274D02*
X8472604Y-10202750D01*
X8472604Y-10202750D02*
X8434508Y-10202750D01*
X8434508Y-10202750D02*
X8415461Y-10212274D01*
X8501175Y-10326560D02*
X8482127Y-10336084D01*
X8482127Y-10336084D02*
X8434508Y-10336084D01*
X8434508Y-10336084D02*
X8415461Y-10326560D01*
X8415461Y-10326560D02*
X8405937Y-10307512D01*
X8405937Y-10307512D02*
X8405937Y-10288465D01*
X8405937Y-10288465D02*
X8415461Y-10269417D01*
X8415461Y-10269417D02*
X8434508Y-10259893D01*
X8434508Y-10259893D02*
X8482127Y-10259893D01*
X8482127Y-10259893D02*
X8501175Y-10250370D01*
X8596413Y-10202750D02*
X8596413Y-10402750D01*
X8596413Y-10212274D02*
X8615461Y-10202750D01*
X8615461Y-10202750D02*
X8653556Y-10202750D01*
X8653556Y-10202750D02*
X8672604Y-10212274D01*
X8672604Y-10212274D02*
X8682127Y-10221798D01*
X8682127Y-10221798D02*
X8691651Y-10240846D01*
X8691651Y-10240846D02*
X8691651Y-10297989D01*
X8691651Y-10297989D02*
X8682127Y-10317036D01*
X8682127Y-10317036D02*
X8672604Y-10326560D01*
X8672604Y-10326560D02*
X8653556Y-10336084D01*
X8653556Y-10336084D02*
X8615461Y-10336084D01*
X8615461Y-10336084D02*
X8596413Y-10326560D01*
X8777365Y-10317036D02*
X8786889Y-10326560D01*
X8786889Y-10326560D02*
X8777365Y-10336084D01*
X8777365Y-10336084D02*
X8767842Y-10326560D01*
X8767842Y-10326560D02*
X8777365Y-10317036D01*
X8777365Y-10317036D02*
X8777365Y-10336084D01*
X8777365Y-10212274D02*
X8786889Y-10221798D01*
X8786889Y-10221798D02*
X8777365Y-10231322D01*
X8777365Y-10231322D02*
X8767842Y-10221798D01*
X8767842Y-10221798D02*
X8777365Y-10212274D01*
X8777365Y-10212274D02*
X8777365Y-10231322D01*
M02*
