%TF.GenerationSoftware,KiCad,Pcbnew,7.0.8*%
%TF.CreationDate,2024-02-17T11:30:40+00:00*%
%TF.ProjectId,uCoilDriver_I2C,75436f69-6c44-4726-9976-65725f493243,rev?*%
%TF.SameCoordinates,Original*%
%TF.FileFunction,Legend,Bot*%
%TF.FilePolarity,Positive*%
%FSLAX46Y46*%
G04 Gerber Fmt 4.6, Leading zero omitted, Abs format (unit mm)*
G04 Created by KiCad (PCBNEW 7.0.8) date 2024-02-17 11:30:40*
%MOMM*%
%LPD*%
G01*
G04 APERTURE LIST*
%ADD10C,0.180000*%
%ADD11C,0.160000*%
G04 APERTURE END LIST*
D10*
X74223259Y-83639911D02*
X73223259Y-83639911D01*
X73223259Y-83639911D02*
X73223259Y-83878006D01*
X73223259Y-83878006D02*
X73270878Y-84020863D01*
X73270878Y-84020863D02*
X73366116Y-84116101D01*
X73366116Y-84116101D02*
X73461354Y-84163720D01*
X73461354Y-84163720D02*
X73651830Y-84211339D01*
X73651830Y-84211339D02*
X73794687Y-84211339D01*
X73794687Y-84211339D02*
X73985163Y-84163720D01*
X73985163Y-84163720D02*
X74080401Y-84116101D01*
X74080401Y-84116101D02*
X74175640Y-84020863D01*
X74175640Y-84020863D02*
X74223259Y-83878006D01*
X74223259Y-83878006D02*
X74223259Y-83639911D01*
X74175640Y-85020863D02*
X74223259Y-84925625D01*
X74223259Y-84925625D02*
X74223259Y-84735149D01*
X74223259Y-84735149D02*
X74175640Y-84639911D01*
X74175640Y-84639911D02*
X74080401Y-84592292D01*
X74080401Y-84592292D02*
X73699449Y-84592292D01*
X73699449Y-84592292D02*
X73604211Y-84639911D01*
X73604211Y-84639911D02*
X73556592Y-84735149D01*
X73556592Y-84735149D02*
X73556592Y-84925625D01*
X73556592Y-84925625D02*
X73604211Y-85020863D01*
X73604211Y-85020863D02*
X73699449Y-85068482D01*
X73699449Y-85068482D02*
X73794687Y-85068482D01*
X73794687Y-85068482D02*
X73889925Y-84592292D01*
X74175640Y-85449435D02*
X74223259Y-85544673D01*
X74223259Y-85544673D02*
X74223259Y-85735149D01*
X74223259Y-85735149D02*
X74175640Y-85830387D01*
X74175640Y-85830387D02*
X74080401Y-85878006D01*
X74080401Y-85878006D02*
X74032782Y-85878006D01*
X74032782Y-85878006D02*
X73937544Y-85830387D01*
X73937544Y-85830387D02*
X73889925Y-85735149D01*
X73889925Y-85735149D02*
X73889925Y-85592292D01*
X73889925Y-85592292D02*
X73842306Y-85497054D01*
X73842306Y-85497054D02*
X73747068Y-85449435D01*
X73747068Y-85449435D02*
X73699449Y-85449435D01*
X73699449Y-85449435D02*
X73604211Y-85497054D01*
X73604211Y-85497054D02*
X73556592Y-85592292D01*
X73556592Y-85592292D02*
X73556592Y-85735149D01*
X73556592Y-85735149D02*
X73604211Y-85830387D01*
X74223259Y-86306578D02*
X73556592Y-86306578D01*
X73223259Y-86306578D02*
X73270878Y-86258959D01*
X73270878Y-86258959D02*
X73318497Y-86306578D01*
X73318497Y-86306578D02*
X73270878Y-86354197D01*
X73270878Y-86354197D02*
X73223259Y-86306578D01*
X73223259Y-86306578D02*
X73318497Y-86306578D01*
X73556592Y-87211339D02*
X74366116Y-87211339D01*
X74366116Y-87211339D02*
X74461354Y-87163720D01*
X74461354Y-87163720D02*
X74508973Y-87116101D01*
X74508973Y-87116101D02*
X74556592Y-87020863D01*
X74556592Y-87020863D02*
X74556592Y-86878006D01*
X74556592Y-86878006D02*
X74508973Y-86782768D01*
X74175640Y-87211339D02*
X74223259Y-87116101D01*
X74223259Y-87116101D02*
X74223259Y-86925625D01*
X74223259Y-86925625D02*
X74175640Y-86830387D01*
X74175640Y-86830387D02*
X74128020Y-86782768D01*
X74128020Y-86782768D02*
X74032782Y-86735149D01*
X74032782Y-86735149D02*
X73747068Y-86735149D01*
X73747068Y-86735149D02*
X73651830Y-86782768D01*
X73651830Y-86782768D02*
X73604211Y-86830387D01*
X73604211Y-86830387D02*
X73556592Y-86925625D01*
X73556592Y-86925625D02*
X73556592Y-87116101D01*
X73556592Y-87116101D02*
X73604211Y-87211339D01*
X73556592Y-87687530D02*
X74223259Y-87687530D01*
X73651830Y-87687530D02*
X73604211Y-87735149D01*
X73604211Y-87735149D02*
X73556592Y-87830387D01*
X73556592Y-87830387D02*
X73556592Y-87973244D01*
X73556592Y-87973244D02*
X73604211Y-88068482D01*
X73604211Y-88068482D02*
X73699449Y-88116101D01*
X73699449Y-88116101D02*
X74223259Y-88116101D01*
X74175640Y-88973244D02*
X74223259Y-88878006D01*
X74223259Y-88878006D02*
X74223259Y-88687530D01*
X74223259Y-88687530D02*
X74175640Y-88592292D01*
X74175640Y-88592292D02*
X74080401Y-88544673D01*
X74080401Y-88544673D02*
X73699449Y-88544673D01*
X73699449Y-88544673D02*
X73604211Y-88592292D01*
X73604211Y-88592292D02*
X73556592Y-88687530D01*
X73556592Y-88687530D02*
X73556592Y-88878006D01*
X73556592Y-88878006D02*
X73604211Y-88973244D01*
X73604211Y-88973244D02*
X73699449Y-89020863D01*
X73699449Y-89020863D02*
X73794687Y-89020863D01*
X73794687Y-89020863D02*
X73889925Y-88544673D01*
X74223259Y-89878006D02*
X73223259Y-89878006D01*
X74175640Y-89878006D02*
X74223259Y-89782768D01*
X74223259Y-89782768D02*
X74223259Y-89592292D01*
X74223259Y-89592292D02*
X74175640Y-89497054D01*
X74175640Y-89497054D02*
X74128020Y-89449435D01*
X74128020Y-89449435D02*
X74032782Y-89401816D01*
X74032782Y-89401816D02*
X73747068Y-89401816D01*
X73747068Y-89401816D02*
X73651830Y-89449435D01*
X73651830Y-89449435D02*
X73604211Y-89497054D01*
X73604211Y-89497054D02*
X73556592Y-89592292D01*
X73556592Y-89592292D02*
X73556592Y-89782768D01*
X73556592Y-89782768D02*
X73604211Y-89878006D01*
X74223259Y-91116102D02*
X73223259Y-91116102D01*
X73604211Y-91116102D02*
X73556592Y-91211340D01*
X73556592Y-91211340D02*
X73556592Y-91401816D01*
X73556592Y-91401816D02*
X73604211Y-91497054D01*
X73604211Y-91497054D02*
X73651830Y-91544673D01*
X73651830Y-91544673D02*
X73747068Y-91592292D01*
X73747068Y-91592292D02*
X74032782Y-91592292D01*
X74032782Y-91592292D02*
X74128020Y-91544673D01*
X74128020Y-91544673D02*
X74175640Y-91497054D01*
X74175640Y-91497054D02*
X74223259Y-91401816D01*
X74223259Y-91401816D02*
X74223259Y-91211340D01*
X74223259Y-91211340D02*
X74175640Y-91116102D01*
X73556592Y-91925626D02*
X74223259Y-92163721D01*
X73556592Y-92401816D02*
X74223259Y-92163721D01*
X74223259Y-92163721D02*
X74461354Y-92068483D01*
X74461354Y-92068483D02*
X74508973Y-92020864D01*
X74508973Y-92020864D02*
X74556592Y-91925626D01*
X75738020Y-84211339D02*
X75785640Y-84163720D01*
X75785640Y-84163720D02*
X75833259Y-84020863D01*
X75833259Y-84020863D02*
X75833259Y-83925625D01*
X75833259Y-83925625D02*
X75785640Y-83782768D01*
X75785640Y-83782768D02*
X75690401Y-83687530D01*
X75690401Y-83687530D02*
X75595163Y-83639911D01*
X75595163Y-83639911D02*
X75404687Y-83592292D01*
X75404687Y-83592292D02*
X75261830Y-83592292D01*
X75261830Y-83592292D02*
X75071354Y-83639911D01*
X75071354Y-83639911D02*
X74976116Y-83687530D01*
X74976116Y-83687530D02*
X74880878Y-83782768D01*
X74880878Y-83782768D02*
X74833259Y-83925625D01*
X74833259Y-83925625D02*
X74833259Y-84020863D01*
X74833259Y-84020863D02*
X74880878Y-84163720D01*
X74880878Y-84163720D02*
X74928497Y-84211339D01*
X75833259Y-84639911D02*
X74833259Y-84639911D01*
X75833259Y-85068482D02*
X75309449Y-85068482D01*
X75309449Y-85068482D02*
X75214211Y-85020863D01*
X75214211Y-85020863D02*
X75166592Y-84925625D01*
X75166592Y-84925625D02*
X75166592Y-84782768D01*
X75166592Y-84782768D02*
X75214211Y-84687530D01*
X75214211Y-84687530D02*
X75261830Y-84639911D01*
X75785640Y-85925625D02*
X75833259Y-85830387D01*
X75833259Y-85830387D02*
X75833259Y-85639911D01*
X75833259Y-85639911D02*
X75785640Y-85544673D01*
X75785640Y-85544673D02*
X75690401Y-85497054D01*
X75690401Y-85497054D02*
X75309449Y-85497054D01*
X75309449Y-85497054D02*
X75214211Y-85544673D01*
X75214211Y-85544673D02*
X75166592Y-85639911D01*
X75166592Y-85639911D02*
X75166592Y-85830387D01*
X75166592Y-85830387D02*
X75214211Y-85925625D01*
X75214211Y-85925625D02*
X75309449Y-85973244D01*
X75309449Y-85973244D02*
X75404687Y-85973244D01*
X75404687Y-85973244D02*
X75499925Y-85497054D01*
X75166592Y-86401816D02*
X75833259Y-86401816D01*
X75261830Y-86401816D02*
X75214211Y-86449435D01*
X75214211Y-86449435D02*
X75166592Y-86544673D01*
X75166592Y-86544673D02*
X75166592Y-86687530D01*
X75166592Y-86687530D02*
X75214211Y-86782768D01*
X75214211Y-86782768D02*
X75309449Y-86830387D01*
X75309449Y-86830387D02*
X75833259Y-86830387D01*
X75166592Y-87735149D02*
X75976116Y-87735149D01*
X75976116Y-87735149D02*
X76071354Y-87687530D01*
X76071354Y-87687530D02*
X76118973Y-87639911D01*
X76118973Y-87639911D02*
X76166592Y-87544673D01*
X76166592Y-87544673D02*
X76166592Y-87401816D01*
X76166592Y-87401816D02*
X76118973Y-87306578D01*
X75785640Y-87735149D02*
X75833259Y-87639911D01*
X75833259Y-87639911D02*
X75833259Y-87449435D01*
X75833259Y-87449435D02*
X75785640Y-87354197D01*
X75785640Y-87354197D02*
X75738020Y-87306578D01*
X75738020Y-87306578D02*
X75642782Y-87258959D01*
X75642782Y-87258959D02*
X75357068Y-87258959D01*
X75357068Y-87258959D02*
X75261830Y-87306578D01*
X75261830Y-87306578D02*
X75214211Y-87354197D01*
X75214211Y-87354197D02*
X75166592Y-87449435D01*
X75166592Y-87449435D02*
X75166592Y-87639911D01*
X75166592Y-87639911D02*
X75214211Y-87735149D01*
X74833259Y-88878007D02*
X74833259Y-89544673D01*
X74833259Y-89544673D02*
X75833259Y-88878007D01*
X75833259Y-88878007D02*
X75833259Y-89544673D01*
X75833259Y-89925626D02*
X74833259Y-89925626D01*
X75833259Y-90354197D02*
X75309449Y-90354197D01*
X75309449Y-90354197D02*
X75214211Y-90306578D01*
X75214211Y-90306578D02*
X75166592Y-90211340D01*
X75166592Y-90211340D02*
X75166592Y-90068483D01*
X75166592Y-90068483D02*
X75214211Y-89973245D01*
X75214211Y-89973245D02*
X75261830Y-89925626D01*
X75833259Y-91258959D02*
X75309449Y-91258959D01*
X75309449Y-91258959D02*
X75214211Y-91211340D01*
X75214211Y-91211340D02*
X75166592Y-91116102D01*
X75166592Y-91116102D02*
X75166592Y-90925626D01*
X75166592Y-90925626D02*
X75214211Y-90830388D01*
X75785640Y-91258959D02*
X75833259Y-91163721D01*
X75833259Y-91163721D02*
X75833259Y-90925626D01*
X75833259Y-90925626D02*
X75785640Y-90830388D01*
X75785640Y-90830388D02*
X75690401Y-90782769D01*
X75690401Y-90782769D02*
X75595163Y-90782769D01*
X75595163Y-90782769D02*
X75499925Y-90830388D01*
X75499925Y-90830388D02*
X75452306Y-90925626D01*
X75452306Y-90925626D02*
X75452306Y-91163721D01*
X75452306Y-91163721D02*
X75404687Y-91258959D01*
X75166592Y-91735150D02*
X75833259Y-91735150D01*
X75261830Y-91735150D02*
X75214211Y-91782769D01*
X75214211Y-91782769D02*
X75166592Y-91878007D01*
X75166592Y-91878007D02*
X75166592Y-92020864D01*
X75166592Y-92020864D02*
X75214211Y-92116102D01*
X75214211Y-92116102D02*
X75309449Y-92163721D01*
X75309449Y-92163721D02*
X75833259Y-92163721D01*
X75166592Y-93068483D02*
X75976116Y-93068483D01*
X75976116Y-93068483D02*
X76071354Y-93020864D01*
X76071354Y-93020864D02*
X76118973Y-92973245D01*
X76118973Y-92973245D02*
X76166592Y-92878007D01*
X76166592Y-92878007D02*
X76166592Y-92735150D01*
X76166592Y-92735150D02*
X76118973Y-92639912D01*
X75785640Y-93068483D02*
X75833259Y-92973245D01*
X75833259Y-92973245D02*
X75833259Y-92782769D01*
X75833259Y-92782769D02*
X75785640Y-92687531D01*
X75785640Y-92687531D02*
X75738020Y-92639912D01*
X75738020Y-92639912D02*
X75642782Y-92592293D01*
X75642782Y-92592293D02*
X75357068Y-92592293D01*
X75357068Y-92592293D02*
X75261830Y-92639912D01*
X75261830Y-92639912D02*
X75214211Y-92687531D01*
X75214211Y-92687531D02*
X75166592Y-92782769D01*
X75166592Y-92782769D02*
X75166592Y-92973245D01*
X75166592Y-92973245D02*
X75214211Y-93068483D01*
X77443259Y-86401817D02*
X77443259Y-86354198D01*
X77443259Y-86354198D02*
X77395640Y-86258959D01*
X77395640Y-86258959D02*
X77252782Y-86116102D01*
X77252782Y-86116102D02*
X76967068Y-85878007D01*
X76967068Y-85878007D02*
X76824211Y-85782769D01*
X76824211Y-85782769D02*
X76681354Y-85735150D01*
X76681354Y-85735150D02*
X76586116Y-85735150D01*
X76586116Y-85735150D02*
X76490878Y-85782769D01*
X76490878Y-85782769D02*
X76443259Y-85878007D01*
X76443259Y-85878007D02*
X76443259Y-85925626D01*
X76443259Y-85925626D02*
X76490878Y-86020864D01*
X76490878Y-86020864D02*
X76586116Y-86068483D01*
X76586116Y-86068483D02*
X76633735Y-86068483D01*
X76633735Y-86068483D02*
X76728973Y-86020864D01*
X76728973Y-86020864D02*
X76776592Y-85973245D01*
X76776592Y-85973245D02*
X76967068Y-85687531D01*
X76967068Y-85687531D02*
X77014687Y-85639912D01*
X77014687Y-85639912D02*
X77109925Y-85592293D01*
X77109925Y-85592293D02*
X77252782Y-85592293D01*
X77252782Y-85592293D02*
X77348020Y-85639912D01*
X77348020Y-85639912D02*
X77395640Y-85687531D01*
X77395640Y-85687531D02*
X77443259Y-85782769D01*
X77443259Y-85782769D02*
X77443259Y-85925626D01*
X77443259Y-85925626D02*
X77395640Y-86020864D01*
X77395640Y-86020864D02*
X77348020Y-86068483D01*
X77348020Y-86068483D02*
X77157544Y-86211340D01*
X77157544Y-86211340D02*
X77014687Y-86258959D01*
X77014687Y-86258959D02*
X76919449Y-86258959D01*
X77443259Y-87592293D02*
X76443259Y-87592293D01*
X76443259Y-87592293D02*
X77157544Y-87925626D01*
X77157544Y-87925626D02*
X76443259Y-88258959D01*
X76443259Y-88258959D02*
X77443259Y-88258959D01*
X77443259Y-88735150D02*
X76776592Y-88735150D01*
X76443259Y-88735150D02*
X76490878Y-88687531D01*
X76490878Y-88687531D02*
X76538497Y-88735150D01*
X76538497Y-88735150D02*
X76490878Y-88782769D01*
X76490878Y-88782769D02*
X76443259Y-88735150D01*
X76443259Y-88735150D02*
X76538497Y-88735150D01*
X76776592Y-89211340D02*
X77443259Y-89211340D01*
X76871830Y-89211340D02*
X76824211Y-89258959D01*
X76824211Y-89258959D02*
X76776592Y-89354197D01*
X76776592Y-89354197D02*
X76776592Y-89497054D01*
X76776592Y-89497054D02*
X76824211Y-89592292D01*
X76824211Y-89592292D02*
X76919449Y-89639911D01*
X76919449Y-89639911D02*
X77443259Y-89639911D01*
X77443259Y-90116102D02*
X76443259Y-90116102D01*
X77443259Y-90544673D02*
X76919449Y-90544673D01*
X76919449Y-90544673D02*
X76824211Y-90497054D01*
X76824211Y-90497054D02*
X76776592Y-90401816D01*
X76776592Y-90401816D02*
X76776592Y-90258959D01*
X76776592Y-90258959D02*
X76824211Y-90163721D01*
X76824211Y-90163721D02*
X76871830Y-90116102D01*
X76443259Y-91639912D02*
X77443259Y-91973245D01*
X77443259Y-91973245D02*
X76443259Y-92306578D01*
X76776592Y-93068483D02*
X77443259Y-93068483D01*
X76776592Y-92639912D02*
X77300401Y-92639912D01*
X77300401Y-92639912D02*
X77395640Y-92687531D01*
X77395640Y-92687531D02*
X77443259Y-92782769D01*
X77443259Y-92782769D02*
X77443259Y-92925626D01*
X77443259Y-92925626D02*
X77395640Y-93020864D01*
X77395640Y-93020864D02*
X77348020Y-93068483D01*
D11*
X79554013Y-92611404D02*
X78854013Y-92611404D01*
X78854013Y-92611404D02*
X79354013Y-92844738D01*
X79354013Y-92844738D02*
X78854013Y-93078071D01*
X78854013Y-93078071D02*
X79554013Y-93078071D01*
X79554013Y-93711404D02*
X79187346Y-93711404D01*
X79187346Y-93711404D02*
X79120680Y-93678071D01*
X79120680Y-93678071D02*
X79087346Y-93611404D01*
X79087346Y-93611404D02*
X79087346Y-93478071D01*
X79087346Y-93478071D02*
X79120680Y-93411404D01*
X79520680Y-93711404D02*
X79554013Y-93644738D01*
X79554013Y-93644738D02*
X79554013Y-93478071D01*
X79554013Y-93478071D02*
X79520680Y-93411404D01*
X79520680Y-93411404D02*
X79454013Y-93378071D01*
X79454013Y-93378071D02*
X79387346Y-93378071D01*
X79387346Y-93378071D02*
X79320680Y-93411404D01*
X79320680Y-93411404D02*
X79287346Y-93478071D01*
X79287346Y-93478071D02*
X79287346Y-93644738D01*
X79287346Y-93644738D02*
X79254013Y-93711404D01*
X79087346Y-94044737D02*
X79554013Y-94044737D01*
X79154013Y-94044737D02*
X79120680Y-94078071D01*
X79120680Y-94078071D02*
X79087346Y-94144737D01*
X79087346Y-94144737D02*
X79087346Y-94244737D01*
X79087346Y-94244737D02*
X79120680Y-94311404D01*
X79120680Y-94311404D02*
X79187346Y-94344737D01*
X79187346Y-94344737D02*
X79554013Y-94344737D01*
X79520680Y-94978070D02*
X79554013Y-94911404D01*
X79554013Y-94911404D02*
X79554013Y-94778070D01*
X79554013Y-94778070D02*
X79520680Y-94711404D01*
X79520680Y-94711404D02*
X79487346Y-94678070D01*
X79487346Y-94678070D02*
X79420680Y-94644737D01*
X79420680Y-94644737D02*
X79220680Y-94644737D01*
X79220680Y-94644737D02*
X79154013Y-94678070D01*
X79154013Y-94678070D02*
X79120680Y-94711404D01*
X79120680Y-94711404D02*
X79087346Y-94778070D01*
X79087346Y-94778070D02*
X79087346Y-94911404D01*
X79087346Y-94911404D02*
X79120680Y-94978070D01*
X79554013Y-95278070D02*
X78854013Y-95278070D01*
X79554013Y-95578070D02*
X79187346Y-95578070D01*
X79187346Y-95578070D02*
X79120680Y-95544737D01*
X79120680Y-95544737D02*
X79087346Y-95478070D01*
X79087346Y-95478070D02*
X79087346Y-95378070D01*
X79087346Y-95378070D02*
X79120680Y-95311404D01*
X79120680Y-95311404D02*
X79154013Y-95278070D01*
X79520680Y-96178070D02*
X79554013Y-96111403D01*
X79554013Y-96111403D02*
X79554013Y-95978070D01*
X79554013Y-95978070D02*
X79520680Y-95911403D01*
X79520680Y-95911403D02*
X79454013Y-95878070D01*
X79454013Y-95878070D02*
X79187346Y-95878070D01*
X79187346Y-95878070D02*
X79120680Y-95911403D01*
X79120680Y-95911403D02*
X79087346Y-95978070D01*
X79087346Y-95978070D02*
X79087346Y-96111403D01*
X79087346Y-96111403D02*
X79120680Y-96178070D01*
X79120680Y-96178070D02*
X79187346Y-96211403D01*
X79187346Y-96211403D02*
X79254013Y-96211403D01*
X79254013Y-96211403D02*
X79320680Y-95878070D01*
X79520680Y-96478070D02*
X79554013Y-96544737D01*
X79554013Y-96544737D02*
X79554013Y-96678070D01*
X79554013Y-96678070D02*
X79520680Y-96744737D01*
X79520680Y-96744737D02*
X79454013Y-96778070D01*
X79454013Y-96778070D02*
X79420680Y-96778070D01*
X79420680Y-96778070D02*
X79354013Y-96744737D01*
X79354013Y-96744737D02*
X79320680Y-96678070D01*
X79320680Y-96678070D02*
X79320680Y-96578070D01*
X79320680Y-96578070D02*
X79287346Y-96511403D01*
X79287346Y-96511403D02*
X79220680Y-96478070D01*
X79220680Y-96478070D02*
X79187346Y-96478070D01*
X79187346Y-96478070D02*
X79120680Y-96511403D01*
X79120680Y-96511403D02*
X79087346Y-96578070D01*
X79087346Y-96578070D02*
X79087346Y-96678070D01*
X79087346Y-96678070D02*
X79120680Y-96744737D01*
X79087346Y-96978070D02*
X79087346Y-97244737D01*
X78854013Y-97078070D02*
X79454013Y-97078070D01*
X79454013Y-97078070D02*
X79520680Y-97111404D01*
X79520680Y-97111404D02*
X79554013Y-97178070D01*
X79554013Y-97178070D02*
X79554013Y-97244737D01*
X79520680Y-97744737D02*
X79554013Y-97678070D01*
X79554013Y-97678070D02*
X79554013Y-97544737D01*
X79554013Y-97544737D02*
X79520680Y-97478070D01*
X79520680Y-97478070D02*
X79454013Y-97444737D01*
X79454013Y-97444737D02*
X79187346Y-97444737D01*
X79187346Y-97444737D02*
X79120680Y-97478070D01*
X79120680Y-97478070D02*
X79087346Y-97544737D01*
X79087346Y-97544737D02*
X79087346Y-97678070D01*
X79087346Y-97678070D02*
X79120680Y-97744737D01*
X79120680Y-97744737D02*
X79187346Y-97778070D01*
X79187346Y-97778070D02*
X79254013Y-97778070D01*
X79254013Y-97778070D02*
X79320680Y-97444737D01*
X79554013Y-98078070D02*
X79087346Y-98078070D01*
X79220680Y-98078070D02*
X79154013Y-98111404D01*
X79154013Y-98111404D02*
X79120680Y-98144737D01*
X79120680Y-98144737D02*
X79087346Y-98211404D01*
X79087346Y-98211404D02*
X79087346Y-98278070D01*
X80047680Y-95811402D02*
X80014346Y-95844735D01*
X80014346Y-95844735D02*
X79981013Y-95911402D01*
X79981013Y-95911402D02*
X79981013Y-96078069D01*
X79981013Y-96078069D02*
X80014346Y-96144735D01*
X80014346Y-96144735D02*
X80047680Y-96178069D01*
X80047680Y-96178069D02*
X80114346Y-96211402D01*
X80114346Y-96211402D02*
X80181013Y-96211402D01*
X80181013Y-96211402D02*
X80281013Y-96178069D01*
X80281013Y-96178069D02*
X80681013Y-95778069D01*
X80681013Y-95778069D02*
X80681013Y-96211402D01*
X79981013Y-96644736D02*
X79981013Y-96711402D01*
X79981013Y-96711402D02*
X80014346Y-96778069D01*
X80014346Y-96778069D02*
X80047680Y-96811402D01*
X80047680Y-96811402D02*
X80114346Y-96844736D01*
X80114346Y-96844736D02*
X80247680Y-96878069D01*
X80247680Y-96878069D02*
X80414346Y-96878069D01*
X80414346Y-96878069D02*
X80547680Y-96844736D01*
X80547680Y-96844736D02*
X80614346Y-96811402D01*
X80614346Y-96811402D02*
X80647680Y-96778069D01*
X80647680Y-96778069D02*
X80681013Y-96711402D01*
X80681013Y-96711402D02*
X80681013Y-96644736D01*
X80681013Y-96644736D02*
X80647680Y-96578069D01*
X80647680Y-96578069D02*
X80614346Y-96544736D01*
X80614346Y-96544736D02*
X80547680Y-96511402D01*
X80547680Y-96511402D02*
X80414346Y-96478069D01*
X80414346Y-96478069D02*
X80247680Y-96478069D01*
X80247680Y-96478069D02*
X80114346Y-96511402D01*
X80114346Y-96511402D02*
X80047680Y-96544736D01*
X80047680Y-96544736D02*
X80014346Y-96578069D01*
X80014346Y-96578069D02*
X79981013Y-96644736D01*
X80047680Y-97144736D02*
X80014346Y-97178069D01*
X80014346Y-97178069D02*
X79981013Y-97244736D01*
X79981013Y-97244736D02*
X79981013Y-97411403D01*
X79981013Y-97411403D02*
X80014346Y-97478069D01*
X80014346Y-97478069D02*
X80047680Y-97511403D01*
X80047680Y-97511403D02*
X80114346Y-97544736D01*
X80114346Y-97544736D02*
X80181013Y-97544736D01*
X80181013Y-97544736D02*
X80281013Y-97511403D01*
X80281013Y-97511403D02*
X80681013Y-97111403D01*
X80681013Y-97111403D02*
X80681013Y-97544736D01*
X79981013Y-97778070D02*
X79981013Y-98211403D01*
X79981013Y-98211403D02*
X80247680Y-97978070D01*
X80247680Y-97978070D02*
X80247680Y-98078070D01*
X80247680Y-98078070D02*
X80281013Y-98144736D01*
X80281013Y-98144736D02*
X80314346Y-98178070D01*
X80314346Y-98178070D02*
X80381013Y-98211403D01*
X80381013Y-98211403D02*
X80547680Y-98211403D01*
X80547680Y-98211403D02*
X80614346Y-98178070D01*
X80614346Y-98178070D02*
X80647680Y-98144736D01*
X80647680Y-98144736D02*
X80681013Y-98078070D01*
X80681013Y-98078070D02*
X80681013Y-97878070D01*
X80681013Y-97878070D02*
X80647680Y-97811403D01*
X80647680Y-97811403D02*
X80614346Y-97778070D01*
M02*
