%TF.GenerationSoftware,KiCad,Pcbnew,7.0.8*%
%TF.CreationDate,2024-02-17T11:30:39+00:00*%
%TF.ProjectId,uCoilDriver_I2C,75436f69-6c44-4726-9976-65725f493243,rev?*%
%TF.SameCoordinates,Original*%
%TF.FileFunction,Copper,L3,Inr*%
%TF.FilePolarity,Positive*%
%FSLAX46Y46*%
G04 Gerber Fmt 4.6, Leading zero omitted, Abs format (unit mm)*
G04 Created by KiCad (PCBNEW 7.0.8) date 2024-02-17 11:30:39*
%MOMM*%
%LPD*%
G01*
G04 APERTURE LIST*
G04 Aperture macros list*
%AMRoundRect*
0 Rectangle with rounded corners*
0 $1 Rounding radius*
0 $2 $3 $4 $5 $6 $7 $8 $9 X,Y pos of 4 corners*
0 Add a 4 corners polygon primitive as box body*
4,1,4,$2,$3,$4,$5,$6,$7,$8,$9,$2,$3,0*
0 Add four circle primitives for the rounded corners*
1,1,$1+$1,$2,$3*
1,1,$1+$1,$4,$5*
1,1,$1+$1,$6,$7*
1,1,$1+$1,$8,$9*
0 Add four rect primitives between the rounded corners*
20,1,$1+$1,$2,$3,$4,$5,0*
20,1,$1+$1,$4,$5,$6,$7,0*
20,1,$1+$1,$6,$7,$8,$9,0*
20,1,$1+$1,$8,$9,$2,$3,0*%
G04 Aperture macros list end*
%TA.AperFunction,CastellatedPad*%
%ADD10RoundRect,0.300000X-0.300000X-0.700000X0.300000X-0.700000X0.300000X0.700000X-0.300000X0.700000X0*%
%TD*%
%TA.AperFunction,CastellatedPad*%
%ADD11RoundRect,0.300000X-0.700000X0.300000X-0.700000X-0.300000X0.700000X-0.300000X0.700000X0.300000X0*%
%TD*%
%TA.AperFunction,CastellatedPad*%
%ADD12RoundRect,0.300000X0.700000X-0.300000X0.700000X0.300000X-0.700000X0.300000X-0.700000X-0.300000X0*%
%TD*%
%TA.AperFunction,CastellatedPad*%
%ADD13RoundRect,0.300000X0.300000X0.700000X-0.300000X0.700000X-0.300000X-0.700000X0.300000X-0.700000X0*%
%TD*%
%TA.AperFunction,ViaPad*%
%ADD14C,0.450000*%
%TD*%
%TA.AperFunction,ViaPad*%
%ADD15C,0.440000*%
%TD*%
%TA.AperFunction,Conductor*%
%ADD16C,0.250000*%
%TD*%
G04 APERTURE END LIST*
D10*
%TO.N,GND*%
%TO.C,TP2*%
X75699800Y-81550000D03*
%TD*%
D11*
%TO.N,/NRST*%
%TO.C,TP6*%
X81500000Y-87400400D03*
%TD*%
%TO.N,/I2C1_SDA*%
%TO.C,*%
X71500000Y-85800200D03*
%TD*%
%TO.N,/I2C1_SDA*%
%TO.C,TP7*%
X81500000Y-85800200D03*
%TD*%
D10*
%TO.N,/OUT1*%
%TO.C,TP13*%
X73299600Y-100200000D03*
%TD*%
D12*
%TO.N,/I2C1_SCL*%
%TO.C,TP8*%
X81500000Y-84200000D03*
%TD*%
%TO.N,/I2C1_SCL*%
%TO.C,*%
X71500000Y-84200000D03*
%TD*%
D10*
%TO.N,GND*%
%TO.C,TP15*%
X76500000Y-100200000D03*
%TD*%
%TO.N,/ADC_IN*%
%TO.C,TP17*%
X78100200Y-100200000D03*
%TD*%
%TO.N,/OUT2*%
%TO.C,TP14*%
X74899800Y-100200000D03*
%TD*%
D12*
%TO.N,GND*%
%TO.C,TP11*%
X81500000Y-82600000D03*
%TD*%
D10*
%TO.N,/SWDIO*%
%TO.C,TP12*%
X78900000Y-81550000D03*
%TD*%
D13*
%TO.N,/SWCLK*%
%TO.C,TP3*%
X77300000Y-81550000D03*
%TD*%
D12*
%TO.N,GND*%
%TO.C,*%
X71500000Y-82600000D03*
%TD*%
D10*
%TO.N,+12V*%
%TO.C,TP1*%
X74099600Y-81550000D03*
%TD*%
%TO.N,+3.3V*%
%TO.C,TP16*%
X79699600Y-100200000D03*
%TD*%
D14*
%TO.N,/NRST*%
X79335589Y-90235589D03*
X76962862Y-92385311D03*
%TO.N,GND*%
X78960251Y-86349700D03*
X76908240Y-83650500D03*
X80014411Y-90914411D03*
X78724500Y-87400000D03*
X78850500Y-88163400D03*
X72920000Y-96390000D03*
X76175000Y-88250000D03*
X72900000Y-92475000D03*
X77536664Y-94074433D03*
X73590000Y-96390000D03*
X76323774Y-96973450D03*
X78549500Y-94370000D03*
X75300000Y-88350000D03*
X80217605Y-91974153D03*
X74260000Y-96390000D03*
X78811630Y-94810255D03*
X75381142Y-96818372D03*
X74925000Y-88100000D03*
X72920000Y-95720000D03*
X75460000Y-91060000D03*
X79846725Y-91603275D03*
X79650000Y-83450000D03*
X77840000Y-97160000D03*
X78900000Y-84975000D03*
X78600000Y-83575000D03*
X74850000Y-96474500D03*
X79600000Y-84925000D03*
X73875000Y-94937500D03*
X76725000Y-96583500D03*
X77320000Y-96820000D03*
X77160000Y-85180000D03*
X79180000Y-97240000D03*
X78590000Y-97250000D03*
X78724500Y-86824027D03*
X78835462Y-88746720D03*
X75875000Y-96583500D03*
X73590000Y-95720000D03*
X75475000Y-85000000D03*
%TO.N,/PA2_IPROPI*%
X79025000Y-91300000D03*
X78211188Y-95711013D03*
%TO.N,/I2C1_SCL*%
X75862862Y-92691470D03*
%TO.N,/I2C1_SDA*%
X75895714Y-94010500D03*
%TO.N,/SWDIO*%
X73300500Y-90200000D03*
%TO.N,/SWCLK*%
X73050000Y-91350000D03*
%TO.N,/ADC_IN*%
X79264477Y-92935523D03*
%TO.N,Net-(U1-VREF)*%
X75565511Y-95706584D03*
X80065500Y-96860000D03*
%TO.N,/TIM2_CH2*%
X75172249Y-91914194D03*
X76872584Y-94997415D03*
%TO.N,/TIM2_CH1*%
X74774177Y-91400976D03*
X76141503Y-95132587D03*
%TO.N,/OUT2*%
X77351771Y-97694958D03*
X77350000Y-98320000D03*
D15*
%TO.N,/OUT1*%
X76175000Y-97858000D03*
%TD*%
D16*
%TO.N,/SWDIO*%
X73300500Y-90200000D02*
X73300500Y-88043093D01*
X73300500Y-88043093D02*
X79000000Y-82343593D01*
X79000000Y-82343593D02*
X79000000Y-81300000D01*
%TO.N,/I2C1_SCL*%
X81500000Y-84200000D02*
X78799293Y-84200000D01*
X78175000Y-89395000D02*
X75862862Y-91707138D01*
X78175000Y-84824293D02*
X78175000Y-89395000D01*
%TO.N,/I2C1_SDA*%
X79400000Y-86725000D02*
X80324800Y-85800200D01*
%TO.N,/I2C1_SCL*%
X75862862Y-91707138D02*
X75862862Y-92691470D01*
%TO.N,/I2C1_SDA*%
X75895714Y-94010500D02*
X76412862Y-93493352D01*
X76412862Y-93493352D02*
X76412862Y-91947138D01*
%TO.N,/I2C1_SCL*%
X78799293Y-84200000D02*
X78175000Y-84824293D01*
%TO.N,/I2C1_SDA*%
X76412862Y-91947138D02*
X79400000Y-88960000D01*
X79400000Y-88960000D02*
X79400000Y-86725000D01*
X80324800Y-85800200D02*
X81500000Y-85800200D01*
%TO.N,/NRST*%
X76962862Y-92253333D02*
X76962862Y-92385311D01*
X78980606Y-90235589D02*
X76962862Y-92253333D01*
X79335589Y-90235589D02*
X78980606Y-90235589D01*
%TO.N,/TIM2_CH1*%
X75362587Y-95132587D02*
X76141503Y-95132587D01*
X74367318Y-91807835D02*
X74367318Y-94137318D01*
X74774177Y-91400976D02*
X74367318Y-91807835D01*
X74367318Y-94137318D02*
X75362587Y-95132587D01*
%TO.N,Net-(U1-VREF)*%
X77144402Y-95706584D02*
X75565511Y-95706584D01*
X79568298Y-96362798D02*
X77800616Y-96362798D01*
X77800616Y-96362798D02*
X77144402Y-95706584D01*
X80065500Y-96860000D02*
X79568298Y-96362798D01*
%TO.N,/PA2_IPROPI*%
X78688691Y-95711013D02*
X78211188Y-95711013D01*
X79364737Y-95034967D02*
X78688691Y-95711013D01*
X78050000Y-92275000D02*
X78050000Y-92610304D01*
X78050000Y-92610304D02*
X79364737Y-93925041D01*
X79364737Y-93925041D02*
X79364737Y-95034967D01*
X79025000Y-91300000D02*
X78050000Y-92275000D01*
%TO.N,/NRST*%
X80475000Y-88225000D02*
X81120416Y-87579584D01*
X79335589Y-90235589D02*
X80475000Y-89096178D01*
X81120416Y-87579584D02*
X81379584Y-87579584D01*
X80475000Y-89096178D02*
X80475000Y-88225000D01*
%TO.N,/SWCLK*%
X73050000Y-91350000D02*
X72250000Y-90550000D01*
X72250000Y-90550000D02*
X72250000Y-87325000D01*
X72250000Y-87325000D02*
X77400000Y-82175000D01*
X77400000Y-82175000D02*
X77400000Y-81300000D01*
%TO.N,/ADC_IN*%
X79264477Y-92935523D02*
X80950000Y-94621046D01*
X80000000Y-98575000D02*
X79050000Y-98575000D01*
X78100200Y-99524800D02*
X78100200Y-100499600D01*
X80950000Y-94621046D02*
X80950000Y-97625000D01*
X80950000Y-97625000D02*
X80000000Y-98575000D01*
X79050000Y-98575000D02*
X78100200Y-99524800D01*
%TO.N,/TIM2_CH2*%
X75172249Y-94162249D02*
X75172249Y-91914194D01*
X75570000Y-94560000D02*
X75172249Y-94162249D01*
X76872584Y-94997415D02*
X76815000Y-94997415D01*
X76377585Y-94560000D02*
X75570000Y-94560000D01*
X76815000Y-94997415D02*
X76377585Y-94560000D01*
%TO.N,/OUT2*%
X74900200Y-99374800D02*
X74900200Y-100500000D01*
%TO.N,/OUT1*%
X73300000Y-99500000D02*
X73300000Y-100500000D01*
%TD*%
%TA.AperFunction,Conductor*%
%TO.N,/OUT2*%
G36*
X77406561Y-97394402D02*
G01*
X77454222Y-97403882D01*
X77489910Y-97418665D01*
X77502914Y-97427354D01*
X77517917Y-97439665D01*
X77549834Y-97471582D01*
X77562145Y-97486585D01*
X77570834Y-97499589D01*
X77585616Y-97535275D01*
X77595097Y-97582936D01*
X77597000Y-97602251D01*
X77597000Y-98787150D01*
X77595102Y-98806441D01*
X77585645Y-98854043D01*
X77570899Y-98889693D01*
X77549473Y-98921810D01*
X77522217Y-98949118D01*
X77490143Y-98970605D01*
X77454521Y-98985421D01*
X77406935Y-98994970D01*
X77387650Y-98996904D01*
X75790000Y-99000000D01*
X75730833Y-99063575D01*
X75730829Y-99063579D01*
X75730828Y-99063580D01*
X75566623Y-99240024D01*
X75501500Y-99310000D01*
X75501500Y-99388664D01*
X75501500Y-99986248D01*
X75499597Y-100005563D01*
X75490116Y-100053224D01*
X75475335Y-100088910D01*
X75453862Y-100121047D01*
X75426547Y-100148362D01*
X75394410Y-100169835D01*
X75358724Y-100184616D01*
X75313577Y-100193597D01*
X75294262Y-100195500D01*
X74502238Y-100195500D01*
X74482925Y-100193598D01*
X74464749Y-100189982D01*
X74437775Y-100184617D01*
X74402089Y-100169835D01*
X74401330Y-100169328D01*
X74369949Y-100148359D01*
X74342640Y-100121050D01*
X74321163Y-100088908D01*
X74306382Y-100053222D01*
X74296902Y-100005561D01*
X74295000Y-99986248D01*
X74295000Y-99337609D01*
X74296702Y-99319331D01*
X74305201Y-99274088D01*
X74318468Y-99240024D01*
X74342808Y-99200948D01*
X74353916Y-99186333D01*
X74541942Y-98981552D01*
X74963611Y-98522304D01*
X74978922Y-98508753D01*
X75020518Y-98478992D01*
X75057769Y-98462624D01*
X75107825Y-98452112D01*
X75128164Y-98450000D01*
X76825094Y-98450000D01*
X76825095Y-98450000D01*
X77025000Y-98450000D01*
X77025094Y-98250090D01*
X77025095Y-98250088D01*
X77025400Y-97602155D01*
X77027310Y-97582847D01*
X77028791Y-97575415D01*
X77036808Y-97535199D01*
X77051597Y-97499535D01*
X77073078Y-97467406D01*
X77100384Y-97440113D01*
X77132523Y-97418647D01*
X77168196Y-97403876D01*
X77204740Y-97396609D01*
X77215846Y-97394401D01*
X77235153Y-97392500D01*
X77387248Y-97392500D01*
X77406561Y-97394402D01*
G37*
%TD.AperFunction*%
%TD*%
%TA.AperFunction,Conductor*%
%TO.N,/OUT1*%
G36*
X76134946Y-97402225D02*
G01*
X76160489Y-97405611D01*
X76222095Y-97422152D01*
X76266351Y-97447687D01*
X76268608Y-97449939D01*
X76301982Y-97483242D01*
X76327613Y-97527445D01*
X76344285Y-97589017D01*
X76347725Y-97614554D01*
X76349280Y-98069543D01*
X76347436Y-98088903D01*
X76338079Y-98136693D01*
X76323357Y-98172495D01*
X76304846Y-98200326D01*
X76256879Y-98238308D01*
X76222415Y-98244500D01*
X75122844Y-98244500D01*
X75120253Y-98244634D01*
X75112227Y-98245050D01*
X75112217Y-98245051D01*
X75112215Y-98245051D01*
X75093888Y-98246954D01*
X75081309Y-98248261D01*
X75081305Y-98248261D01*
X75081301Y-98248262D01*
X75070807Y-98249904D01*
X75015536Y-98261510D01*
X75015525Y-98261513D01*
X74975099Y-98274485D01*
X74962548Y-98280000D01*
X74930000Y-98280000D01*
X74899639Y-98312795D01*
X74855028Y-98344713D01*
X74846698Y-98351351D01*
X74846699Y-98351350D01*
X74823439Y-98371937D01*
X74823437Y-98371938D01*
X74815839Y-98379399D01*
X74199310Y-99050870D01*
X74193191Y-99058190D01*
X74193190Y-99058192D01*
X74176315Y-99080394D01*
X74176316Y-99080394D01*
X74176314Y-99080396D01*
X74170901Y-99088250D01*
X74170895Y-99088259D01*
X74153527Y-99116142D01*
X74142145Y-99131052D01*
X73967235Y-99319993D01*
X73967234Y-99319995D01*
X73967232Y-99319997D01*
X73914000Y-99377500D01*
X73914000Y-99455859D01*
X73914000Y-99986248D01*
X73912097Y-100005563D01*
X73902616Y-100053224D01*
X73887835Y-100088910D01*
X73866362Y-100121047D01*
X73839047Y-100148362D01*
X73806910Y-100169835D01*
X73771224Y-100184616D01*
X73726077Y-100193597D01*
X73706762Y-100195500D01*
X72914738Y-100195500D01*
X72895425Y-100193598D01*
X72877249Y-100189982D01*
X72850275Y-100184617D01*
X72814589Y-100169835D01*
X72813830Y-100169328D01*
X72782449Y-100148359D01*
X72755140Y-100121050D01*
X72733663Y-100088908D01*
X72718882Y-100053222D01*
X72709402Y-100005561D01*
X72707500Y-99986248D01*
X72707500Y-99121008D01*
X72709531Y-99101060D01*
X72719638Y-99051930D01*
X72735386Y-99015274D01*
X72764077Y-98974110D01*
X72777136Y-98958921D01*
X74355165Y-97461521D01*
X74369963Y-97449939D01*
X74402683Y-97429009D01*
X74409639Y-97424559D01*
X74444401Y-97410716D01*
X74490673Y-97401874D01*
X74509376Y-97400116D01*
X76134946Y-97402225D01*
G37*
%TD.AperFunction*%
%TD*%
M02*
