%TF.GenerationSoftware,KiCad,Pcbnew,7.0.8*%
%TF.CreationDate,2024-02-17T11:30:39+00:00*%
%TF.ProjectId,uCoilDriver_I2C,75436f69-6c44-4726-9976-65725f493243,rev?*%
%TF.SameCoordinates,Original*%
%TF.FileFunction,Copper,L1,Top*%
%TF.FilePolarity,Positive*%
%FSLAX46Y46*%
G04 Gerber Fmt 4.6, Leading zero omitted, Abs format (unit mm)*
G04 Created by KiCad (PCBNEW 7.0.8) date 2024-02-17 11:30:39*
%MOMM*%
%LPD*%
G01*
G04 APERTURE LIST*
G04 Aperture macros list*
%AMRoundRect*
0 Rectangle with rounded corners*
0 $1 Rounding radius*
0 $2 $3 $4 $5 $6 $7 $8 $9 X,Y pos of 4 corners*
0 Add a 4 corners polygon primitive as box body*
4,1,4,$2,$3,$4,$5,$6,$7,$8,$9,$2,$3,0*
0 Add four circle primitives for the rounded corners*
1,1,$1+$1,$2,$3*
1,1,$1+$1,$4,$5*
1,1,$1+$1,$6,$7*
1,1,$1+$1,$8,$9*
0 Add four rect primitives between the rounded corners*
20,1,$1+$1,$2,$3,$4,$5,0*
20,1,$1+$1,$4,$5,$6,$7,0*
20,1,$1+$1,$6,$7,$8,$9,0*
20,1,$1+$1,$8,$9,$2,$3,0*%
%AMFreePoly0*
4,1,14,0.230680,0.111820,0.364320,-0.021821,0.377500,-0.053642,0.377500,-0.080000,0.364320,-0.111820,0.332500,-0.125000,-0.332500,-0.125000,-0.364320,-0.111820,-0.377500,-0.080000,-0.377500,0.080000,-0.364320,0.111820,-0.332500,0.125000,0.198860,0.125000,0.230680,0.111820,0.230680,0.111820,$1*%
%AMFreePoly1*
4,1,14,0.364320,0.111820,0.377500,0.080000,0.377501,0.053640,0.364318,0.021819,0.230680,-0.111820,0.198860,-0.125000,-0.332500,-0.125000,-0.364320,-0.111820,-0.377500,-0.080000,-0.377500,0.080000,-0.364320,0.111820,-0.332500,0.125000,0.332500,0.125000,0.364320,0.111820,0.364320,0.111820,$1*%
%AMFreePoly2*
4,1,15,0.053642,0.377500,0.080000,0.377500,0.111820,0.364320,0.125000,0.332500,0.125000,-0.332500,0.111820,-0.364320,0.080000,-0.377500,-0.080000,-0.377500,-0.111820,-0.364320,-0.125000,-0.332500,-0.125000,0.198860,-0.111820,0.230680,0.021820,0.364320,0.053640,0.377501,0.053642,0.377500,0.053642,0.377500,$1*%
%AMFreePoly3*
4,1,14,-0.021820,0.364320,0.111820,0.230679,0.125001,0.198860,0.125000,-0.332500,0.111820,-0.364320,0.080000,-0.377500,-0.080000,-0.377500,-0.111820,-0.364320,-0.125000,-0.332500,-0.125000,0.332500,-0.111820,0.364320,-0.080000,0.377500,-0.053640,0.377500,-0.021820,0.364320,-0.021820,0.364320,$1*%
%AMFreePoly4*
4,1,14,0.364320,0.111820,0.377500,0.080000,0.377500,-0.080000,0.364320,-0.111820,0.332500,-0.125000,-0.198860,-0.125001,-0.230680,-0.111818,-0.364320,0.021820,-0.377500,0.053640,-0.377500,0.080000,-0.364320,0.111820,-0.332500,0.125000,0.332500,0.125000,0.364320,0.111820,0.364320,0.111820,$1*%
%AMFreePoly5*
4,1,15,-0.198858,0.125000,0.332500,0.125000,0.364320,0.111820,0.377500,0.080000,0.377500,-0.080000,0.364320,-0.111820,0.332500,-0.125000,-0.332500,-0.125000,-0.364320,-0.111820,-0.377500,-0.080000,-0.377500,-0.053640,-0.364320,-0.021820,-0.230680,0.111820,-0.198860,0.125001,-0.198858,0.125000,-0.198858,0.125000,$1*%
%AMFreePoly6*
4,1,14,0.111820,0.364320,0.125000,0.332500,0.125001,-0.198860,0.111818,-0.230680,-0.021820,-0.364320,-0.053640,-0.377500,-0.080000,-0.377500,-0.111820,-0.364320,-0.125000,-0.332500,-0.125000,0.332500,-0.111820,0.364320,-0.080000,0.377500,0.080000,0.377500,0.111820,0.364320,0.111820,0.364320,$1*%
%AMFreePoly7*
4,1,14,0.111820,0.364320,0.125000,0.332500,0.125000,-0.332500,0.111820,-0.364320,0.080000,-0.377500,0.053640,-0.377501,0.021819,-0.364318,-0.111820,-0.230680,-0.125000,-0.198860,-0.125000,0.332500,-0.111820,0.364320,-0.080000,0.377500,0.080000,0.377500,0.111820,0.364320,0.111820,0.364320,$1*%
G04 Aperture macros list end*
%TA.AperFunction,CastellatedPad*%
%ADD10RoundRect,0.300000X-0.300000X-0.700000X0.300000X-0.700000X0.300000X0.700000X-0.300000X0.700000X0*%
%TD*%
%TA.AperFunction,CastellatedPad*%
%ADD11RoundRect,0.300000X-0.700000X0.300000X-0.700000X-0.300000X0.700000X-0.300000X0.700000X0.300000X0*%
%TD*%
%TA.AperFunction,SMDPad,CuDef*%
%ADD12RoundRect,0.140000X0.021213X-0.219203X0.219203X-0.021213X-0.021213X0.219203X-0.219203X0.021213X0*%
%TD*%
%TA.AperFunction,SMDPad,CuDef*%
%ADD13FreePoly0,135.000000*%
%TD*%
%TA.AperFunction,SMDPad,CuDef*%
%ADD14RoundRect,0.062500X0.309359X-0.220971X-0.220971X0.309359X-0.309359X0.220971X0.220971X-0.309359X0*%
%TD*%
%TA.AperFunction,SMDPad,CuDef*%
%ADD15FreePoly1,135.000000*%
%TD*%
%TA.AperFunction,SMDPad,CuDef*%
%ADD16FreePoly2,135.000000*%
%TD*%
%TA.AperFunction,SMDPad,CuDef*%
%ADD17RoundRect,0.062500X0.309359X0.220971X0.220971X0.309359X-0.309359X-0.220971X-0.220971X-0.309359X0*%
%TD*%
%TA.AperFunction,SMDPad,CuDef*%
%ADD18FreePoly3,135.000000*%
%TD*%
%TA.AperFunction,SMDPad,CuDef*%
%ADD19FreePoly4,135.000000*%
%TD*%
%TA.AperFunction,SMDPad,CuDef*%
%ADD20FreePoly5,135.000000*%
%TD*%
%TA.AperFunction,SMDPad,CuDef*%
%ADD21FreePoly6,135.000000*%
%TD*%
%TA.AperFunction,SMDPad,CuDef*%
%ADD22FreePoly7,135.000000*%
%TD*%
%TA.AperFunction,SMDPad,CuDef*%
%ADD23RoundRect,0.160000X0.160000X-0.197500X0.160000X0.197500X-0.160000X0.197500X-0.160000X-0.197500X0*%
%TD*%
%TA.AperFunction,SMDPad,CuDef*%
%ADD24RoundRect,0.100000X-0.162635X0.021213X0.021213X-0.162635X0.162635X-0.021213X-0.021213X0.162635X0*%
%TD*%
%TA.AperFunction,SMDPad,CuDef*%
%ADD25R,0.300000X0.700000*%
%TD*%
%TA.AperFunction,SMDPad,CuDef*%
%ADD26R,1.700000X1.000000*%
%TD*%
%TA.AperFunction,SMDPad,CuDef*%
%ADD27RoundRect,0.147500X-0.172500X0.147500X-0.172500X-0.147500X0.172500X-0.147500X0.172500X0.147500X0*%
%TD*%
%TA.AperFunction,CastellatedPad*%
%ADD28RoundRect,0.300000X0.700000X-0.300000X0.700000X0.300000X-0.700000X0.300000X-0.700000X-0.300000X0*%
%TD*%
%TA.AperFunction,SMDPad,CuDef*%
%ADD29RoundRect,0.093750X0.093750X0.106250X-0.093750X0.106250X-0.093750X-0.106250X0.093750X-0.106250X0*%
%TD*%
%TA.AperFunction,SMDPad,CuDef*%
%ADD30R,1.000000X1.600000*%
%TD*%
%TA.AperFunction,SMDPad,CuDef*%
%ADD31RoundRect,0.135000X0.185000X-0.135000X0.185000X0.135000X-0.185000X0.135000X-0.185000X-0.135000X0*%
%TD*%
%TA.AperFunction,SMDPad,CuDef*%
%ADD32RoundRect,0.100000X0.130000X0.100000X-0.130000X0.100000X-0.130000X-0.100000X0.130000X-0.100000X0*%
%TD*%
%TA.AperFunction,SMDPad,CuDef*%
%ADD33RoundRect,0.225000X0.250000X-0.225000X0.250000X0.225000X-0.250000X0.225000X-0.250000X-0.225000X0*%
%TD*%
%TA.AperFunction,SMDPad,CuDef*%
%ADD34RoundRect,0.140000X0.140000X0.170000X-0.140000X0.170000X-0.140000X-0.170000X0.140000X-0.170000X0*%
%TD*%
%TA.AperFunction,SMDPad,CuDef*%
%ADD35RoundRect,0.140000X-0.021213X0.219203X-0.219203X0.021213X0.021213X-0.219203X0.219203X-0.021213X0*%
%TD*%
%TA.AperFunction,SMDPad,CuDef*%
%ADD36RoundRect,0.140000X-0.219203X-0.021213X-0.021213X-0.219203X0.219203X0.021213X0.021213X0.219203X0*%
%TD*%
%TA.AperFunction,SMDPad,CuDef*%
%ADD37RoundRect,0.250000X0.925000X-0.412500X0.925000X0.412500X-0.925000X0.412500X-0.925000X-0.412500X0*%
%TD*%
%TA.AperFunction,SMDPad,CuDef*%
%ADD38RoundRect,0.250000X-0.412500X-0.925000X0.412500X-0.925000X0.412500X0.925000X-0.412500X0.925000X0*%
%TD*%
%TA.AperFunction,CastellatedPad*%
%ADD39RoundRect,0.300000X0.300000X0.700000X-0.300000X0.700000X-0.300000X-0.700000X0.300000X-0.700000X0*%
%TD*%
%TA.AperFunction,ViaPad*%
%ADD40C,0.450000*%
%TD*%
%TA.AperFunction,ViaPad*%
%ADD41C,0.440000*%
%TD*%
%TA.AperFunction,Conductor*%
%ADD42C,0.250000*%
%TD*%
%TA.AperFunction,Conductor*%
%ADD43C,0.200000*%
%TD*%
%TA.AperFunction,Conductor*%
%ADD44C,0.340000*%
%TD*%
%TA.AperFunction,Conductor*%
%ADD45C,0.300000*%
%TD*%
%TA.AperFunction,Conductor*%
%ADD46C,0.280000*%
%TD*%
G04 APERTURE END LIST*
D10*
%TO.P,TP2,1,1*%
%TO.N,GND*%
X75699800Y-81550000D03*
%TD*%
D11*
%TO.P,TP6,1,1*%
%TO.N,/NRST*%
X81500000Y-87400400D03*
%TD*%
D12*
%TO.P,C8,1*%
%TO.N,/ADC_IN*%
X79260589Y-92789411D03*
%TO.P,C8,2*%
%TO.N,GND*%
X79939411Y-92110589D03*
%TD*%
D11*
%TO.P,,1,1*%
%TO.N,/I2C1_SDA*%
X71500000Y-85800200D03*
%TD*%
D13*
%TO.P,U2,1,BOOT0*%
%TO.N,Net-(U2-BOOT0)*%
X76535320Y-93946679D03*
D14*
%TO.P,U2,2,PF0*%
%TO.N,unconnected-(U2-PF0-Pad2)*%
X76846447Y-93550699D03*
%TO.P,U2,3,PF1*%
%TO.N,unconnected-(U2-PF1-Pad3)*%
X77200000Y-93197146D03*
%TO.P,U2,4,NRST*%
%TO.N,/NRST*%
X77553553Y-92843592D03*
%TO.P,U2,5,VDDA*%
%TO.N,+3.3V*%
X77907107Y-92490039D03*
%TO.P,U2,6,PA0*%
%TO.N,/ADC_IN*%
X78260660Y-92136486D03*
D15*
%TO.P,U2,7,PA1*%
%TO.N,unconnected-(U2-PA1-Pad7)*%
X78656640Y-91825359D03*
D16*
%TO.P,U2,8,PA2*%
%TO.N,/PA2_IPROPI*%
X78656640Y-91121787D03*
D17*
%TO.P,U2,9,PA3*%
%TO.N,Net-(U2-PA3)*%
X78260660Y-90810660D03*
%TO.P,U2,10,PA4*%
%TO.N,unconnected-(U2-PA4-Pad10)*%
X77907107Y-90457107D03*
%TO.P,U2,11,PA5*%
%TO.N,unconnected-(U2-PA5-Pad11)*%
X77553553Y-90103554D03*
%TO.P,U2,12,PA6*%
%TO.N,unconnected-(U2-PA6-Pad12)*%
X77200000Y-89750000D03*
%TO.P,U2,13,PA7*%
%TO.N,unconnected-(U2-PA7-Pad13)*%
X76846447Y-89396447D03*
D18*
%TO.P,U2,14,PB0*%
%TO.N,unconnected-(U2-PB0-Pad14)*%
X76535320Y-89000467D03*
D19*
%TO.P,U2,15,PB1*%
%TO.N,unconnected-(U2-PB1-Pad15)*%
X75831748Y-89000467D03*
D14*
%TO.P,U2,16,VSS*%
%TO.N,GND*%
X75520621Y-89396447D03*
%TO.P,U2,17,VDD*%
%TO.N,+3.3V*%
X75167068Y-89750000D03*
%TO.P,U2,18,PA8*%
%TO.N,unconnected-(U2-PA8-Pad18)*%
X74813515Y-90103554D03*
%TO.P,U2,19,PA9*%
%TO.N,/UART_TX*%
X74459961Y-90457107D03*
%TO.P,U2,20,PA10*%
%TO.N,/UART_RX*%
X74106408Y-90810660D03*
D20*
%TO.P,U2,21,PA13*%
%TO.N,/SWDIO*%
X73710428Y-91121787D03*
D21*
%TO.P,U2,22,PA14*%
%TO.N,/SWCLK*%
X73710428Y-91825359D03*
D17*
%TO.P,U2,23,PA15*%
%TO.N,/TIM2_CH1*%
X74106408Y-92136486D03*
%TO.P,U2,24,PB3*%
%TO.N,/TIM2_CH2*%
X74459961Y-92490039D03*
%TO.P,U2,25,PB4*%
%TO.N,Net-(U2-PB4)*%
X74813515Y-92843592D03*
%TO.P,U2,26,PB5*%
%TO.N,unconnected-(U2-PB5-Pad26)*%
X75167068Y-93197146D03*
%TO.P,U2,27,PB6*%
%TO.N,/I2C1_SCL*%
X75520621Y-93550699D03*
D22*
%TO.P,U2,28,PB7*%
%TO.N,/I2C1_SDA*%
X75831748Y-93946679D03*
%TD*%
D23*
%TO.P,R4,1*%
%TO.N,GND*%
X78200000Y-97165000D03*
%TO.P,R4,2*%
%TO.N,/PA2_IPROPI*%
X78200000Y-95970000D03*
%TD*%
D24*
%TO.P,R5,1*%
%TO.N,Net-(D2-A)*%
X77624726Y-88826126D03*
%TO.P,R5,2*%
%TO.N,Net-(U2-PA3)*%
X78077274Y-89278674D03*
%TD*%
D25*
%TO.P,U1,1,IPROPI*%
%TO.N,/PA2_IPROPI*%
X77175000Y-95758000D03*
%TO.P,U1,2,IN2*%
%TO.N,/TIM2_CH2*%
X76675000Y-95758000D03*
%TO.P,U1,3,IN1*%
%TO.N,/TIM2_CH1*%
X76175000Y-95758000D03*
%TO.P,U1,4,VREF*%
%TO.N,Net-(U1-VREF)*%
X75675000Y-95758000D03*
%TO.P,U1,5,VM*%
%TO.N,+12V*%
X75675000Y-97858000D03*
%TO.P,U1,6,OUT1*%
%TO.N,/OUT1*%
X76175000Y-97858000D03*
%TO.P,U1,7,GND_1*%
%TO.N,GND*%
X76675000Y-97858000D03*
%TO.P,U1,8,OUT2*%
%TO.N,/OUT2*%
X77175000Y-97858000D03*
D26*
%TO.P,U1,9,GND_2*%
%TO.N,GND*%
X76425000Y-96808000D03*
%TD*%
D11*
%TO.P,TP7,1,1*%
%TO.N,/I2C1_SDA*%
X81500000Y-85800200D03*
%TD*%
D10*
%TO.P,TP13,1,1*%
%TO.N,/OUT1*%
X73299600Y-100200000D03*
%TD*%
D27*
%TO.P,D1,1,K*%
%TO.N,GND*%
X73050000Y-92665000D03*
%TO.P,D1,2,A*%
%TO.N,Net-(D1-A)*%
X73050000Y-93635000D03*
%TD*%
D28*
%TO.P,TP8,1,1*%
%TO.N,/I2C1_SCL*%
X81500000Y-84200000D03*
%TD*%
%TO.P,,1,1*%
%TO.N,/I2C1_SCL*%
X71500000Y-84200000D03*
%TD*%
D29*
%TO.P,U3,1,OUT*%
%TO.N,+3.3V*%
X79737500Y-87079800D03*
%TO.P,U3,2,NC*%
%TO.N,unconnected-(U3-NC-Pad2)*%
X79737500Y-86429800D03*
%TO.P,U3,3,GND*%
%TO.N,GND*%
X79737500Y-85779800D03*
%TO.P,U3,4,EN*%
%TO.N,unconnected-(U3-EN-Pad4)*%
X77962500Y-85779800D03*
%TO.P,U3,5,NC*%
%TO.N,unconnected-(U3-NC-Pad5)*%
X77962500Y-86429800D03*
%TO.P,U3,6,IN*%
%TO.N,+12V*%
X77962500Y-87079800D03*
D30*
%TO.P,U3,7,GND*%
%TO.N,GND*%
X78850000Y-86429800D03*
%TD*%
D31*
%TO.P,R2,1*%
%TO.N,Net-(U1-VREF)*%
X79990000Y-96857200D03*
%TO.P,R2,2*%
%TO.N,+3.3V*%
X79990000Y-95942800D03*
%TD*%
D32*
%TO.P,D2,1,K*%
%TO.N,GND*%
X78060000Y-88170000D03*
%TO.P,D2,2,A*%
%TO.N,Net-(D2-A)*%
X77420000Y-88170000D03*
%TD*%
D33*
%TO.P,C2,1*%
%TO.N,+12V*%
X76750000Y-87225000D03*
%TO.P,C2,2*%
%TO.N,GND*%
X76750000Y-85675000D03*
%TD*%
D10*
%TO.P,TP15,1,1*%
%TO.N,GND*%
X76500000Y-100200000D03*
%TD*%
D24*
%TO.P,R3,1*%
%TO.N,Net-(D1-A)*%
X73840126Y-93245726D03*
%TO.P,R3,2*%
%TO.N,Net-(U2-PB4)*%
X74292674Y-93698274D03*
%TD*%
D10*
%TO.P,TP17,1,1*%
%TO.N,/ADC_IN*%
X78100200Y-100200000D03*
%TD*%
D34*
%TO.P,C3,1*%
%TO.N,+3.3V*%
X79855000Y-88163400D03*
%TO.P,C3,2*%
%TO.N,GND*%
X78895000Y-88163400D03*
%TD*%
D10*
%TO.P,TP14,1,1*%
%TO.N,/OUT2*%
X74899800Y-100200000D03*
%TD*%
D35*
%TO.P,C11,1*%
%TO.N,+3.3V*%
X78639411Y-93385589D03*
%TO.P,C11,2*%
%TO.N,GND*%
X77960589Y-94064411D03*
%TD*%
D12*
%TO.P,C6,1*%
%TO.N,+3.3V*%
X73990589Y-89239411D03*
%TO.P,C6,2*%
%TO.N,GND*%
X74669411Y-88560589D03*
%TD*%
D28*
%TO.P,TP11,1,1*%
%TO.N,GND*%
X81500000Y-82600000D03*
%TD*%
D34*
%TO.P,C5,1*%
%TO.N,+3.3V*%
X79855000Y-89103200D03*
%TO.P,C5,2*%
%TO.N,GND*%
X78895000Y-89103200D03*
%TD*%
D31*
%TO.P,R1,1*%
%TO.N,GND*%
X79150000Y-96912800D03*
%TO.P,R1,2*%
%TO.N,Net-(U2-BOOT0)*%
X79150000Y-95892800D03*
%TD*%
D10*
%TO.P,TP12,1,1*%
%TO.N,/SWDIO*%
X78900000Y-81550000D03*
%TD*%
D36*
%TO.P,C1,1*%
%TO.N,/NRST*%
X79335589Y-90235589D03*
%TO.P,C1,2*%
%TO.N,GND*%
X80014411Y-90914411D03*
%TD*%
D37*
%TO.P,C4,1*%
%TO.N,+12V*%
X73880000Y-98012500D03*
%TO.P,C4,2*%
%TO.N,GND*%
X73880000Y-94937500D03*
%TD*%
D38*
%TO.P,C7,1*%
%TO.N,+12V*%
X74100000Y-83925000D03*
%TO.P,C7,2*%
%TO.N,GND*%
X77175000Y-83925000D03*
%TD*%
D39*
%TO.P,TP3,1,1*%
%TO.N,/SWCLK*%
X77300000Y-81550000D03*
%TD*%
D28*
%TO.P,,1,1*%
%TO.N,GND*%
X71500000Y-82600000D03*
%TD*%
D35*
%TO.P,C12,1*%
%TO.N,+3.3V*%
X79414411Y-93985589D03*
%TO.P,C12,2*%
%TO.N,GND*%
X78735589Y-94664411D03*
%TD*%
D10*
%TO.P,TP1,1,1*%
%TO.N,+12V*%
X74099600Y-81550000D03*
%TD*%
%TO.P,TP16,1,1*%
%TO.N,+3.3V*%
X79699600Y-100200000D03*
%TD*%
D40*
%TO.N,/NRST*%
X79335589Y-90235589D03*
X76962862Y-92385311D03*
%TO.N,GND*%
X78960251Y-86349700D03*
X76908240Y-83650500D03*
X80014411Y-90914411D03*
X78724500Y-87400000D03*
X78850500Y-88163400D03*
X72920000Y-96390000D03*
X76175000Y-88250000D03*
X72900000Y-92475000D03*
X77536664Y-94074433D03*
X73590000Y-96390000D03*
X76323774Y-96973450D03*
X78549500Y-94370000D03*
X75300000Y-88350000D03*
X80217605Y-91974153D03*
X74260000Y-96390000D03*
X78811630Y-94810255D03*
X75381142Y-96818372D03*
X74925000Y-88100000D03*
X72920000Y-95720000D03*
X75460000Y-91060000D03*
X79846725Y-91603275D03*
X79650000Y-83450000D03*
X77840000Y-97160000D03*
X78900000Y-84975000D03*
X78600000Y-83575000D03*
X74850000Y-96474500D03*
X79600000Y-84925000D03*
X73875000Y-94937500D03*
X76725000Y-96583500D03*
X77320000Y-96820000D03*
X77160000Y-85180000D03*
X79180000Y-97240000D03*
X78590000Y-97250000D03*
X78724500Y-86824027D03*
X78835462Y-88746720D03*
X75875000Y-96583500D03*
X73590000Y-95720000D03*
X75475000Y-85000000D03*
%TO.N,/PA2_IPROPI*%
X79025000Y-91300000D03*
X78211188Y-95711013D03*
%TO.N,/I2C1_SCL*%
X75862862Y-92691470D03*
%TO.N,/I2C1_SDA*%
X75895714Y-94010500D03*
%TO.N,/SWDIO*%
X73300500Y-90200000D03*
%TO.N,/SWCLK*%
X73050000Y-91350000D03*
%TO.N,/ADC_IN*%
X79264477Y-92935523D03*
%TO.N,Net-(U1-VREF)*%
X75565511Y-95706584D03*
X80065500Y-96860000D03*
%TO.N,/TIM2_CH2*%
X75172249Y-91914194D03*
X76872584Y-94997415D03*
%TO.N,/TIM2_CH1*%
X74774177Y-91400976D03*
X76141503Y-95132587D03*
%TO.N,/OUT2*%
X77351771Y-97694958D03*
X77350000Y-98320000D03*
D41*
%TO.N,/OUT1*%
X76175000Y-97858000D03*
%TD*%
D42*
%TO.N,/I2C1_SCL*%
X75862862Y-93208458D02*
X75862862Y-92691470D01*
X75520621Y-93550699D02*
X75862862Y-93208458D01*
D43*
%TO.N,/NRST*%
X77553553Y-92843592D02*
X77095272Y-92385311D01*
D44*
%TO.N,+3.3V*%
X77509531Y-92090521D02*
X74729010Y-89310000D01*
D43*
%TO.N,/NRST*%
X77095272Y-92385311D02*
X76962862Y-92385311D01*
D44*
%TO.N,+3.3V*%
X78689411Y-93271636D02*
X77509531Y-92091756D01*
X77509531Y-92091756D02*
X77509531Y-92090521D01*
X74729010Y-89310000D02*
X74061178Y-89310000D01*
D43*
%TO.N,/TIM2_CH1*%
X76175000Y-95166084D02*
X76141503Y-95132587D01*
X76175000Y-95758000D02*
X76175000Y-95166084D01*
%TO.N,Net-(U1-VREF)*%
X75623584Y-95706584D02*
X75565511Y-95706584D01*
X75675000Y-95758000D02*
X75623584Y-95706584D01*
%TO.N,Net-(U2-BOOT0)*%
X78428651Y-95186013D02*
X79135438Y-95892800D01*
X77836013Y-95186013D02*
X78428651Y-95186013D01*
X76596679Y-93946679D02*
X77836013Y-95186013D01*
D42*
%TO.N,/PA2_IPROPI*%
X77175000Y-95975000D02*
X77947201Y-95975000D01*
D43*
%TO.N,Net-(U2-BOOT0)*%
X79135438Y-95892800D02*
X79150000Y-95892800D01*
D42*
%TO.N,/PA2_IPROPI*%
X77947201Y-95975000D02*
X78211188Y-95711013D01*
D43*
%TO.N,Net-(U2-BOOT0)*%
X76535320Y-93946679D02*
X76596679Y-93946679D01*
%TO.N,/TIM2_CH2*%
X76690500Y-95179499D02*
X76690500Y-95374047D01*
X76675000Y-95389547D02*
X76675000Y-95758000D01*
X76690500Y-95374047D02*
X76675000Y-95389547D01*
X76872584Y-94997415D02*
X76690500Y-95179499D01*
D42*
%TO.N,GND*%
X79939411Y-91695961D02*
X79846725Y-91603275D01*
X78074411Y-94064411D02*
X77960589Y-94064411D01*
X75089411Y-88560589D02*
X74669411Y-88560589D01*
X75520621Y-89396447D02*
X74684763Y-88560589D01*
X74684763Y-88560589D02*
X74669411Y-88560589D01*
X75300000Y-88350000D02*
X75089411Y-88560589D01*
D45*
X78482924Y-94472924D02*
X78074411Y-94064411D01*
D42*
X74669411Y-88355589D02*
X74669411Y-88560589D01*
X74925000Y-88100000D02*
X74669411Y-88355589D01*
X79939411Y-92110589D02*
X79939411Y-91695961D01*
%TO.N,+3.3V*%
X78690641Y-93386819D02*
X78690641Y-93450000D01*
X78689411Y-93385589D02*
X78690641Y-93386819D01*
X78689411Y-93385589D02*
X78739411Y-93435589D01*
X78739411Y-93435589D02*
X78739411Y-93449500D01*
X79856477Y-88450000D02*
X79830000Y-88450000D01*
X78689411Y-93385589D02*
X78689411Y-93271636D01*
X74061178Y-89310000D02*
X73990589Y-89239411D01*
%TO.N,/PA2_IPROPI*%
X79025000Y-91300000D02*
X78834853Y-91300000D01*
X78834853Y-91300000D02*
X78656640Y-91121787D01*
%TO.N,/SWDIO*%
X73300500Y-90711859D02*
X73710428Y-91121787D01*
X73300500Y-90200000D02*
X73300500Y-90711859D01*
%TO.N,/SWCLK*%
X73525359Y-91825359D02*
X73710428Y-91825359D01*
X73050000Y-91350000D02*
X73525359Y-91825359D01*
%TO.N,/ADC_IN*%
X78611215Y-92487041D02*
X78260660Y-92136486D01*
X79264477Y-92935523D02*
X78815995Y-92487041D01*
X78815995Y-92487041D02*
X78611215Y-92487041D01*
D43*
%TO.N,/TIM2_CH2*%
X74459961Y-92490039D02*
X75035806Y-91914194D01*
X75035806Y-91914194D02*
X75172249Y-91914194D01*
%TO.N,/TIM2_CH1*%
X74774177Y-91468717D02*
X74106408Y-92136486D01*
X74774177Y-91400976D02*
X74774177Y-91468717D01*
D45*
%TO.N,Net-(D1-A)*%
X73715452Y-93370400D02*
X73329800Y-93370400D01*
X73840126Y-93245726D02*
X73715452Y-93370400D01*
X73329800Y-93370400D02*
X73047163Y-93653037D01*
D46*
%TO.N,Net-(U2-PB4)*%
X74396600Y-93260507D02*
X74396600Y-93594348D01*
X74396600Y-93594348D02*
X74292674Y-93698274D01*
X74813515Y-92843592D02*
X74396600Y-93260507D01*
%TO.N,Net-(D2-A)*%
X77420000Y-88600000D02*
X77420000Y-88270000D01*
X77583726Y-88763726D02*
X77420000Y-88600000D01*
%TO.N,Net-(U2-PA3)*%
X78636386Y-89888586D02*
X78036274Y-89288474D01*
X78260660Y-90810660D02*
X78636386Y-90434934D01*
X78636386Y-90434934D02*
X78636386Y-89888586D01*
%TD*%
%TA.AperFunction,Conductor*%
%TO.N,GND*%
G36*
X74761971Y-94262381D02*
G01*
X74840618Y-94278024D01*
X74885308Y-94296535D01*
X74941626Y-94334166D01*
X74975833Y-94368373D01*
X75013462Y-94424688D01*
X75031976Y-94469387D01*
X75047617Y-94548019D01*
X75050000Y-94572210D01*
X75050000Y-95900000D01*
X75133183Y-95986986D01*
X75133184Y-95986987D01*
X75311926Y-96173901D01*
X75311930Y-96173904D01*
X75400000Y-96266000D01*
X75454934Y-96266241D01*
X75458474Y-96268607D01*
X75458475Y-96268607D01*
X75458475Y-96268608D01*
X75498097Y-96276488D01*
X75508209Y-96278500D01*
X75841790Y-96278499D01*
X75881436Y-96270613D01*
X75906160Y-96268233D01*
X75945805Y-96268407D01*
X75969439Y-96270789D01*
X76001066Y-96277079D01*
X76008209Y-96278500D01*
X76341790Y-96278499D01*
X76370586Y-96272771D01*
X76395316Y-96270391D01*
X76434280Y-96270563D01*
X76457149Y-96270663D01*
X76480780Y-96273044D01*
X76508209Y-96278500D01*
X76841790Y-96278499D01*
X76859735Y-96274929D01*
X76884466Y-96272549D01*
X76968491Y-96272919D01*
X76992122Y-96275300D01*
X77008209Y-96278500D01*
X77020611Y-96278499D01*
X77051235Y-96283899D01*
X77051270Y-96283704D01*
X77061954Y-96285587D01*
X77061955Y-96285588D01*
X77146525Y-96300500D01*
X77424467Y-96300500D01*
X77481938Y-96314622D01*
X77497596Y-96322812D01*
X77510471Y-96329546D01*
X77527160Y-96340045D01*
X77775000Y-96525000D01*
X77988102Y-96526032D01*
X77996704Y-96526677D01*
X78005785Y-96528000D01*
X78394209Y-96527999D01*
X79219278Y-96531995D01*
X79243383Y-96534480D01*
X79286578Y-96543262D01*
X79321719Y-96550407D01*
X79366211Y-96569026D01*
X79422244Y-96606712D01*
X79456266Y-96640899D01*
X79493680Y-96697113D01*
X79512085Y-96741699D01*
X79527632Y-96820107D01*
X79530000Y-96844225D01*
X79530000Y-97218845D01*
X79527628Y-97242981D01*
X79521897Y-97271862D01*
X79512053Y-97321459D01*
X79493616Y-97366076D01*
X79456142Y-97422317D01*
X79422063Y-97456514D01*
X79365952Y-97494181D01*
X79321397Y-97512771D01*
X79242976Y-97528615D01*
X79218846Y-97531070D01*
X77887710Y-97535654D01*
X77869501Y-97534373D01*
X77809597Y-97525693D01*
X77774720Y-97515238D01*
X77764651Y-97510515D01*
X77712317Y-97464225D01*
X77706826Y-97454547D01*
X77700301Y-97441741D01*
X77700294Y-97441732D01*
X77604996Y-97346434D01*
X77604992Y-97346431D01*
X77604991Y-97346430D01*
X77484897Y-97285239D01*
X77484895Y-97285238D01*
X77484892Y-97285237D01*
X77351773Y-97264154D01*
X77351769Y-97264154D01*
X77218647Y-97285237D01*
X77199705Y-97294889D01*
X77192647Y-97298485D01*
X77136354Y-97312000D01*
X77131665Y-97312000D01*
X76835000Y-97312000D01*
X76831686Y-97608648D01*
X76831686Y-97608653D01*
X76830295Y-97733209D01*
X76809863Y-97800025D01*
X76756551Y-97845187D01*
X76687286Y-97854357D01*
X76624059Y-97824624D01*
X76586943Y-97765428D01*
X76583832Y-97751233D01*
X76579905Y-97726438D01*
X76519433Y-97607755D01*
X76519431Y-97607753D01*
X76515002Y-97599060D01*
X76516829Y-97598128D01*
X76512122Y-97587112D01*
X76517500Y-97312000D01*
X76211580Y-97312000D01*
X75645158Y-97312000D01*
X75620978Y-97309620D01*
X75622107Y-97309844D01*
X75616476Y-97309009D01*
X75612145Y-97308367D01*
X75612135Y-97308366D01*
X75612133Y-97308365D01*
X75577917Y-97304995D01*
X75574554Y-97304830D01*
X75567835Y-97304500D01*
X75567829Y-97304500D01*
X75423271Y-97304500D01*
X75356232Y-97284815D01*
X75339432Y-97271862D01*
X75085637Y-97038967D01*
X75085634Y-97038965D01*
X75078332Y-97032864D01*
X75078329Y-97032862D01*
X75078321Y-97032855D01*
X75052424Y-97013180D01*
X75044568Y-97007768D01*
X74991744Y-96974881D01*
X74991730Y-96974874D01*
X74991723Y-96974870D01*
X74957697Y-96957840D01*
X74957685Y-96957835D01*
X74957684Y-96957834D01*
X74957683Y-96957834D01*
X74943466Y-96952299D01*
X74915029Y-96941229D01*
X74878416Y-96930764D01*
X74878417Y-96930764D01*
X74878406Y-96930761D01*
X74817256Y-96919280D01*
X74817254Y-96919279D01*
X74817245Y-96919278D01*
X74807806Y-96917955D01*
X74807804Y-96917955D01*
X74775440Y-96914942D01*
X74775441Y-96914942D01*
X74769988Y-96914689D01*
X74765905Y-96914500D01*
X74765899Y-96914500D01*
X72851911Y-96914500D01*
X72784872Y-96894815D01*
X72766343Y-96880244D01*
X72748829Y-96863545D01*
X72713893Y-96803037D01*
X72710397Y-96773896D01*
X72710196Y-96493384D01*
X72709876Y-96485354D01*
X72707847Y-96459700D01*
X72707716Y-96458037D01*
X72706770Y-96450062D01*
X72702332Y-96422043D01*
X72700328Y-96409394D01*
X72700328Y-96370606D01*
X72705168Y-96340045D01*
X72706623Y-96330860D01*
X72707573Y-96322812D01*
X72709320Y-96300500D01*
X72709732Y-96295245D01*
X72710046Y-96287145D01*
X72709710Y-95820326D01*
X72709391Y-95812301D01*
X72707232Y-95784984D01*
X72706286Y-95777004D01*
X72700329Y-95739392D01*
X72700329Y-95700600D01*
X72706141Y-95663904D01*
X72707093Y-95655850D01*
X72709252Y-95628282D01*
X72709566Y-95620183D01*
X72708711Y-94433713D01*
X72728346Y-94366665D01*
X72763816Y-94330530D01*
X72814691Y-94296536D01*
X72859379Y-94278025D01*
X72938028Y-94262381D01*
X72962211Y-94260000D01*
X74737789Y-94260000D01*
X74761971Y-94262381D01*
G37*
%TD.AperFunction*%
%TD*%
%TA.AperFunction,Conductor*%
%TO.N,+12V*%
G36*
X74641274Y-81621503D02*
G01*
X74665222Y-81624168D01*
X74724087Y-81636603D01*
X74768218Y-81655409D01*
X74807754Y-81682312D01*
X74841444Y-81716460D01*
X74867812Y-81756357D01*
X74886020Y-81800739D01*
X74894287Y-81842669D01*
X74896959Y-81856219D01*
X74899301Y-81880205D01*
X74899301Y-82297885D01*
X74899644Y-82301069D01*
X74900000Y-82307702D01*
X74900000Y-86150000D01*
X74973221Y-86223221D01*
X74973224Y-86223225D01*
X75001774Y-86251775D01*
X75001777Y-86251777D01*
X75075000Y-86325000D01*
X76457717Y-86325000D01*
X76462580Y-86325191D01*
X76466508Y-86325500D01*
X77015408Y-86325500D01*
X77038924Y-86327750D01*
X77094270Y-86338440D01*
X77137917Y-86355954D01*
X77187519Y-86387914D01*
X77206063Y-86402540D01*
X77412500Y-86600000D01*
X77700000Y-86875000D01*
X77912789Y-86875000D01*
X77936972Y-86877381D01*
X77986915Y-86887315D01*
X78031607Y-86905826D01*
X78063593Y-86927199D01*
X78097800Y-86961406D01*
X78119171Y-86993389D01*
X78137685Y-87038088D01*
X78147617Y-87088019D01*
X78150000Y-87112210D01*
X78150000Y-87456288D01*
X78147599Y-87480569D01*
X78135677Y-87540274D01*
X78117031Y-87585107D01*
X78090063Y-87625279D01*
X78055626Y-87659516D01*
X78015303Y-87686248D01*
X77970360Y-87704636D01*
X77910582Y-87716211D01*
X77886290Y-87718470D01*
X75110930Y-87702382D01*
X75067852Y-87691908D01*
X75067402Y-87693295D01*
X75058124Y-87690280D01*
X74925002Y-87669196D01*
X74924998Y-87669196D01*
X74791878Y-87690279D01*
X74791873Y-87690281D01*
X74771977Y-87700417D01*
X74700000Y-87700000D01*
X74625709Y-87776823D01*
X74625704Y-87776827D01*
X73144376Y-89308656D01*
X72500000Y-89975000D01*
X72500073Y-90076207D01*
X72500073Y-90076210D01*
X72501667Y-92289667D01*
X72491518Y-92332012D01*
X72493297Y-92332590D01*
X72490280Y-92341875D01*
X72469196Y-92474997D01*
X72469196Y-92475002D01*
X72490280Y-92608126D01*
X72493296Y-92617407D01*
X72491659Y-92617938D01*
X72501934Y-92660678D01*
X72504063Y-95616278D01*
X72502537Y-95635763D01*
X72489196Y-95719999D01*
X72502687Y-95805181D01*
X72504213Y-95824489D01*
X72504543Y-96283240D01*
X72503017Y-96302724D01*
X72489196Y-96390000D01*
X72489196Y-96390001D01*
X72503172Y-96478242D01*
X72504699Y-96497550D01*
X72505000Y-96915000D01*
X72720000Y-97120000D01*
X74761136Y-97120000D01*
X74784019Y-97122130D01*
X74806538Y-97126358D01*
X74840484Y-97132732D01*
X74883134Y-97149335D01*
X74920626Y-97172676D01*
X74931909Y-97179701D01*
X74950211Y-97193605D01*
X75223294Y-97444200D01*
X75223297Y-97444201D01*
X75295000Y-97510000D01*
X75562789Y-97510000D01*
X75586980Y-97512383D01*
X75646480Y-97524218D01*
X75691177Y-97542732D01*
X75728261Y-97567510D01*
X75773066Y-97621123D01*
X75781773Y-97690448D01*
X75773051Y-97717134D01*
X75773111Y-97717154D01*
X75770094Y-97726439D01*
X75749258Y-97857996D01*
X75749258Y-97858003D01*
X75770093Y-97989557D01*
X75770094Y-97989560D01*
X75770095Y-97989562D01*
X75811485Y-98070795D01*
X75825000Y-98127088D01*
X75825000Y-98462789D01*
X75822617Y-98486982D01*
X75810781Y-98546482D01*
X75792267Y-98591179D01*
X75765481Y-98631268D01*
X75731269Y-98665479D01*
X75696975Y-98688394D01*
X75691179Y-98692267D01*
X75646482Y-98710781D01*
X75612857Y-98717469D01*
X75586978Y-98722617D01*
X75562789Y-98725000D01*
X71764224Y-98725000D01*
X71740029Y-98722617D01*
X71680516Y-98710777D01*
X71635811Y-98692256D01*
X71595719Y-98665462D01*
X71561507Y-98631242D01*
X71534722Y-98591143D01*
X71516213Y-98546437D01*
X71504884Y-98489423D01*
X71502509Y-98465255D01*
X71505041Y-87761453D01*
X71507524Y-87736796D01*
X71519349Y-87678633D01*
X71538602Y-87633207D01*
X71573590Y-87582196D01*
X71589592Y-87563250D01*
X72888097Y-86305970D01*
X72998317Y-86199249D01*
X72998317Y-86199247D01*
X73075000Y-86125000D01*
X73051476Y-81867160D01*
X73053780Y-81842674D01*
X73065566Y-81782431D01*
X73084268Y-81737185D01*
X73111429Y-81696677D01*
X73146182Y-81662200D01*
X73186909Y-81635361D01*
X73232301Y-81617023D01*
X73274361Y-81609142D01*
X73292631Y-81605720D01*
X73317140Y-81603610D01*
X74641274Y-81621503D01*
G37*
%TD.AperFunction*%
%TD*%
%TA.AperFunction,Conductor*%
%TO.N,+3.3V*%
G36*
X80225231Y-86828000D02*
G01*
X80283344Y-86847140D01*
X80319109Y-86896783D01*
X80318865Y-86957968D01*
X80317591Y-86961595D01*
X80305910Y-86992911D01*
X80305908Y-86992922D01*
X80299500Y-87052529D01*
X80299500Y-87748266D01*
X80299501Y-87748270D01*
X80305908Y-87807880D01*
X80305909Y-87807885D01*
X80356202Y-87942729D01*
X80385027Y-87981234D01*
X80442454Y-88057946D01*
X80442457Y-88057948D01*
X80442458Y-88057949D01*
X80557670Y-88144197D01*
X80692511Y-88194489D01*
X80692512Y-88194489D01*
X80692517Y-88194491D01*
X80752127Y-88200900D01*
X81401000Y-88200899D01*
X81459191Y-88219806D01*
X81495155Y-88269306D01*
X81500000Y-88299899D01*
X81500000Y-99986248D01*
X81498097Y-100005563D01*
X81488616Y-100053224D01*
X81473835Y-100088910D01*
X81452362Y-100121047D01*
X81425047Y-100148362D01*
X81392910Y-100169835D01*
X81357224Y-100184616D01*
X81312077Y-100193597D01*
X81292762Y-100195500D01*
X79107238Y-100195500D01*
X79087925Y-100193598D01*
X79069749Y-100189982D01*
X79042775Y-100184617D01*
X79007089Y-100169835D01*
X79006330Y-100169328D01*
X78974949Y-100148359D01*
X78947640Y-100121050D01*
X78926163Y-100088908D01*
X78911382Y-100053222D01*
X78902601Y-100009075D01*
X78900699Y-99989762D01*
X78900699Y-99452133D01*
X78900698Y-99452119D01*
X78900284Y-99448264D01*
X78900000Y-99442971D01*
X78900000Y-98614972D01*
X78902380Y-98593396D01*
X78914192Y-98540519D01*
X78932558Y-98501464D01*
X78965749Y-98458641D01*
X78980844Y-98443050D01*
X80426330Y-97246008D01*
X80426330Y-97246007D01*
X80500000Y-97185000D01*
X80495904Y-96871659D01*
X80496303Y-96866149D01*
X80496304Y-96857213D01*
X80495608Y-96849067D01*
X80490000Y-96420000D01*
X80300000Y-96230000D01*
X80219052Y-96228694D01*
X79888862Y-96223368D01*
X79863616Y-96219672D01*
X79802788Y-96202537D01*
X79759202Y-96176822D01*
X79724138Y-96141327D01*
X79698958Y-96097433D01*
X79682565Y-96036400D01*
X79679177Y-96011110D01*
X79675318Y-95030744D01*
X79675318Y-95030739D01*
X79675317Y-95030738D01*
X79675000Y-94950000D01*
X79269185Y-94532590D01*
X79258914Y-94518694D01*
X79258834Y-94518756D01*
X79243891Y-94499283D01*
X79223776Y-94473069D01*
X78940843Y-94190137D01*
X78922638Y-94165079D01*
X78898029Y-94116782D01*
X78898028Y-94116780D01*
X78802720Y-94021472D01*
X78802717Y-94021470D01*
X78682629Y-93960282D01*
X78682627Y-93960281D01*
X78541805Y-93937977D01*
X78542277Y-93934995D01*
X78497013Y-93920289D01*
X78485200Y-93910200D01*
X78453397Y-93878396D01*
X78449126Y-93873526D01*
X78448776Y-93873069D01*
X78151931Y-93576225D01*
X78151466Y-93575868D01*
X78146603Y-93571602D01*
X78047657Y-93472657D01*
X78032094Y-93452445D01*
X78000316Y-93397834D01*
X77986890Y-93349054D01*
X77986802Y-93340481D01*
X78005117Y-93282105D01*
X78015784Y-93269486D01*
X78059431Y-93225840D01*
X78101233Y-93163279D01*
X78107605Y-93131240D01*
X78133283Y-93081996D01*
X78351802Y-92854372D01*
X78366752Y-92841618D01*
X78407170Y-92813555D01*
X78443071Y-92798034D01*
X78450829Y-92796388D01*
X78489118Y-92799075D01*
X78489639Y-92796125D01*
X78518073Y-92801138D01*
X78538566Y-92804751D01*
X78542763Y-92805681D01*
X78582408Y-92816305D01*
X78582408Y-92816304D01*
X78590775Y-92818547D01*
X78590451Y-92819754D01*
X78626163Y-92832260D01*
X78636113Y-92838872D01*
X78651319Y-92851319D01*
X78742562Y-92942563D01*
X78746835Y-92947435D01*
X78772402Y-92980753D01*
X78837919Y-93046270D01*
X78856119Y-93071321D01*
X78915949Y-93188743D01*
X79011257Y-93284051D01*
X79131351Y-93345242D01*
X79147856Y-93347856D01*
X79150000Y-93350000D01*
X79161392Y-93350000D01*
X79264477Y-93366327D01*
X79359866Y-93351219D01*
X79375353Y-93350000D01*
X79492156Y-93350000D01*
X79492157Y-93350000D01*
X79575000Y-93350000D01*
X80600000Y-92325000D01*
X80600000Y-92184673D01*
X80610791Y-92139727D01*
X80627323Y-92107280D01*
X80627324Y-92107279D01*
X80648409Y-91974153D01*
X80627324Y-91841027D01*
X80617406Y-91821561D01*
X80610790Y-91808576D01*
X80600000Y-91763632D01*
X80600000Y-90734162D01*
X80600000Y-90650000D01*
X80539822Y-90591159D01*
X79542246Y-89615751D01*
X79529611Y-89600659D01*
X79501898Y-89559932D01*
X79486703Y-89523823D01*
X79476957Y-89475532D01*
X79475000Y-89455947D01*
X79475000Y-87343646D01*
X79488883Y-87297882D01*
X79488035Y-87297531D01*
X79491603Y-87288915D01*
X79491687Y-87288641D01*
X79491767Y-87288522D01*
X79500500Y-87244620D01*
X79500500Y-86963977D01*
X79517264Y-86908857D01*
X79522868Y-86900497D01*
X79550300Y-86873173D01*
X79582576Y-86851723D01*
X79618394Y-86837013D01*
X79646157Y-86831591D01*
X79666209Y-86827676D01*
X79685576Y-86825842D01*
X80225231Y-86828000D01*
G37*
%TD.AperFunction*%
%TD*%
%TA.AperFunction,Conductor*%
%TO.N,GND*%
G36*
X75785606Y-81631709D02*
G01*
X76401253Y-81636372D01*
X76459297Y-81655719D01*
X76494885Y-81705490D01*
X76499501Y-81735369D01*
X76499501Y-82297872D01*
X76500261Y-82304945D01*
X76505908Y-82357480D01*
X76505909Y-82357485D01*
X76556202Y-82492329D01*
X76642450Y-82607541D01*
X76642454Y-82607546D01*
X76642457Y-82607548D01*
X76642458Y-82607549D01*
X76757670Y-82693797D01*
X76892511Y-82744089D01*
X76892512Y-82744089D01*
X76892517Y-82744091D01*
X76952127Y-82750500D01*
X77647872Y-82750499D01*
X77707483Y-82744091D01*
X77774907Y-82718943D01*
X77842329Y-82693797D01*
X77842329Y-82693796D01*
X77842331Y-82693796D01*
X77957546Y-82607546D01*
X78020747Y-82523119D01*
X78070755Y-82487867D01*
X78131934Y-82488741D01*
X78179252Y-82523119D01*
X78242454Y-82607546D01*
X78242457Y-82607548D01*
X78242458Y-82607549D01*
X78357670Y-82693797D01*
X78492511Y-82744089D01*
X78492512Y-82744089D01*
X78492517Y-82744091D01*
X78552127Y-82750500D01*
X79247872Y-82750499D01*
X79307483Y-82744091D01*
X79374907Y-82718943D01*
X79442329Y-82693797D01*
X79442329Y-82693796D01*
X79442331Y-82693796D01*
X79557546Y-82607546D01*
X79643796Y-82492331D01*
X79694091Y-82357483D01*
X79700500Y-82297873D01*
X79700500Y-81761119D01*
X79719407Y-81702928D01*
X79768907Y-81666964D01*
X79800245Y-81662122D01*
X81192574Y-81672670D01*
X81211768Y-81674698D01*
X81297190Y-81692279D01*
X81332617Y-81707191D01*
X81396693Y-81750446D01*
X81423773Y-81777732D01*
X81466540Y-81842131D01*
X81481185Y-81877677D01*
X81498116Y-81963217D01*
X81500000Y-81982439D01*
X81500000Y-83090248D01*
X81498098Y-83109563D01*
X81481005Y-83195492D01*
X81466223Y-83231178D01*
X81423073Y-83295758D01*
X81395758Y-83323073D01*
X81331178Y-83366223D01*
X81295491Y-83381005D01*
X81212074Y-83397598D01*
X81192760Y-83399500D01*
X80752133Y-83399500D01*
X80752127Y-83399501D01*
X80751812Y-83399534D01*
X80750113Y-83399717D01*
X80744832Y-83400000D01*
X80300000Y-83400000D01*
X80300000Y-83699997D01*
X80300000Y-83844819D01*
X80299717Y-83850109D01*
X80299500Y-83852127D01*
X80299500Y-84547869D01*
X80299501Y-84547873D01*
X80299716Y-84549873D01*
X80300000Y-84555168D01*
X80300000Y-85445019D01*
X80299717Y-85450309D01*
X80299500Y-85452327D01*
X80299500Y-85766136D01*
X80297585Y-85785513D01*
X80280880Y-85869209D01*
X80266001Y-85904997D01*
X80222584Y-85969697D01*
X80195109Y-85997028D01*
X80130176Y-86040107D01*
X80094312Y-86054797D01*
X80026345Y-86067991D01*
X80008023Y-86071548D01*
X79988641Y-86073360D01*
X79882013Y-86072799D01*
X79662086Y-86071642D01*
X79651579Y-86071587D01*
X79651577Y-86071587D01*
X79350000Y-86070000D01*
X79350000Y-86371581D01*
X79350000Y-86764906D01*
X79340448Y-86807333D01*
X79320654Y-86849064D01*
X79303893Y-86904173D01*
X79303889Y-86904191D01*
X79295001Y-86963965D01*
X79295000Y-86963982D01*
X79295000Y-87214419D01*
X79290737Y-87243158D01*
X79278351Y-87283988D01*
X79278348Y-87284000D01*
X79269500Y-87343646D01*
X79269500Y-89273613D01*
X79252207Y-89329514D01*
X79246460Y-89337914D01*
X79219213Y-89364688D01*
X79155050Y-89406954D01*
X79119692Y-89421419D01*
X79045944Y-89435921D01*
X79034875Y-89438098D01*
X79034661Y-89438140D01*
X79015559Y-89440000D01*
X78750552Y-89440000D01*
X78731238Y-89438098D01*
X78716670Y-89435200D01*
X78681047Y-89428114D01*
X78630359Y-89401019D01*
X78479778Y-89250438D01*
X78452684Y-89199749D01*
X78442702Y-89149562D01*
X78440800Y-89130249D01*
X78440800Y-88724630D01*
X78440800Y-88724627D01*
X78440800Y-88590000D01*
X78232000Y-88420000D01*
X78125317Y-88420000D01*
X78125316Y-88420000D01*
X78020752Y-88420000D01*
X78001436Y-88418097D01*
X77945738Y-88407017D01*
X77910053Y-88392236D01*
X77871103Y-88366211D01*
X77843788Y-88338896D01*
X77817763Y-88299946D01*
X77802981Y-88264259D01*
X77791902Y-88208561D01*
X77790000Y-88189247D01*
X77790000Y-88103234D01*
X77793373Y-88077612D01*
X77805936Y-88030724D01*
X77831557Y-87986344D01*
X77856344Y-87961557D01*
X77900725Y-87935936D01*
X77947614Y-87923373D01*
X77973235Y-87920000D01*
X78008478Y-87920000D01*
X78008481Y-87920000D01*
X78130400Y-87920000D01*
X78217753Y-87834953D01*
X78217756Y-87834952D01*
X78238612Y-87814646D01*
X78350000Y-87706200D01*
X78350000Y-87523924D01*
X78351079Y-87509346D01*
X78351602Y-87505836D01*
X78351603Y-87505829D01*
X78355001Y-87471470D01*
X78355002Y-87471455D01*
X78355500Y-87461356D01*
X78355500Y-87107172D01*
X78355005Y-87097087D01*
X78351635Y-87062867D01*
X78351634Y-87062862D01*
X78351571Y-87062436D01*
X78350499Y-87047908D01*
X78350499Y-86929620D01*
X78350329Y-86928154D01*
X78350000Y-86922450D01*
X78350000Y-85696726D01*
X78350000Y-85580000D01*
X78260690Y-85495944D01*
X78260342Y-85495616D01*
X78260427Y-85495525D01*
X78254472Y-85489113D01*
X78253968Y-85489617D01*
X78180000Y-85420000D01*
X78130099Y-85418811D01*
X78082278Y-85409300D01*
X78082276Y-85409300D01*
X77842724Y-85409300D01*
X77842721Y-85409300D01*
X77830735Y-85411683D01*
X77760000Y-85410000D01*
X77694086Y-85472444D01*
X77678238Y-85483034D01*
X77678231Y-85483041D01*
X77676342Y-85485869D01*
X77667847Y-85495944D01*
X77668201Y-85496248D01*
X77664886Y-85500107D01*
X77664883Y-85500109D01*
X77570000Y-85590000D01*
X77571221Y-85720695D01*
X77571221Y-85720698D01*
X77572408Y-85847695D01*
X77570665Y-85867134D01*
X77556748Y-85940216D01*
X77542133Y-85976214D01*
X77506673Y-86029961D01*
X77479327Y-86057563D01*
X77455788Y-86073412D01*
X77425915Y-86093524D01*
X77390054Y-86108476D01*
X77334971Y-86119500D01*
X77317106Y-86123075D01*
X77297680Y-86125000D01*
X77079837Y-86125000D01*
X77065723Y-86123989D01*
X77063371Y-86123650D01*
X77036203Y-86121050D01*
X77030101Y-86120467D01*
X77023573Y-86120155D01*
X77020312Y-86120000D01*
X77020310Y-86120000D01*
X76474471Y-86120000D01*
X76461751Y-86119500D01*
X75204500Y-86119500D01*
X75146309Y-86100593D01*
X75110345Y-86051093D01*
X75105500Y-86020500D01*
X75105500Y-82304945D01*
X75105352Y-82299438D01*
X75104872Y-82290488D01*
X75104801Y-82287836D01*
X75104801Y-81875209D01*
X75104314Y-81865220D01*
X75104314Y-81865219D01*
X75104314Y-81865213D01*
X75101000Y-81831271D01*
X75099545Y-81821373D01*
X75087638Y-81760986D01*
X75087475Y-81760443D01*
X75087477Y-81760339D01*
X75087058Y-81758651D01*
X75087517Y-81758537D01*
X75088826Y-81699273D01*
X75125875Y-81650579D01*
X75163611Y-81634715D01*
X75192652Y-81629138D01*
X75212070Y-81627364D01*
X75785606Y-81631709D01*
G37*
%TD.AperFunction*%
%TD*%
M02*
