%TF.GenerationSoftware,KiCad,Pcbnew,7.0.8*%
%TF.CreationDate,2024-02-17T11:30:40+00:00*%
%TF.ProjectId,uCoilDriver_I2C,75436f69-6c44-4726-9976-65725f493243,rev?*%
%TF.SameCoordinates,Original*%
%TF.FileFunction,Paste,Top*%
%TF.FilePolarity,Positive*%
%FSLAX46Y46*%
G04 Gerber Fmt 4.6, Leading zero omitted, Abs format (unit mm)*
G04 Created by KiCad (PCBNEW 7.0.8) date 2024-02-17 11:30:40*
%MOMM*%
%LPD*%
G01*
G04 APERTURE LIST*
G04 Aperture macros list*
%AMRoundRect*
0 Rectangle with rounded corners*
0 $1 Rounding radius*
0 $2 $3 $4 $5 $6 $7 $8 $9 X,Y pos of 4 corners*
0 Add a 4 corners polygon primitive as box body*
4,1,4,$2,$3,$4,$5,$6,$7,$8,$9,$2,$3,0*
0 Add four circle primitives for the rounded corners*
1,1,$1+$1,$2,$3*
1,1,$1+$1,$4,$5*
1,1,$1+$1,$6,$7*
1,1,$1+$1,$8,$9*
0 Add four rect primitives between the rounded corners*
20,1,$1+$1,$2,$3,$4,$5,0*
20,1,$1+$1,$4,$5,$6,$7,0*
20,1,$1+$1,$6,$7,$8,$9,0*
20,1,$1+$1,$8,$9,$2,$3,0*%
%AMFreePoly0*
4,1,14,0.230680,0.111820,0.364320,-0.021821,0.377500,-0.053642,0.377500,-0.080000,0.364320,-0.111820,0.332500,-0.125000,-0.332500,-0.125000,-0.364320,-0.111820,-0.377500,-0.080000,-0.377500,0.080000,-0.364320,0.111820,-0.332500,0.125000,0.198860,0.125000,0.230680,0.111820,0.230680,0.111820,$1*%
%AMFreePoly1*
4,1,14,0.364320,0.111820,0.377500,0.080000,0.377501,0.053640,0.364318,0.021819,0.230680,-0.111820,0.198860,-0.125000,-0.332500,-0.125000,-0.364320,-0.111820,-0.377500,-0.080000,-0.377500,0.080000,-0.364320,0.111820,-0.332500,0.125000,0.332500,0.125000,0.364320,0.111820,0.364320,0.111820,$1*%
%AMFreePoly2*
4,1,15,0.053642,0.377500,0.080000,0.377500,0.111820,0.364320,0.125000,0.332500,0.125000,-0.332500,0.111820,-0.364320,0.080000,-0.377500,-0.080000,-0.377500,-0.111820,-0.364320,-0.125000,-0.332500,-0.125000,0.198860,-0.111820,0.230680,0.021820,0.364320,0.053640,0.377501,0.053642,0.377500,0.053642,0.377500,$1*%
%AMFreePoly3*
4,1,14,-0.021820,0.364320,0.111820,0.230679,0.125001,0.198860,0.125000,-0.332500,0.111820,-0.364320,0.080000,-0.377500,-0.080000,-0.377500,-0.111820,-0.364320,-0.125000,-0.332500,-0.125000,0.332500,-0.111820,0.364320,-0.080000,0.377500,-0.053640,0.377500,-0.021820,0.364320,-0.021820,0.364320,$1*%
%AMFreePoly4*
4,1,14,0.364320,0.111820,0.377500,0.080000,0.377500,-0.080000,0.364320,-0.111820,0.332500,-0.125000,-0.198860,-0.125001,-0.230680,-0.111818,-0.364320,0.021820,-0.377500,0.053640,-0.377500,0.080000,-0.364320,0.111820,-0.332500,0.125000,0.332500,0.125000,0.364320,0.111820,0.364320,0.111820,$1*%
%AMFreePoly5*
4,1,15,-0.198858,0.125000,0.332500,0.125000,0.364320,0.111820,0.377500,0.080000,0.377500,-0.080000,0.364320,-0.111820,0.332500,-0.125000,-0.332500,-0.125000,-0.364320,-0.111820,-0.377500,-0.080000,-0.377500,-0.053640,-0.364320,-0.021820,-0.230680,0.111820,-0.198860,0.125001,-0.198858,0.125000,-0.198858,0.125000,$1*%
%AMFreePoly6*
4,1,14,0.111820,0.364320,0.125000,0.332500,0.125001,-0.198860,0.111818,-0.230680,-0.021820,-0.364320,-0.053640,-0.377500,-0.080000,-0.377500,-0.111820,-0.364320,-0.125000,-0.332500,-0.125000,0.332500,-0.111820,0.364320,-0.080000,0.377500,0.080000,0.377500,0.111820,0.364320,0.111820,0.364320,$1*%
%AMFreePoly7*
4,1,14,0.111820,0.364320,0.125000,0.332500,0.125000,-0.332500,0.111820,-0.364320,0.080000,-0.377500,0.053640,-0.377501,0.021819,-0.364318,-0.111820,-0.230680,-0.125000,-0.198860,-0.125000,0.332500,-0.111820,0.364320,-0.080000,0.377500,0.080000,0.377500,0.111820,0.364320,0.111820,0.364320,$1*%
G04 Aperture macros list end*
%ADD10RoundRect,0.140000X0.021213X-0.219203X0.219203X-0.021213X-0.021213X0.219203X-0.219203X0.021213X0*%
%ADD11FreePoly0,135.000000*%
%ADD12RoundRect,0.062500X0.309359X-0.220971X-0.220971X0.309359X-0.309359X0.220971X0.220971X-0.309359X0*%
%ADD13FreePoly1,135.000000*%
%ADD14FreePoly2,135.000000*%
%ADD15RoundRect,0.062500X0.309359X0.220971X0.220971X0.309359X-0.309359X-0.220971X-0.220971X-0.309359X0*%
%ADD16FreePoly3,135.000000*%
%ADD17FreePoly4,135.000000*%
%ADD18FreePoly5,135.000000*%
%ADD19FreePoly6,135.000000*%
%ADD20FreePoly7,135.000000*%
%ADD21RoundRect,0.160000X0.160000X-0.197500X0.160000X0.197500X-0.160000X0.197500X-0.160000X-0.197500X0*%
%ADD22RoundRect,0.079500X-0.127279X-0.014849X-0.014849X-0.127279X0.127279X0.014849X0.014849X0.127279X0*%
%ADD23R,0.300000X0.700000*%
%ADD24R,1.700000X1.000000*%
%ADD25RoundRect,0.147500X-0.172500X0.147500X-0.172500X-0.147500X0.172500X-0.147500X0.172500X0.147500X0*%
%ADD26RoundRect,0.160000X0.245000X0.160000X-0.245000X0.160000X-0.245000X-0.160000X0.245000X-0.160000X0*%
%ADD27RoundRect,0.093750X0.093750X0.106250X-0.093750X0.106250X-0.093750X-0.106250X0.093750X-0.106250X0*%
%ADD28RoundRect,0.135000X0.185000X-0.135000X0.185000X0.135000X-0.185000X0.135000X-0.185000X-0.135000X0*%
%ADD29RoundRect,0.079500X0.079500X0.100500X-0.079500X0.100500X-0.079500X-0.100500X0.079500X-0.100500X0*%
%ADD30RoundRect,0.225000X0.250000X-0.225000X0.250000X0.225000X-0.250000X0.225000X-0.250000X-0.225000X0*%
%ADD31RoundRect,0.140000X0.140000X0.170000X-0.140000X0.170000X-0.140000X-0.170000X0.140000X-0.170000X0*%
%ADD32RoundRect,0.140000X-0.021213X0.219203X-0.219203X0.021213X0.021213X-0.219203X0.219203X-0.021213X0*%
%ADD33RoundRect,0.140000X-0.219203X-0.021213X-0.021213X-0.219203X0.219203X0.021213X0.021213X0.219203X0*%
%ADD34RoundRect,0.250000X0.925000X-0.412500X0.925000X0.412500X-0.925000X0.412500X-0.925000X-0.412500X0*%
%ADD35RoundRect,0.250000X-0.412500X-0.925000X0.412500X-0.925000X0.412500X0.925000X-0.412500X0.925000X0*%
G04 APERTURE END LIST*
D10*
%TO.C,C8*%
X79260589Y-92789411D03*
X79939411Y-92110589D03*
%TD*%
D11*
%TO.C,U2*%
X76535320Y-93946679D03*
D12*
X76846447Y-93550699D03*
X77200000Y-93197146D03*
X77553553Y-92843592D03*
X77907107Y-92490039D03*
X78260660Y-92136486D03*
D13*
X78656640Y-91825359D03*
D14*
X78656640Y-91121787D03*
D15*
X78260660Y-90810660D03*
X77907107Y-90457107D03*
X77553553Y-90103554D03*
X77200000Y-89750000D03*
X76846447Y-89396447D03*
D16*
X76535320Y-89000467D03*
D17*
X75831748Y-89000467D03*
D12*
X75520621Y-89396447D03*
X75167068Y-89750000D03*
X74813515Y-90103554D03*
X74459961Y-90457107D03*
X74106408Y-90810660D03*
D18*
X73710428Y-91121787D03*
D19*
X73710428Y-91825359D03*
D15*
X74106408Y-92136486D03*
X74459961Y-92490039D03*
X74813515Y-92843592D03*
X75167068Y-93197146D03*
X75520621Y-93550699D03*
D20*
X75831748Y-93946679D03*
%TD*%
D21*
%TO.C,R4*%
X78200000Y-97165000D03*
X78200000Y-95970000D03*
%TD*%
D22*
%TO.C,R5*%
X77607048Y-88808448D03*
X78094952Y-89296352D03*
%TD*%
D23*
%TO.C,U1*%
X77175000Y-95758000D03*
X76675000Y-95758000D03*
X76175000Y-95758000D03*
X75675000Y-95758000D03*
X75675000Y-97858000D03*
X76175000Y-97858000D03*
X76675000Y-97858000D03*
X77175000Y-97858000D03*
D24*
X76425000Y-96808000D03*
%TD*%
D25*
%TO.C,D1*%
X73050000Y-92665000D03*
X73050000Y-93635000D03*
%TD*%
D26*
%TO.C,U3*%
X78850000Y-86829800D03*
X78850000Y-86029800D03*
D27*
X79737500Y-87079800D03*
X79737500Y-86429800D03*
X79737500Y-85779800D03*
X77962500Y-85779800D03*
X77962500Y-86429800D03*
X77962500Y-87079800D03*
%TD*%
D28*
%TO.C,R2*%
X79990000Y-96857200D03*
X79990000Y-95942800D03*
%TD*%
D29*
%TO.C,D2*%
X78085000Y-88170000D03*
X77395000Y-88170000D03*
%TD*%
D30*
%TO.C,C2*%
X76750000Y-87225000D03*
X76750000Y-85675000D03*
%TD*%
D22*
%TO.C,R3*%
X73822448Y-93228048D03*
X74310352Y-93715952D03*
%TD*%
D31*
%TO.C,C3*%
X79855000Y-88163400D03*
X78895000Y-88163400D03*
%TD*%
D32*
%TO.C,C11*%
X78639411Y-93385589D03*
X77960589Y-94064411D03*
%TD*%
D10*
%TO.C,C6*%
X73990589Y-89239411D03*
X74669411Y-88560589D03*
%TD*%
D31*
%TO.C,C5*%
X79855000Y-89103200D03*
X78895000Y-89103200D03*
%TD*%
D28*
%TO.C,R1*%
X79150000Y-96912800D03*
X79150000Y-95892800D03*
%TD*%
D33*
%TO.C,C1*%
X79335589Y-90235589D03*
X80014411Y-90914411D03*
%TD*%
D34*
%TO.C,C4*%
X73880000Y-98012500D03*
X73880000Y-94937500D03*
%TD*%
D35*
%TO.C,C7*%
X74100000Y-83925000D03*
X77175000Y-83925000D03*
%TD*%
D32*
%TO.C,C12*%
X79414411Y-93985589D03*
X78735589Y-94664411D03*
%TD*%
M02*
