M48
; DRILL file {KiCad 7.0.8} date 2024 February 17, Saturday 11:30:53
; FORMAT={-:-/ absolute / metric / decimal}
; #@! TF.CreationDate,2024-02-17T11:30:53+00:00
; #@! TF.GenerationSoftware,Kicad,Pcbnew,7.0.8
; #@! TF.FileFunction,Plated,1,4,PTH
FMAT,2
METRIC
; #@! TA.AperFunction,Plated,PTH,ViaDrill
T1C0.200
; #@! TA.AperFunction,Plated,PTH,ComponentDrill
T2C0.635
%
G90
G05
T1
X72.9Y-92.475
X72.92Y-95.72
X72.92Y-96.39
X73.05Y-91.35
X73.3Y-90.2
X73.59Y-95.72
X73.59Y-96.39
X73.875Y-94.938
X74.26Y-96.39
X74.774Y-91.401
X74.85Y-96.474
X74.925Y-88.1
X75.172Y-91.914
X75.3Y-88.35
X75.381Y-96.818
X75.46Y-91.06
X75.475Y-85.0
X75.566Y-95.707
X75.863Y-92.691
X75.875Y-96.584
X75.896Y-94.01
X76.142Y-95.133
X76.175Y-88.25
X76.175Y-97.858
X76.324Y-96.973
X76.725Y-96.584
X76.873Y-94.997
X76.908Y-83.65
X76.963Y-92.385
X77.16Y-85.18
X77.32Y-96.82
X77.35Y-98.32
X77.352Y-97.695
X77.537Y-94.074
X77.84Y-97.16
X78.211Y-95.711
X78.549Y-94.37
X78.59Y-97.25
X78.6Y-83.575
X78.724Y-86.824
X78.724Y-87.4
X78.812Y-94.81
X78.835Y-88.747
X78.85Y-88.163
X78.9Y-84.975
X78.96Y-86.35
X79.025Y-91.3
X79.18Y-97.24
X79.264Y-92.936
X79.336Y-90.236
X79.6Y-84.925
X79.65Y-83.45
X79.847Y-91.603
X80.014Y-90.914
X80.066Y-96.86
X80.218Y-91.974
T2
X71.5Y-82.6
X71.5Y-84.2
X71.5Y-85.8
X73.3Y-100.2
X74.1Y-81.55
X74.9Y-100.2
X75.7Y-81.55
X76.5Y-100.2
X77.3Y-81.55
X78.1Y-100.2
X78.9Y-81.55
X79.7Y-100.2
X81.5Y-82.6
X81.5Y-84.2
X81.5Y-85.8
X81.5Y-87.4
T0
M30
